<?xml version="1.0"?>
<svg xmlns="http://www.w3.org/2000/svg"
xmlns:xlink="http://www.w3.org/1999/xlink" xmlns:cml="http://www.xml-cml.org/schema" width="694.053" height="300.007" x="0" y="0" font-family="sans-serif" stroke="rgb(255,255,255)" stroke-width="1"  stroke-linecap="round">
<rect x="0%" y="0%" width="100%" height="100%" stroke-width="0" fill="rgb(0,0,0)"  />
<line x1="167.3" y1="206.5" x2="143.9" y2="220.0" stroke="rgb(255,255,255)"  stroke-width="1.0"/>
<line x1="74.6" y1="220.0" x2="40.0" y2="200.0" stroke="rgb(255,255,255)"  stroke-width="1.0"/>
<line x1="143.9" y1="220.0" x2="120.5" y2="206.5" stroke="rgb(255,255,255)"  stroke-width="1.0"/>
<line x1="98.0" y1="206.5" x2="74.6" y2="220.0" stroke="rgb(255,255,255)"  stroke-width="1.0"/>
<line x1="146.9" y1="220.0" x2="146.9" y2="247.0" stroke="rgb(255,255,255)"  stroke-width="1.0"/>
<line x1="140.9" y1="220.0" x2="140.9" y2="247.0" stroke="rgb(255,255,255)"  stroke-width="1.0"/>
<line x1="259.1" y1="153.5" x2="282.5" y2="140.0" stroke="rgb(255,255,255)"  stroke-width="1.0"/>
<line x1="282.5" y1="100.0" x2="259.1" y2="86.5" stroke="rgb(255,255,255)"  stroke-width="1.0"/>
<line x1="383.4" y1="80.0" x2="383.4" y2="53.0" stroke="rgb(255,255,255)"  stroke-width="1.0"/>
<line x1="389.4" y1="80.0" x2="389.4" y2="53.0" stroke="rgb(255,255,255)"  stroke-width="1.0"/>
<line x1="386.4" y1="173.0" x2="386.4" y2="200.0" stroke="rgb(255,255,255)"  stroke-width="1.0"/>
<line x1="386.4" y1="200.0" x2="421.1" y2="220.0" stroke="rgb(255,255,255)"  stroke-width="1.0"/>
<line x1="421.1" y1="100.0" x2="455.7" y2="80.0" stroke="rgb(255,255,255)"  stroke-width="1.0"/>
<line x1="524.6" y1="87.3" x2="557.0" y2="110.8" stroke="rgb(255,255,255)"  stroke-width="1.0"/>
<line x1="621.7" y1="157.8" x2="643.5" y2="173.7" stroke="rgb(255,255,255)"  stroke-width="1.0"/>
<line x1="593.5" y1="94.5" x2="596.3" y2="67.6" stroke="rgb(255,255,255)"  stroke-width="1.0"/>
<line x1="455.7" y1="80.0" x2="477.6" y2="95.9" stroke="rgb(255,255,255)"  stroke-width="1.0"/>
<line x1="499.9" y1="98.2" x2="524.6" y2="87.3" stroke="rgb(255,255,255)"  stroke-width="1.0"/>
<line x1="452.7" y1="79.9" x2="454.1" y2="52.9" stroke="rgb(255,255,255)"  stroke-width="1.0"/>
<line x1="458.7" y1="80.2" x2="460.1" y2="53.2" stroke="rgb(255,255,255)"  stroke-width="1.0"/>
<line x1="213.2" y1="140.0" x2="178.6" y2="160.0" stroke="rgb(255,255,255)"  stroke-width="1.0"/>
<line x1="178.6" y1="160.0" x2="178.6" y2="187.0" stroke="rgb(255,255,255)"  stroke-width="1.0"/>
<line x1="189.8" y1="206.5" x2="213.2" y2="220.0" stroke="rgb(255,255,255)"  stroke-width="1.0"/>
<line x1="213.2" y1="220.0" x2="247.9" y2="200.0" stroke="rgb(255,255,255)"  stroke-width="1.0"/>
<line x1="247.9" y1="200.0" x2="247.9" y2="173.0" stroke="rgb(255,255,255)"  stroke-width="1.0"/>
<line x1="236.6" y1="153.5" x2="213.2" y2="140.0" stroke="rgb(255,255,255)"  stroke-width="1.0"/>
<line x1="282.5" y1="140.0" x2="317.1" y2="160.0" stroke="rgb(255,255,255)"  stroke-width="1.0"/>
<line x1="291.3" y1="136.8" x2="315.5" y2="150.8" stroke="rgb(255,255,255)"  stroke-width="1.0"/>
<line x1="317.1" y1="160.0" x2="351.8" y2="140.0" stroke="rgb(255,255,255)"  stroke-width="1.0"/>
<line x1="351.8" y1="140.0" x2="351.8" y2="100.0" stroke="rgb(255,255,255)"  stroke-width="1.0"/>
<line x1="344.6" y1="134.0" x2="344.6" y2="106.0" stroke="rgb(255,255,255)"  stroke-width="1.0"/>
<line x1="351.8" y1="100.0" x2="317.1" y2="80.0" stroke="rgb(255,255,255)"  stroke-width="1.0"/>
<line x1="317.1" y1="80.0" x2="282.5" y2="100.0" stroke="rgb(255,255,255)"  stroke-width="1.0"/>
<line x1="315.5" y1="89.2" x2="291.3" y2="103.2" stroke="rgb(255,255,255)"  stroke-width="1.0"/>
<line x1="282.5" y1="100.0" x2="282.5" y2="140.0" stroke="rgb(255,255,255)"  stroke-width="1.0"/>
<line x1="421.1" y1="100.0" x2="386.4" y2="80.0" stroke="rgb(255,255,255)"  stroke-width="1.0"/>
<line x1="386.4" y1="80.0" x2="351.8" y2="100.0" stroke="rgb(255,255,255)"  stroke-width="1.0"/>
<line x1="351.8" y1="140.0" x2="375.2" y2="153.5" stroke="rgb(255,255,255)"  stroke-width="1.0"/>
<line x1="397.7" y1="153.5" x2="421.1" y2="140.0" stroke="rgb(255,255,255)"  stroke-width="1.0"/>
<line x1="421.1" y1="140.0" x2="421.1" y2="100.0" stroke="rgb(255,255,255)"  stroke-width="1.0"/>
<line x1="413.9" y1="134.0" x2="413.9" y2="106.0" stroke="rgb(255,255,255)"  stroke-width="1.0"/>
<line x1="557.0" y1="110.8" x2="552.8" y2="150.5" stroke="rgb(255,255,255)"  stroke-width="1.0"/>
<line x1="563.5" y1="117.5" x2="560.6" y2="145.3" stroke="rgb(255,255,255)"  stroke-width="1.0"/>
<line x1="552.8" y1="150.5" x2="585.2" y2="174.1" stroke="rgb(255,255,255)"  stroke-width="1.0"/>
<line x1="585.2" y1="174.1" x2="621.7" y2="157.8" stroke="rgb(255,255,255)"  stroke-width="1.0"/>
<line x1="587.7" y1="165.0" x2="613.3" y2="153.6" stroke="rgb(255,255,255)"  stroke-width="1.0"/>
<line x1="621.7" y1="157.8" x2="625.9" y2="118.0" stroke="rgb(255,255,255)"  stroke-width="1.0"/>
<line x1="625.9" y1="118.0" x2="593.5" y2="94.5" stroke="rgb(255,255,255)"  stroke-width="1.0"/>
<line x1="616.8" y1="120.3" x2="594.1" y2="103.8" stroke="rgb(255,255,255)"  stroke-width="1.0"/>
<line x1="593.5" y1="94.5" x2="557.0" y2="110.8" stroke="rgb(255,255,255)"  stroke-width="1.0"/>
<text x="172.566312" y="208.001690" fill="rgb(12,12,255)"  stroke="rgb(12,12,255)" stroke-width="1" font-size="16" >N</text>
<text x="241.856741" y="167.996419" fill="rgb(12,12,255)"  stroke="rgb(12,12,255)" stroke-width="1" font-size="16" >N</text>
<text x="103.280732" y="208.006538" fill="rgb(255,12,12)"  stroke="rgb(255,12,12)" stroke-width="1" font-size="16" >O</text>
<text x="137.933219" y="268.007172" fill="rgb(255,12,12)"  stroke="rgb(255,12,12)" stroke-width="1" font-size="16" >O</text>
<text x="241.856741" y="88.000422" fill="rgb(127,178,255)"  stroke="rgb(127,178,255)" stroke-width="1" font-size="16" >F</text>
<text x="380.418204" y="168.001267" fill="rgb(12,12,255)"  stroke="rgb(12,12,255)" stroke-width="1" font-size="16" >N</text>
<text x="380.418204" y="48.000000" fill="rgb(255,12,12)"  stroke="rgb(255,12,12)" stroke-width="1" font-size="16" >O</text>
<text x="482.067763" y="111.520671" fill="rgb(12,12,255)"  stroke="rgb(12,12,255)" stroke-width="1" font-size="16" >N</text>
<text x="482.067763" y="127.520671" fill="rgb(12,12,255)"  stroke="rgb(12,12,255)" stroke-width="1" font-size="16" >H</text>
<text x="591.698012" y="62.710458" fill="rgb(30,239,30)"  stroke="rgb(30,239,30)" stroke-width="1" font-size="16" >Cl</text>
<text x="648.052546" y="189.296038" fill="rgb(30,239,30)"  stroke="rgb(30,239,30)" stroke-width="1" font-size="16" >Cl</text>
<text x="451.798352" y="48.063031" fill="rgb(255,12,12)"  stroke="rgb(255,12,12)" stroke-width="1" font-size="16" >O</text>
<text font-size="18.000000" fill ="white" font-family="sans-serif"
x="10.000000" y="20.000000" ></text>
<title> - OBDepict</title>
<cml:molecule>
 <cml:atomArray>
  <cml:atom id="a1" elementType="C" x2="-2.901700" y2="0.133000"/>
  <cml:atom id="a2" elementType="C" x2="-3.616200" y2="-0.279400"/>
  <cml:atom id="a3" elementType="N" x2="-3.616200" y2="-1.104500"/>
  <cml:atom id="a4" elementType="C" x2="-2.901700" y2="-1.516900"/>
  <cml:atom id="a5" elementType="C" x2="-2.187100" y2="-1.104500"/>
  <cml:atom id="a6" elementType="N" x2="-2.187100" y2="-0.279400"/>
  <cml:atom id="a7" elementType="C" x2="-4.330700" y2="-1.517000"/>
  <cml:atom id="a8" elementType="O" x2="-5.045200" y2="-1.104600"/>
  <cml:atom id="a9" elementType="C" x2="-5.759600" y2="-1.517000"/>
  <cml:atom id="a10" elementType="C" x2="-6.474100" y2="-1.104700"/>
  <cml:atom id="a11" elementType="O" x2="-4.330500" y2="-2.342100"/>
  <cml:atom id="a12" elementType="C" x2="-1.472800" y2="0.133000"/>
  <cml:atom id="a13" elementType="C" x2="-0.758300" y2="-0.279400"/>
  <cml:atom id="a14" elementType="C" x2="-0.043800" y2="0.133100"/>
  <cml:atom id="a15" elementType="C" x2="-0.043700" y2="0.958000"/>
  <cml:atom id="a16" elementType="C" x2="-0.758200" y2="1.370500"/>
  <cml:atom id="a17" elementType="C" x2="-1.472800" y2="0.958000"/>
  <cml:atom id="a18" elementType="F" x2="-2.187100" y2="1.370500"/>
  <cml:atom id="a19" elementType="N" x2="0.670700" y2="-0.279500"/>
  <cml:atom id="a20" elementType="C" x2="1.385100" y2="0.133000"/>
  <cml:atom id="a21" elementType="C" x2="1.385200" y2="0.957900"/>
  <cml:atom id="a22" elementType="C" x2="0.670700" y2="1.370500"/>
  <cml:atom id="a23" elementType="O" x2="0.670700" y2="2.195500"/>
  <cml:atom id="a24" elementType="C" x2="0.670600" y2="-1.104500"/>
  <cml:atom id="a25" elementType="C" x2="1.385100" y2="-1.516900"/>
  <cml:atom id="a26" elementType="C" x2="2.099800" y2="1.370300"/>
  <cml:atom id="a27" elementType="N" x2="2.767200" y2="0.885400"/>
  <cml:atom id="a28" elementType="C" x2="3.520900" y2="1.220900"/>
  <cml:atom id="a29" elementType="C" x2="4.188300" y2="0.736100"/>
  <cml:atom id="a30" elementType="C" x2="4.102100" y2="-0.084300"/>
  <cml:atom id="a31" elementType="C" x2="4.769500" y2="-0.569300"/>
  <cml:atom id="a32" elementType="C" x2="5.523200" y2="-0.233800"/>
  <cml:atom id="a33" elementType="C" x2="5.609500" y2="0.586600"/>
  <cml:atom id="a34" elementType="C" x2="4.942000" y2="1.071600"/>
  <cml:atom id="a35" elementType="Cl" x2="5.028300" y2="1.892100"/>
  <cml:atom id="a36" elementType="Cl" x2="6.190600" y2="-0.718700"/>
  <cml:atom id="a37" elementType="O" x2="2.142900" y2="2.194200"/>
 </cml:atomArray>
 <cml:bondArray>
  <cml:bond atomRefs2="a1 a2" order="1"/>
  <cml:bond atomRefs2="a4 a5" order="1"/>
  <cml:bond atomRefs2="a2 a3" order="1"/>
  <cml:bond atomRefs2="a3 a4" order="1"/>
  <cml:bond atomRefs2="a1 a6" order="1"/>
  <cml:bond atomRefs2="a5 a6" order="1"/>
  <cml:bond atomRefs2="a3 a7" order="1"/>
  <cml:bond atomRefs2="a9 a10" order="1"/>
  <cml:bond atomRefs2="a7 a8" order="1"/>
  <cml:bond atomRefs2="a8 a9" order="1"/>
  <cml:bond atomRefs2="a7 a11" order="2"/>
  <cml:bond atomRefs2="a12 a13" order="2"/>
  <cml:bond atomRefs2="a13 a14" order="1"/>
  <cml:bond atomRefs2="a14 a15" order="2"/>
  <cml:bond atomRefs2="a15 a16" order="1"/>
  <cml:bond atomRefs2="a16 a17" order="2"/>
  <cml:bond atomRefs2="a17 a12" order="1"/>
  <cml:bond atomRefs2="a6 a12" order="1"/>
  <cml:bond atomRefs2="a17 a18" order="1"/>
  <cml:bond atomRefs2="a21 a22" order="1"/>
  <cml:bond atomRefs2="a15 a22" order="1"/>
  <cml:bond atomRefs2="a19 a20" order="1"/>
  <cml:bond atomRefs2="a14 a19" order="1"/>
  <cml:bond atomRefs2="a22 a23" order="2"/>
  <cml:bond atomRefs2="a21 a20" order="2"/>
  <cml:bond atomRefs2="a19 a24" order="1"/>
  <cml:bond atomRefs2="a24 a25" order="1"/>
  <cml:bond atomRefs2="a21 a26" order="1"/>
  <cml:bond atomRefs2="a28 a29" order="1"/>
  <cml:bond atomRefs2="a30 a31" order="1"/>
  <cml:bond atomRefs2="a31 a32" order="2"/>
  <cml:bond atomRefs2="a32 a33" order="1"/>
  <cml:bond atomRefs2="a33 a34" order="2"/>
  <cml:bond atomRefs2="a29 a30" order="2"/>
  <cml:bond atomRefs2="a34 a29" order="1"/>
  <cml:bond atomRefs2="a32 a36" order="1"/>
  <cml:bond atomRefs2="a34 a35" order="1"/>
  <cml:bond atomRefs2="a26 a27" order="1"/>
  <cml:bond atomRefs2="a27 a28" order="1"/>
  <cml:bond atomRefs2="a26 a37" order="2"/>
 </cml:bondArray>
</cml:molecule>
</svg>
