<?xml version="1.0"?>
<svg xmlns="http://www.w3.org/2000/svg"
xmlns:xlink="http://www.w3.org/1999/xlink" xmlns:cml="http://www.xml-cml.org/schema" width="569.532" height="384.302" x="0" y="0" font-family="sans-serif" stroke="rgb(255,255,255)" stroke-width="1"  stroke-linecap="round">
<rect x="0%" y="0%" width="100%" height="100%" stroke-width="0" fill="rgb(0,0,0)"  />
<line x1="262.4" y1="90.0" x2="297.7" y2="108.0" stroke="rgb(255,255,255)"  stroke-width="1.0"/>
<line x1="295.7" y1="113.0" x2="294.3" y2="112.2" stroke="rgb(255,255,255)"  stroke-width="1.0"/>
<line x1="294.2" y1="117.0" x2="291.7" y2="115.6" stroke="rgb(255,255,255)"  stroke-width="1.0"/>
<line x1="292.6" y1="121.0" x2="289.0" y2="118.9" stroke="rgb(255,255,255)"  stroke-width="1.0"/>
<line x1="291.0" y1="125.0" x2="286.3" y2="122.3" stroke="rgb(255,255,255)"  stroke-width="1.0"/>
<line x1="289.4" y1="129.0" x2="283.6" y2="125.6" stroke="rgb(255,255,255)"  stroke-width="1.0"/>
<line x1="287.9" y1="133.0" x2="280.9" y2="129.0" stroke="rgb(255,255,255)"  stroke-width="1.0"/>
<line x1="264.1" y1="82.2" x2="265.6" y2="82.7" stroke="rgb(255,255,255)"  stroke-width="1.0"/>
<line x1="265.4" y1="76.0" x2="268.2" y2="76.9" stroke="rgb(255,255,255)"  stroke-width="1.0"/>
<line x1="266.8" y1="69.8" x2="270.7" y2="71.0" stroke="rgb(255,255,255)"  stroke-width="1.0"/>
<line x1="268.1" y1="63.5" x2="273.3" y2="65.2" stroke="rgb(255,255,255)"  stroke-width="1.0"/>
<line x1="269.5" y1="57.3" x2="275.9" y2="59.4" stroke="rgb(255,255,255)"  stroke-width="1.0"/>
<line x1="270.8" y1="51.1" x2="278.4" y2="53.5" stroke="rgb(255,255,255)"  stroke-width="1.0"/>
<line x1="366.4" y1="111.1" x2="365.0" y2="111.9" stroke="rgb(255,255,255)"  stroke-width="1.0"/>
<line x1="370.1" y1="116.3" x2="367.6" y2="117.7" stroke="rgb(255,255,255)"  stroke-width="1.0"/>
<line x1="373.8" y1="121.4" x2="370.2" y2="123.5" stroke="rgb(255,255,255)"  stroke-width="1.0"/>
<line x1="377.6" y1="126.6" x2="372.8" y2="129.3" stroke="rgb(255,255,255)"  stroke-width="1.0"/>
<line x1="381.3" y1="131.8" x2="375.5" y2="135.1" stroke="rgb(255,255,255)"  stroke-width="1.0"/>
<line x1="385.0" y1="137.0" x2="378.1" y2="141.0" stroke="rgb(255,255,255)"  stroke-width="1.0"/>
<line x1="414.2" y1="74.2" x2="415.8" y2="74.3" stroke="rgb(255,255,255)"  stroke-width="1.0"/>
<line x1="413.8" y1="70.0" x2="416.7" y2="70.1" stroke="rgb(255,255,255)"  stroke-width="1.0"/>
<line x1="413.4" y1="65.7" x2="417.6" y2="65.9" stroke="rgb(255,255,255)"  stroke-width="1.0"/>
<line x1="413.0" y1="61.4" x2="418.4" y2="61.7" stroke="rgb(255,255,255)"  stroke-width="1.0"/>
<line x1="412.6" y1="57.1" x2="419.3" y2="57.5" stroke="rgb(255,255,255)"  stroke-width="1.0"/>
<line x1="412.2" y1="52.9" x2="420.1" y2="53.3" stroke="rgb(255,255,255)"  stroke-width="1.0"/>
<line x1="361.7" y1="104.6" x2="414.8" y2="79.6" stroke="rgb(255,255,255)"  stroke-width="1.0"/>
<line x1="414.8" y1="79.6" x2="448.0" y2="101.2" stroke="rgb(255,255,255)"  stroke-width="1.0"/>
<line x1="193.2" y1="96.2" x2="192.1" y2="95.0" stroke="rgb(255,255,255)"  stroke-width="1.0"/>
<line x1="189.2" y1="101.1" x2="187.1" y2="99.1" stroke="rgb(255,255,255)"  stroke-width="1.0"/>
<line x1="185.1" y1="106.0" x2="182.2" y2="103.1" stroke="rgb(255,255,255)"  stroke-width="1.0"/>
<line x1="181.1" y1="111.0" x2="177.3" y2="107.1" stroke="rgb(255,255,255)"  stroke-width="1.0"/>
<line x1="177.1" y1="115.9" x2="172.3" y2="111.2" stroke="rgb(255,255,255)"  stroke-width="1.0"/>
<line x1="173.0" y1="120.9" x2="167.4" y2="115.2" stroke="rgb(255,255,255)"  stroke-width="1.0"/>
<polygon points="145.274143 87.220351 173.326143 115.507612 167.108816 120.541979 " stroke-width="1.000000" fill="rgb(255,255,255)"  stroke="rgb(255,255,255)" />
<line x1="145.3" y1="87.2" x2="113.2" y2="110.5" stroke="rgb(255,255,255)"  stroke-width="1.0"/>
<line x1="113.2" y1="110.5" x2="113.2" y2="150.2" stroke="rgb(255,255,255)"  stroke-width="1.0"/>
<line x1="113.2" y1="150.2" x2="77.0" y2="166.3" stroke="rgb(255,255,255)"  stroke-width="1.0"/>
<line x1="145.3" y1="87.2" x2="148.1" y2="60.7" stroke="rgb(255,255,255)"  stroke-width="1.0"/>
<polygon points="113.211001 110.520656 79.893939 88.685790 84.928780 82.468848 " stroke-width="1.000000" fill="rgb(255,255,255)"  stroke="rgb(255,255,255)" />
<polygon points="77.001846 166.273242 38.566748 155.806473 41.433252 148.337660 " stroke-width="1.000000" fill="rgb(255,255,255)"  stroke="rgb(255,255,255)" />
<line x1="117.4" y1="153.6" x2="116.2" y2="154.6" stroke="rgb(255,255,255)"  stroke-width="1.0"/>
<line x1="120.7" y1="156.3" x2="118.5" y2="158.2" stroke="rgb(255,255,255)"  stroke-width="1.0"/>
<line x1="124.0" y1="159.0" x2="120.9" y2="161.8" stroke="rgb(255,255,255)"  stroke-width="1.0"/>
<line x1="127.3" y1="161.8" x2="123.3" y2="165.4" stroke="rgb(255,255,255)"  stroke-width="1.0"/>
<line x1="130.6" y1="164.5" x2="125.6" y2="169.0" stroke="rgb(255,255,255)"  stroke-width="1.0"/>
<line x1="134.0" y1="167.2" x2="128.0" y2="172.6" stroke="rgb(255,255,255)"  stroke-width="1.0"/>
<line x1="77.0" y1="166.3" x2="79.1" y2="205.9" stroke="rgb(255,255,255)"  stroke-width="1.0"/>
<line x1="80.6" y1="208.5" x2="46.3" y2="228.3" stroke="rgb(255,255,255)"  stroke-width="1.0"/>
<line x1="77.6" y1="203.3" x2="43.3" y2="223.1" stroke="rgb(255,255,255)"  stroke-width="1.0"/>
<line x1="44.8" y1="225.7" x2="40.6" y2="265.1" stroke="rgb(255,255,255)"  stroke-width="1.0"/>
<line x1="65.8" y1="284.4" x2="66.7" y2="283.1" stroke="rgb(255,255,255)"  stroke-width="1.0"/>
<line x1="60.3" y1="281.2" x2="62.0" y2="278.8" stroke="rgb(255,255,255)"  stroke-width="1.0"/>
<line x1="54.8" y1="278.0" x2="57.2" y2="274.6" stroke="rgb(255,255,255)"  stroke-width="1.0"/>
<line x1="49.3" y1="274.7" x2="52.5" y2="270.3" stroke="rgb(255,255,255)"  stroke-width="1.0"/>
<line x1="43.8" y1="271.5" x2="47.7" y2="266.1" stroke="rgb(255,255,255)"  stroke-width="1.0"/>
<line x1="38.3" y1="268.3" x2="43.0" y2="261.9" stroke="rgb(255,255,255)"  stroke-width="1.0"/>
<line x1="72.7" y1="288.4" x2="107.0" y2="268.6" stroke="rgb(255,255,255)"  stroke-width="1.0"/>
<line x1="72.7" y1="288.4" x2="72.7" y2="328.0" stroke="rgb(255,255,255)"  stroke-width="1.0"/>
<line x1="133.2" y1="286.5" x2="134.0" y2="285.2" stroke="rgb(255,255,255)"  stroke-width="1.0"/>
<line x1="127.5" y1="283.6" x2="129.1" y2="281.2" stroke="rgb(255,255,255)"  stroke-width="1.0"/>
<line x1="121.8" y1="280.7" x2="124.1" y2="277.2" stroke="rgb(255,255,255)"  stroke-width="1.0"/>
<line x1="116.2" y1="277.8" x2="119.1" y2="273.2" stroke="rgb(255,255,255)"  stroke-width="1.0"/>
<line x1="110.5" y1="274.8" x2="114.1" y2="269.2" stroke="rgb(255,255,255)"  stroke-width="1.0"/>
<line x1="104.8" y1="271.9" x2="109.2" y2="265.2" stroke="rgb(255,255,255)"  stroke-width="1.0"/>
<line x1="140.2" y1="290.2" x2="174.6" y2="270.3" stroke="rgb(255,255,255)"  stroke-width="1.0"/>
<line x1="174.6" y1="270.3" x2="174.6" y2="243.7" stroke="rgb(255,255,255)"  stroke-width="1.0"/>
<line x1="176.2" y1="267.8" x2="209.4" y2="289.4" stroke="rgb(255,255,255)"  stroke-width="1.0"/>
<line x1="172.9" y1="272.9" x2="206.2" y2="294.4" stroke="rgb(255,255,255)"  stroke-width="1.0"/>
<line x1="207.8" y1="291.9" x2="244.8" y2="277.7" stroke="rgb(255,255,255)"  stroke-width="1.0"/>
<line x1="241.8" y1="277.7" x2="241.8" y2="251.1" stroke="rgb(255,255,255)"  stroke-width="1.0"/>
<line x1="247.8" y1="277.7" x2="247.8" y2="251.1" stroke="rgb(255,255,255)"  stroke-width="1.0"/>
<line x1="271.0" y1="295.7" x2="271.8" y2="294.3" stroke="rgb(255,255,255)"  stroke-width="1.0"/>
<line x1="265.3" y1="292.7" x2="266.9" y2="290.3" stroke="rgb(255,255,255)"  stroke-width="1.0"/>
<line x1="259.6" y1="289.8" x2="261.9" y2="286.3" stroke="rgb(255,255,255)"  stroke-width="1.0"/>
<line x1="254.0" y1="286.9" x2="256.9" y2="282.3" stroke="rgb(255,255,255)"  stroke-width="1.0"/>
<line x1="248.3" y1="284.0" x2="252.0" y2="278.4" stroke="rgb(255,255,255)"  stroke-width="1.0"/>
<line x1="242.6" y1="281.1" x2="247.0" y2="274.4" stroke="rgb(255,255,255)"  stroke-width="1.0"/>
<line x1="140.2" y1="290.2" x2="142.3" y2="329.7" stroke="rgb(255,255,255)"  stroke-width="1.0"/>
<line x1="278.0" y1="299.3" x2="273.9" y2="338.7" stroke="rgb(255,255,255)"  stroke-width="1.0"/>
<line x1="278.0" y1="299.3" x2="313.4" y2="281.3" stroke="rgb(255,255,255)"  stroke-width="1.0"/>
<line x1="339.5" y1="299.3" x2="340.4" y2="297.9" stroke="rgb(255,255,255)"  stroke-width="1.0"/>
<line x1="333.9" y1="296.3" x2="335.4" y2="293.9" stroke="rgb(255,255,255)"  stroke-width="1.0"/>
<line x1="328.2" y1="293.4" x2="330.5" y2="289.9" stroke="rgb(255,255,255)"  stroke-width="1.0"/>
<line x1="322.5" y1="290.5" x2="325.5" y2="285.9" stroke="rgb(255,255,255)"  stroke-width="1.0"/>
<line x1="316.9" y1="287.6" x2="320.5" y2="281.9" stroke="rgb(255,255,255)"  stroke-width="1.0"/>
<line x1="311.2" y1="284.7" x2="315.5" y2="278.0" stroke="rgb(255,255,255)"  stroke-width="1.0"/>
<line x1="346.6" y1="302.9" x2="380.9" y2="283.1" stroke="rgb(255,255,255)"  stroke-width="1.0"/>
<line x1="346.6" y1="302.9" x2="348.7" y2="342.5" stroke="rgb(255,255,255)"  stroke-width="1.0"/>
<polygon points="414.169275 304.667448 378.746054 286.437119 383.102552 279.727356 " stroke-width="1.000000" fill="rgb(255,255,255)"  stroke="rgb(255,255,255)" />
<line x1="414.2" y1="304.7" x2="447.4" y2="283.1" stroke="rgb(255,255,255)"  stroke-width="1.0"/>
<line x1="414.2" y1="304.7" x2="414.2" y2="344.3" stroke="rgb(255,255,255)"  stroke-width="1.0"/>
<line x1="447.4" y1="283.1" x2="475.4" y2="311.1" stroke="rgb(255,255,255)"  stroke-width="1.0"/>
<line x1="475.4" y1="311.1" x2="506.2" y2="286.2" stroke="rgb(255,255,255)"  stroke-width="1.0"/>
<line x1="503.2" y1="286.0" x2="504.6" y2="259.4" stroke="rgb(255,255,255)"  stroke-width="1.0"/>
<line x1="509.2" y1="286.3" x2="510.6" y2="259.7" stroke="rgb(255,255,255)"  stroke-width="1.0"/>
<line x1="506.2" y1="286.2" x2="521.9" y2="307.7" stroke="rgb(255,255,255)"  stroke-width="1.0"/>
<line x1="262.4" y1="90.0" x2="250.1" y2="52.3" stroke="rgb(255,255,255)"  stroke-width="1.0"/>
<line x1="250.1" y1="52.3" x2="210.5" y2="52.3" stroke="rgb(255,255,255)"  stroke-width="1.0"/>
<line x1="210.5" y1="52.3" x2="198.2" y2="90.0" stroke="rgb(255,255,255)"  stroke-width="1.0"/>
<line x1="198.2" y1="90.0" x2="219.8" y2="105.7" stroke="rgb(255,255,255)"  stroke-width="1.0"/>
<line x1="240.8" y1="105.7" x2="262.4" y2="90.0" stroke="rgb(255,255,255)"  stroke-width="1.0"/>
<line x1="297.7" y1="108.0" x2="320.0" y2="122.5" stroke="rgb(255,255,255)"  stroke-width="1.0"/>
<line x1="341.0" y1="121.4" x2="361.7" y2="104.6" stroke="rgb(255,255,255)"  stroke-width="1.0"/>
<line x1="361.7" y1="104.6" x2="347.5" y2="67.6" stroke="rgb(255,255,255)"  stroke-width="1.0"/>
<line x1="347.5" y1="67.6" x2="307.9" y2="69.7" stroke="rgb(255,255,255)"  stroke-width="1.0"/>
<line x1="307.9" y1="69.7" x2="297.7" y2="108.0" stroke="rgb(255,255,255)"  stroke-width="1.0"/>
<text x="224.308247" y="121.292672" fill="rgb(255,12,12)"  stroke="rgb(255,12,12)" stroke-width="1" font-size="16" >O</text>
<text x="324.927132" y="137.578865" fill="rgb(255,12,12)"  stroke="rgb(255,12,12)" stroke-width="1" font-size="16" >O</text>
<text x="271.869695" y="150.314764" fill="rgb(191,191,191)"  stroke="rgb(191,191,191)" stroke-width="1" font-size="16" >H</text>
<text x="410.830794" y="48.000000" fill="rgb(255,12,12)"  stroke="rgb(255,12,12)" stroke-width="1" font-size="16" >OH</text>
<text x="143.420156" y="55.806803" fill="rgb(255,12,12)"  stroke="rgb(255,12,12)" stroke-width="1" font-size="16" >OH</text>
<text x="133.730111" y="187.609665" fill="rgb(255,12,12)"  stroke="rgb(255,12,12)" stroke-width="1" font-size="16" >OH</text>
<text x="168.565269" y="238.702190" fill="rgb(255,12,12)"  stroke="rgb(255,12,12)" stroke-width="1" font-size="16" >OH</text>
<text x="238.807282" y="246.086225" fill="rgb(255,12,12)"  stroke="rgb(255,12,12)" stroke-width="1" font-size="16" >O</text>
<text x="502.307313" y="254.584831" fill="rgb(255,12,12)"  stroke="rgb(255,12,12)" stroke-width="1" font-size="16" >O</text>
<text x="523.532209" y="326.229667" fill="rgb(255,12,12)"  stroke="rgb(255,12,12)" stroke-width="1" font-size="16" >OH</text>
<text font-size="18.000000" fill ="white" font-family="sans-serif"
x="10.000000" y="20.000000" ></text>
<title> - OBDepict</title>
<cml:molecule>
 <cml:atomArray>
  <cml:atom id="a1" elementType="C" x2="-0.671900" y2="3.376900">
   <cml:atomParity atomRefs4="a12 a2 a5 a6">1</cml:atomParity>
  </cml:atom>
  <cml:atom id="a2" elementType="C" x2="-0.926800" y2="4.161500"/>
  <cml:atom id="a3" elementType="C" x2="-1.751800" y2="4.161500"/>
  <cml:atom id="a4" elementType="C" x2="-2.006700" y2="3.376900">
   <cml:atomParity atomRefs4="a4 a17 a3 a5">1</cml:atomParity>
  </cml:atom>
  <cml:atom id="a5" elementType="O" x2="-1.339300" y2="2.892000"/>
  <cml:atom id="a6" elementType="C" x2="0.063200" y2="3.002300">
   <cml:atomParity atomRefs4="a11 a8 a7 a1">1</cml:atomParity>
  </cml:atom>
  <cml:atom id="a7" elementType="C" x2="0.276700" y2="3.799200"/>
  <cml:atom id="a8" elementType="O" x2="0.755100" y2="2.553000"/>
  <cml:atom id="a9" elementType="C" x2="1.396200" y2="3.072200">
   <cml:atomParity atomRefs4="a13 a14 a10 a8">1</cml:atomParity>
  </cml:atom>
  <cml:atom id="a10" elementType="C" x2="1.100600" y2="3.842400"/>
  <cml:atom id="a11" elementType="H" x2="-0.349300" y2="2.287900"/>
  <cml:atom id="a12" elementType="C" x2="-0.416900" y2="4.161500"/>
  <cml:atom id="a13" elementType="C" x2="1.808700" y2="2.357800"/>
  <cml:atom id="a14" elementType="C" x2="2.500000" y2="3.593800">
   <cml:atomParity atomRefs4="a14 a15 a16 a9">1</cml:atomParity>
  </cml:atom>
  <cml:atom id="a15" elementType="O" x2="2.543200" y2="4.417600"/>
  <cml:atom id="a16" elementType="C" x2="3.191900" y2="3.144400"/>
  <cml:atom id="a17" elementType="C" x2="-2.590100" y2="2.793500"/>
  <cml:atom id="a18" elementType="C" x2="-3.109300" y2="3.434700">
   <cml:atomParity atomRefs4="a18 a22 a19 a17">1</cml:atomParity>
  </cml:atom>
  <cml:atom id="a19" elementType="C" x2="-3.776700" y2="2.949700">
   <cml:atomParity atomRefs4="a19 a23 a20 a18">1</cml:atomParity>
  </cml:atom>
  <cml:atom id="a20" elementType="C" x2="-3.776700" y2="2.124700">
   <cml:atomParity atomRefs4="a20 a25 a21 a19">1</cml:atomParity>
  </cml:atom>
  <cml:atom id="a21" elementType="C" x2="-4.530400" y2="1.789200">
   <cml:atomParity atomRefs4="a21 a24 a26 a20">1</cml:atomParity>
  </cml:atom>
  <cml:atom id="a22" elementType="O" x2="-3.023000" y2="4.255100"/>
  <cml:atom id="a23" elementType="C" x2="-4.417800" y2="3.468900"/>
  <cml:atom id="a24" elementType="C" x2="-5.300600" y2="2.084800"/>
  <cml:atom id="a25" elementType="O" x2="-3.224700" y2="1.511600"/>
  <cml:atom id="a26" elementType="C" x2="-4.487200" y2="0.965300"/>
  <cml:atom id="a27" elementType="C" x2="-5.201700" y2="0.552800"/>
  <cml:atom id="a28" elementType="C" x2="-5.287900" y2="-0.267700"/>
  <cml:atom id="a29" elementType="C" x2="-4.620500" y2="-0.752600">
   <cml:atomParity atomRefs4="a29 a31 a28 a30">1</cml:atomParity>
  </cml:atom>
  <cml:atom id="a30" elementType="C" x2="-3.906000" y2="-0.340100"/>
  <cml:atom id="a31" elementType="C" x2="-4.620500" y2="-1.577600"/>
  <cml:atom id="a32" elementType="C" x2="-3.214100" y2="-0.789400">
   <cml:atomParity atomRefs4="a32 a39 a30 a33">1</cml:atomParity>
  </cml:atom>
  <cml:atom id="a33" elementType="C" x2="-2.499600" y2="-0.376900"/>
  <cml:atom id="a34" elementType="O" x2="-2.499600" y2="0.448100"/>
  <cml:atom id="a35" elementType="C" x2="-1.807700" y2="-0.826200"/>
  <cml:atom id="a36" elementType="C" x2="-1.037500" y2="-0.530600"/>
  <cml:atom id="a37" elementType="O" x2="-1.037500" y2="0.294400"/>
  <cml:atom id="a38" elementType="C" x2="-0.345600" y2="-0.979900">
   <cml:atomParity atomRefs4="a38 a40 a36 a41">1</cml:atomParity>
  </cml:atom>
  <cml:atom id="a39" elementType="C" x2="-3.170900" y2="-1.613300"/>
  <cml:atom id="a40" elementType="C" x2="-0.431800" y2="-1.800400"/>
  <cml:atom id="a41" elementType="C" x2="0.389500" y2="-0.605400"/>
  <cml:atom id="a42" elementType="C" x2="1.081400" y2="-1.054700">
   <cml:atomParity atomRefs4="a42 a44 a41 a43">1</cml:atomParity>
  </cml:atom>
  <cml:atom id="a43" elementType="C" x2="1.795800" y2="-0.642200"/>
  <cml:atom id="a44" elementType="C" x2="1.124600" y2="-1.878600"/>
  <cml:atom id="a45" elementType="C" x2="2.487800" y2="-1.091500">
   <cml:atomParity atomRefs4="a45 a47 a46 a43">1</cml:atomParity>
  </cml:atom>
  <cml:atom id="a46" elementType="C" x2="3.179700" y2="-0.642200"/>
  <cml:atom id="a47" elementType="C" x2="2.487800" y2="-1.916500"/>
  <cml:atom id="a48" elementType="C" x2="3.763000" y2="-1.225600"/>
  <cml:atom id="a49" elementType="C" x2="4.404200" y2="-0.706400"/>
  <cml:atom id="a50" elementType="O" x2="4.447300" y2="0.117500"/>
  <cml:atom id="a51" elementType="O" x2="4.889100" y2="-1.373800"/>
 </cml:atomArray>
 <cml:bondArray>
  <cml:bond atomRefs2="a1 a2" order="1"/>
  <cml:bond atomRefs2="a2 a3" order="1"/>
  <cml:bond atomRefs2="a3 a4" order="1"/>
  <cml:bond atomRefs2="a4 a5" order="1"/>
  <cml:bond atomRefs2="a1 a5" order="1"/>
  <cml:bond atomRefs2="a1 a6" order="1"/>
  <cml:bond atomRefs2="a8 a9" order="1"/>
  <cml:bond atomRefs2="a9 a10" order="1"/>
  <cml:bond atomRefs2="a7 a10" order="1"/>
  <cml:bond atomRefs2="a7 a6" order="1"/>
  <cml:bond atomRefs2="a6 a8" order="1"/>
  <cml:bond atomRefs2="a6 a11" order="1"/>
  <cml:bond atomRefs2="a1 a12" order="1"/>
  <cml:bond atomRefs2="a9 a13" order="1"/>
  <cml:bond atomRefs2="a14 a15" order="1"/>
  <cml:bond atomRefs2="a9 a14" order="1"/>
  <cml:bond atomRefs2="a14 a16" order="1"/>
  <cml:bond atomRefs2="a4 a17" order="1"/>
  <cml:bond atomRefs2="a17 a18" order="1"/>
  <cml:bond atomRefs2="a18 a19" order="1"/>
  <cml:bond atomRefs2="a19 a20" order="1"/>
  <cml:bond atomRefs2="a20 a21" order="1"/>
  <cml:bond atomRefs2="a18 a22" order="1"/>
  <cml:bond atomRefs2="a19 a23" order="1"/>
  <cml:bond atomRefs2="a21 a24" order="1"/>
  <cml:bond atomRefs2="a20 a25" order="1"/>
  <cml:bond atomRefs2="a21 a26" order="1"/>
  <cml:bond atomRefs2="a26 a27" order="2">
   <cml:bondStereo atomRefs4="a21 a26 a27 a28">T</cml:bondStereo>
  </cml:bond>
  <cml:bond atomRefs2="a27 a28" order="1"/>
  <cml:bond atomRefs2="a28 a29" order="1"/>
  <cml:bond atomRefs2="a29 a30" order="1"/>
  <cml:bond atomRefs2="a29 a31" order="1"/>
  <cml:bond atomRefs2="a30 a32" order="1"/>
  <cml:bond atomRefs2="a32 a33" order="1"/>
  <cml:bond atomRefs2="a33 a34" order="1"/>
  <cml:bond atomRefs2="a33 a35" order="2">
   <cml:bondStereo atomRefs4="a32 a33 a35 a36">T</cml:bondStereo>
  </cml:bond>
  <cml:bond atomRefs2="a35 a36" order="1"/>
  <cml:bond atomRefs2="a36 a37" order="2"/>
  <cml:bond atomRefs2="a36 a38" order="1"/>
  <cml:bond atomRefs2="a32 a39" order="1"/>
  <cml:bond atomRefs2="a38 a40" order="1"/>
  <cml:bond atomRefs2="a38 a41" order="1"/>
  <cml:bond atomRefs2="a41 a42" order="1"/>
  <cml:bond atomRefs2="a42 a43" order="1"/>
  <cml:bond atomRefs2="a42 a44" order="1"/>
  <cml:bond atomRefs2="a43 a45" order="1"/>
  <cml:bond atomRefs2="a45 a46" order="1"/>
  <cml:bond atomRefs2="a45 a47" order="1"/>
  <cml:bond atomRefs2="a46 a48" order="1"/>
  <cml:bond atomRefs2="a48 a49" order="1"/>
  <cml:bond atomRefs2="a49 a50" order="2"/>
  <cml:bond atomRefs2="a49 a51" order="1"/>
 </cml:bondArray>
</cml:molecule>
</svg>
