<?xml version="1.0"?>
<svg xmlns="http://www.w3.org/2000/svg"
xmlns:xlink="http://www.w3.org/1999/xlink" xmlns:cml="http://www.xml-cml.org/schema" width="541.589" height="802.678" x="0" y="0" font-family="sans-serif" stroke="rgb(255,255,255)" stroke-width="1"  stroke-linecap="round">
<rect x="0%" y="0%" width="100%" height="100%" stroke-width="0" fill="rgb(0,0,0)"  />
<line x1="299.1" y1="516.0" x2="269.3" y2="498.8" stroke="rgb(255,255,255)"  stroke-width="1.0"/>
<line x1="302.1" y1="510.8" x2="272.3" y2="493.6" stroke="rgb(255,255,255)"  stroke-width="1.0"/>
<line x1="270.8" y1="496.2" x2="241.0" y2="513.4" stroke="rgb(255,255,255)"  stroke-width="1.0"/>
<line x1="229.7" y1="532.9" x2="229.7" y2="567.3" stroke="rgb(255,255,255)"  stroke-width="1.0"/>
<line x1="188.7" y1="638.4" x2="147.6" y2="662.1" stroke="rgb(255,255,255)"  stroke-width="1.0"/>
<line x1="242.5" y1="286.7" x2="272.3" y2="303.9" stroke="rgb(255,255,255)"  stroke-width="1.0"/>
<line x1="239.5" y1="291.9" x2="269.3" y2="309.1" stroke="rgb(255,255,255)"  stroke-width="1.0"/>
<line x1="270.8" y1="306.5" x2="270.8" y2="340.9" stroke="rgb(255,255,255)"  stroke-width="1.0"/>
<line x1="270.8" y1="496.2" x2="270.8" y2="461.8" stroke="rgb(255,255,255)"  stroke-width="1.0"/>
<line x1="270.8" y1="306.5" x2="300.6" y2="289.3" stroke="rgb(255,255,255)"  stroke-width="1.0"/>
<line x1="311.9" y1="269.8" x2="311.9" y2="235.4" stroke="rgb(255,255,255)"  stroke-width="1.0"/>
<line x1="352.9" y1="164.2" x2="394.0" y2="140.5" stroke="rgb(255,255,255)"  stroke-width="1.0"/>
<line x1="218.5" y1="513.4" x2="215.5" y2="511.7" stroke="rgb(255,255,255)"  stroke-width="1.0"/>
<line x1="188.7" y1="591.0" x2="174.5" y2="582.8" stroke="rgb(255,255,255)"  stroke-width="1.0"/>
<line x1="229.7" y1="662.1" x2="229.7" y2="678.5" stroke="rgb(255,255,255)"  stroke-width="1.0"/>
<line x1="270.8" y1="638.4" x2="285.0" y2="646.6" stroke="rgb(255,255,255)"  stroke-width="1.0"/>
<line x1="270.8" y1="591.0" x2="285.0" y2="582.8" stroke="rgb(255,255,255)"  stroke-width="1.0"/>
<line x1="147.6" y1="709.6" x2="161.8" y2="717.8" stroke="rgb(255,255,255)"  stroke-width="1.0"/>
<line x1="106.5" y1="733.3" x2="106.5" y2="749.7" stroke="rgb(255,255,255)"  stroke-width="1.0"/>
<line x1="65.5" y1="709.6" x2="51.3" y2="717.8" stroke="rgb(255,255,255)"  stroke-width="1.0"/>
<line x1="65.5" y1="662.1" x2="51.3" y2="653.9" stroke="rgb(255,255,255)"  stroke-width="1.0"/>
<line x1="106.5" y1="638.4" x2="106.5" y2="622.0" stroke="rgb(255,255,255)"  stroke-width="1.0"/>
<line x1="229.7" y1="377.6" x2="224.1" y2="362.2" stroke="rgb(255,255,255)"  stroke-width="1.0"/>
<line x1="229.7" y1="377.6" x2="213.6" y2="380.5" stroke="rgb(255,255,255)"  stroke-width="1.0"/>
<line x1="229.7" y1="425.0" x2="213.6" y2="422.2" stroke="rgb(255,255,255)"  stroke-width="1.0"/>
<line x1="229.7" y1="425.0" x2="224.1" y2="440.5" stroke="rgb(255,255,255)"  stroke-width="1.0"/>
<line x1="323.1" y1="289.3" x2="326.1" y2="291.0" stroke="rgb(255,255,255)"  stroke-width="1.0"/>
<line x1="352.9" y1="211.7" x2="367.1" y2="219.9" stroke="rgb(255,255,255)"  stroke-width="1.0"/>
<line x1="311.9" y1="140.5" x2="311.9" y2="124.1" stroke="rgb(255,255,255)"  stroke-width="1.0"/>
<line x1="270.8" y1="164.2" x2="256.6" y2="156.0" stroke="rgb(255,255,255)"  stroke-width="1.0"/>
<line x1="270.8" y1="211.7" x2="256.6" y2="219.9" stroke="rgb(255,255,255)"  stroke-width="1.0"/>
<line x1="435.1" y1="164.2" x2="435.1" y2="180.6" stroke="rgb(255,255,255)"  stroke-width="1.0"/>
<line x1="476.1" y1="140.5" x2="490.3" y2="148.7" stroke="rgb(255,255,255)"  stroke-width="1.0"/>
<line x1="476.1" y1="93.1" x2="490.3" y2="84.9" stroke="rgb(255,255,255)"  stroke-width="1.0"/>
<line x1="435.1" y1="69.4" x2="435.1" y2="53.0" stroke="rgb(255,255,255)"  stroke-width="1.0"/>
<line x1="394.0" y1="93.1" x2="379.8" y2="84.9" stroke="rgb(255,255,255)"  stroke-width="1.0"/>
<line x1="311.9" y1="377.6" x2="328.0" y2="380.5" stroke="rgb(255,255,255)"  stroke-width="1.0"/>
<line x1="311.9" y1="377.6" x2="317.5" y2="362.2" stroke="rgb(255,255,255)"  stroke-width="1.0"/>
<line x1="311.9" y1="425.0" x2="317.5" y2="440.5" stroke="rgb(255,255,255)"  stroke-width="1.0"/>
<line x1="311.9" y1="425.0" x2="328.0" y2="422.2" stroke="rgb(255,255,255)"  stroke-width="1.0"/>
<line x1="229.7" y1="567.3" x2="188.7" y2="591.0" stroke="rgb(255,255,255)"  stroke-width="1.0"/>
<line x1="228.1" y1="576.5" x2="197.5" y2="594.3" stroke="rgb(255,255,255)"  stroke-width="1.0"/>
<line x1="188.7" y1="591.0" x2="188.7" y2="638.4" stroke="rgb(255,255,255)"  stroke-width="1.0"/>
<line x1="188.7" y1="638.4" x2="229.7" y2="662.1" stroke="rgb(255,255,255)"  stroke-width="1.0"/>
<line x1="197.5" y1="635.2" x2="228.1" y2="652.9" stroke="rgb(255,255,255)"  stroke-width="1.0"/>
<line x1="229.7" y1="662.1" x2="270.8" y2="638.4" stroke="rgb(255,255,255)"  stroke-width="1.0"/>
<line x1="270.8" y1="638.4" x2="270.8" y2="591.0" stroke="rgb(255,255,255)"  stroke-width="1.0"/>
<line x1="263.6" y1="632.4" x2="263.6" y2="597.0" stroke="rgb(255,255,255)"  stroke-width="1.0"/>
<line x1="270.8" y1="591.0" x2="229.7" y2="567.3" stroke="rgb(255,255,255)"  stroke-width="1.0"/>
<line x1="147.6" y1="662.1" x2="147.6" y2="709.6" stroke="rgb(255,255,255)"  stroke-width="1.0"/>
<line x1="140.4" y1="668.1" x2="140.4" y2="703.6" stroke="rgb(255,255,255)"  stroke-width="1.0"/>
<line x1="147.6" y1="709.6" x2="106.5" y2="733.3" stroke="rgb(255,255,255)"  stroke-width="1.0"/>
<line x1="106.5" y1="733.3" x2="65.5" y2="709.6" stroke="rgb(255,255,255)"  stroke-width="1.0"/>
<line x1="104.9" y1="724.0" x2="74.3" y2="706.3" stroke="rgb(255,255,255)"  stroke-width="1.0"/>
<line x1="65.5" y1="709.6" x2="65.5" y2="662.1" stroke="rgb(255,255,255)"  stroke-width="1.0"/>
<line x1="65.5" y1="662.1" x2="106.5" y2="638.4" stroke="rgb(255,255,255)"  stroke-width="1.0"/>
<line x1="74.3" y1="665.4" x2="104.9" y2="647.7" stroke="rgb(255,255,255)"  stroke-width="1.0"/>
<line x1="106.5" y1="638.4" x2="147.6" y2="662.1" stroke="rgb(255,255,255)"  stroke-width="1.0"/>
<line x1="311.9" y1="235.4" x2="352.9" y2="211.7" stroke="rgb(255,255,255)"  stroke-width="1.0"/>
<line x1="313.5" y1="226.1" x2="344.1" y2="208.4" stroke="rgb(255,255,255)"  stroke-width="1.0"/>
<line x1="352.9" y1="211.7" x2="352.9" y2="164.2" stroke="rgb(255,255,255)"  stroke-width="1.0"/>
<line x1="352.9" y1="164.2" x2="311.9" y2="140.5" stroke="rgb(255,255,255)"  stroke-width="1.0"/>
<line x1="344.1" y1="167.5" x2="313.5" y2="149.8" stroke="rgb(255,255,255)"  stroke-width="1.0"/>
<line x1="311.9" y1="140.5" x2="270.8" y2="164.2" stroke="rgb(255,255,255)"  stroke-width="1.0"/>
<line x1="270.8" y1="164.2" x2="270.8" y2="211.7" stroke="rgb(255,255,255)"  stroke-width="1.0"/>
<line x1="278.0" y1="170.2" x2="278.0" y2="205.7" stroke="rgb(255,255,255)"  stroke-width="1.0"/>
<line x1="270.8" y1="211.7" x2="311.9" y2="235.4" stroke="rgb(255,255,255)"  stroke-width="1.0"/>
<line x1="394.0" y1="140.5" x2="435.1" y2="164.2" stroke="rgb(255,255,255)"  stroke-width="1.0"/>
<line x1="402.8" y1="137.3" x2="433.5" y2="155.0" stroke="rgb(255,255,255)"  stroke-width="1.0"/>
<line x1="435.1" y1="164.2" x2="476.1" y2="140.5" stroke="rgb(255,255,255)"  stroke-width="1.0"/>
<line x1="476.1" y1="140.5" x2="476.1" y2="93.1" stroke="rgb(255,255,255)"  stroke-width="1.0"/>
<line x1="468.9" y1="134.5" x2="468.9" y2="99.1" stroke="rgb(255,255,255)"  stroke-width="1.0"/>
<line x1="476.1" y1="93.1" x2="435.1" y2="69.4" stroke="rgb(255,255,255)"  stroke-width="1.0"/>
<line x1="435.1" y1="69.4" x2="394.0" y2="93.1" stroke="rgb(255,255,255)"  stroke-width="1.0"/>
<line x1="433.5" y1="78.6" x2="402.8" y2="96.3" stroke="rgb(255,255,255)"  stroke-width="1.0"/>
<line x1="394.0" y1="93.1" x2="394.0" y2="140.5" stroke="rgb(255,255,255)"  stroke-width="1.0"/>
<line x1="229.7" y1="377.6" x2="259.5" y2="360.4" stroke="rgb(255,255,255)"  stroke-width="1.0"/>
<line x1="282.1" y1="360.4" x2="311.9" y2="377.6" stroke="rgb(255,255,255)"  stroke-width="1.0"/>
<line x1="311.9" y1="377.6" x2="311.9" y2="425.0" stroke="rgb(255,255,255)"  stroke-width="1.0"/>
<line x1="311.9" y1="425.0" x2="282.1" y2="442.3" stroke="rgb(255,255,255)"  stroke-width="1.0"/>
<line x1="259.5" y1="442.3" x2="229.7" y2="425.0" stroke="rgb(255,255,255)"  stroke-width="1.0"/>
<line x1="229.7" y1="425.0" x2="229.7" y2="377.6" stroke="rgb(255,255,255)"  stroke-width="1.0"/>
<text x="305.862546" y="527.888535" fill="rgb(255,12,12)"  stroke="rgb(255,12,12)" stroke-width="1" font-size="16" >O</text>
<text x="223.726683" y="527.888535" fill="rgb(12,12,255)"  stroke="rgb(12,12,255)" stroke-width="1" font-size="16" >N</text>
<text x="223.726683" y="290.789457" fill="rgb(255,12,12)"  stroke="rgb(255,12,12)" stroke-width="1" font-size="16" >O</text>
<text x="264.792243" y="361.919180" fill="rgb(12,12,255)"  stroke="rgb(12,12,255)" stroke-width="1" font-size="16" >N</text>
<text x="264.792243" y="456.758812" fill="rgb(12,12,255)"  stroke="rgb(12,12,255)" stroke-width="1" font-size="16" >N</text>
<text x="305.862546" y="290.789457" fill="rgb(12,12,255)"  stroke="rgb(12,12,255)" stroke-width="1" font-size="16" >N</text>
<text x="198.266984" y="513.188392" fill="rgb(191,191,191)"  stroke="rgb(191,191,191)" stroke-width="1" font-size="16" >H</text>
<text x="157.196681" y="584.318116" fill="rgb(191,191,191)"  stroke="rgb(191,191,191)" stroke-width="1" font-size="16" >H</text>
<text x="223.726683" y="699.548268" fill="rgb(191,191,191)"  stroke="rgb(191,191,191)" stroke-width="1" font-size="16" >H</text>
<text x="290.256684" y="661.138217" fill="rgb(191,191,191)"  stroke="rgb(191,191,191)" stroke-width="1" font-size="16" >H</text>
<text x="290.256684" y="584.318116" fill="rgb(191,191,191)"  stroke="rgb(191,191,191)" stroke-width="1" font-size="16" >H</text>
<text x="167.055261" y="732.267941" fill="rgb(191,191,191)"  stroke="rgb(191,191,191)" stroke-width="1" font-size="16" >H</text>
<text x="100.525259" y="770.677992" fill="rgb(191,191,191)"  stroke="rgb(191,191,191)" stroke-width="1" font-size="16" >H</text>
<text x="34.000000" y="732.267941" fill="rgb(191,191,191)"  stroke="rgb(191,191,191)" stroke-width="1" font-size="16" >H</text>
<text x="34.000000" y="655.447840" fill="rgb(191,191,191)"  stroke="rgb(191,191,191)" stroke-width="1" font-size="16" >H</text>
<text x="100.525259" y="617.037789" fill="rgb(191,191,191)"  stroke="rgb(191,191,191)" stroke-width="1" font-size="16" >H</text>
<text x="213.668940" y="358.002303" fill="rgb(191,191,191)"  stroke="rgb(191,191,191)" stroke-width="1" font-size="16" >H</text>
<text x="194.772143" y="390.736202" fill="rgb(191,191,191)"  stroke="rgb(191,191,191)" stroke-width="1" font-size="16" >H</text>
<text x="194.772143" y="427.941790" fill="rgb(191,191,191)"  stroke="rgb(191,191,191)" stroke-width="1" font-size="16" >H</text>
<text x="213.668940" y="460.675688" fill="rgb(191,191,191)"  stroke="rgb(191,191,191)" stroke-width="1" font-size="16" >H</text>
<text x="331.322245" y="305.489599" fill="rgb(191,191,191)"  stroke="rgb(191,191,191)" stroke-width="1" font-size="16" >H</text>
<text x="372.387805" y="234.359876" fill="rgb(191,191,191)"  stroke="rgb(191,191,191)" stroke-width="1" font-size="16" >H</text>
<text x="305.862546" y="119.129724" fill="rgb(191,191,191)"  stroke="rgb(191,191,191)" stroke-width="1" font-size="16" >H</text>
<text x="239.332544" y="157.539774" fill="rgb(191,191,191)"  stroke="rgb(191,191,191)" stroke-width="1" font-size="16" >H</text>
<text x="239.332544" y="234.359876" fill="rgb(191,191,191)"  stroke="rgb(191,191,191)" stroke-width="1" font-size="16" >H</text>
<text x="429.059227" y="201.640203" fill="rgb(191,191,191)"  stroke="rgb(191,191,191)" stroke-width="1" font-size="16" >H</text>
<text x="495.589228" y="163.230152" fill="rgb(191,191,191)"  stroke="rgb(191,191,191)" stroke-width="1" font-size="16" >H</text>
<text x="495.589228" y="86.410051" fill="rgb(191,191,191)"  stroke="rgb(191,191,191)" stroke-width="1" font-size="16" >H</text>
<text x="429.059227" y="48.000000" fill="rgb(191,191,191)"  stroke="rgb(191,191,191)" stroke-width="1" font-size="16" >H</text>
<text x="362.533967" y="86.410051" fill="rgb(191,191,191)"  stroke="rgb(191,191,191)" stroke-width="1" font-size="16" >H</text>
<text x="334.812343" y="390.736202" fill="rgb(191,191,191)"  stroke="rgb(191,191,191)" stroke-width="1" font-size="16" >H</text>
<text x="315.915547" y="358.002303" fill="rgb(191,191,191)"  stroke="rgb(191,191,191)" stroke-width="1" font-size="16" >H</text>
<text x="315.915547" y="460.675688" fill="rgb(191,191,191)"  stroke="rgb(191,191,191)" stroke-width="1" font-size="16" >H</text>
<text x="334.812343" y="427.941790" fill="rgb(191,191,191)"  stroke="rgb(191,191,191)" stroke-width="1" font-size="16" >H</text>
<text font-size="18.000000" fill ="white" font-family="sans-serif"
x="10.000000" y="20.000000" >NSC37553 N~1~,N~4~-di[1,1'-biphenyl]-3-yl-1,4-piperazinedicarboxamide</text>
<title>NSC37553 N~1~,N~4~-di[1,1'-biphenyl]-3-yl-1,4-piperazinedicarboxamide - OBDepict</title>
<cml:molecule id="NSC37553 N~1~,N~4~-di[1,1'-biphenyl]-3-yl-1,4-piperazinedicarboxamide">
 <cml:atomArray>
  <cml:atom id="a1" elementType="O" x2="7.196200" y2="-2.500000"/>
  <cml:atom id="a2" elementType="C" x2="6.330100" y2="-2.000000"/>
  <cml:atom id="a3" elementType="N" x2="5.464100" y2="-2.500000"/>
  <cml:atom id="a4" elementType="C" x2="5.464100" y2="-3.500000"/>
  <cml:atom id="a5" elementType="C" x2="4.598100" y2="-4.000000"/>
  <cml:atom id="a6" elementType="C" x2="4.598100" y2="-5.000000"/>
  <cml:atom id="a7" elementType="C" x2="5.464100" y2="-5.500000"/>
  <cml:atom id="a8" elementType="C" x2="6.330100" y2="-5.000000"/>
  <cml:atom id="a9" elementType="C" x2="6.330100" y2="-4.000000"/>
  <cml:atom id="a10" elementType="C" x2="3.732100" y2="-5.500000"/>
  <cml:atom id="a11" elementType="C" x2="3.732100" y2="-6.500000"/>
  <cml:atom id="a12" elementType="C" x2="2.866000" y2="-7.000000"/>
  <cml:atom id="a13" elementType="C" x2="2.000000" y2="-6.500000"/>
  <cml:atom id="a14" elementType="C" x2="2.000000" y2="-5.500000"/>
  <cml:atom id="a15" elementType="C" x2="2.866000" y2="-5.000000"/>
  <cml:atom id="a16" elementType="O" x2="5.464100" y2="2.500000"/>
  <cml:atom id="a17" elementType="C" x2="6.330100" y2="2.000000"/>
  <cml:atom id="a18" elementType="N" x2="6.330100" y2="1.000000"/>
  <cml:atom id="a19" elementType="C" x2="5.464100" y2="0.500000"/>
  <cml:atom id="a20" elementType="C" x2="5.464100" y2="-0.500000"/>
  <cml:atom id="a21" elementType="N" x2="6.330100" y2="-1.000000"/>
  <cml:atom id="a22" elementType="N" x2="7.196200" y2="2.500000"/>
  <cml:atom id="a23" elementType="C" x2="7.196200" y2="3.500000"/>
  <cml:atom id="a24" elementType="C" x2="8.062200" y2="4.000000"/>
  <cml:atom id="a25" elementType="C" x2="8.062200" y2="5.000000"/>
  <cml:atom id="a26" elementType="C" x2="7.196200" y2="5.500000"/>
  <cml:atom id="a27" elementType="C" x2="6.330100" y2="5.000000"/>
  <cml:atom id="a28" elementType="C" x2="6.330100" y2="4.000000"/>
  <cml:atom id="a29" elementType="C" x2="8.928200" y2="5.500000"/>
  <cml:atom id="a30" elementType="C" x2="9.794200" y2="5.000000"/>
  <cml:atom id="a31" elementType="C" x2="10.660300" y2="5.500000"/>
  <cml:atom id="a32" elementType="C" x2="10.660300" y2="6.500000"/>
  <cml:atom id="a33" elementType="C" x2="9.794200" y2="7.000000"/>
  <cml:atom id="a34" elementType="C" x2="8.928200" y2="6.500000"/>
  <cml:atom id="a35" elementType="C" x2="7.196200" y2="0.500000"/>
  <cml:atom id="a36" elementType="C" x2="7.196200" y2="-0.500000"/>
  <cml:atom id="a37" elementType="H" x2="4.927200" y2="-2.190000"/>
  <cml:atom id="a38" elementType="H" x2="4.061100" y2="-3.690000"/>
  <cml:atom id="a39" elementType="H" x2="5.464100" y2="-6.120000"/>
  <cml:atom id="a40" elementType="H" x2="6.867100" y2="-5.310000"/>
  <cml:atom id="a41" elementType="H" x2="6.867100" y2="-3.690000"/>
  <cml:atom id="a42" elementType="H" x2="4.269000" y2="-6.810000"/>
  <cml:atom id="a43" elementType="H" x2="2.866000" y2="-7.620000"/>
  <cml:atom id="a44" elementType="H" x2="1.463100" y2="-6.810000"/>
  <cml:atom id="a45" elementType="H" x2="1.463100" y2="-5.190000"/>
  <cml:atom id="a46" elementType="H" x2="2.866000" y2="-4.380000"/>
  <cml:atom id="a47" elementType="H" x2="5.252000" y2="1.082600"/>
  <cml:atom id="a48" elementType="H" x2="4.853500" y2="0.392300"/>
  <cml:atom id="a49" elementType="H" x2="4.853500" y2="-0.392300"/>
  <cml:atom id="a50" elementType="H" x2="5.252000" y2="-1.082600"/>
  <cml:atom id="a51" elementType="H" x2="7.733100" y2="2.190000"/>
  <cml:atom id="a52" elementType="H" x2="8.599100" y2="3.690000"/>
  <cml:atom id="a53" elementType="H" x2="7.196200" y2="6.120000"/>
  <cml:atom id="a54" elementType="H" x2="5.793200" y2="5.310000"/>
  <cml:atom id="a55" elementType="H" x2="5.793200" y2="3.690000"/>
  <cml:atom id="a56" elementType="H" x2="9.794200" y2="4.380000"/>
  <cml:atom id="a57" elementType="H" x2="11.197200" y2="5.190000"/>
  <cml:atom id="a58" elementType="H" x2="11.197200" y2="6.810000"/>
  <cml:atom id="a59" elementType="H" x2="9.794200" y2="7.620000"/>
  <cml:atom id="a60" elementType="H" x2="8.391300" y2="6.810000"/>
  <cml:atom id="a61" elementType="H" x2="7.806700" y2="0.392300"/>
  <cml:atom id="a62" elementType="H" x2="7.408200" y2="1.082600"/>
  <cml:atom id="a63" elementType="H" x2="7.408200" y2="-1.082600"/>
  <cml:atom id="a64" elementType="H" x2="7.806700" y2="-0.392300"/>
 </cml:atomArray>
 <cml:bondArray>
  <cml:bond atomRefs2="a1 a2" order="2"/>
  <cml:bond atomRefs2="a2 a3" order="1"/>
  <cml:bond atomRefs2="a3 a4" order="1"/>
  <cml:bond atomRefs2="a4 a5" order="2"/>
  <cml:bond atomRefs2="a5 a6" order="1"/>
  <cml:bond atomRefs2="a6 a7" order="2"/>
  <cml:bond atomRefs2="a7 a8" order="1"/>
  <cml:bond atomRefs2="a8 a9" order="2"/>
  <cml:bond atomRefs2="a4 a9" order="1"/>
  <cml:bond atomRefs2="a6 a10" order="1"/>
  <cml:bond atomRefs2="a10 a11" order="2"/>
  <cml:bond atomRefs2="a11 a12" order="1"/>
  <cml:bond atomRefs2="a12 a13" order="2"/>
  <cml:bond atomRefs2="a13 a14" order="1"/>
  <cml:bond atomRefs2="a14 a15" order="2"/>
  <cml:bond atomRefs2="a10 a15" order="1"/>
  <cml:bond atomRefs2="a16 a17" order="2"/>
  <cml:bond atomRefs2="a17 a18" order="1"/>
  <cml:bond atomRefs2="a18 a19" order="1"/>
  <cml:bond atomRefs2="a19 a20" order="1"/>
  <cml:bond atomRefs2="a20 a21" order="1"/>
  <cml:bond atomRefs2="a2 a21" order="1"/>
  <cml:bond atomRefs2="a17 a22" order="1"/>
  <cml:bond atomRefs2="a22 a23" order="1"/>
  <cml:bond atomRefs2="a23 a24" order="2"/>
  <cml:bond atomRefs2="a24 a25" order="1"/>
  <cml:bond atomRefs2="a25 a26" order="2"/>
  <cml:bond atomRefs2="a26 a27" order="1"/>
  <cml:bond atomRefs2="a27 a28" order="2"/>
  <cml:bond atomRefs2="a23 a28" order="1"/>
  <cml:bond atomRefs2="a25 a29" order="1"/>
  <cml:bond atomRefs2="a29 a30" order="2"/>
  <cml:bond atomRefs2="a30 a31" order="1"/>
  <cml:bond atomRefs2="a31 a32" order="2"/>
  <cml:bond atomRefs2="a32 a33" order="1"/>
  <cml:bond atomRefs2="a33 a34" order="2"/>
  <cml:bond atomRefs2="a29 a34" order="1"/>
  <cml:bond atomRefs2="a18 a35" order="1"/>
  <cml:bond atomRefs2="a35 a36" order="1"/>
  <cml:bond atomRefs2="a21 a36" order="1"/>
  <cml:bond atomRefs2="a3 a37" order="1"/>
  <cml:bond atomRefs2="a5 a38" order="1"/>
  <cml:bond atomRefs2="a7 a39" order="1"/>
  <cml:bond atomRefs2="a8 a40" order="1"/>
  <cml:bond atomRefs2="a9 a41" order="1"/>
  <cml:bond atomRefs2="a11 a42" order="1"/>
  <cml:bond atomRefs2="a12 a43" order="1"/>
  <cml:bond atomRefs2="a13 a44" order="1"/>
  <cml:bond atomRefs2="a14 a45" order="1"/>
  <cml:bond atomRefs2="a15 a46" order="1"/>
  <cml:bond atomRefs2="a19 a47" order="1"/>
  <cml:bond atomRefs2="a19 a48" order="1"/>
  <cml:bond atomRefs2="a20 a49" order="1"/>
  <cml:bond atomRefs2="a20 a50" order="1"/>
  <cml:bond atomRefs2="a22 a51" order="1"/>
  <cml:bond atomRefs2="a24 a52" order="1"/>
  <cml:bond atomRefs2="a26 a53" order="1"/>
  <cml:bond atomRefs2="a27 a54" order="1"/>
  <cml:bond atomRefs2="a28 a55" order="1"/>
  <cml:bond atomRefs2="a30 a56" order="1"/>
  <cml:bond atomRefs2="a31 a57" order="1"/>
  <cml:bond atomRefs2="a32 a58" order="1"/>
  <cml:bond atomRefs2="a33 a59" order="1"/>
  <cml:bond atomRefs2="a34 a60" order="1"/>
  <cml:bond atomRefs2="a35 a61" order="1"/>
  <cml:bond atomRefs2="a35 a62" order="1"/>
  <cml:bond atomRefs2="a36 a63" order="1"/>
  <cml:bond atomRefs2="a36 a64" order="1"/>
 </cml:bondArray>
 <cml:propertyList>
  <cml:property title="E_NSC">
   <cml:scalar>37553</cml:scalar>
  </cml:property>
  <cml:property title="E_CAS">
   <cml:scalar>6954-49-0</cml:scalar>
  </cml:property>
  <cml:property title="E_SMILES">
   <cml:scalar>O=C(NC1=CC(=CC=C1)C2=CC=CC=C2)N3CCN(CC3)C(=O)NC4=CC(=CC=C4)C5=CC=CC=C5</cml:scalar>
  </cml:property>
 </cml:propertyList>
</cml:molecule>
</svg>
