<?xml version="1.0"?>
<svg xmlns="http://www.w3.org/2000/svg"
xmlns:xlink="http://www.w3.org/1999/xlink" xmlns:cml="http://www.xml-cml.org/schema" width="362.991" height="306.59" x="0" y="0" font-family="sans-serif" stroke="rgb(255,255,255)" stroke-width="1"  stroke-linecap="round">
<rect x="0%" y="0%" width="100%" height="100%" stroke-width="0" fill="rgb(0,0,0)"  />
<line x1="211.3" y1="206.1" x2="235.4" y2="218.3" stroke="rgb(255,255,255)"  stroke-width="1.0"/>
<line x1="142.0" y1="206.1" x2="116.8" y2="215.7" stroke="rgb(255,255,255)"  stroke-width="1.0"/>
<line x1="176.7" y1="146.1" x2="179.5" y2="119.2" stroke="rgb(255,255,255)"  stroke-width="1.0"/>
<line x1="182.9" y1="93.4" x2="187.1" y2="66.8" stroke="rgb(255,255,255)"  stroke-width="1.0"/>
<line x1="187.1" y1="66.8" x2="157.4" y2="40.0" stroke="rgb(255,255,255)"  stroke-width="1.0"/>
<line x1="258.8" y1="218.9" x2="283.5" y2="207.9" stroke="rgb(255,255,255)"  stroke-width="1.0"/>
<line x1="283.5" y1="207.9" x2="299.8" y2="171.4" stroke="rgb(255,255,255)"  stroke-width="1.0"/>
<line x1="283.5" y1="207.9" x2="308.7" y2="239.0" stroke="rgb(255,255,255)"  stroke-width="1.0"/>
<line x1="283.5" y1="207.9" x2="323.0" y2="201.7" stroke="rgb(255,255,255)"  stroke-width="1.0"/>
<line x1="104.0" y1="233.4" x2="102.6" y2="260.3" stroke="rgb(255,255,255)"  stroke-width="1.0"/>
<line x1="102.6" y1="260.3" x2="75.9" y2="264.6" stroke="rgb(255,255,255)"  stroke-width="1.0"/>
<line x1="103.2" y1="264.5" x2="76.6" y2="268.7" stroke="rgb(255,255,255)"  stroke-width="1.0"/>
<line x1="101.9" y1="256.2" x2="75.3" y2="260.4" stroke="rgb(255,255,255)"  stroke-width="1.0"/>
<line x1="80.0" y1="192.3" x2="53.3" y2="196.5" stroke="rgb(255,255,255)"  stroke-width="1.0"/>
<line x1="79.0" y1="186.3" x2="52.4" y2="190.6" stroke="rgb(255,255,255)"  stroke-width="1.0"/>
<line x1="79.5" y1="189.3" x2="73.9" y2="162.9" stroke="rgb(255,255,255)"  stroke-width="1.0"/>
<line x1="81.3" y1="142.0" x2="102.3" y2="125.0" stroke="rgb(255,255,255)"  stroke-width="1.0"/>
<line x1="79.5" y1="189.3" x2="65.2" y2="226.6" stroke="rgb(255,255,255)"  stroke-width="1.0"/>
<line x1="65.2" y1="226.6" x2="91.8" y2="222.4" stroke="rgb(255,255,255)"  stroke-width="1.0"/>
<line x1="176.7" y1="146.1" x2="153.3" y2="159.6" stroke="rgb(255,255,255)"  stroke-width="1.0"/>
<line x1="142.0" y1="179.3" x2="142.0" y2="206.1" stroke="rgb(255,255,255)"  stroke-width="1.0"/>
<line x1="149.2" y1="181.3" x2="149.2" y2="200.1" stroke="rgb(255,255,255)"  stroke-width="1.0"/>
<line x1="142.0" y1="206.1" x2="165.4" y2="219.6" stroke="rgb(255,255,255)"  stroke-width="1.0"/>
<line x1="188.1" y1="219.5" x2="211.3" y2="206.1" stroke="rgb(255,255,255)"  stroke-width="1.0"/>
<line x1="186.2" y1="212.2" x2="202.5" y2="202.8" stroke="rgb(255,255,255)"  stroke-width="1.0"/>
<line x1="211.3" y1="206.1" x2="211.3" y2="179.1" stroke="rgb(255,255,255)"  stroke-width="1.0"/>
<line x1="199.9" y1="159.5" x2="176.7" y2="146.1" stroke="rgb(255,255,255)"  stroke-width="1.0"/>
<line x1="194.5" y1="164.7" x2="178.3" y2="155.3" stroke="rgb(255,255,255)"  stroke-width="1.0"/>
<text x="136.019932" y="174.053427" fill="rgb(12,12,255)"  stroke="rgb(12,12,255)" stroke-width="1" font-size="16" >N</text>
<text x="170.661716" y="234.052318" fill="rgb(12,12,255)"  stroke="rgb(12,12,255)" stroke-width="1" font-size="16" >N</text>
<text x="205.303500" y="174.053427" fill="rgb(12,12,255)"  stroke="rgb(12,12,255)" stroke-width="1" font-size="16" >N</text>
<text x="240.944053" y="232.209928" fill="rgb(12,12,255)"  stroke="rgb(12,12,255)" stroke-width="1" font-size="16" >N</text>
<text x="240.944053" y="248.209928" fill="rgb(12,12,255)"  stroke="rgb(12,12,255)" stroke-width="1" font-size="16" >H</text>
<text x="98.677592" y="228.384544" fill="rgb(12,12,255)"  stroke="rgb(12,12,255)" stroke-width="1" font-size="16" >N</text>
<text x="162.845881" y="114.272714" fill="rgb(12,12,255)"  stroke="rgb(12,12,255)" stroke-width="1" font-size="16" >HN</text>
<text x="57.078361" y="274.589751" fill="rgb(12,12,255)"  stroke="rgb(12,12,255)" stroke-width="1" font-size="16" >N</text>
<text x="34.000000" y="203.560761" fill="rgb(255,12,12)"  stroke="rgb(255,12,12)" stroke-width="1" font-size="16" >O</text>
<text x="65.189726" y="158.174933" fill="rgb(255,12,12)"  stroke="rgb(255,12,12)" stroke-width="1" font-size="16" >O</text>
<text font-size="18.000000" fill ="white" font-family="sans-serif"
x="10.000000" y="20.000000" ></text>
<title> - OBDepict</title>
<cml:molecule>
 <cml:atomArray>
  <cml:atom id="a1" elementType="C" x2="-0.714300" y2="0.534800"/>
  <cml:atom id="a2" elementType="N" x2="-1.428800" y2="0.122300"/>
  <cml:atom id="a3" elementType="C" x2="-1.428800" y2="-0.702700"/>
  <cml:atom id="a4" elementType="N" x2="-0.714300" y2="-1.115200"/>
  <cml:atom id="a5" elementType="C" x2="0.000200" y2="-0.702700"/>
  <cml:atom id="a6" elementType="N" x2="0.000200" y2="0.122300"/>
  <cml:atom id="a7" elementType="N" x2="0.735300" y2="-1.077200"/>
  <cml:atom id="a8" elementType="N" x2="-2.199000" y2="-0.998300"/>
  <cml:atom id="a9" elementType="N" x2="-0.628000" y2="1.355300"/>
  <cml:atom id="a10" elementType="C" x2="-0.499000" y2="2.170200"/>
  <cml:atom id="a11" elementType="C" x2="-1.112100" y2="2.722200"/>
  <cml:atom id="a12" elementType="C" x2="1.488900" y2="-0.741700"/>
  <cml:atom id="a13" elementType="C" x2="1.824500" y2="0.012000"/>
  <cml:atom id="a14" elementType="C" x2="2.008100" y2="-1.382800"/>
  <cml:atom id="a15" elementType="C" x2="2.303800" y2="-0.612600"/>
  <cml:atom id="a16" elementType="C" x2="-2.242100" y2="-1.822200"/>
  <cml:atom id="a17" elementType="N" x2="-3.057000" y2="-1.951300"/>
  <cml:atom id="a18" elementType="C" x2="-2.718100" y2="-0.357200"/>
  <cml:atom id="a19" elementType="O" x2="-3.533000" y2="-0.486300"/>
  <cml:atom id="a20" elementType="O" x2="-2.889700" y2="0.449800"/>
  <cml:atom id="a21" elementType="C" x2="-2.248500" y2="0.969000"/>
  <cml:atom id="a22" elementType="C" x2="-3.013800" y2="-1.127400"/>
 </cml:atomArray>
 <cml:bondArray>
  <cml:bond atomRefs2="a1 a2" order="1"/>
  <cml:bond atomRefs2="a2 a3" order="2"/>
  <cml:bond atomRefs2="a3 a4" order="1"/>
  <cml:bond atomRefs2="a4 a5" order="2"/>
  <cml:bond atomRefs2="a5 a6" order="1"/>
  <cml:bond atomRefs2="a1 a6" order="2"/>
  <cml:bond atomRefs2="a5 a7" order="1"/>
  <cml:bond atomRefs2="a3 a8" order="1"/>
  <cml:bond atomRefs2="a1 a9" order="1"/>
  <cml:bond atomRefs2="a9 a10" order="1"/>
  <cml:bond atomRefs2="a10 a11" order="1"/>
  <cml:bond atomRefs2="a7 a12" order="1"/>
  <cml:bond atomRefs2="a12 a13" order="1"/>
  <cml:bond atomRefs2="a12 a14" order="1"/>
  <cml:bond atomRefs2="a12 a15" order="1"/>
  <cml:bond atomRefs2="a8 a16" order="1"/>
  <cml:bond atomRefs2="a16 a17" order="3"/>
  <cml:bond atomRefs2="a18 a19" order="2"/>
  <cml:bond atomRefs2="a18 a20" order="1"/>
  <cml:bond atomRefs2="a20 a21" order="1"/>
  <cml:bond atomRefs2="a18 a22" order="1"/>
  <cml:bond atomRefs2="a22 a8" order="1"/>
 </cml:bondArray>
</cml:molecule>
</svg>
