<?xml version="1.0"?>
<svg xmlns="http://www.w3.org/2000/svg"
xmlns:xlink="http://www.w3.org/1999/xlink" xmlns:cml="http://www.xml-cml.org/schema" width="308.763" height="338.489" x="0" y="0" font-family="sans-serif" stroke="rgb(255,255,255)" stroke-width="1"  stroke-linecap="round">
<rect x="0%" y="0%" width="100%" height="100%" stroke-width="0" fill="rgb(0,0,0)"  />
<line x1="145.2" y1="159.8" x2="143.6" y2="159.8" stroke="rgb(255,255,255)"  stroke-width="1.0"/>
<line x1="145.9" y1="163.6" x2="143.0" y2="163.6" stroke="rgb(255,255,255)"  stroke-width="1.0"/>
<line x1="146.5" y1="167.5" x2="142.3" y2="167.5" stroke="rgb(255,255,255)"  stroke-width="1.0"/>
<line x1="147.1" y1="171.3" x2="141.7" y2="171.3" stroke="rgb(255,255,255)"  stroke-width="1.0"/>
<line x1="147.8" y1="175.1" x2="141.1" y2="175.1" stroke="rgb(255,255,255)"  stroke-width="1.0"/>
<line x1="148.4" y1="178.9" x2="140.4" y2="178.9" stroke="rgb(255,255,255)"  stroke-width="1.0"/>
<line x1="143.6" y1="114.8" x2="145.2" y2="114.8" stroke="rgb(255,255,255)"  stroke-width="1.0"/>
<line x1="143.0" y1="111.0" x2="145.9" y2="111.0" stroke="rgb(255,255,255)"  stroke-width="1.0"/>
<line x1="142.3" y1="107.2" x2="146.5" y2="107.2" stroke="rgb(255,255,255)"  stroke-width="1.0"/>
<line x1="141.7" y1="103.4" x2="147.1" y2="103.4" stroke="rgb(255,255,255)"  stroke-width="1.0"/>
<line x1="141.1" y1="99.5" x2="147.8" y2="99.5" stroke="rgb(255,255,255)"  stroke-width="1.0"/>
<line x1="140.4" y1="95.7" x2="148.4" y2="95.7" stroke="rgb(255,255,255)"  stroke-width="1.0"/>
<polygon points="110.568218 108.499051 125.921172 165.393694 118.073786 166.948859 " stroke-width="1.000000" fill="rgb(255,255,255)"  stroke="rgb(255,255,255)" />
<polygon points="96.093072 76.189370 106.888327 54.606374 113.351090 59.321529 " stroke-width="1.000000" fill="rgb(255,255,255)"  stroke="rgb(255,255,255)" />
<line x1="57.3" y1="66.4" x2="58.8" y2="65.7" stroke="rgb(255,255,255)"  stroke-width="1.0"/>
<line x1="54.4" y1="61.4" x2="57.0" y2="60.3" stroke="rgb(255,255,255)"  stroke-width="1.0"/>
<line x1="51.5" y1="56.5" x2="55.3" y2="54.8" stroke="rgb(255,255,255)"  stroke-width="1.0"/>
<line x1="48.6" y1="51.5" x2="53.6" y2="49.3" stroke="rgb(255,255,255)"  stroke-width="1.0"/>
<line x1="45.7" y1="46.6" x2="51.8" y2="43.8" stroke="rgb(255,255,255)"  stroke-width="1.0"/>
<line x1="42.8" y1="41.6" x2="50.1" y2="38.4" stroke="rgb(255,255,255)"  stroke-width="1.0"/>
<polygon points="178.291332 166.143999 189.371853 187.428146 181.759341 189.887752 " stroke-width="1.000000" fill="rgb(255,255,255)"  stroke="rgb(255,255,255)" />
<line x1="201.9" y1="202.5" x2="223.8" y2="207.2" stroke="rgb(255,255,255)"  stroke-width="1.0"/>
<line x1="241.1" y1="192.5" x2="226.0" y2="209.3" stroke="rgb(255,255,255)"  stroke-width="1.0"/>
<line x1="236.6" y1="188.5" x2="221.6" y2="205.2" stroke="rgb(255,255,255)"  stroke-width="1.0"/>
<line x1="223.8" y1="207.2" x2="234.9" y2="241.1" stroke="rgb(255,255,255)"  stroke-width="1.0"/>
<line x1="177.5" y1="101.4" x2="179.1" y2="101.4" stroke="rgb(255,255,255)"  stroke-width="1.0"/>
<line x1="176.9" y1="95.8" x2="179.7" y2="95.8" stroke="rgb(255,255,255)"  stroke-width="1.0"/>
<line x1="176.2" y1="90.1" x2="180.4" y2="90.1" stroke="rgb(255,255,255)"  stroke-width="1.0"/>
<line x1="175.6" y1="84.4" x2="181.0" y2="84.4" stroke="rgb(255,255,255)"  stroke-width="1.0"/>
<line x1="174.9" y1="78.8" x2="181.7" y2="78.8" stroke="rgb(255,255,255)"  stroke-width="1.0"/>
<line x1="174.3" y1="73.1" x2="182.3" y2="73.1" stroke="rgb(255,255,255)"  stroke-width="1.0"/>
<line x1="86.8" y1="133.7" x2="88.2" y2="132.9" stroke="rgb(255,255,255)"  stroke-width="1.0"/>
<line x1="84.3" y1="130.8" x2="86.8" y2="129.3" stroke="rgb(255,255,255)"  stroke-width="1.0"/>
<line x1="81.9" y1="127.8" x2="85.5" y2="125.7" stroke="rgb(255,255,255)"  stroke-width="1.0"/>
<line x1="79.4" y1="124.8" x2="84.1" y2="122.1" stroke="rgb(255,255,255)"  stroke-width="1.0"/>
<line x1="76.9" y1="121.8" x2="82.8" y2="118.5" stroke="rgb(255,255,255)"  stroke-width="1.0"/>
<line x1="74.5" y1="118.8" x2="81.4" y2="114.8" stroke="rgb(255,255,255)"  stroke-width="1.0"/>
<line x1="260.5" y1="137.4" x2="229.7" y2="119.6" stroke="rgb(255,255,255)"  stroke-width="1.0"/>
<polygon points="198.970972 137.449344 227.725481 116.154355 231.738091 123.075263 " stroke-width="1.000000" fill="rgb(255,255,255)"  stroke="rgb(255,255,255)" />
<line x1="229.7" y1="119.6" x2="229.7" y2="84.2" stroke="rgb(255,255,255)"  stroke-width="1.0"/>
<line x1="199.0" y1="137.4" x2="218.4" y2="148.6" stroke="rgb(255,255,255)"  stroke-width="1.0"/>
<line x1="103.5" y1="166.9" x2="103.5" y2="165.3" stroke="rgb(255,255,255)"  stroke-width="1.0"/>
<line x1="97.8" y1="167.6" x2="97.8" y2="164.7" stroke="rgb(255,255,255)"  stroke-width="1.0"/>
<line x1="92.2" y1="168.2" x2="92.2" y2="164.1" stroke="rgb(255,255,255)"  stroke-width="1.0"/>
<line x1="86.5" y1="168.9" x2="86.5" y2="163.4" stroke="rgb(255,255,255)"  stroke-width="1.0"/>
<line x1="80.8" y1="169.5" x2="80.8" y2="162.8" stroke="rgb(255,255,255)"  stroke-width="1.0"/>
<line x1="75.2" y1="170.1" x2="75.2" y2="162.1" stroke="rgb(255,255,255)"  stroke-width="1.0"/>
<polygon points="160.974089 223.785938 176.383681 242.389379 169.462774 246.401989 " stroke-width="1.000000" fill="rgb(255,255,255)"  stroke="rgb(255,255,255)" />
<line x1="144.4" y1="155.0" x2="144.4" y2="119.6" stroke="rgb(255,255,255)"  stroke-width="1.0"/>
<line x1="144.4" y1="119.6" x2="110.6" y2="108.5" stroke="rgb(255,255,255)"  stroke-width="1.0"/>
<line x1="110.6" y1="108.5" x2="89.9" y2="137.4" stroke="rgb(255,255,255)"  stroke-width="1.0"/>
<line x1="89.9" y1="137.4" x2="110.6" y2="166.1" stroke="rgb(255,255,255)"  stroke-width="1.0"/>
<line x1="110.6" y1="166.1" x2="144.4" y2="155.0" stroke="rgb(255,255,255)"  stroke-width="1.0"/>
<line x1="199.0" y1="137.4" x2="178.3" y2="108.5" stroke="rgb(255,255,255)"  stroke-width="1.0"/>
<line x1="178.3" y1="108.5" x2="144.4" y2="119.6" stroke="rgb(255,255,255)"  stroke-width="1.0"/>
<line x1="144.4" y1="155.0" x2="178.3" y2="166.1" stroke="rgb(255,255,255)"  stroke-width="1.0"/>
<line x1="178.3" y1="166.1" x2="199.0" y2="137.4" stroke="rgb(255,255,255)"  stroke-width="1.0"/>
<line x1="178.3" y1="108.5" x2="161.0" y2="223.8" stroke="rgb(255,255,255)"  stroke-width="1.0"/>
<line x1="161.0" y1="223.8" x2="137.4" y2="203.1" stroke="rgb(255,255,255)"  stroke-width="1.0"/>
<line x1="125.1" y1="181.8" x2="110.6" y2="108.5" stroke="rgb(255,255,255)"  stroke-width="1.0"/>
<line x1="234.9" y1="241.1" x2="221.6" y2="259.3" stroke="rgb(255,255,255)"  stroke-width="1.0"/>
<line x1="221.6" y1="280.3" x2="234.9" y2="298.5" stroke="rgb(255,255,255)"  stroke-width="1.0"/>
<line x1="234.9" y1="298.5" x2="268.8" y2="287.6" stroke="rgb(255,255,255)"  stroke-width="1.0"/>
<line x1="238.4" y1="289.8" x2="260.9" y2="282.6" stroke="rgb(255,255,255)"  stroke-width="1.0"/>
<line x1="268.8" y1="287.6" x2="268.8" y2="252.0" stroke="rgb(255,255,255)"  stroke-width="1.0"/>
<line x1="268.8" y1="252.0" x2="234.9" y2="241.1" stroke="rgb(255,255,255)"  stroke-width="1.0"/>
<line x1="260.9" y1="257.0" x2="238.4" y2="249.8" stroke="rgb(255,255,255)"  stroke-width="1.0"/>
<line x1="54.5" y1="133.6" x2="40.0" y2="101.3" stroke="rgb(255,255,255)"  stroke-width="1.0"/>
<line x1="40.0" y1="101.3" x2="60.9" y2="72.6" stroke="rgb(255,255,255)"  stroke-width="1.0"/>
<line x1="60.9" y1="72.6" x2="96.1" y2="76.2" stroke="rgb(255,255,255)"  stroke-width="1.0"/>
<line x1="96.1" y1="76.2" x2="110.6" y2="108.5" stroke="rgb(255,255,255)"  stroke-width="1.0"/>
<line x1="89.9" y1="137.4" x2="54.5" y2="133.6" stroke="rgb(255,255,255)"  stroke-width="1.0"/>
<line x1="110.6" y1="166.1" x2="110.6" y2="223.8" stroke="rgb(255,255,255)"  stroke-width="1.0"/>
<line x1="110.6" y1="223.8" x2="161.0" y2="223.8" stroke="rgb(255,255,255)"  stroke-width="1.0"/>
<text x="111.028350" y="55.494715" fill="rgb(255,12,12)"  stroke="rgb(255,12,12)" stroke-width="1" font-size="16" >OH</text>
<text x="121.626816" y="202.577000" fill="rgb(255,12,12)"  stroke="rgb(255,12,12)" stroke-width="1" font-size="16" >O</text>
<text x="138.429775" y="198.700319" fill="rgb(255,12,12)"  stroke="rgb(255,12,12)" stroke-width="1" font-size="16" >OH</text>
<text x="138.429775" y="91.942731" fill="rgb(255,12,12)"  stroke="rgb(255,12,12)" stroke-width="1" font-size="16" >OH</text>
<text x="183.148444" y="207.746910" fill="rgb(255,12,12)"  stroke="rgb(255,12,12)" stroke-width="1" font-size="16" >O</text>
<text x="241.566321" y="188.877791" fill="rgb(255,12,12)"  stroke="rgb(255,12,12)" stroke-width="1" font-size="16" >O</text>
<text x="195.963410" y="277.797836" fill="rgb(12,12,255)"  stroke="rgb(12,12,255)" stroke-width="1" font-size="16" >HN</text>
<text x="54.054043" y="114.691538" fill="rgb(255,12,12)"  stroke="rgb(255,12,12)" stroke-width="1" font-size="16" >HO</text>
<text x="223.731786" y="163.028241" fill="rgb(255,12,12)"  stroke="rgb(255,12,12)" stroke-width="1" font-size="16" >OH</text>
<text x="172.808624" y="262.546752" fill="rgb(255,12,12)"  stroke="rgb(255,12,12)" stroke-width="1" font-size="16" >OH</text>
<text font-size="18.000000" fill ="white" font-family="sans-serif"
x="10.000000" y="20.000000" ></text>
<title> - OBDepict</title>
<cml:molecule>
 <cml:atomArray>
  <cml:atom id="a1" elementType="C" x2="3.472300" y2="-3.824700">
   <cml:atomParity atomRefs4="a12 a10 a2 a32">1</cml:atomParity>
  </cml:atom>
  <cml:atom id="a2" elementType="C" x2="3.472300" y2="-2.647200">
   <cml:atomParity atomRefs4="a13 a3 a1 a22">1</cml:atomParity>
  </cml:atom>
  <cml:atom id="a3" elementType="C" x2="2.346400" y2="-2.277600">
   <cml:atomParity atomRefs4="a11 a2 a24 a6">1</cml:atomParity>
  </cml:atom>
  <cml:atom id="a4" elementType="C" x2="0.481300" y2="-3.111300"/>
  <cml:atom id="a5" elementType="C" x2="0.000000" y2="-2.037000"/>
  <cml:atom id="a6" elementType="C" x2="1.865100" y2="-1.203300">
   <cml:atomParity atomRefs4="a6 a7 a8 a3">1</cml:atomParity>
  </cml:atom>
  <cml:atom id="a7" elementType="O" x2="2.561200" y2="-0.249200"/>
  <cml:atom id="a8" elementType="C" x2="0.696200" y2="-1.082900">
   <cml:atomParity atomRefs4="a8 a9 a6 a5">1</cml:atomParity>
  </cml:atom>
  <cml:atom id="a9" elementType="C" x2="0.214900" y2="0.000000"/>
  <cml:atom id="a10" elementType="C" x2="4.598200" y2="-4.194300">
   <cml:atomParity atomRefs4="a10 a14 a30 a1">1</cml:atomParity>
  </cml:atom>
  <cml:atom id="a11" elementType="O" x2="2.913600" y2="-5.139700"/>
  <cml:atom id="a12" elementType="O" x2="3.472300" y2="-5.010800"/>
  <cml:atom id="a13" elementType="O" x2="3.472300" y2="-1.461100"/>
  <cml:atom id="a14" elementType="O" x2="4.959200" y2="-5.311600"/>
  <cml:atom id="a15" elementType="O" x2="6.901600" y2="-4.684200"/>
  <cml:atom id="a16" elementType="C" x2="6.110900" y2="-5.560800"/>
  <cml:atom id="a17" elementType="C" x2="6.480500" y2="-6.686700"/>
  <cml:atom id="a18" elementType="N" x2="5.784300" y2="-7.640800"/>
  <cml:atom id="a19" elementType="C" x2="7.606400" y2="-7.047700"/>
  <cml:atom id="a20" elementType="C" x2="6.480500" y2="-8.594800"/>
  <cml:atom id="a21" elementType="C" x2="7.606400" y2="-8.233800"/>
  <cml:atom id="a22" elementType="C" x2="4.598200" y2="-2.277600">
   <cml:atomParity atomRefs4="a23 a2 a34 a30">1</cml:atomParity>
  </cml:atom>
  <cml:atom id="a23" elementType="C" x2="4.598200" y2="-1.100100"/>
  <cml:atom id="a24" elementType="C" x2="1.658800" y2="-3.240200">
   <cml:atomParity atomRefs4="a25 a4 a32 a3">1</cml:atomParity>
  </cml:atom>
  <cml:atom id="a25" elementType="O" x2="1.065800" y2="-2.217500"/>
  <cml:atom id="a26" elementType="C" x2="2.346400" y2="-6.110900"/>
  <cml:atom id="a27" elementType="C" x2="7.331400" y2="-3.240200"/>
  <cml:atom id="a28" elementType="C" x2="6.308600" y2="-2.647200"/>
  <cml:atom id="a29" elementType="C" x2="6.308600" y2="-1.469700"/>
  <cml:atom id="a30" elementType="C" x2="5.285800" y2="-3.240200">
   <cml:atomParity atomRefs4="a31 a28 a22 a10">1</cml:atomParity>
  </cml:atom>
  <cml:atom id="a31" elementType="O" x2="6.308600" y2="-3.824700"/>
  <cml:atom id="a32" elementType="C" x2="2.346400" y2="-4.194300">
   <cml:atomParity atomRefs4="a33 a26 a1 a24">1</cml:atomParity>
  </cml:atom>
  <cml:atom id="a33" elementType="C" x2="1.168900" y2="-4.194300"/>
  <cml:atom id="a34" elementType="C" x2="4.022400" y2="-6.110900">
   <cml:atomParity atomRefs4="a11 a26 a22 a35">1</cml:atomParity>
  </cml:atom>
  <cml:atom id="a35" elementType="O" x2="4.615400" y2="-7.133700"/>
 </cml:atomArray>
 <cml:bondArray>
  <cml:bond atomRefs2="a1 a10" order="1"/>
  <cml:bond atomRefs2="a1 a32" order="1"/>
  <cml:bond atomRefs2="a1 a12" order="1"/>
  <cml:bond atomRefs2="a1 a2" order="1"/>
  <cml:bond atomRefs2="a2 a22" order="1"/>
  <cml:bond atomRefs2="a2 a3" order="1"/>
  <cml:bond atomRefs2="a2 a13" order="1"/>
  <cml:bond atomRefs2="a3 a6" order="1"/>
  <cml:bond atomRefs2="a3 a24" order="1"/>
  <cml:bond atomRefs2="a3 a11" order="1"/>
  <cml:bond atomRefs2="a4 a24" order="1"/>
  <cml:bond atomRefs2="a4 a5" order="1"/>
  <cml:bond atomRefs2="a5 a8" order="1"/>
  <cml:bond atomRefs2="a6 a8" order="1"/>
  <cml:bond atomRefs2="a6 a7" order="1"/>
  <cml:bond atomRefs2="a8 a9" order="1"/>
  <cml:bond atomRefs2="a10 a30" order="1"/>
  <cml:bond atomRefs2="a10 a14" order="1"/>
  <cml:bond atomRefs2="a34 a11" order="1"/>
  <cml:bond atomRefs2="a14 a16" order="1"/>
  <cml:bond atomRefs2="a15 a16" order="2"/>
  <cml:bond atomRefs2="a16 a17" order="1"/>
  <cml:bond atomRefs2="a17 a18" order="1"/>
  <cml:bond atomRefs2="a17 a19" order="2"/>
  <cml:bond atomRefs2="a18 a20" order="1"/>
  <cml:bond atomRefs2="a19 a21" order="1"/>
  <cml:bond atomRefs2="a20 a21" order="2"/>
  <cml:bond atomRefs2="a22 a30" order="1"/>
  <cml:bond atomRefs2="a22 a23" order="1"/>
  <cml:bond atomRefs2="a22 a34" order="1"/>
  <cml:bond atomRefs2="a24 a32" order="1"/>
  <cml:bond atomRefs2="a24 a25" order="1"/>
  <cml:bond atomRefs2="a26 a34" order="1"/>
  <cml:bond atomRefs2="a26 a32" order="1"/>
  <cml:bond atomRefs2="a27 a28" order="1"/>
  <cml:bond atomRefs2="a28 a30" order="1"/>
  <cml:bond atomRefs2="a28 a29" order="1"/>
  <cml:bond atomRefs2="a30 a31" order="1"/>
  <cml:bond atomRefs2="a32 a33" order="1"/>
  <cml:bond atomRefs2="a34 a35" order="1"/>
 </cml:bondArray>
 <cml:propertyList>
  <cml:property title="StdInChI">
   <cml:scalar>InChI=1S/C25H35NO9/c1-12(2)22(31)17(34-16(28)14-7-6-10-26-14)23(32)18(4)11-21(30)19(22,5)25(23,33)24(35-21)15(27)13(3)8-9-20(18,24)29/h6-7,10,12-13,15,17,26-27,29-33H,8-9,11H2,1-5H3/t13-,15+,17+,18-,19+,20-,21-,22+,23+,24+,25+/m0/s1</cml:scalar>
  </cml:property>
  <cml:property title="StdInChIKey">
   <cml:scalar>JJSYXNQGLHBRRK-SFEDZAPPSA-N</cml:scalar>
  </cml:property>
  <cml:property title="AuxInfo">
   <cml:scalar>1/0/N:27,29,9,33,23,21,19,5,4,20,26,28,8,17,6,16,10,32,22,24,34,30,1,3,2,18,7,15,25,35,31,12,13,14,11/E:(1,2)/it:im/rA:35cCCCCCCOCCCOOOOOCCNCCCCCCOCCCCCOCCCO/rB:s1;s2;;s4;s3;P6;s5s6;N8;s1;P3;N1;N2;P10;;s14d15;s16;s17;d17;s18;s19d20;s2;N22;s3s4;N24;;;s27;s28;s10s22s28;N30;s1s24s26;N32;p11s22s26;s34;/rC:3.4723,-3.8247,0;3.4723,-2.6472,0;2.3464,-2.2776,0;.4813,-3.1113,0;0,-2.037,0;1.8651,-1.2033,0;2.5612,-.2492,0;.6962,-1.0829,0;.2149,0,0;4.5982,-4.1943,0;2.9136,-5.1397,0;3.4723,-5.0108,0;3.4723,-1.4611,0;4.9592,-5.3116,0;6.9016,-4.6842,0;6.1109,-5.5608,0;6.4805,-6.6867,0;5.7843,-7.6408,0;7.6064,-7.0477,0;6.4805,-8.5948,0;7.6064,-8.2338,0;4.5982,-2.2776,0;4.5982,-1.1001,0;1.6588,-3.2402,0;1.0658,-2.2175,0;2.3464,-6.1109,0;7.3314,-3.2402,0;6.3086,-2.6472,0;6.3086,-1.4697,0;5.2858,-3.2402,0;6.3086,-3.8247,0;2.3464,-4.1943,0;1.1689,-4.1943,0;4.0224,-6.1109,0;4.6154,-7.1337,0;</cml:scalar>
  </cml:property>
  <cml:property title="Formula">
   <cml:scalar>C25 H35 N O9</cml:scalar>
  </cml:property>
  <cml:property title="Mw">
   <cml:scalar>493.5467</cml:scalar>
  </cml:property>
  <cml:property title="SMILES">
   <cml:scalar>[C@]12([C@@]3(O)[C@]45O[C@@](O)(C[C@@]1(C)[C@@]4(O)CC[C@H](C)[C@H]5O)[C@]3(C)[C@@](O)(C(C)C)[C@H]2OC(C1=CC=CN1)=O)O</cml:scalar>
  </cml:property>
  <cml:property title="CSID">
   <cml:scalar>16736002</cml:scalar>
  </cml:property>
 </cml:propertyList>
</cml:molecule>
</svg>
