<?xml version="1.0"?>
<svg xmlns="http://www.w3.org/2000/svg"
xmlns:xlink="http://www.w3.org/1999/xlink" xmlns:cml="http://www.xml-cml.org/schema" width="494.516" height="363.889" x="0" y="0" font-family="sans-serif" stroke="rgb(255,255,255)" stroke-width="1"  stroke-linecap="round">
<rect x="0%" y="0%" width="100%" height="100%" stroke-width="0" fill="rgb(0,0,0)"  />
<line x1="159.7" y1="190.4" x2="132.8" y2="190.4" stroke="rgb(255,255,255)"  stroke-width="1.0"/>
<line x1="113.3" y1="201.7" x2="99.8" y2="224.9" stroke="rgb(255,255,255)"  stroke-width="1.0"/>
<line x1="264.4" y1="118.2" x2="250.5" y2="118.2" stroke="rgb(255,255,255)"  stroke-width="1.0"/>
<line x1="231.0" y1="129.5" x2="217.6" y2="152.8" stroke="rgb(255,255,255)"  stroke-width="1.0"/>
<line x1="335.4" y1="80.6" x2="295.5" y2="82.7" stroke="rgb(255,255,255)"  stroke-width="1.0"/>
<line x1="295.5" y1="82.7" x2="283.3" y2="106.6" stroke="rgb(255,255,255)"  stroke-width="1.0"/>
<line x1="221.2" y1="221.8" x2="236.1" y2="244.1" stroke="rgb(255,255,255)"  stroke-width="1.0"/>
<line x1="414.7" y1="72.3" x2="441.5" y2="70.9" stroke="rgb(255,255,255)"  stroke-width="1.0"/>
<line x1="59.9" y1="224.9" x2="40.0" y2="259.5" stroke="rgb(255,255,255)"  stroke-width="1.0"/>
<line x1="63.2" y1="233.7" x2="49.2" y2="257.9" stroke="rgb(255,255,255)"  stroke-width="1.0"/>
<line x1="40.0" y1="259.5" x2="59.9" y2="294.0" stroke="rgb(255,255,255)"  stroke-width="1.0"/>
<line x1="59.9" y1="294.0" x2="99.8" y2="294.0" stroke="rgb(255,255,255)"  stroke-width="1.0"/>
<line x1="65.9" y1="286.8" x2="93.8" y2="286.8" stroke="rgb(255,255,255)"  stroke-width="1.0"/>
<line x1="99.8" y1="294.0" x2="119.8" y2="259.5" stroke="rgb(255,255,255)"  stroke-width="1.0"/>
<line x1="119.8" y1="259.5" x2="99.8" y2="224.9" stroke="rgb(255,255,255)"  stroke-width="1.0"/>
<line x1="110.5" y1="257.9" x2="96.6" y2="233.7" stroke="rgb(255,255,255)"  stroke-width="1.0"/>
<line x1="99.8" y1="224.9" x2="59.9" y2="224.9" stroke="rgb(255,255,255)"  stroke-width="1.0"/>
<line x1="159.7" y1="190.4" x2="171.9" y2="166.4" stroke="rgb(255,255,255)"  stroke-width="1.0"/>
<line x1="190.9" y1="154.2" x2="217.6" y2="152.8" stroke="rgb(255,255,255)"  stroke-width="1.0"/>
<line x1="193.3" y1="161.3" x2="212.0" y2="160.3" stroke="rgb(255,255,255)"  stroke-width="1.0"/>
<line x1="217.6" y1="152.8" x2="232.2" y2="175.3" stroke="rgb(255,255,255)"  stroke-width="1.0"/>
<line x1="233.3" y1="198.0" x2="221.2" y2="221.8" stroke="rgb(255,255,255)"  stroke-width="1.0"/>
<line x1="226.0" y1="196.5" x2="217.5" y2="213.1" stroke="rgb(255,255,255)"  stroke-width="1.0"/>
<line x1="221.2" y1="221.8" x2="192.6" y2="224.0" stroke="rgb(255,255,255)"  stroke-width="1.0"/>
<line x1="173.0" y1="213.5" x2="159.7" y2="190.4" stroke="rgb(255,255,255)"  stroke-width="1.0"/>
<line x1="178.2" y1="208.2" x2="168.9" y2="192.0" stroke="rgb(255,255,255)"  stroke-width="1.0"/>
<line x1="335.4" y1="80.6" x2="351.6" y2="44.2" stroke="rgb(255,255,255)"  stroke-width="1.0"/>
<line x1="344.4" y1="78.1" x2="355.7" y2="52.6" stroke="rgb(255,255,255)"  stroke-width="1.0"/>
<line x1="351.6" y1="44.2" x2="391.2" y2="40.0" stroke="rgb(255,255,255)"  stroke-width="1.0"/>
<line x1="391.2" y1="40.0" x2="414.7" y2="72.3" stroke="rgb(255,255,255)"  stroke-width="1.0"/>
<line x1="388.9" y1="49.1" x2="405.3" y2="71.6" stroke="rgb(255,255,255)"  stroke-width="1.0"/>
<line x1="414.7" y1="72.3" x2="398.5" y2="108.7" stroke="rgb(255,255,255)"  stroke-width="1.0"/>
<line x1="398.5" y1="108.7" x2="357.1" y2="114.1" stroke="rgb(255,255,255)"  stroke-width="1.0"/>
<line x1="391.6" y1="102.3" x2="362.1" y2="106.1" stroke="rgb(255,255,255)"  stroke-width="1.0"/>
<line x1="357.1" y1="114.1" x2="335.4" y2="80.6" stroke="rgb(255,255,255)"  stroke-width="1.0"/>
<line x1="237.6" y1="266.6" x2="225.6" y2="290.7" stroke="rgb(255,255,255)"  stroke-width="1.0"/>
<line x1="225.6" y1="290.7" x2="247.8" y2="323.9" stroke="rgb(255,255,255)"  stroke-width="1.0"/>
<line x1="247.8" y1="323.9" x2="274.6" y2="322.2" stroke="rgb(255,255,255)"  stroke-width="1.0"/>
<line x1="293.3" y1="309.7" x2="305.2" y2="285.6" stroke="rgb(255,255,255)"  stroke-width="1.0"/>
<line x1="305.2" y1="285.6" x2="283.1" y2="252.4" stroke="rgb(255,255,255)"  stroke-width="1.0"/>
<line x1="283.1" y1="252.4" x2="256.3" y2="254.1" stroke="rgb(255,255,255)"  stroke-width="1.0"/>
<text x="113.768445" y="198.399778" fill="rgb(12,12,255)"  stroke="rgb(12,12,255)" stroke-width="1" font-size="16" >N</text>
<text x="113.768445" y="182.399778" fill="rgb(12,12,255)"  stroke="rgb(12,12,255)" stroke-width="1" font-size="16" >H</text>
<text x="173.594779" y="232.941932" fill="rgb(12,12,255)"  stroke="rgb(12,12,255)" stroke-width="1" font-size="16" >N</text>
<text x="171.757688" y="162.861727" fill="rgb(12,12,255)"  stroke="rgb(12,12,255)" stroke-width="1" font-size="16" >N</text>
<text x="233.309921" y="194.227647" fill="rgb(12,12,255)"  stroke="rgb(12,12,255)" stroke-width="1" font-size="16" >N</text>
<text x="271.415066" y="126.231090" fill="rgb(12,12,255)"  stroke="rgb(12,12,255)" stroke-width="1" font-size="16" >N</text>
<text x="271.415066" y="142.231090" fill="rgb(12,12,255)"  stroke="rgb(12,12,255)" stroke-width="1" font-size="16" >H</text>
<text x="231.530843" y="126.235924" fill="rgb(12,12,255)"  stroke="rgb(12,12,255)" stroke-width="1" font-size="16" >N</text>
<text x="231.530843" y="110.235924" fill="rgb(12,12,255)"  stroke="rgb(12,12,255)" stroke-width="1" font-size="16" >H</text>
<text x="237.322516" y="262.949371" fill="rgb(12,12,255)"  stroke="rgb(12,12,255)" stroke-width="1" font-size="16" >N</text>
<text x="281.567413" y="329.326386" fill="rgb(255,12,12)"  stroke="rgb(255,12,12)" stroke-width="1" font-size="16" >O</text>
<text x="448.515518" y="78.181479" fill="rgb(255,12,12)"  stroke="rgb(255,12,12)" stroke-width="1" font-size="16" >OH</text>
<text font-size="18.000000" fill ="white" font-family="sans-serif"
x="10.000000" y="20.000000" ></text>
<title> - OBDepict</title>
<cml:molecule>
 <cml:atomArray>
  <cml:atom id="a1" elementType="C" x2="-3.760700" y2="-0.223000"/>
  <cml:atom id="a2" elementType="C" x2="-4.173200" y2="-0.937500"/>
  <cml:atom id="a3" elementType="C" x2="-3.760700" y2="-1.652000"/>
  <cml:atom id="a4" elementType="C" x2="-2.935700" y2="-1.652000"/>
  <cml:atom id="a5" elementType="C" x2="-2.523200" y2="-0.937500"/>
  <cml:atom id="a6" elementType="C" x2="-2.935700" y2="-0.223000"/>
  <cml:atom id="a7" elementType="C" x2="-1.698200" y2="0.491500"/>
  <cml:atom id="a8" elementType="N" x2="-2.523200" y2="0.491500"/>
  <cml:atom id="a9" elementType="N" x2="-1.285700" y2="-0.223000"/>
  <cml:atom id="a10" elementType="C" x2="-0.499800" y2="1.269800"/>
  <cml:atom id="a11" elementType="N" x2="-1.323700" y2="1.226600"/>
  <cml:atom id="a12" elementType="C" x2="-0.425000" y2="-0.157200"/>
  <cml:atom id="a13" elementType="N" x2="-0.050500" y2="0.577800"/>
  <cml:atom id="a14" elementType="N" x2="0.737700" y2="1.984300"/>
  <cml:atom id="a15" elementType="N" x2="-0.087300" y2="1.984200"/>
  <cml:atom id="a16" elementType="C" x2="1.936100" y2="2.762500"/>
  <cml:atom id="a17" elementType="C" x2="1.112300" y2="2.719400"/>
  <cml:atom id="a18" elementType="C" x2="2.385500" y2="2.070600"/>
  <cml:atom id="a19" elementType="C" x2="3.092200" y2="3.602500"/>
  <cml:atom id="a20" elementType="C" x2="2.271700" y2="3.516200"/>
  <cml:atom id="a21" elementType="C" x2="3.241500" y2="2.181300"/>
  <cml:atom id="a22" elementType="C" x2="3.577100" y2="2.935000"/>
  <cml:atom id="a23" elementType="N" x2="0.032500" y2="-0.843700"/>
  <cml:atom id="a24" elementType="C" x2="-0.333200" y2="-1.583200"/>
  <cml:atom id="a25" elementType="C" x2="0.124400" y2="-2.269700"/>
  <cml:atom id="a26" elementType="O" x2="0.947700" y2="-2.216700"/>
  <cml:atom id="a27" elementType="C" x2="1.313400" y2="-1.477200"/>
  <cml:atom id="a28" elementType="C" x2="0.855800" y2="-0.790700"/>
  <cml:atom id="a29" elementType="O" x2="4.401000" y2="2.978200"/>
 </cml:atomArray>
 <cml:bondArray>
  <cml:bond atomRefs2="a1 a2" order="2"/>
  <cml:bond atomRefs2="a2 a3" order="1"/>
  <cml:bond atomRefs2="a3 a4" order="2"/>
  <cml:bond atomRefs2="a4 a5" order="1"/>
  <cml:bond atomRefs2="a5 a6" order="2"/>
  <cml:bond atomRefs2="a1 a6" order="1"/>
  <cml:bond atomRefs2="a7 a8" order="1"/>
  <cml:bond atomRefs2="a7 a9" order="2"/>
  <cml:bond atomRefs2="a8 a6" order="1"/>
  <cml:bond atomRefs2="a10 a11" order="2"/>
  <cml:bond atomRefs2="a12 a13" order="2"/>
  <cml:bond atomRefs2="a10 a13" order="1"/>
  <cml:bond atomRefs2="a11 a7" order="1"/>
  <cml:bond atomRefs2="a9 a12" order="1"/>
  <cml:bond atomRefs2="a14 a15" order="1"/>
  <cml:bond atomRefs2="a15 a10" order="1"/>
  <cml:bond atomRefs2="a16 a17" order="1"/>
  <cml:bond atomRefs2="a16 a18" order="1"/>
  <cml:bond atomRefs2="a17 a14" order="1"/>
  <cml:bond atomRefs2="a19 a20" order="1"/>
  <cml:bond atomRefs2="a21 a22" order="1"/>
  <cml:bond atomRefs2="a19 a22" order="2"/>
  <cml:bond atomRefs2="a20 a16" order="2"/>
  <cml:bond atomRefs2="a18 a21" order="2"/>
  <cml:bond atomRefs2="a24 a25" order="1"/>
  <cml:bond atomRefs2="a25 a26" order="1"/>
  <cml:bond atomRefs2="a26 a27" order="1"/>
  <cml:bond atomRefs2="a27 a28" order="1"/>
  <cml:bond atomRefs2="a23 a24" order="1"/>
  <cml:bond atomRefs2="a23 a28" order="1"/>
  <cml:bond atomRefs2="a12 a23" order="1"/>
  <cml:bond atomRefs2="a22 a29" order="1"/>
 </cml:bondArray>
</cml:molecule>
</svg>
