<?xml version="1.0"?>
<svg xmlns="http://www.w3.org/2000/svg"
xmlns:xlink="http://www.w3.org/1999/xlink" xmlns:cml="http://www.xml-cml.org/schema" width="432.75" height="387.262" x="0" y="0" font-family="sans-serif" stroke="rgb(255,255,255)" stroke-width="1"  stroke-linecap="round">
<rect x="0%" y="0%" width="100%" height="100%" stroke-width="0" fill="rgb(0,0,0)"  />
<line x1="213.2" y1="227.3" x2="249.7" y2="211.0" stroke="rgb(255,255,255)"  stroke-width="1.0"/>
<line x1="314.1" y1="204.2" x2="353.2" y2="212.5" stroke="rgb(255,255,255)"  stroke-width="1.0"/>
<line x1="353.2" y1="212.5" x2="379.9" y2="208.3" stroke="rgb(255,255,255)"  stroke-width="1.0"/>
<line x1="353.2" y1="212.5" x2="364.2" y2="237.2" stroke="rgb(255,255,255)"  stroke-width="1.0"/>
<line x1="353.2" y1="212.5" x2="344.9" y2="238.2" stroke="rgb(255,255,255)"  stroke-width="1.0"/>
<line x1="249.4" y1="162.2" x2="231.3" y2="142.1" stroke="rgb(255,255,255)"  stroke-width="1.0"/>
<line x1="177.8" y1="82.7" x2="157.7" y2="64.6" stroke="rgb(255,255,255)"  stroke-width="1.0"/>
<line x1="135.7" y1="59.9" x2="110.0" y2="68.3" stroke="rgb(255,255,255)"  stroke-width="1.0"/>
<line x1="112.9" y1="69.1" x2="105.9" y2="95.1" stroke="rgb(255,255,255)"  stroke-width="1.0"/>
<line x1="107.1" y1="67.5" x2="100.1" y2="93.6" stroke="rgb(255,255,255)"  stroke-width="1.0"/>
<line x1="110.0" y1="68.3" x2="81.7" y2="40.0" stroke="rgb(255,255,255)"  stroke-width="1.0"/>
<line x1="81.7" y1="40.0" x2="59.1" y2="54.7" stroke="rgb(255,255,255)"  stroke-width="1.0"/>
<line x1="249.7" y1="211.0" x2="255.4" y2="184.6" stroke="rgb(255,255,255)"  stroke-width="1.0"/>
<line x1="271.0" y1="170.5" x2="284.9" y2="169.0" stroke="rgb(255,255,255)"  stroke-width="1.0"/>
<line x1="303.2" y1="179.7" x2="314.1" y2="204.2" stroke="rgb(255,255,255)"  stroke-width="1.0"/>
<line x1="297.5" y1="184.5" x2="305.1" y2="201.7" stroke="rgb(255,255,255)"  stroke-width="1.0"/>
<line x1="314.1" y1="204.2" x2="284.4" y2="231.0" stroke="rgb(255,255,255)"  stroke-width="1.0"/>
<line x1="284.4" y1="231.0" x2="249.7" y2="211.0" stroke="rgb(255,255,255)"  stroke-width="1.0"/>
<line x1="282.8" y1="221.8" x2="258.5" y2="207.8" stroke="rgb(255,255,255)"  stroke-width="1.0"/>
<line x1="109.3" y1="287.3" x2="74.6" y2="267.3" stroke="rgb(255,255,255)"  stroke-width="1.0"/>
<line x1="100.5" y1="290.5" x2="76.2" y2="276.5" stroke="rgb(255,255,255)"  stroke-width="1.0"/>
<line x1="74.6" y1="267.3" x2="40.0" y2="287.3" stroke="rgb(255,255,255)"  stroke-width="1.0"/>
<line x1="40.0" y1="287.3" x2="40.0" y2="327.3" stroke="rgb(255,255,255)"  stroke-width="1.0"/>
<line x1="47.2" y1="293.3" x2="47.2" y2="321.3" stroke="rgb(255,255,255)"  stroke-width="1.0"/>
<line x1="40.0" y1="327.3" x2="74.6" y2="347.3" stroke="rgb(255,255,255)"  stroke-width="1.0"/>
<line x1="74.6" y1="347.3" x2="109.3" y2="327.3" stroke="rgb(255,255,255)"  stroke-width="1.0"/>
<line x1="76.2" y1="338.0" x2="100.5" y2="324.0" stroke="rgb(255,255,255)"  stroke-width="1.0"/>
<line x1="109.3" y1="327.3" x2="109.3" y2="287.3" stroke="rgb(255,255,255)"  stroke-width="1.0"/>
<line x1="178.6" y1="287.3" x2="143.9" y2="267.3" stroke="rgb(255,255,255)"  stroke-width="1.0"/>
<line x1="169.8" y1="290.5" x2="145.5" y2="276.5" stroke="rgb(255,255,255)"  stroke-width="1.0"/>
<line x1="143.9" y1="267.3" x2="109.3" y2="287.3" stroke="rgb(255,255,255)"  stroke-width="1.0"/>
<line x1="109.3" y1="327.3" x2="143.9" y2="347.3" stroke="rgb(255,255,255)"  stroke-width="1.0"/>
<line x1="143.9" y1="347.3" x2="178.6" y2="327.3" stroke="rgb(255,255,255)"  stroke-width="1.0"/>
<line x1="145.5" y1="338.0" x2="169.8" y2="324.0" stroke="rgb(255,255,255)"  stroke-width="1.0"/>
<line x1="178.6" y1="327.3" x2="178.6" y2="287.3" stroke="rgb(255,255,255)"  stroke-width="1.0"/>
<line x1="213.2" y1="267.3" x2="213.2" y2="227.3" stroke="rgb(255,255,255)"  stroke-width="1.0"/>
<line x1="206.0" y1="261.3" x2="206.0" y2="233.3" stroke="rgb(255,255,255)"  stroke-width="1.0"/>
<line x1="213.2" y1="227.3" x2="178.6" y2="207.3" stroke="rgb(255,255,255)"  stroke-width="1.0"/>
<line x1="178.6" y1="207.3" x2="143.9" y2="227.3" stroke="rgb(255,255,255)"  stroke-width="1.0"/>
<line x1="177.0" y1="216.5" x2="152.7" y2="230.5" stroke="rgb(255,255,255)"  stroke-width="1.0"/>
<line x1="143.9" y1="227.3" x2="143.9" y2="267.3" stroke="rgb(255,255,255)"  stroke-width="1.0"/>
<line x1="178.6" y1="287.3" x2="213.2" y2="267.3" stroke="rgb(255,255,255)"  stroke-width="1.0"/>
<line x1="231.3" y1="142.1" x2="243.7" y2="104.1" stroke="rgb(255,255,255)"  stroke-width="1.0"/>
<line x1="243.7" y1="104.1" x2="216.9" y2="74.4" stroke="rgb(255,255,255)"  stroke-width="1.0"/>
<line x1="234.3" y1="104.5" x2="215.6" y2="83.7" stroke="rgb(255,255,255)"  stroke-width="1.0"/>
<line x1="216.9" y1="74.4" x2="177.8" y2="82.7" stroke="rgb(255,255,255)"  stroke-width="1.0"/>
<line x1="177.8" y1="82.7" x2="165.4" y2="120.7" stroke="rgb(255,255,255)"  stroke-width="1.0"/>
<line x1="182.8" y1="90.6" x2="174.1" y2="117.3" stroke="rgb(255,255,255)"  stroke-width="1.0"/>
<line x1="165.4" y1="120.7" x2="192.2" y2="150.5" stroke="rgb(255,255,255)"  stroke-width="1.0"/>
<line x1="192.2" y1="150.5" x2="231.3" y2="142.1" stroke="rgb(255,255,255)"  stroke-width="1.0"/>
<line x1="196.5" y1="142.2" x2="223.9" y2="136.3" stroke="rgb(255,255,255)"  stroke-width="1.0"/>
<text x="291.846512" y="175.684472" fill="rgb(12,12,255)"  stroke="rgb(12,12,255)" stroke-width="1" font-size="16" >N</text>
<text x="252.069660" y="179.868702" fill="rgb(12,12,255)"  stroke="rgb(12,12,255)" stroke-width="1" font-size="16" >N</text>
<text x="386.750475" y="214.287994" fill="rgb(127,178,255)"  stroke="rgb(127,178,255)" stroke-width="1" font-size="16" >F</text>
<text x="363.511755" y="257.085444" fill="rgb(127,178,255)"  stroke="rgb(127,178,255)" stroke-width="1" font-size="16" >F</text>
<text x="334.881537" y="258.588470" fill="rgb(127,178,255)"  stroke="rgb(127,178,255)" stroke-width="1" font-size="16" >F</text>
<text x="142.043318" y="63.927226" fill="rgb(12,12,255)"  stroke="rgb(12,12,255)" stroke-width="1" font-size="16" >N</text>
<text x="142.043318" y="47.927226" fill="rgb(12,12,255)"  stroke="rgb(12,12,255)" stroke-width="1" font-size="16" >H</text>
<text x="93.650733" y="114.923439" fill="rgb(255,12,12)"  stroke="rgb(255,12,12)" stroke-width="1" font-size="16" >O</text>
<text x="22.169673" y="69.789027" fill="rgb(12,12,255)"  stroke="rgb(12,12,255)" stroke-width="1" font-size="16" >H</text>
<text x="34.169673" y="73.469027" fill="rgb(12,12,255)"  stroke="rgb(12,12,255)" stroke-width="1" font-size="13" >2</text>
<text x="40.669673" y="69.789027" fill="rgb(12,12,255)"  stroke="rgb(12,12,255)" stroke-width="1" font-size="16" >N</text>
<text font-size="18.000000" fill ="white" font-family="sans-serif"
x="10.000000" y="20.000000" ></text>
<title> - OBDepict</title>
<cml:molecule>
 <cml:atomArray>
  <cml:atom id="a1" elementType="C" x2="-2.790200" y2="-1.150000"/>
  <cml:atom id="a2" elementType="C" x2="-3.504600" y2="-0.737500"/>
  <cml:atom id="a3" elementType="C" x2="-4.219200" y2="-1.150000"/>
  <cml:atom id="a4" elementType="C" x2="-4.219200" y2="-1.975000"/>
  <cml:atom id="a5" elementType="C" x2="-3.504600" y2="-2.387500"/>
  <cml:atom id="a6" elementType="C" x2="-2.790200" y2="-1.975000"/>
  <cml:atom id="a7" elementType="C" x2="-2.075700" y2="-2.387500"/>
  <cml:atom id="a8" elementType="C" x2="-1.361200" y2="-1.975000"/>
  <cml:atom id="a9" elementType="C" x2="-1.361200" y2="-1.150000"/>
  <cml:atom id="a10" elementType="C" x2="-2.075700" y2="-0.737500"/>
  <cml:atom id="a11" elementType="C" x2="-1.361200" y2="0.500000"/>
  <cml:atom id="a12" elementType="C" x2="-2.075700" y2="0.087500"/>
  <cml:atom id="a13" elementType="C" x2="-0.646700" y2="-0.737500"/>
  <cml:atom id="a14" elementType="C" x2="-0.646700" y2="0.087500"/>
  <cml:atom id="a15" elementType="C" x2="0.106900" y2="0.423100"/>
  <cml:atom id="a16" elementType="N" x2="1.098900" y2="1.316300"/>
  <cml:atom id="a17" elementType="N" x2="0.278500" y2="1.230000"/>
  <cml:atom id="a18" elementType="C" x2="0.821400" y2="0.010600"/>
  <cml:atom id="a19" elementType="C" x2="1.434500" y2="0.562600"/>
  <cml:atom id="a20" elementType="C" x2="2.241500" y2="0.391000"/>
  <cml:atom id="a21" elementType="F" x2="3.056300" y2="0.520100"/>
  <cml:atom id="a22" elementType="F" x2="2.577000" y2="-0.362600"/>
  <cml:atom id="a23" elementType="F" x2="1.986500" y2="-0.393600"/>
  <cml:atom id="a24" elementType="C" x2="-0.273600" y2="1.843100"/>
  <cml:atom id="a25" elementType="C" x2="-0.018700" y2="2.627700"/>
  <cml:atom id="a26" elementType="C" x2="-0.570700" y2="3.240800"/>
  <cml:atom id="a27" elementType="C" x2="-1.377700" y2="3.069300"/>
  <cml:atom id="a28" elementType="C" x2="-1.632600" y2="2.284700"/>
  <cml:atom id="a29" elementType="C" x2="-1.080600" y2="1.671600"/>
  <cml:atom id="a30" elementType="N" x2="-1.990800" y2="3.621300"/>
  <cml:atom id="a31" elementType="C" x2="-2.775400" y2="3.366400"/>
  <cml:atom id="a32" elementType="O" x2="-2.988900" y2="2.569500"/>
  <cml:atom id="a33" elementType="C" x2="-3.358800" y2="3.949800"/>
  <cml:atom id="a34" elementType="N" x2="-4.050700" y2="3.500400"/>
 </cml:atomArray>
 <cml:bondArray>
  <cml:bond atomRefs2="a1 a2" order="2"/>
  <cml:bond atomRefs2="a2 a3" order="1"/>
  <cml:bond atomRefs2="a3 a4" order="2"/>
  <cml:bond atomRefs2="a4 a5" order="1"/>
  <cml:bond atomRefs2="a5 a6" order="2"/>
  <cml:bond atomRefs2="a7 a8" order="2"/>
  <cml:bond atomRefs2="a8 a9" order="1"/>
  <cml:bond atomRefs2="a9 a10" order="2"/>
  <cml:bond atomRefs2="a1 a6" order="1"/>
  <cml:bond atomRefs2="a1 a10" order="1"/>
  <cml:bond atomRefs2="a6 a7" order="1"/>
  <cml:bond atomRefs2="a11 a12" order="2"/>
  <cml:bond atomRefs2="a13 a14" order="2"/>
  <cml:bond atomRefs2="a11 a14" order="1"/>
  <cml:bond atomRefs2="a9 a13" order="1"/>
  <cml:bond atomRefs2="a12 a10" order="1"/>
  <cml:bond atomRefs2="a14 a15" order="1"/>
  <cml:bond atomRefs2="a16 a17" order="1"/>
  <cml:bond atomRefs2="a18 a19" order="1"/>
  <cml:bond atomRefs2="a16 a19" order="2"/>
  <cml:bond atomRefs2="a17 a15" order="1"/>
  <cml:bond atomRefs2="a15 a18" order="2"/>
  <cml:bond atomRefs2="a19 a20" order="1"/>
  <cml:bond atomRefs2="a20 a21" order="1"/>
  <cml:bond atomRefs2="a20 a22" order="1"/>
  <cml:bond atomRefs2="a20 a23" order="1"/>
  <cml:bond atomRefs2="a25 a26" order="2"/>
  <cml:bond atomRefs2="a26 a27" order="1"/>
  <cml:bond atomRefs2="a27 a28" order="2"/>
  <cml:bond atomRefs2="a28 a29" order="1"/>
  <cml:bond atomRefs2="a24 a25" order="1"/>
  <cml:bond atomRefs2="a24 a29" order="2"/>
  <cml:bond atomRefs2="a17 a24" order="1"/>
  <cml:bond atomRefs2="a27 a30" order="1"/>
  <cml:bond atomRefs2="a30 a31" order="1"/>
  <cml:bond atomRefs2="a31 a32" order="2"/>
  <cml:bond atomRefs2="a31 a33" order="1"/>
  <cml:bond atomRefs2="a33 a34" order="1"/>
 </cml:bondArray>
</cml:molecule>
</svg>
