<?xml version="1.0"?>
<svg xmlns="http://www.w3.org/2000/svg"
xmlns:xlink="http://www.w3.org/1999/xlink" xmlns:cml="http://www.xml-cml.org/schema" width="468.524" height="249.463" x="0" y="0" font-family="sans-serif" stroke="rgb(255,255,255)" stroke-width="1"  stroke-linecap="round">
<rect x="0%" y="0%" width="100%" height="100%" stroke-width="0" fill="rgb(0,0,0)"  />
<polygon points="98.6487 74.0301 59.5527 78.0301 59.5527 70.0301 " stroke-width="1" fill="rgb(255,255,255)"  stroke="rgb(255,255,255)" />
<line x1="115.0" y1="182.8" x2="113.6" y2="182.0" stroke="rgb(255,255,255)"  stroke-width="1.0"/>
<line x1="112.4" y1="188.5" x2="109.9" y2="187.1" stroke="rgb(255,255,255)"  stroke-width="1.0"/>
<line x1="109.8" y1="194.3" x2="106.2" y2="192.2" stroke="rgb(255,255,255)"  stroke-width="1.0"/>
<line x1="107.3" y1="200.0" x2="102.5" y2="197.3" stroke="rgb(255,255,255)"  stroke-width="1.0"/>
<line x1="104.7" y1="205.7" x2="98.9" y2="202.4" stroke="rgb(255,255,255)"  stroke-width="1.0"/>
<line x1="102.1" y1="211.5" x2="95.2" y2="207.5" stroke="rgb(255,255,255)"  stroke-width="1.0"/>
<line x1="103.9" y1="140.9" x2="103.9" y2="142.5" stroke="rgb(255,255,255)"  stroke-width="1.0"/>
<line x1="108.1" y1="140.3" x2="108.1" y2="143.2" stroke="rgb(255,255,255)"  stroke-width="1.0"/>
<line x1="112.3" y1="139.7" x2="112.3" y2="143.8" stroke="rgb(255,255,255)"  stroke-width="1.0"/>
<line x1="116.5" y1="139.0" x2="116.5" y2="144.5" stroke="rgb(255,255,255)"  stroke-width="1.0"/>
<line x1="120.6" y1="138.4" x2="120.6" y2="145.1" stroke="rgb(255,255,255)"  stroke-width="1.0"/>
<line x1="124.8" y1="137.7" x2="124.8" y2="145.7" stroke="rgb(255,255,255)"  stroke-width="1.0"/>
<polygon points="359.582517 183.731098 327.727903 206.743111 323.727605 199.815080 " stroke-width="1.000000" fill="rgb(255,255,255)"  stroke="rgb(255,255,255)" />
<line x1="361.5" y1="117.5" x2="361.4" y2="115.9" stroke="rgb(255,255,255)"  stroke-width="1.0"/>
<line x1="357.3" y1="118.3" x2="357.2" y2="115.4" stroke="rgb(255,255,255)"  stroke-width="1.0"/>
<line x1="353.2" y1="119.2" x2="353.0" y2="115.0" stroke="rgb(255,255,255)"  stroke-width="1.0"/>
<line x1="349.0" y1="120.0" x2="348.7" y2="114.6" stroke="rgb(255,255,255)"  stroke-width="1.0"/>
<line x1="344.9" y1="120.9" x2="344.5" y2="114.2" stroke="rgb(255,255,255)"  stroke-width="1.0"/>
<line x1="340.7" y1="121.8" x2="340.3" y2="113.8" stroke="rgb(255,255,255)"  stroke-width="1.0"/>
<line x1="98.6" y1="74.0" x2="59.6" y2="74.0" stroke="rgb(255,255,255)"  stroke-width="1.0"/>
<line x1="59.6" y1="74.0" x2="40.0" y2="107.9" stroke="rgb(255,255,255)"  stroke-width="1.0"/>
<line x1="40.0" y1="107.9" x2="53.0" y2="130.5" stroke="rgb(255,255,255)"  stroke-width="1.0"/>
<line x1="72.5" y1="141.7" x2="98.6" y2="141.7" stroke="rgb(255,255,255)"  stroke-width="1.0"/>
<line x1="98.6" y1="141.7" x2="111.7" y2="119.1" stroke="rgb(255,255,255)"  stroke-width="1.0"/>
<line x1="111.7" y1="96.6" x2="98.6" y2="74.0" stroke="rgb(255,255,255)"  stroke-width="1.0"/>
<line x1="40.0" y1="175.6" x2="53.0" y2="153.0" stroke="rgb(255,255,255)"  stroke-width="1.0"/>
<line x1="98.6" y1="141.7" x2="118.2" y2="175.6" stroke="rgb(255,255,255)"  stroke-width="1.0"/>
<line x1="118.2" y1="175.6" x2="98.6" y2="209.5" stroke="rgb(255,255,255)"  stroke-width="1.0"/>
<line x1="98.6" y1="209.5" x2="59.5" y2="209.5" stroke="rgb(255,255,255)"  stroke-width="1.0"/>
<line x1="59.5" y1="209.5" x2="40.0" y2="175.6" stroke="rgb(255,255,255)"  stroke-width="1.0"/>
<line x1="359.6" y1="183.7" x2="398.5" y2="187.8" stroke="rgb(255,255,255)"  stroke-width="1.0"/>
<line x1="398.5" y1="187.8" x2="421.4" y2="156.2" stroke="rgb(255,255,255)"  stroke-width="1.0"/>
<line x1="421.4" y1="156.2" x2="410.8" y2="132.3" stroke="rgb(255,255,255)"  stroke-width="1.0"/>
<line x1="392.6" y1="119.1" x2="366.7" y2="116.4" stroke="rgb(255,255,255)"  stroke-width="1.0"/>
<line x1="366.7" y1="116.4" x2="351.3" y2="137.5" stroke="rgb(255,255,255)"  stroke-width="1.0"/>
<line x1="349.0" y1="159.9" x2="359.6" y2="183.7" stroke="rgb(255,255,255)"  stroke-width="1.0"/>
<line x1="412.6" y1="53.1" x2="373.7" y2="49.0" stroke="rgb(255,255,255)"  stroke-width="1.0"/>
<line x1="373.7" y1="49.0" x2="350.8" y2="80.7" stroke="rgb(255,255,255)"  stroke-width="1.0"/>
<line x1="350.8" y1="80.7" x2="366.7" y2="116.4" stroke="rgb(255,255,255)"  stroke-width="1.0"/>
<line x1="413.2" y1="110.0" x2="428.5" y2="88.8" stroke="rgb(255,255,255)"  stroke-width="1.0"/>
<line x1="428.5" y1="88.8" x2="412.6" y2="53.1" stroke="rgb(255,255,255)"  stroke-width="1.0"/>
<line x1="98.6" y1="74.0" x2="132.5" y2="54.5" stroke="rgb(255,255,255)"  stroke-width="1.0"/>
<line x1="132.5" y1="54.5" x2="168.2" y2="70.4" stroke="rgb(255,255,255)"  stroke-width="1.0"/>
<line x1="168.2" y1="70.4" x2="192.8" y2="40.0" stroke="rgb(255,255,255)"  stroke-width="1.0"/>
<line x1="192.8" y1="40.0" x2="219.0" y2="69.1" stroke="rgb(255,255,255)"  stroke-width="1.0"/>
<line x1="219.0" y1="69.1" x2="249.4" y2="44.4" stroke="rgb(255,255,255)"  stroke-width="1.0"/>
<line x1="249.4" y1="44.4" x2="295.8" y2="78.4" stroke="rgb(255,255,255)"  stroke-width="1.0"/>
<line x1="295.8" y1="78.4" x2="350.8" y2="80.7" stroke="rgb(255,255,255)"  stroke-width="1.0"/>
<line x1="359.6" y1="183.7" x2="325.7" y2="203.3" stroke="rgb(255,255,255)"  stroke-width="1.0"/>
<line x1="325.7" y1="203.3" x2="291.9" y2="183.7" stroke="rgb(255,255,255)"  stroke-width="1.0"/>
<line x1="291.9" y1="183.7" x2="258.0" y2="203.3" stroke="rgb(255,255,255)"  stroke-width="1.0"/>
<line x1="258.0" y1="203.3" x2="224.2" y2="183.7" stroke="rgb(255,255,255)"  stroke-width="1.0"/>
<line x1="224.2" y1="183.7" x2="190.3" y2="203.3" stroke="rgb(255,255,255)"  stroke-width="1.0"/>
<line x1="190.3" y1="203.3" x2="156.4" y2="183.7" stroke="rgb(255,255,255)"  stroke-width="1.0"/>
<line x1="156.4" y1="183.7" x2="118.2" y2="175.6" stroke="rgb(255,255,255)"  stroke-width="1.0"/>
<text x="53.547998" y="149.749106" fill="rgb(12,12,255)"  stroke="rgb(12,12,255)" stroke-width="1" font-size="16" >N</text>
<text x="112.196731" y="115.889604" fill="rgb(255,12,12)"  stroke="rgb(255,12,12)" stroke-width="1" font-size="16" >O</text>
<text x="131.739990" y="149.744367" fill="rgb(191,191,191)"  stroke="rgb(191,191,191)" stroke-width="1" font-size="16" >H</text>
<text x="399.545192" y="128.471407" fill="rgb(12,12,255)"  stroke="rgb(12,12,255)" stroke-width="1" font-size="16" >N</text>
<text x="337.683479" y="156.018682" fill="rgb(255,12,12)"  stroke="rgb(255,12,12)" stroke-width="1" font-size="16" >O</text>
<text x="321.623318" y="126.433676" fill="rgb(191,191,191)"  stroke="rgb(191,191,191)" stroke-width="1" font-size="16" >H</text>
<text font-size="18.000000" fill ="white" font-family="sans-serif"
x="10.000000" y="20.000000" ></text>
<title> - OBDepict</title>
<cml:molecule>
 <cml:atomArray>
  <cml:atom id="a1" elementType="C" x2="-3.382100" y2="2.522500">
   <cml:atomParity atomRefs4="a1 a30 a2 a6">1</cml:atomParity>
  </cml:atom>
  <cml:atom id="a2" elementType="C" x2="-4.207100" y2="2.522500"/>
  <cml:atom id="a3" elementType="C" x2="-4.619600" y2="1.808000"/>
  <cml:atom id="a4" elementType="N" x2="-4.207200" y2="1.093500"/>
  <cml:atom id="a5" elementType="C" x2="-3.382200" y2="1.093600">
   <cml:atomParity atomRefs4="a11 a6 a4 a10">1</cml:atomParity>
  </cml:atom>
  <cml:atom id="a6" elementType="O" x2="-2.969600" y2="1.808000"/>
  <cml:atom id="a7" elementType="C" x2="-4.619700" y2="0.379100"/>
  <cml:atom id="a8" elementType="C" x2="-4.207200" y2="-0.335400"/>
  <cml:atom id="a9" elementType="C" x2="-3.382200" y2="-0.335400"/>
  <cml:atom id="a10" elementType="C" x2="-2.969700" y2="0.379100">
   <cml:atomParity atomRefs4="a10 a12 a9 a5">1</cml:atomParity>
  </cml:atom>
  <cml:atom id="a11" elementType="H" x2="-2.557200" y2="1.093600"/>
  <cml:atom id="a12" elementType="C" x2="-2.162700" y2="0.207600"/>
  <cml:atom id="a13" elementType="C" x2="-1.448200" y2="-0.204900"/>
  <cml:atom id="a14" elementType="C" x2="-0.733700" y2="0.207600"/>
  <cml:atom id="a15" elementType="C" x2="-0.019300" y2="-0.204900"/>
  <cml:atom id="a16" elementType="C" x2="0.695200" y2="0.207600"/>
  <cml:atom id="a17" elementType="C" x2="1.409700" y2="-0.204900"/>
  <cml:atom id="a18" elementType="C" x2="2.124100" y2="0.207600">
   <cml:atomParity atomRefs4="a18 a17 a22 a21">1</cml:atomParity>
  </cml:atom>
  <cml:atom id="a19" elementType="N" x2="3.094000" y2="1.542500"/>
  <cml:atom id="a20" elementType="C" x2="2.273500" y2="1.628700">
   <cml:atomParity atomRefs4="a28 a21 a19 a25">1</cml:atomParity>
  </cml:atom>
  <cml:atom id="a21" elementType="O" x2="1.788600" y2="0.961200"/>
  <cml:atom id="a22" elementType="C" x2="2.944600" y2="0.121300"/>
  <cml:atom id="a23" elementType="C" x2="3.429600" y2="0.788800"/>
  <cml:atom id="a24" elementType="C" x2="2.422900" y2="3.049800"/>
  <cml:atom id="a25" elementType="C" x2="1.938000" y2="2.382400"/>
  <cml:atom id="a26" elementType="C" x2="3.578900" y2="2.209900"/>
  <cml:atom id="a27" elementType="C" x2="3.243400" y2="2.963600"/>
  <cml:atom id="a28" elementType="H" x2="1.449700" y2="1.585500"/>
  <cml:atom id="a29" elementType="C" x2="0.777300" y2="2.429900"/>
  <cml:atom id="a30" elementType="C" x2="-2.667700" y2="2.935000"/>
  <cml:atom id="a31" elementType="C" x2="-1.914000" y2="2.599500"/>
  <cml:atom id="a32" elementType="C" x2="-1.394800" y2="3.240600"/>
  <cml:atom id="a33" elementType="C" x2="-0.842800" y2="2.627500"/>
  <cml:atom id="a34" elementType="C" x2="-0.201600" y2="3.146700"/>
 </cml:atomArray>
 <cml:bondArray>
  <cml:bond atomRefs2="a1 a2" order="1"/>
  <cml:bond atomRefs2="a2 a3" order="1"/>
  <cml:bond atomRefs2="a3 a4" order="1"/>
  <cml:bond atomRefs2="a4 a5" order="1"/>
  <cml:bond atomRefs2="a5 a6" order="1"/>
  <cml:bond atomRefs2="a1 a6" order="1"/>
  <cml:bond atomRefs2="a7 a8" order="1"/>
  <cml:bond atomRefs2="a8 a9" order="1"/>
  <cml:bond atomRefs2="a9 a10" order="1"/>
  <cml:bond atomRefs2="a4 a7" order="1"/>
  <cml:bond atomRefs2="a5 a10" order="1"/>
  <cml:bond atomRefs2="a5 a11" order="1"/>
  <cml:bond atomRefs2="a10 a12" order="1"/>
  <cml:bond atomRefs2="a13 a14" order="1"/>
  <cml:bond atomRefs2="a14 a15" order="1"/>
  <cml:bond atomRefs2="a15 a16" order="1"/>
  <cml:bond atomRefs2="a16 a17" order="1"/>
  <cml:bond atomRefs2="a18 a17" order="1"/>
  <cml:bond atomRefs2="a12 a13" order="1"/>
  <cml:bond atomRefs2="a19 a20" order="1"/>
  <cml:bond atomRefs2="a20 a21" order="1"/>
  <cml:bond atomRefs2="a22 a23" order="1"/>
  <cml:bond atomRefs2="a19 a23" order="1"/>
  <cml:bond atomRefs2="a21 a18" order="1"/>
  <cml:bond atomRefs2="a18 a22" order="1"/>
  <cml:bond atomRefs2="a24 a25" order="1"/>
  <cml:bond atomRefs2="a26 a27" order="1"/>
  <cml:bond atomRefs2="a24 a27" order="1"/>
  <cml:bond atomRefs2="a19 a26" order="1"/>
  <cml:bond atomRefs2="a25 a20" order="1"/>
  <cml:bond atomRefs2="a20 a28" order="1"/>
  <cml:bond atomRefs2="a29 a25" order="1"/>
  <cml:bond atomRefs2="a1 a30" order="1"/>
  <cml:bond atomRefs2="a30 a31" order="1"/>
  <cml:bond atomRefs2="a31 a32" order="1"/>
  <cml:bond atomRefs2="a32 a33" order="1"/>
  <cml:bond atomRefs2="a33 a34" order="1"/>
  <cml:bond atomRefs2="a34 a29" order="1"/>
 </cml:bondArray>
</cml:molecule>
</svg>
