<?xml version="1.0"?>
<svg xmlns="http://www.w3.org/2000/svg"
xmlns:xlink="http://www.w3.org/1999/xlink" xmlns:cml="http://www.xml-cml.org/schema" width="416.813" height="390.182" x="0" y="0" font-family="sans-serif" stroke="rgb(255,255,255)" stroke-width="1"  stroke-linecap="round">
<rect x="0%" y="0%" width="100%" height="100%" stroke-width="0" fill="rgb(0,0,0)"  />
<polygon points="196.25 196.376 186.049 157.549 193.95 156.297 " stroke-width="1" fill="rgb(255,255,255)"  stroke="rgb(255,255,255)" />
<line x1="190.0" y1="156.9" x2="163.1" y2="156.9" stroke="rgb(255,255,255)"  stroke-width="1.0"/>
<line x1="137.1" y1="156.9" x2="123.1" y2="156.9" stroke="rgb(255,255,255)"  stroke-width="1.0"/>
<line x1="104.2" y1="168.5" x2="97.9" y2="180.9" stroke="rgb(255,255,255)"  stroke-width="1.0"/>
<line x1="89.9" y1="205.4" x2="87.8" y2="219.1" stroke="rgb(255,255,255)"  stroke-width="1.0"/>
<line x1="85.0" y1="245.0" x2="84.3" y2="258.9" stroke="rgb(255,255,255)"  stroke-width="1.0"/>
<line x1="82.3" y1="284.8" x2="80.8" y2="298.7" stroke="rgb(255,255,255)"  stroke-width="1.0"/>
<line x1="76.1" y1="324.2" x2="72.5" y2="337.6" stroke="rgb(255,255,255)"  stroke-width="1.0"/>
<line x1="105.8" y1="144.3" x2="104.3" y2="130.4" stroke="rgb(255,255,255)"  stroke-width="1.0"/>
<line x1="111.7" y1="143.7" x2="110.3" y2="129.8" stroke="rgb(255,255,255)"  stroke-width="1.0"/>
<line x1="114.8" y1="169.1" x2="119.8" y2="182.1" stroke="rgb(255,255,255)"  stroke-width="1.0"/>
<line x1="72.7" y1="235.0" x2="58.8" y2="235.0" stroke="rgb(255,255,255)"  stroke-width="1.0"/>
<line x1="72.7" y1="229.0" x2="58.8" y2="229.0" stroke="rgb(255,255,255)"  stroke-width="1.0"/>
<line x1="98.3" y1="235.3" x2="111.7" y2="238.9" stroke="rgb(255,255,255)"  stroke-width="1.0"/>
<line x1="66.1" y1="312.5" x2="52.4" y2="310.3" stroke="rgb(255,255,255)"  stroke-width="1.0"/>
<line x1="67.1" y1="306.6" x2="53.3" y2="304.4" stroke="rgb(255,255,255)"  stroke-width="1.0"/>
<line x1="92.0" y1="315.0" x2="105.5" y2="318.6" stroke="rgb(255,255,255)"  stroke-width="1.0"/>
<line x1="207.1" y1="239.6" x2="205.7" y2="238.9" stroke="rgb(255,255,255)"  stroke-width="1.0"/>
<line x1="206.0" y1="243.8" x2="203.4" y2="242.6" stroke="rgb(255,255,255)"  stroke-width="1.0"/>
<line x1="204.8" y1="247.9" x2="201.0" y2="246.2" stroke="rgb(255,255,255)"  stroke-width="1.0"/>
<line x1="203.7" y1="252.1" x2="198.7" y2="249.9" stroke="rgb(255,255,255)"  stroke-width="1.0"/>
<line x1="202.5" y1="256.3" x2="196.4" y2="253.5" stroke="rgb(255,255,255)"  stroke-width="1.0"/>
<line x1="201.4" y1="260.4" x2="194.1" y2="257.2" stroke="rgb(255,255,255)"  stroke-width="1.0"/>
<line x1="251.7" y1="238.8" x2="250.3" y2="239.5" stroke="rgb(255,255,255)"  stroke-width="1.0"/>
<line x1="254.2" y1="242.3" x2="251.6" y2="243.6" stroke="rgb(255,255,255)"  stroke-width="1.0"/>
<line x1="256.7" y1="245.8" x2="253.0" y2="247.7" stroke="rgb(255,255,255)"  stroke-width="1.0"/>
<line x1="259.2" y1="249.3" x2="254.4" y2="251.8" stroke="rgb(255,255,255)"  stroke-width="1.0"/>
<line x1="261.7" y1="252.9" x2="255.8" y2="255.9" stroke="rgb(255,255,255)"  stroke-width="1.0"/>
<line x1="264.3" y1="256.4" x2="257.1" y2="260.0" stroke="rgb(255,255,255)"  stroke-width="1.0"/>
<line x1="268.5" y1="198.9" x2="267.9" y2="200.4" stroke="rgb(255,255,255)"  stroke-width="1.0"/>
<line x1="274.6" y1="200.9" x2="273.4" y2="203.5" stroke="rgb(255,255,255)"  stroke-width="1.0"/>
<line x1="280.7" y1="202.9" x2="279.0" y2="206.7" stroke="rgb(255,255,255)"  stroke-width="1.0"/>
<line x1="286.8" y1="204.9" x2="284.6" y2="209.9" stroke="rgb(255,255,255)"  stroke-width="1.0"/>
<line x1="292.9" y1="207.0" x2="290.2" y2="213.1" stroke="rgb(255,255,255)"  stroke-width="1.0"/>
<line x1="299.0" y1="209.0" x2="295.8" y2="216.3" stroke="rgb(255,255,255)"  stroke-width="1.0"/>
<line x1="297.4" y1="212.6" x2="322.0" y2="223.6" stroke="rgb(255,255,255)"  stroke-width="1.0"/>
<line x1="299.1" y1="208.8" x2="323.7" y2="219.7" stroke="rgb(255,255,255)"  stroke-width="1.0"/>
<line x1="295.7" y1="216.5" x2="320.3" y2="227.4" stroke="rgb(255,255,255)"  stroke-width="1.0"/>
<line x1="260.9" y1="196.4" x2="271.2" y2="157.8" stroke="rgb(255,255,255)"  stroke-width="1.0"/>
<line x1="339.1" y1="79.9" x2="340.5" y2="53.0" stroke="rgb(255,255,255)"  stroke-width="1.0"/>
<line x1="218.0" y1="180.5" x2="196.3" y2="196.4" stroke="rgb(255,255,255)"  stroke-width="1.0"/>
<line x1="196.3" y1="196.4" x2="208.6" y2="234.4" stroke="rgb(255,255,255)"  stroke-width="1.0"/>
<line x1="208.6" y1="234.4" x2="248.5" y2="234.4" stroke="rgb(255,255,255)"  stroke-width="1.0"/>
<line x1="248.5" y1="234.4" x2="260.9" y2="196.4" stroke="rgb(255,255,255)"  stroke-width="1.0"/>
<line x1="260.9" y1="196.4" x2="239.1" y2="180.5" stroke="rgb(255,255,255)"  stroke-width="1.0"/>
<line x1="271.2" y1="157.8" x2="244.5" y2="128.1" stroke="rgb(255,255,255)"  stroke-width="1.0"/>
<line x1="272.6" y1="148.5" x2="253.9" y2="127.7" stroke="rgb(255,255,255)"  stroke-width="1.0"/>
<line x1="244.5" y1="128.1" x2="264.5" y2="93.5" stroke="rgb(255,255,255)"  stroke-width="1.0"/>
<line x1="264.5" y1="93.5" x2="303.5" y2="101.8" stroke="rgb(255,255,255)"  stroke-width="1.0"/>
<line x1="268.8" y1="101.8" x2="296.2" y2="107.6" stroke="rgb(255,255,255)"  stroke-width="1.0"/>
<line x1="303.5" y1="101.8" x2="306.4" y2="128.6" stroke="rgb(255,255,255)"  stroke-width="1.0"/>
<line x1="295.8" y1="146.8" x2="271.2" y2="157.8" stroke="rgb(255,255,255)"  stroke-width="1.0"/>
<line x1="339.1" y1="79.9" x2="363.0" y2="92.0" stroke="rgb(255,255,255)"  stroke-width="1.0"/>
<line x1="341.2" y1="89.0" x2="357.9" y2="97.5" stroke="rgb(255,255,255)"  stroke-width="1.0"/>
<line x1="375.4" y1="111.0" x2="376.8" y2="137.9" stroke="rgb(255,255,255)"  stroke-width="1.0"/>
<line x1="376.8" y1="137.9" x2="354.4" y2="152.5" stroke="rgb(255,255,255)"  stroke-width="1.0"/>
<line x1="367.9" y1="135.2" x2="352.1" y2="145.4" stroke="rgb(255,255,255)"  stroke-width="1.0"/>
<line x1="331.7" y1="153.8" x2="319.3" y2="147.4" stroke="rgb(255,255,255)"  stroke-width="1.0"/>
<line x1="303.5" y1="101.8" x2="339.1" y2="79.9" stroke="rgb(255,255,255)"  stroke-width="1.0"/>
<text x="222.566802" y="180.896912" fill="rgb(255,12,12)"  stroke="rgb(255,12,12)" stroke-width="1" font-size="16" >O</text>
<text x="144.051775" y="164.922748" fill="rgb(255,12,12)"  stroke="rgb(255,12,12)" stroke-width="1" font-size="16" >O</text>
<text x="104.104259" y="164.922748" fill="rgb(255,127,0)"  stroke="rgb(255,127,0)" stroke-width="1" font-size="16" >P</text>
<text x="85.970508" y="200.517195" fill="rgb(255,12,12)"  stroke="rgb(255,12,12)" stroke-width="1" font-size="16" >O</text>
<text x="79.719327" y="239.970815" fill="rgb(255,127,0)"  stroke="rgb(255,127,0)" stroke-width="1" font-size="16" >P</text>
<text x="77.627530" y="279.865067" fill="rgb(255,12,12)"  stroke="rgb(255,12,12)" stroke-width="1" font-size="16" >O</text>
<text x="73.453620" y="319.594688" fill="rgb(255,127,0)"  stroke="rgb(255,127,0)" stroke-width="1" font-size="16" >P</text>
<text x="73.915687" y="336.069567" fill="rgb(255,12,12)"  stroke="rgb(255,12,12)" stroke-width="1" font-size="16" >_</text>
<text x="63.115687" y="358.181567" fill="rgb(255,12,12)"  stroke="rgb(255,12,12)" stroke-width="1" font-size="16" >O</text>
<text x="99.930349" y="125.193127" fill="rgb(255,12,12)"  stroke="rgb(255,12,12)" stroke-width="1" font-size="16" >O</text>
<text x="129.222417" y="180.104781" fill="rgb(255,12,12)"  stroke="rgb(255,12,12)" stroke-width="1" font-size="16" >_</text>
<text x="118.422417" y="202.216781" fill="rgb(255,12,12)"  stroke="rgb(255,12,12)" stroke-width="1" font-size="16" >O</text>
<text x="39.771811" y="239.970815" fill="rgb(255,12,12)"  stroke="rgb(255,12,12)" stroke-width="1" font-size="16" >O</text>
<text x="129.106206" y="228.196748" fill="rgb(255,12,12)"  stroke="rgb(255,12,12)" stroke-width="1" font-size="16" >_</text>
<text x="118.306206" y="250.308748" fill="rgb(255,12,12)"  stroke="rgb(255,12,12)" stroke-width="1" font-size="16" >O</text>
<text x="34.000000" y="313.343507" fill="rgb(255,12,12)"  stroke="rgb(255,12,12)" stroke-width="1" font-size="16" >O</text>
<text x="122.840499" y="307.820621" fill="rgb(255,12,12)"  stroke="rgb(255,12,12)" stroke-width="1" font-size="16" >_</text>
<text x="112.040499" y="329.932621" fill="rgb(255,12,12)"  stroke="rgb(255,12,12)" stroke-width="1" font-size="16" >O</text>
<text x="174.342879" y="278.862748" fill="rgb(255,12,12)"  stroke="rgb(255,12,12)" stroke-width="1" font-size="16" >HO</text>
<text x="260.674311" y="277.962113" fill="rgb(255,12,12)"  stroke="rgb(255,12,12)" stroke-width="1" font-size="16" >OH</text>
<text x="327.873297" y="236.871856" fill="rgb(12,12,255)"  stroke="rgb(12,12,255)" stroke-width="1" font-size="16" >N</text>
<text x="301.716147" y="149.544165" fill="rgb(12,12,255)"  stroke="rgb(12,12,255)" stroke-width="1" font-size="16" >N</text>
<text x="337.310595" y="167.677916" fill="rgb(12,12,255)"  stroke="rgb(12,12,255)" stroke-width="1" font-size="16" >N</text>
<text x="368.721448" y="106.028004" fill="rgb(12,12,255)"  stroke="rgb(12,12,255)" stroke-width="1" font-size="16" >N</text>
<text x="337.218797" y="48.000000" fill="rgb(12,12,255)"  stroke="rgb(12,12,255)" stroke-width="1" font-size="16" >NH</text>
<text x="361.218797" y="51.680000" fill="rgb(12,12,255)"  stroke="rgb(12,12,255)" stroke-width="1" font-size="13" >2</text>
<text font-size="18.000000" fill ="white" font-family="sans-serif"
x="10.000000" y="20.000000" ></text>
<title> - OBDepict</title>
<cml:molecule>
 <cml:atomArray>
  <cml:atom id="a1" elementType="O" x2="-0.937500" y2="0.724100"/>
  <cml:atom id="a2" elementType="C" x2="-1.604900" y2="0.239200">
   <cml:atomParity atomRefs4="a2 a6 a3 a1">1</cml:atomParity>
  </cml:atom>
  <cml:atom id="a3" elementType="C" x2="-1.350000" y2="-0.545400">
   <cml:atomParity atomRefs4="a3 a20 a2 a4">1</cml:atomParity>
  </cml:atom>
  <cml:atom id="a4" elementType="C" x2="-0.525000" y2="-0.545400">
   <cml:atomParity atomRefs4="a4 a21 a3 a5">1</cml:atomParity>
  </cml:atom>
  <cml:atom id="a5" elementType="C" x2="-0.270100" y2="0.239200">
   <cml:atomParity atomRefs4="a24 a1 a22 a4">1</cml:atomParity>
  </cml:atom>
  <cml:atom id="a6" elementType="C" x2="-1.734000" y2="1.054000"/>
  <cml:atom id="a7" elementType="O" x2="-2.559000" y2="1.054000"/>
  <cml:atom id="a8" elementType="P" x2="-3.384000" y2="1.054000"/>
  <cml:atom id="a9" elementType="O" x2="-3.758500" y2="0.318900"/>
  <cml:atom id="a10" elementType="P" x2="-3.887600" y2="-0.495900"/>
  <cml:atom id="a11" elementType="O" x2="-3.930800" y2="-1.319800"/>
  <cml:atom id="a12" elementType="P" x2="-4.017000" y2="-2.140300"/>
  <cml:atom id="a13" elementType="O" formalCharge="-1" x2="-4.230500" y2="-2.937200"/>
  <cml:atom id="a14" elementType="O" x2="-3.470200" y2="1.874500"/>
  <cml:atom id="a15" elementType="O" formalCharge="-1" x2="-3.088300" y2="0.283800"/>
  <cml:atom id="a16" elementType="O" x2="-4.712600" y2="-0.495900"/>
  <cml:atom id="a17" elementType="O" formalCharge="-1" x2="-3.090700" y2="-0.709400"/>
  <cml:atom id="a18" elementType="O" x2="-4.831800" y2="-2.011200"/>
  <cml:atom id="a19" elementType="O" formalCharge="-1" x2="-3.220100" y2="-2.353800"/>
  <cml:atom id="a20" elementType="O" x2="-1.685600" y2="-1.299100"/>
  <cml:atom id="a21" elementType="O" x2="-0.150500" y2="-1.280500"/>
  <cml:atom id="a22" elementType="C" x2="0.483600" y2="-0.096400"/>
  <cml:atom id="a23" elementType="N" x2="1.237300" y2="-0.431900"/>
  <cml:atom id="a24" elementType="C" x2="-0.056500" y2="1.036100"/>
  <cml:atom id="a25" elementType="C" x2="-0.196100" y2="2.363600"/>
  <cml:atom id="a26" elementType="C" x2="-0.608500" y2="1.649100"/>
  <cml:atom id="a27" elementType="N" x2="0.697100" y2="1.371600"/>
  <cml:atom id="a28" elementType="C" x2="0.610900" y2="2.192100"/>
  <cml:atom id="a29" elementType="C" x2="1.345900" y2="2.644800"/>
  <cml:atom id="a30" elementType="N" x2="1.432200" y2="0.997100"/>
  <cml:atom id="a31" elementType="C" x2="2.124100" y2="1.446400"/>
  <cml:atom id="a32" elementType="N" x2="2.080900" y2="2.270300"/>
  <cml:atom id="a33" elementType="N" x2="1.389000" y2="3.468700"/>
 </cml:atomArray>
 <cml:bondArray>
  <cml:bond atomRefs2="a1 a2" order="1"/>
  <cml:bond atomRefs2="a2 a3" order="1"/>
  <cml:bond atomRefs2="a3 a4" order="1"/>
  <cml:bond atomRefs2="a4 a5" order="1"/>
  <cml:bond atomRefs2="a1 a5" order="1"/>
  <cml:bond atomRefs2="a2 a6" order="1"/>
  <cml:bond atomRefs2="a6 a7" order="1"/>
  <cml:bond atomRefs2="a7 a8" order="1"/>
  <cml:bond atomRefs2="a8 a9" order="1"/>
  <cml:bond atomRefs2="a9 a10" order="1"/>
  <cml:bond atomRefs2="a10 a11" order="1"/>
  <cml:bond atomRefs2="a11 a12" order="1"/>
  <cml:bond atomRefs2="a12 a13" order="1"/>
  <cml:bond atomRefs2="a8 a14" order="2"/>
  <cml:bond atomRefs2="a8 a15" order="1"/>
  <cml:bond atomRefs2="a10 a16" order="2"/>
  <cml:bond atomRefs2="a10 a17" order="1"/>
  <cml:bond atomRefs2="a12 a18" order="2"/>
  <cml:bond atomRefs2="a12 a19" order="1"/>
  <cml:bond atomRefs2="a3 a20" order="1"/>
  <cml:bond atomRefs2="a4 a21" order="1"/>
  <cml:bond atomRefs2="a5 a22" order="1"/>
  <cml:bond atomRefs2="a22 a23" order="3"/>
  <cml:bond atomRefs2="a5 a24" order="1"/>
  <cml:bond atomRefs2="a25 a26" order="1"/>
  <cml:bond atomRefs2="a25 a28" order="2"/>
  <cml:bond atomRefs2="a26 a24" order="2"/>
  <cml:bond atomRefs2="a24 a27" order="1"/>
  <cml:bond atomRefs2="a30 a31" order="2"/>
  <cml:bond atomRefs2="a31 a32" order="1"/>
  <cml:bond atomRefs2="a29 a32" order="2"/>
  <cml:bond atomRefs2="a27 a30" order="1"/>
  <cml:bond atomRefs2="a29 a28" order="1"/>
  <cml:bond atomRefs2="a28 a27" order="1"/>
  <cml:bond atomRefs2="a29 a33" order="1"/>
 </cml:bondArray>
</cml:molecule>
</svg>
