<?xml version="1.0"?>
<svg xmlns="http://www.w3.org/2000/svg"
xmlns:xlink="http://www.w3.org/1999/xlink" xmlns:cml="http://www.xml-cml.org/schema" width="420.315" height="453.435" x="0" y="0" font-family="sans-serif" stroke="rgb(255,255,255)" stroke-width="1"  stroke-linecap="round">
<rect x="0%" y="0%" width="100%" height="100%" stroke-width="0" fill="rgb(0,0,0)"  />
<line x1="268.2" y1="275.6" x2="279.2" y2="300.3" stroke="rgb(255,255,255)"  stroke-width="1.0"/>
<line x1="223.4" y1="230.1" x2="188.8" y2="210.1" stroke="rgb(255,255,255)"  stroke-width="1.0"/>
<line x1="226.4" y1="224.9" x2="191.8" y2="204.9" stroke="rgb(255,255,255)"  stroke-width="1.0"/>
<line x1="258.5" y1="210.6" x2="264.1" y2="184.2" stroke="rgb(255,255,255)"  stroke-width="1.0"/>
<line x1="264.4" y1="211.9" x2="270.0" y2="185.5" stroke="rgb(255,255,255)"  stroke-width="1.0"/>
<line x1="190.3" y1="207.5" x2="155.6" y2="227.5" stroke="rgb(255,255,255)"  stroke-width="1.0"/>
<line x1="273.2" y1="388.0" x2="271.9" y2="387.1" stroke="rgb(255,255,255)"  stroke-width="1.0"/>
<line x1="269.9" y1="393.6" x2="267.6" y2="391.9" stroke="rgb(255,255,255)"  stroke-width="1.0"/>
<line x1="266.7" y1="399.1" x2="263.3" y2="396.7" stroke="rgb(255,255,255)"  stroke-width="1.0"/>
<line x1="263.5" y1="404.7" x2="259.1" y2="401.5" stroke="rgb(255,255,255)"  stroke-width="1.0"/>
<line x1="260.2" y1="410.2" x2="254.8" y2="406.3" stroke="rgb(255,255,255)"  stroke-width="1.0"/>
<line x1="257.0" y1="415.8" x2="250.5" y2="411.1" stroke="rgb(255,255,255)"  stroke-width="1.0"/>
<polygon points="340.535443 352.895420 380.733379 353.097313 379.897358 361.053510 " stroke-width="1.000000" fill="rgb(255,255,255)"  stroke="rgb(255,255,255)" />
<line x1="119.1" y1="211.3" x2="110.8" y2="172.1" stroke="rgb(255,255,255)"  stroke-width="1.0"/>
<line x1="107.0" y1="287.5" x2="96.1" y2="312.2" stroke="rgb(255,255,255)"  stroke-width="1.0"/>
<line x1="241.8" y1="270.0" x2="268.2" y2="275.6" stroke="rgb(255,255,255)"  stroke-width="1.0"/>
<line x1="268.2" y1="275.6" x2="281.6" y2="252.4" stroke="rgb(255,255,255)"  stroke-width="1.0"/>
<line x1="265.0" y1="266.8" x2="274.4" y2="250.6" stroke="rgb(255,255,255)"  stroke-width="1.0"/>
<line x1="279.5" y1="231.3" x2="261.5" y2="211.3" stroke="rgb(255,255,255)"  stroke-width="1.0"/>
<line x1="261.5" y1="211.3" x2="224.9" y2="227.5" stroke="rgb(255,255,255)"  stroke-width="1.0"/>
<line x1="224.9" y1="227.5" x2="227.7" y2="254.4" stroke="rgb(255,255,255)"  stroke-width="1.0"/>
<line x1="155.6" y1="227.5" x2="119.1" y2="211.3" stroke="rgb(255,255,255)"  stroke-width="1.0"/>
<line x1="119.1" y1="211.3" x2="101.2" y2="231.2" stroke="rgb(255,255,255)"  stroke-width="1.0"/>
<line x1="120.4" y1="220.5" x2="107.8" y2="234.5" stroke="rgb(255,255,255)"  stroke-width="1.0"/>
<line x1="98.8" y1="252.2" x2="105.8" y2="264.4" stroke="rgb(255,255,255)"  stroke-width="1.0"/>
<line x1="125.0" y1="272.9" x2="151.4" y2="267.3" stroke="rgb(255,255,255)"  stroke-width="1.0"/>
<line x1="151.4" y1="267.3" x2="155.6" y2="227.5" stroke="rgb(255,255,255)"  stroke-width="1.0"/>
<line x1="144.9" y1="260.6" x2="147.8" y2="232.7" stroke="rgb(255,255,255)"  stroke-width="1.0"/>
<line x1="110.8" y1="172.1" x2="128.8" y2="152.1" stroke="rgb(255,255,255)"  stroke-width="1.0"/>
<line x1="131.0" y1="131.2" x2="117.5" y2="107.8" stroke="rgb(255,255,255)"  stroke-width="1.0"/>
<line x1="117.5" y1="107.8" x2="78.4" y2="116.1" stroke="rgb(255,255,255)"  stroke-width="1.0"/>
<line x1="113.2" y1="116.1" x2="85.8" y2="121.9" stroke="rgb(255,255,255)"  stroke-width="1.0"/>
<line x1="78.4" y1="116.1" x2="74.2" y2="155.9" stroke="rgb(255,255,255)"  stroke-width="1.0"/>
<line x1="74.2" y1="155.9" x2="110.8" y2="172.1" stroke="rgb(255,255,255)"  stroke-width="1.0"/>
<line x1="82.6" y1="151.7" x2="108.2" y2="163.1" stroke="rgb(255,255,255)"  stroke-width="1.0"/>
<line x1="297.4" y1="313.5" x2="324.3" y2="316.4" stroke="rgb(255,255,255)"  stroke-width="1.0"/>
<line x1="324.3" y1="316.4" x2="340.5" y2="352.9" stroke="rgb(255,255,255)"  stroke-width="1.0"/>
<line x1="340.5" y1="352.9" x2="324.7" y2="374.7" stroke="rgb(255,255,255)"  stroke-width="1.0"/>
<line x1="304.1" y1="383.9" x2="277.2" y2="381.1" stroke="rgb(255,255,255)"  stroke-width="1.0"/>
<line x1="277.2" y1="381.1" x2="261.0" y2="344.5" stroke="rgb(255,255,255)"  stroke-width="1.0"/>
<line x1="261.0" y1="344.5" x2="276.8" y2="322.7" stroke="rgb(255,255,255)"  stroke-width="1.0"/>
<line x1="129.9" y1="69.7" x2="117.5" y2="107.8" stroke="rgb(255,255,255)"  stroke-width="1.0"/>
<line x1="78.4" y1="116.1" x2="51.6" y2="86.4" stroke="rgb(255,255,255)"  stroke-width="1.0"/>
<line x1="51.6" y1="86.4" x2="64.0" y2="48.3" stroke="rgb(255,255,255)"  stroke-width="1.0"/>
<line x1="60.3" y1="82.9" x2="69.0" y2="56.3" stroke="rgb(255,255,255)"  stroke-width="1.0"/>
<line x1="64.0" y1="48.3" x2="103.1" y2="40.0" stroke="rgb(255,255,255)"  stroke-width="1.0"/>
<line x1="103.1" y1="40.0" x2="129.9" y2="69.7" stroke="rgb(255,255,255)"  stroke-width="1.0"/>
<line x1="101.8" y1="49.3" x2="120.5" y2="70.1" stroke="rgb(255,255,255)"  stroke-width="1.0"/>
<line x1="96.1" y1="312.2" x2="119.6" y2="344.5" stroke="rgb(255,255,255)"  stroke-width="1.0"/>
<line x1="119.6" y1="344.5" x2="103.3" y2="381.1" stroke="rgb(255,255,255)"  stroke-width="1.0"/>
<line x1="110.5" y1="347.1" x2="99.2" y2="372.7" stroke="rgb(255,255,255)"  stroke-width="1.0"/>
<line x1="103.3" y1="381.1" x2="63.5" y2="385.3" stroke="rgb(255,255,255)"  stroke-width="1.0"/>
<line x1="63.5" y1="385.3" x2="40.0" y2="352.9" stroke="rgb(255,255,255)"  stroke-width="1.0"/>
<line x1="65.8" y1="376.2" x2="49.4" y2="353.5" stroke="rgb(255,255,255)"  stroke-width="1.0"/>
<line x1="40.0" y1="352.9" x2="56.3" y2="316.4" stroke="rgb(255,255,255)"  stroke-width="1.0"/>
<line x1="56.3" y1="316.4" x2="96.1" y2="312.2" stroke="rgb(255,255,255)"  stroke-width="1.0"/>
<line x1="63.0" y1="322.9" x2="90.8" y2="320.0" stroke="rgb(255,255,255)"  stroke-width="1.0"/>
<text x="223.091649" y="275.311578" fill="rgb(178,178,0)"  stroke="rgb(178,178,0)" stroke-width="1" font-size="16" >S</text>
<text x="282.215540" y="248.987627" fill="rgb(12,12,255)"  stroke="rgb(12,12,255)" stroke-width="1" font-size="16" >N</text>
<text x="278.487547" y="320.171495" fill="rgb(12,12,255)"  stroke="rgb(12,12,255)" stroke-width="1" font-size="16" >N</text>
<text x="263.767574" y="180.135755" fill="rgb(255,12,12)"  stroke="rgb(255,12,12)" stroke-width="1" font-size="16" >O</text>
<text x="311.023486" y="393.255360" fill="rgb(255,12,12)"  stroke="rgb(255,12,12)" stroke-width="1" font-size="16" >O</text>
<text x="86.319903" y="248.987627" fill="rgb(12,12,255)"  stroke="rgb(12,12,255)" stroke-width="1" font-size="16" >N</text>
<text x="106.319866" y="283.627563" fill="rgb(12,12,255)"  stroke="rgb(12,12,255)" stroke-width="1" font-size="16" >N</text>
<text x="131.535819" y="150.411810" fill="rgb(255,12,12)"  stroke="rgb(255,12,12)" stroke-width="1" font-size="16" >O</text>
<text font-size="18.000000" fill ="white" font-family="sans-serif"
x="10.000000" y="20.000000" >ZINC01019934</text>
<title>ZINC01019934 - OBDepict</title>
<cml:molecule id="ZINC01019934">
 <cml:atomArray>
  <cml:atom id="a1" elementType="S" x2="1.836600" y2="-1.494500"/>
  <cml:atom id="a2" elementType="C" x2="2.814700" y2="-1.702400"/>
  <cml:atom id="a3" elementType="C" x2="1.732100" y2="-0.500000"/>
  <cml:atom id="a4" elementType="N" x2="3.314700" y2="-0.836400"/>
  <cml:atom id="a5" elementType="N" x2="3.221500" y2="-2.616000"/>
  <cml:atom id="a6" elementType="C" x2="2.645600" y2="-0.093300"/>
  <cml:atom id="a7" elementType="C" x2="0.866000" y2="-0.000000"/>
  <cml:atom id="a8" elementType="C" x2="2.633700" y2="-3.425000"/>
  <cml:atom id="a9" elementType="C" x2="4.216000" y2="-2.720500"/>
  <cml:atom id="a10" elementType="O" x2="2.853500" y2="0.884900"/>
  <cml:atom id="a11" elementType="C" x2="0.000000" y2="-0.500000"/>
  <cml:atom id="a12" elementType="C" x2="3.040400" y2="-4.338500">
   <cml:atomParity atomRefs4="a12 a17 a8 a16">1</cml:atomParity>
  </cml:atom>
  <cml:atom id="a13" elementType="C" x2="4.622700" y2="-3.634100">
   <cml:atomParity atomRefs4="a13 a18 a9 a16">1</cml:atomParity>
  </cml:atom>
  <cml:atom id="a14" elementType="C" x2="-0.913500" y2="-0.093300"/>
  <cml:atom id="a15" elementType="C" x2="-0.104500" y2="-1.494500"/>
  <cml:atom id="a16" elementType="O" x2="4.034900" y2="-4.443100"/>
  <cml:atom id="a17" elementType="C" x2="2.452600" y2="-5.147600"/>
  <cml:atom id="a18" elementType="C" x2="5.617200" y2="-3.738600"/>
  <cml:atom id="a19" elementType="N" x2="-1.582700" y2="-0.836400"/>
  <cml:atom id="a20" elementType="C" x2="-1.121500" y2="0.884900"/>
  <cml:atom id="a21" elementType="N" x2="-1.082700" y2="-1.702400"/>
  <cml:atom id="a22" elementType="O" x2="-0.452300" y2="1.628000"/>
  <cml:atom id="a23" elementType="C" x2="-2.035000" y2="1.291600"/>
  <cml:atom id="a24" elementType="C" x2="-1.489400" y2="-2.616000"/>
  <cml:atom id="a25" elementType="C" x2="-0.952300" y2="2.494100"/>
  <cml:atom id="a26" elementType="C" x2="-1.930500" y2="2.286100"/>
  <cml:atom id="a27" elementType="C" x2="-2.483900" y2="-2.720500"/>
  <cml:atom id="a28" elementType="C" x2="-0.901600" y2="-3.425000"/>
  <cml:atom id="a29" elementType="C" x2="-0.643300" y2="3.445100"/>
  <cml:atom id="a30" elementType="C" x2="-2.599600" y2="3.029300"/>
  <cml:atom id="a31" elementType="C" x2="-2.890700" y2="-3.634100"/>
  <cml:atom id="a32" elementType="C" x2="-1.308400" y2="-4.338500"/>
  <cml:atom id="a33" elementType="C" x2="-1.312400" y2="4.188300"/>
  <cml:atom id="a34" elementType="C" x2="-2.290600" y2="3.980300"/>
  <cml:atom id="a35" elementType="C" x2="-2.302900" y2="-4.443100"/>
 </cml:atomArray>
 <cml:bondArray>
  <cml:bond atomRefs2="a1 a2" order="1"/>
  <cml:bond atomRefs2="a1 a3" order="1"/>
  <cml:bond atomRefs2="a2 a4" order="2">
   <cml:bondStereo atomRefs4="a1 a2 a4 a6">C</cml:bondStereo>
  </cml:bond>
  <cml:bond atomRefs2="a2 a5" order="1"/>
  <cml:bond atomRefs2="a3 a6" order="1"/>
  <cml:bond atomRefs2="a3 a7" order="2">
   <cml:bondStereo atomRefs4="a1 a3 a7 a11">C</cml:bondStereo>
  </cml:bond>
  <cml:bond atomRefs2="a5 a8" order="1"/>
  <cml:bond atomRefs2="a5 a9" order="1"/>
  <cml:bond atomRefs2="a6 a10" order="2"/>
  <cml:bond atomRefs2="a7 a11" order="1"/>
  <cml:bond atomRefs2="a12 a8" order="1"/>
  <cml:bond atomRefs2="a13 a9" order="1"/>
  <cml:bond atomRefs2="a11 a14" order="1"/>
  <cml:bond atomRefs2="a11 a15" order="2"/>
  <cml:bond atomRefs2="a12 a16" order="1"/>
  <cml:bond atomRefs2="a12 a17" order="1"/>
  <cml:bond atomRefs2="a13 a18" order="1"/>
  <cml:bond atomRefs2="a14 a19" order="2"/>
  <cml:bond atomRefs2="a14 a20" order="1"/>
  <cml:bond atomRefs2="a15 a21" order="1"/>
  <cml:bond atomRefs2="a20 a22" order="1"/>
  <cml:bond atomRefs2="a20 a23" order="2"/>
  <cml:bond atomRefs2="a21 a24" order="1"/>
  <cml:bond atomRefs2="a22 a25" order="1"/>
  <cml:bond atomRefs2="a23 a26" order="1"/>
  <cml:bond atomRefs2="a24 a27" order="2"/>
  <cml:bond atomRefs2="a24 a28" order="1"/>
  <cml:bond atomRefs2="a25 a29" order="1"/>
  <cml:bond atomRefs2="a26 a30" order="1"/>
  <cml:bond atomRefs2="a27 a31" order="1"/>
  <cml:bond atomRefs2="a28 a32" order="2"/>
  <cml:bond atomRefs2="a29 a33" order="2"/>
  <cml:bond atomRefs2="a30 a34" order="2"/>
  <cml:bond atomRefs2="a31 a35" order="2"/>
  <cml:bond atomRefs2="a4 a6" order="1"/>
  <cml:bond atomRefs2="a13 a16" order="1"/>
  <cml:bond atomRefs2="a19 a21" order="1"/>
  <cml:bond atomRefs2="a25 a26" order="2"/>
  <cml:bond atomRefs2="a32 a35" order="1"/>
  <cml:bond atomRefs2="a33 a34" order="1"/>
 </cml:bondArray>
 <cml:propertyList>
  <cml:property title="Molecule Name">
   <cml:scalar>ZINC01019934</cml:scalar>
  </cml:property>
 </cml:propertyList>
</cml:molecule>
</svg>
