<?xml version="1.0"?>
<svg xmlns="http://www.w3.org/2000/svg"
xmlns:xlink="http://www.w3.org/1999/xlink" xmlns:cml="http://www.xml-cml.org/schema" width="333.22" height="549.894" x="0" y="0" font-family="sans-serif" stroke="rgb(255,255,255)" stroke-width="1"  stroke-linecap="round">
<rect x="0%" y="0%" width="100%" height="100%" stroke-width="0" fill="rgb(0,0,0)"  />
<line x1="127.7" y1="248.6" x2="135.8" y2="288.5" stroke="rgb(255,255,255)"  stroke-width="1.0"/>
<line x1="143.4" y1="100.3" x2="129.1" y2="75.9" stroke="rgb(255,255,255)"  stroke-width="1.0"/>
<line x1="135.8" y1="288.5" x2="105.6" y2="315.5" stroke="rgb(255,255,255)"  stroke-width="1.0"/>
<line x1="231.3" y1="206.1" x2="230.2" y2="207.3" stroke="rgb(255,255,255)"  stroke-width="1.0"/>
<line x1="236.7" y1="209.8" x2="234.9" y2="212.0" stroke="rgb(255,255,255)"  stroke-width="1.0"/>
<line x1="242.2" y1="213.4" x2="239.5" y2="216.6" stroke="rgb(255,255,255)"  stroke-width="1.0"/>
<line x1="247.6" y1="217.1" x2="244.2" y2="221.3" stroke="rgb(255,255,255)"  stroke-width="1.0"/>
<line x1="253.1" y1="220.8" x2="248.8" y2="226.0" stroke="rgb(255,255,255)"  stroke-width="1.0"/>
<line x1="258.6" y1="224.5" x2="253.5" y2="230.7" stroke="rgb(255,255,255)"  stroke-width="1.0"/>
<polygon points="188.595848 104.708251 190.043273 63.814821 197.972313 64.877991 " stroke-width="1.000000" fill="rgb(255,255,255)"  stroke="rgb(255,255,255)" />
<line x1="105.6" y1="315.5" x2="113.1" y2="354.5" stroke="rgb(255,255,255)"  stroke-width="1.0"/>
<line x1="256.0" y1="227.6" x2="281.1" y2="217.7" stroke="rgb(255,255,255)"  stroke-width="1.0"/>
<line x1="222.5" y1="122.8" x2="242.9" y2="104.6" stroke="rgb(255,255,255)"  stroke-width="1.0"/>
<line x1="226.4" y1="127.2" x2="246.9" y2="109.0" stroke="rgb(255,255,255)"  stroke-width="1.0"/>
<line x1="194.0" y1="64.3" x2="162.2" y2="40.0" stroke="rgb(255,255,255)"  stroke-width="1.0"/>
<line x1="194.0" y1="64.3" x2="230.5" y2="48.1" stroke="rgb(255,255,255)"  stroke-width="1.0"/>
<line x1="113.1" y1="354.5" x2="83.3" y2="380.9" stroke="rgb(255,255,255)"  stroke-width="1.0"/>
<line x1="83.3" y1="380.9" x2="91.4" y2="418.8" stroke="rgb(255,255,255)"  stroke-width="1.0"/>
<line x1="91.4" y1="418.8" x2="61.6" y2="445.2" stroke="rgb(255,255,255)"  stroke-width="1.0"/>
<line x1="61.6" y1="445.2" x2="69.8" y2="483.5" stroke="rgb(255,255,255)"  stroke-width="1.0"/>
<line x1="69.8" y1="483.5" x2="40.0" y2="509.9" stroke="rgb(255,255,255)"  stroke-width="1.0"/>
<line x1="124.3" y1="183.2" x2="150.0" y2="214.3" stroke="rgb(255,255,255)"  stroke-width="1.0"/>
<line x1="150.0" y1="214.3" x2="127.7" y2="248.6" stroke="rgb(255,255,255)"  stroke-width="1.0"/>
<line x1="140.7" y1="215.4" x2="125.0" y2="239.6" stroke="rgb(255,255,255)"  stroke-width="1.0"/>
<line x1="127.7" y1="248.6" x2="111.6" y2="245.6" stroke="rgb(255,255,255)"  stroke-width="1.0"/>
<line x1="95.8" y1="230.5" x2="89.4" y2="204.1" stroke="rgb(255,255,255)"  stroke-width="1.0"/>
<line x1="89.4" y1="204.1" x2="124.3" y2="183.2" stroke="rgb(255,255,255)"  stroke-width="1.0"/>
<line x1="52.9" y1="143.9" x2="89.4" y2="122.3" stroke="rgb(255,255,255)"  stroke-width="1.0"/>
<line x1="61.7" y1="147.1" x2="87.9" y2="131.5" stroke="rgb(255,255,255)"  stroke-width="1.0"/>
<line x1="89.4" y1="122.3" x2="124.3" y2="142.6" stroke="rgb(255,255,255)"  stroke-width="1.0"/>
<line x1="124.3" y1="142.6" x2="124.3" y2="183.2" stroke="rgb(255,255,255)"  stroke-width="1.0"/>
<line x1="117.1" y1="148.6" x2="117.1" y2="177.2" stroke="rgb(255,255,255)"  stroke-width="1.0"/>
<line x1="89.4" y1="204.1" x2="54.2" y2="184.5" stroke="rgb(255,255,255)"  stroke-width="1.0"/>
<line x1="87.6" y1="194.9" x2="63.0" y2="181.2" stroke="rgb(255,255,255)"  stroke-width="1.0"/>
<line x1="54.2" y1="184.5" x2="52.9" y2="143.9" stroke="rgb(255,255,255)"  stroke-width="1.0"/>
<line x1="224.4" y1="125.0" x2="234.0" y2="151.3" stroke="rgb(255,255,255)"  stroke-width="1.0"/>
<line x1="233.9" y1="175.8" x2="224.4" y2="201.4" stroke="rgb(255,255,255)"  stroke-width="1.0"/>
<line x1="224.4" y1="201.4" x2="188.6" y2="221.5" stroke="rgb(255,255,255)"  stroke-width="1.0"/>
<line x1="188.6" y1="221.5" x2="150.0" y2="214.3" stroke="rgb(255,255,255)"  stroke-width="1.0"/>
<line x1="124.3" y1="142.6" x2="141.8" y2="121.5" stroke="rgb(255,255,255)"  stroke-width="1.0"/>
<line x1="162.8" y1="109.2" x2="188.6" y2="104.7" stroke="rgb(255,255,255)"  stroke-width="1.0"/>
<line x1="188.6" y1="104.7" x2="224.4" y2="125.0" stroke="rgb(255,255,255)"  stroke-width="1.0"/>
<text x="144.031454" y="119.471958" fill="rgb(12,12,255)"  stroke="rgb(12,12,255)" stroke-width="1" font-size="16" >N</text>
<text x="92.855514" y="251.156090" fill="rgb(12,12,255)"  stroke="rgb(12,12,255)" stroke-width="1" font-size="16" >N</text>
<text x="92.855514" y="267.156090" fill="rgb(12,12,255)"  stroke="rgb(12,12,255)" stroke-width="1" font-size="16" >H</text>
<text x="232.429821" y="171.563766" fill="rgb(12,12,255)"  stroke="rgb(12,12,255)" stroke-width="1" font-size="16" >NH</text>
<text x="287.220255" y="220.937356" fill="rgb(255,12,12)"  stroke="rgb(255,12,12)" stroke-width="1" font-size="16" >OH</text>
<text x="248.655861" y="106.169838" fill="rgb(255,12,12)"  stroke="rgb(255,12,12)" stroke-width="1" font-size="16" >O</text>
<text font-size="18.000000" fill ="white" font-family="sans-serif"
x="10.000000" y="20.000000" >109345-94-0.mol</text>
<title>109345-94-0.mol - OBDepict</title>
<cml:molecule id="id109345-94-0.mol">
 <cml:atomArray>
  <cml:atom id="a1" elementType="C" x2="-0.863300" y2="1.873700"/>
  <cml:atom id="a2" elementType="C" x2="-0.338500" y2="1.238400"/>
  <cml:atom id="a3" elementType="C" x2="-0.863300" y2="2.702400"/>
  <cml:atom id="a4" elementType="C" x2="-1.576800" y2="1.445700"/>
  <cml:atom id="a5" elementType="C" x2="-0.794100" y2="0.538600"/>
  <cml:atom id="a6" elementType="C" x2="0.448900" y2="1.091000"/>
  <cml:atom id="a7" elementType="N" x2="-0.338500" y2="3.337800"/>
  <cml:atom id="a8" elementType="C" x2="-1.576800" y2="3.116800"/>
  <cml:atom id="a9" elementType="N" x2="-1.383400" y2="0.649100"/>
  <cml:atom id="a10" elementType="C" x2="-2.295100" y2="1.846200"/>
  <cml:atom id="a11" elementType="C" x2="-0.628500" y2="-0.276200"/>
  <cml:atom id="a12" elementType="C" x2="1.180900" y2="1.500700">
   <cml:atomParity atomRefs4="a12 a18 a6 a17">1</cml:atomParity>
  </cml:atom>
  <cml:atom id="a13" elementType="C" x2="0.448900" y2="3.475900">
   <cml:atomParity atomRefs4="a13 a20 a7 a19">1</cml:atomParity>
  </cml:atom>
  <cml:atom id="a14" elementType="C" x2="-0.766700" y2="4.065100"/>
  <cml:atom id="a15" elementType="C" x2="-2.322700" y2="2.674700"/>
  <cml:atom id="a16" elementType="C" x2="-1.245400" y2="-0.828700"/>
  <cml:atom id="a17" elementType="N" x2="1.466400" y2="2.274200"/>
  <cml:atom id="a18" elementType="C" x2="1.825300" y2="0.966700"/>
  <cml:atom id="a19" elementType="C" x2="1.180900" y2="3.061500"/>
  <cml:atom id="a20" elementType="C" x2="0.559400" y2="4.300000"/>
  <cml:atom id="a21" elementType="C" x2="-1.093400" y2="-1.625100"/>
  <cml:atom id="a22" elementType="O" x2="2.585100" y2="1.266100"/>
  <cml:atom id="a23" elementType="O" x2="1.797700" y2="3.609400"/>
  <cml:atom id="a24" elementType="C" x2="-0.089800" y2="4.797100"/>
  <cml:atom id="a25" elementType="C" x2="1.305200" y2="4.631400"/>
  <cml:atom id="a26" elementType="C" x2="-1.701200" y2="-2.163800"/>
  <cml:atom id="a27" elementType="C" x2="-1.535400" y2="-2.937200"/>
  <cml:atom id="a28" elementType="C" x2="-2.143100" y2="-3.475900"/>
  <cml:atom id="a29" elementType="C" x2="-1.977300" y2="-4.258600"/>
  <cml:atom id="a30" elementType="C" x2="-2.585100" y2="-4.797100"/>
 </cml:atomArray>
 <cml:bondArray>
  <cml:bond atomRefs2="a1 a2" order="1"/>
  <cml:bond atomRefs2="a1 a3" order="2"/>
  <cml:bond atomRefs2="a1 a4" order="1"/>
  <cml:bond atomRefs2="a2 a5" order="2"/>
  <cml:bond atomRefs2="a2 a6" order="1"/>
  <cml:bond atomRefs2="a3 a7" order="1"/>
  <cml:bond atomRefs2="a3 a8" order="1"/>
  <cml:bond atomRefs2="a4 a9" order="1"/>
  <cml:bond atomRefs2="a4 a10" order="2"/>
  <cml:bond atomRefs2="a5 a11" order="1"/>
  <cml:bond atomRefs2="a5 a9" order="1"/>
  <cml:bond atomRefs2="a6 a12" order="1"/>
  <cml:bond atomRefs2="a7 a13" order="1"/>
  <cml:bond atomRefs2="a7 a14" order="1"/>
  <cml:bond atomRefs2="a8 a15" order="2"/>
  <cml:bond atomRefs2="a10 a15" order="1"/>
  <cml:bond atomRefs2="a11 a16" order="1"/>
  <cml:bond atomRefs2="a12 a17" order="1"/>
  <cml:bond atomRefs2="a12 a18" order="1"/>
  <cml:bond atomRefs2="a13 a19" order="1"/>
  <cml:bond atomRefs2="a13 a20" order="1"/>
  <cml:bond atomRefs2="a16 a21" order="1"/>
  <cml:bond atomRefs2="a17 a19" order="1"/>
  <cml:bond atomRefs2="a18 a22" order="1"/>
  <cml:bond atomRefs2="a19 a23" order="2"/>
  <cml:bond atomRefs2="a20 a24" order="1"/>
  <cml:bond atomRefs2="a20 a25" order="1"/>
  <cml:bond atomRefs2="a21 a26" order="1"/>
  <cml:bond atomRefs2="a26 a27" order="1"/>
  <cml:bond atomRefs2="a27 a28" order="1"/>
  <cml:bond atomRefs2="a28 a29" order="1"/>
  <cml:bond atomRefs2="a29 a30" order="1"/>
 </cml:bondArray>
</cml:molecule>
</svg>
