<?xml version="1.0"?>
<svg xmlns="http://www.w3.org/2000/svg"
xmlns:xlink="http://www.w3.org/1999/xlink" xmlns:cml="http://www.xml-cml.org/schema" width="429.14" height="383.228" x="0" y="0" font-family="sans-serif" stroke="rgb(255,255,255)" stroke-width="1"  stroke-linecap="round">
<rect x="0%" y="0%" width="100%" height="100%" stroke-width="0" fill="rgb(0,0,0)"  />
<line x1="175.7" y1="138.9" x2="210.0" y2="158.7" stroke="rgb(255,255,255)"  stroke-width="1.0"/>
<line x1="208.6" y1="156.1" x2="249.4" y2="135.2" stroke="rgb(255,255,255)"  stroke-width="1.0"/>
<line x1="211.4" y1="161.4" x2="252.1" y2="140.5" stroke="rgb(255,255,255)"  stroke-width="1.0"/>
<line x1="210.0" y1="158.7" x2="215.3" y2="202.8" stroke="rgb(255,255,255)"  stroke-width="1.0"/>
<line x1="215.3" y1="282.1" x2="216.7" y2="308.7" stroke="rgb(255,255,255)"  stroke-width="1.0"/>
<line x1="205.3" y1="326.3" x2="180.4" y2="335.8" stroke="rgb(255,255,255)"  stroke-width="1.0"/>
<line x1="228.3" y1="328.7" x2="250.7" y2="343.2" stroke="rgb(255,255,255)"  stroke-width="1.0"/>
<line x1="318.4" y1="95.3" x2="343.8" y2="87.1" stroke="rgb(255,255,255)"  stroke-width="1.0"/>
<line x1="320.3" y1="101.1" x2="345.6" y2="92.8" stroke="rgb(255,255,255)"  stroke-width="1.0"/>
<line x1="357.1" y1="73.0" x2="357.1" y2="46.3" stroke="rgb(255,255,255)"  stroke-width="1.0"/>
<line x1="367.6" y1="93.6" x2="389.1" y2="109.2" stroke="rgb(255,255,255)"  stroke-width="1.0"/>
<line x1="107.0" y1="99.3" x2="86.3" y2="82.5" stroke="rgb(255,255,255)"  stroke-width="1.0"/>
<line x1="82.7" y1="63.1" x2="96.0" y2="40.0" stroke="rgb(255,255,255)"  stroke-width="1.0"/>
<line x1="64.3" y1="79.6" x2="40.0" y2="90.4" stroke="rgb(255,255,255)"  stroke-width="1.0"/>
<line x1="141.3" y1="79.4" x2="107.0" y2="99.3" stroke="rgb(255,255,255)"  stroke-width="1.0"/>
<line x1="107.0" y1="99.3" x2="107.0" y2="138.9" stroke="rgb(255,255,255)"  stroke-width="1.0"/>
<line x1="114.2" y1="105.3" x2="114.2" y2="132.9" stroke="rgb(255,255,255)"  stroke-width="1.0"/>
<line x1="107.0" y1="138.9" x2="141.3" y2="158.7" stroke="rgb(255,255,255)"  stroke-width="1.0"/>
<line x1="141.3" y1="158.7" x2="175.7" y2="138.9" stroke="rgb(255,255,255)"  stroke-width="1.0"/>
<line x1="142.9" y1="149.5" x2="166.9" y2="135.7" stroke="rgb(255,255,255)"  stroke-width="1.0"/>
<line x1="175.7" y1="138.9" x2="175.7" y2="99.3" stroke="rgb(255,255,255)"  stroke-width="1.0"/>
<line x1="175.7" y1="99.3" x2="141.3" y2="79.4" stroke="rgb(255,255,255)"  stroke-width="1.0"/>
<line x1="166.9" y1="102.5" x2="142.9" y2="88.7" stroke="rgb(255,255,255)"  stroke-width="1.0"/>
<line x1="285.1" y1="78.4" x2="250.7" y2="98.2" stroke="rgb(255,255,255)"  stroke-width="1.0"/>
<line x1="283.5" y1="87.6" x2="259.5" y2="101.4" stroke="rgb(255,255,255)"  stroke-width="1.0"/>
<line x1="250.7" y1="98.2" x2="250.7" y2="137.8" stroke="rgb(255,255,255)"  stroke-width="1.0"/>
<line x1="250.7" y1="137.8" x2="285.1" y2="157.7" stroke="rgb(255,255,255)"  stroke-width="1.0"/>
<line x1="285.1" y1="157.7" x2="319.4" y2="137.8" stroke="rgb(255,255,255)"  stroke-width="1.0"/>
<line x1="286.6" y1="148.4" x2="310.6" y2="134.6" stroke="rgb(255,255,255)"  stroke-width="1.0"/>
<line x1="319.4" y1="137.8" x2="319.4" y2="98.2" stroke="rgb(255,255,255)"  stroke-width="1.0"/>
<line x1="319.4" y1="98.2" x2="285.1" y2="78.4" stroke="rgb(255,255,255)"  stroke-width="1.0"/>
<line x1="215.3" y1="202.8" x2="181.0" y2="222.6" stroke="rgb(255,255,255)"  stroke-width="1.0"/>
<line x1="181.0" y1="222.6" x2="181.0" y2="262.2" stroke="rgb(255,255,255)"  stroke-width="1.0"/>
<line x1="188.2" y1="228.6" x2="188.2" y2="256.2" stroke="rgb(255,255,255)"  stroke-width="1.0"/>
<line x1="181.0" y1="262.2" x2="215.3" y2="282.1" stroke="rgb(255,255,255)"  stroke-width="1.0"/>
<line x1="215.3" y1="282.1" x2="249.7" y2="262.2" stroke="rgb(255,255,255)"  stroke-width="1.0"/>
<line x1="216.9" y1="272.8" x2="240.9" y2="259.0" stroke="rgb(255,255,255)"  stroke-width="1.0"/>
<line x1="249.7" y1="262.2" x2="249.7" y2="222.6" stroke="rgb(255,255,255)"  stroke-width="1.0"/>
<line x1="249.7" y1="222.6" x2="215.3" y2="202.8" stroke="rgb(255,255,255)"  stroke-width="1.0"/>
<line x1="240.9" y1="225.8" x2="216.9" y2="212.0" stroke="rgb(255,255,255)"  stroke-width="1.0"/>
<text x="211.412041" y="329.641495" fill="rgb(12,12,255)"  stroke="rgb(12,12,255)" stroke-width="1" font-size="16" >N</text>
<text x="361.870093" y="81.918516" fill="rgb(12,12,255)"  stroke="rgb(12,12,255)" stroke-width="1" font-size="16" >+</text>
<text x="351.070093" y="93.950516" fill="rgb(12,12,255)"  stroke="rgb(12,12,255)" stroke-width="1" font-size="16" >N</text>
<text x="70.211736" y="82.328360" fill="rgb(12,12,255)"  stroke="rgb(12,12,255)" stroke-width="1" font-size="16" >N</text>
<text font-size="18.000000" fill ="white" font-family="sans-serif"
x="10.000000" y="20.000000" ></text>
<title> - OBDepict</title>
<cml:molecule>
 <cml:atomArray>
  <cml:atom id="a1" elementType="C" x2="-2.410700" y2="2.856300"/>
  <cml:atom id="a2" elementType="C" x2="-3.125200" y2="2.443800"/>
  <cml:atom id="a3" elementType="C" x2="-3.125200" y2="1.618700"/>
  <cml:atom id="a4" elementType="C" x2="-2.410700" y2="1.206200"/>
  <cml:atom id="a5" elementType="C" x2="-1.696200" y2="1.618700"/>
  <cml:atom id="a6" elementType="C" x2="-1.696200" y2="2.443800"/>
  <cml:atom id="a7" elementType="C" x2="0.580400" y2="2.878600"/>
  <cml:atom id="a8" elementType="C" x2="-0.134100" y2="2.466100"/>
  <cml:atom id="a9" elementType="C" x2="-0.134100" y2="1.641100"/>
  <cml:atom id="a10" elementType="C" x2="0.580400" y2="1.228600"/>
  <cml:atom id="a11" elementType="C" x2="1.294800" y2="1.641100"/>
  <cml:atom id="a12" elementType="C" x2="1.294800" y2="2.466100"/>
  <cml:atom id="a13" elementType="C" x2="-0.870500" y2="0.289300"/>
  <cml:atom id="a14" elementType="C" x2="-1.585000" y2="-0.123200"/>
  <cml:atom id="a15" elementType="C" x2="-1.585000" y2="-0.948200"/>
  <cml:atom id="a16" elementType="C" x2="-0.870500" y2="-1.360700"/>
  <cml:atom id="a17" elementType="C" x2="-0.156100" y2="-0.948200"/>
  <cml:atom id="a18" elementType="C" x2="-0.156100" y2="-0.123200"/>
  <cml:atom id="a19" elementType="C" x2="-0.981800" y2="1.206200"/>
  <cml:atom id="a20" elementType="N" x2="-0.827400" y2="-2.184600"/>
  <cml:atom id="a21" elementType="C" x2="-1.597600" y2="-2.480300"/>
  <cml:atom id="a22" elementType="C" x2="-0.135500" y2="-2.633900"/>
  <cml:atom id="a23" elementType="N" formalCharge="1" x2="2.079400" y2="2.721000"/>
  <cml:atom id="a24" elementType="C" x2="2.079400" y2="3.546000"/>
  <cml:atom id="a25" elementType="C" x2="2.746900" y2="2.236100"/>
  <cml:atom id="a26" elementType="N" x2="-3.766300" y2="2.962900"/>
  <cml:atom id="a27" elementType="C" x2="-3.353800" y2="3.677400"/>
  <cml:atom id="a28" elementType="C" x2="-4.520000" y2="2.627400"/>
 </cml:atomArray>
 <cml:bondArray>
  <cml:bond atomRefs2="a1 a2" order="1"/>
  <cml:bond atomRefs2="a2 a3" order="2"/>
  <cml:bond atomRefs2="a3 a4" order="1"/>
  <cml:bond atomRefs2="a4 a5" order="2"/>
  <cml:bond atomRefs2="a5 a6" order="1"/>
  <cml:bond atomRefs2="a1 a6" order="2"/>
  <cml:bond atomRefs2="a7 a8" order="2">
   <cml:bondStereo atomRefs4="a12 a7 a8 a9">C</cml:bondStereo>
  </cml:bond>
  <cml:bond atomRefs2="a8 a9" order="1"/>
  <cml:bond atomRefs2="a9 a10" order="1"/>
  <cml:bond atomRefs2="a10 a11" order="2">
   <cml:bondStereo atomRefs4="a9 a10 a11 a12">C</cml:bondStereo>
  </cml:bond>
  <cml:bond atomRefs2="a11 a12" order="1"/>
  <cml:bond atomRefs2="a7 a12" order="1"/>
  <cml:bond atomRefs2="a13 a14" order="1"/>
  <cml:bond atomRefs2="a14 a15" order="2"/>
  <cml:bond atomRefs2="a15 a16" order="1"/>
  <cml:bond atomRefs2="a16 a17" order="2"/>
  <cml:bond atomRefs2="a17 a18" order="1"/>
  <cml:bond atomRefs2="a13 a18" order="2"/>
  <cml:bond atomRefs2="a5 a19" order="1"/>
  <cml:bond atomRefs2="a19 a9" order="2"/>
  <cml:bond atomRefs2="a19 a13" order="1"/>
  <cml:bond atomRefs2="a16 a20" order="1"/>
  <cml:bond atomRefs2="a20 a21" order="1"/>
  <cml:bond atomRefs2="a20 a22" order="1"/>
  <cml:bond atomRefs2="a12 a23" order="2"/>
  <cml:bond atomRefs2="a23 a24" order="1"/>
  <cml:bond atomRefs2="a23 a25" order="1"/>
  <cml:bond atomRefs2="a2 a26" order="1"/>
  <cml:bond atomRefs2="a26 a27" order="1"/>
  <cml:bond atomRefs2="a26 a28" order="1"/>
 </cml:bondArray>
</cml:molecule>
</svg>
