<?xml version="1.0"?>
<svg xmlns="http://www.w3.org/2000/svg"
xmlns:xlink="http://www.w3.org/1999/xlink" xmlns:cml="http://www.xml-cml.org/schema" width="408.203" height="327.738" x="0" y="0" font-family="sans-serif" stroke="rgb(255,255,255)" stroke-width="1"  stroke-linecap="round">
<rect x="0%" y="0%" width="100%" height="100%" stroke-width="0" fill="rgb(0,0,0)"  />
<line x1="109.3" y1="183.6" x2="132.8" y2="151.2" stroke="rgb(255,255,255)"  stroke-width="1.0"/>
<line x1="130.0" y1="152.3" x2="120.3" y2="127.1" stroke="rgb(255,255,255)"  stroke-width="1.0"/>
<line x1="135.6" y1="150.2" x2="125.9" y2="125.0" stroke="rgb(255,255,255)"  stroke-width="1.0"/>
<line x1="132.8" y1="151.2" x2="152.9" y2="169.3" stroke="rgb(255,255,255)"  stroke-width="1.0"/>
<polygon points="196.067787 156.218113 175.770004 174.168285 171.413063 167.458809 " stroke-width="1.000000" fill="rgb(255,255,255)"  stroke="rgb(255,255,255)" />
<line x1="196.1" y1="156.2" x2="198.2" y2="116.3" stroke="rgb(255,255,255)"  stroke-width="1.0"/>
<line x1="198.2" y1="116.3" x2="234.7" y2="100.0" stroke="rgb(255,255,255)"  stroke-width="1.0"/>
<line x1="196.1" y1="156.2" x2="229.6" y2="178.0" stroke="rgb(255,255,255)"  stroke-width="1.0"/>
<line x1="232.6" y1="177.7" x2="235.4" y2="204.5" stroke="rgb(255,255,255)"  stroke-width="1.0"/>
<line x1="226.6" y1="178.3" x2="229.5" y2="205.2" stroke="rgb(255,255,255)"  stroke-width="1.0"/>
<line x1="229.6" y1="178.0" x2="252.3" y2="163.3" stroke="rgb(255,255,255)"  stroke-width="1.0"/>
<line x1="290.7" y1="177.2" x2="291.7" y2="175.9" stroke="rgb(255,255,255)"  stroke-width="1.0"/>
<line x1="286.9" y1="175.2" x2="288.6" y2="172.9" stroke="rgb(255,255,255)"  stroke-width="1.0"/>
<line x1="283.0" y1="173.2" x2="285.5" y2="169.9" stroke="rgb(255,255,255)"  stroke-width="1.0"/>
<line x1="279.2" y1="171.2" x2="282.4" y2="166.8" stroke="rgb(255,255,255)"  stroke-width="1.0"/>
<line x1="275.3" y1="169.2" x2="279.3" y2="163.8" stroke="rgb(255,255,255)"  stroke-width="1.0"/>
<line x1="271.5" y1="167.2" x2="276.2" y2="160.7" stroke="rgb(255,255,255)"  stroke-width="1.0"/>
<line x1="295.5" y1="179.7" x2="297.6" y2="219.7" stroke="rgb(255,255,255)"  stroke-width="1.0"/>
<line x1="295.5" y1="179.7" x2="321.2" y2="171.4" stroke="rgb(255,255,255)"  stroke-width="1.0"/>
<line x1="334.9" y1="154.4" x2="336.4" y2="140.5" stroke="rgb(255,255,255)"  stroke-width="1.0"/>
<line x1="344.8" y1="173.9" x2="356.9" y2="180.9" stroke="rgb(255,255,255)"  stroke-width="1.0"/>
<line x1="297.6" y1="219.7" x2="325.9" y2="248.0" stroke="rgb(255,255,255)"  stroke-width="1.0"/>
<line x1="325.9" y1="248.0" x2="365.4" y2="241.7" stroke="rgb(255,255,255)"  stroke-width="1.0"/>
<line x1="325.9" y1="248.0" x2="321.7" y2="287.7" stroke="rgb(255,255,255)"  stroke-width="1.0"/>
<line x1="63.4" y1="170.1" x2="40.0" y2="183.6" stroke="rgb(255,255,255)"  stroke-width="1.0"/>
<line x1="40.0" y1="183.6" x2="40.0" y2="223.6" stroke="rgb(255,255,255)"  stroke-width="1.0"/>
<line x1="47.2" y1="189.6" x2="47.2" y2="217.6" stroke="rgb(255,255,255)"  stroke-width="1.0"/>
<line x1="40.0" y1="223.6" x2="63.4" y2="237.1" stroke="rgb(255,255,255)"  stroke-width="1.0"/>
<line x1="86.1" y1="237.0" x2="109.3" y2="223.6" stroke="rgb(255,255,255)"  stroke-width="1.0"/>
<line x1="84.2" y1="229.8" x2="100.5" y2="220.4" stroke="rgb(255,255,255)"  stroke-width="1.0"/>
<line x1="109.3" y1="223.6" x2="109.3" y2="183.6" stroke="rgb(255,255,255)"  stroke-width="1.0"/>
<line x1="109.3" y1="183.6" x2="86.1" y2="170.2" stroke="rgb(255,255,255)"  stroke-width="1.0"/>
<line x1="100.5" y1="186.8" x2="84.2" y2="177.4" stroke="rgb(255,255,255)"  stroke-width="1.0"/>
<line x1="234.7" y1="100.0" x2="269.3" y2="120.0" stroke="rgb(255,255,255)"  stroke-width="1.0"/>
<line x1="269.3" y1="120.0" x2="304.0" y2="100.0" stroke="rgb(255,255,255)"  stroke-width="1.0"/>
<line x1="270.9" y1="110.8" x2="295.2" y2="96.8" stroke="rgb(255,255,255)"  stroke-width="1.0"/>
<line x1="304.0" y1="100.0" x2="304.0" y2="60.0" stroke="rgb(255,255,255)"  stroke-width="1.0"/>
<line x1="304.0" y1="60.0" x2="269.3" y2="40.0" stroke="rgb(255,255,255)"  stroke-width="1.0"/>
<line x1="295.2" y1="63.2" x2="270.9" y2="49.2" stroke="rgb(255,255,255)"  stroke-width="1.0"/>
<line x1="269.3" y1="40.0" x2="234.7" y2="60.0" stroke="rgb(255,255,255)"  stroke-width="1.0"/>
<line x1="234.7" y1="60.0" x2="234.7" y2="100.0" stroke="rgb(255,255,255)"  stroke-width="1.0"/>
<line x1="241.9" y1="66.0" x2="241.9" y2="94.0" stroke="rgb(255,255,255)"  stroke-width="1.0"/>
<text x="68.642404" y="171.597503" fill="rgb(12,12,255)"  stroke="rgb(12,12,255)" stroke-width="1" font-size="16" >N</text>
<text x="68.642404" y="251.597455" fill="rgb(12,12,255)"  stroke="rgb(12,12,255)" stroke-width="1" font-size="16" >N</text>
<text x="112.458135" y="121.895714" fill="rgb(255,12,12)"  stroke="rgb(255,12,12)" stroke-width="1" font-size="16" >O</text>
<text x="156.521140" y="186.002343" fill="rgb(12,12,255)"  stroke="rgb(12,12,255)" stroke-width="1" font-size="16" >N</text>
<text x="156.521140" y="202.002343" fill="rgb(12,12,255)"  stroke="rgb(12,12,255)" stroke-width="1" font-size="16" >H</text>
<text x="227.793825" y="225.784137" fill="rgb(255,12,12)"  stroke="rgb(255,12,12)" stroke-width="1" font-size="16" >O</text>
<text x="257.161080" y="164.218113" fill="rgb(12,12,255)"  stroke="rgb(12,12,255)" stroke-width="1" font-size="16" >N</text>
<text x="257.161080" y="148.218113" fill="rgb(12,12,255)"  stroke="rgb(12,12,255)" stroke-width="1" font-size="16" >H</text>
<text x="327.561039" y="175.369622" fill="rgb(255,181,181)"  stroke="rgb(255,181,181)" stroke-width="1" font-size="16" >B</text>
<text x="331.745279" y="135.587827" fill="rgb(255,12,12)"  stroke="rgb(255,12,12)" stroke-width="1" font-size="16" >OH</text>
<text x="362.203442" y="195.369610" fill="rgb(255,12,12)"  stroke="rgb(255,12,12)" stroke-width="1" font-size="16" >OH</text>
<text font-size="18.000000" fill ="white" font-family="sans-serif"
x="10.000000" y="20.000000" ></text>
<title> - OBDepict</title>
<cml:molecule>
 <cml:atomArray>
  <cml:atom id="a1" elementType="N" x2="-3.147300" y2="0.066100"/>
  <cml:atom id="a2" elementType="C" x2="-3.861800" y2="-0.346400"/>
  <cml:atom id="a3" elementType="C" x2="-3.861800" y2="-1.171400"/>
  <cml:atom id="a4" elementType="N" x2="-3.147300" y2="-1.583900"/>
  <cml:atom id="a5" elementType="C" x2="-2.432900" y2="-1.171400"/>
  <cml:atom id="a6" elementType="C" x2="-2.432900" y2="-0.346400"/>
  <cml:atom id="a7" elementType="C" x2="-1.947900" y2="0.321000"/>
  <cml:atom id="a8" elementType="O" x2="-2.243600" y2="1.091200"/>
  <cml:atom id="a9" elementType="N" x2="-1.334800" y2="-0.231000"/>
  <cml:atom id="a10" elementType="C" x2="-0.642900" y2="0.218300">
   <cml:atomParity atomRefs4="a10 a11 a9 a13">1</cml:atomParity>
  </cml:atom>
  <cml:atom id="a11" elementType="C" x2="-0.599800" y2="1.042200"/>
  <cml:atom id="a12" elementType="C" x2="0.153900" y2="1.377700"/>
  <cml:atom id="a13" elementType="C" x2="0.049000" y2="-0.231000"/>
  <cml:atom id="a14" elementType="O" x2="0.135200" y2="-1.051500"/>
  <cml:atom id="a15" elementType="N" x2="0.740900" y2="0.218300"/>
  <cml:atom id="a16" elementType="C" x2="1.408300" y2="-0.266600">
   <cml:atomParity atomRefs4="a16 a22 a15 a23">1</cml:atomParity>
  </cml:atom>
  <cml:atom id="a17" elementType="C" x2="0.868400" y2="2.615300"/>
  <cml:atom id="a18" elementType="C" x2="0.153900" y2="2.202800"/>
  <cml:atom id="a19" elementType="C" x2="0.868400" y2="0.965200"/>
  <cml:atom id="a20" elementType="C" x2="1.582800" y2="1.377700"/>
  <cml:atom id="a21" elementType="C" x2="1.582800" y2="2.202800"/>
  <cml:atom id="a22" elementType="C" x2="1.451500" y2="-1.090500"/>
  <cml:atom id="a23" elementType="B" x2="2.192900" y2="-0.011700"/>
  <cml:atom id="a24" elementType="O" x2="2.279200" y2="0.808800"/>
  <cml:atom id="a25" elementType="O" x2="2.907400" y2="-0.424200"/>
  <cml:atom id="a26" elementType="C" x2="2.034900" y2="-1.673800"/>
  <cml:atom id="a27" elementType="C" x2="2.849700" y2="-1.544800"/>
  <cml:atom id="a28" elementType="C" x2="1.948600" y2="-2.494300"/>
 </cml:atomArray>
 <cml:bondArray>
  <cml:bond atomRefs2="a1 a2" order="1"/>
  <cml:bond atomRefs2="a2 a3" order="2"/>
  <cml:bond atomRefs2="a3 a4" order="1"/>
  <cml:bond atomRefs2="a4 a5" order="2"/>
  <cml:bond atomRefs2="a5 a6" order="1"/>
  <cml:bond atomRefs2="a1 a6" order="2"/>
  <cml:bond atomRefs2="a6 a7" order="1"/>
  <cml:bond atomRefs2="a7 a8" order="2"/>
  <cml:bond atomRefs2="a7 a9" order="1"/>
  <cml:bond atomRefs2="a9 a10" order="1"/>
  <cml:bond atomRefs2="a10 a11" order="1"/>
  <cml:bond atomRefs2="a11 a12" order="1"/>
  <cml:bond atomRefs2="a10 a13" order="1"/>
  <cml:bond atomRefs2="a13 a14" order="2"/>
  <cml:bond atomRefs2="a13 a15" order="1"/>
  <cml:bond atomRefs2="a15 a16" order="1"/>
  <cml:bond atomRefs2="a17 a18" order="1"/>
  <cml:bond atomRefs2="a19 a20" order="2"/>
  <cml:bond atomRefs2="a20 a21" order="1"/>
  <cml:bond atomRefs2="a17 a21" order="2"/>
  <cml:bond atomRefs2="a18 a12" order="2"/>
  <cml:bond atomRefs2="a12 a19" order="1"/>
  <cml:bond atomRefs2="a16 a22" order="1"/>
  <cml:bond atomRefs2="a16 a23" order="1"/>
  <cml:bond atomRefs2="a23 a24" order="1"/>
  <cml:bond atomRefs2="a23 a25" order="1"/>
  <cml:bond atomRefs2="a22 a26" order="1"/>
  <cml:bond atomRefs2="a26 a27" order="1"/>
  <cml:bond atomRefs2="a26 a28" order="1"/>
 </cml:bondArray>
</cml:molecule>
</svg>
