<?xml version="1.0"?>
<svg xmlns="http://www.w3.org/2000/svg"
xmlns:xlink="http://www.w3.org/1999/xlink" xmlns:cml="http://www.xml-cml.org/schema" width="480.784" height="215.792" x="0" y="0" font-family="sans-serif" stroke="rgb(255,255,255)" stroke-width="1"  stroke-linecap="round">
<rect x="0%" y="0%" width="100%" height="100%" stroke-width="0" fill="rgb(0,0,0)"  />
<line x1="119.0" y1="105.2" x2="142.8" y2="94.6" stroke="rgb(255,255,255)"  stroke-width="1.0"/>
<line x1="214.0" y1="62.9" x2="237.7" y2="52.3" stroke="rgb(255,255,255)"  stroke-width="1.0"/>
<line x1="260.1" y1="54.7" x2="270.6" y2="62.3" stroke="rgb(255,255,255)"  stroke-width="1.0"/>
<line x1="287.6" y1="58.3" x2="296.3" y2="48.7" stroke="rgb(255,255,255)"  stroke-width="1.0"/>
<line x1="292.1" y1="62.3" x2="300.7" y2="52.7" stroke="rgb(255,255,255)"  stroke-width="1.0"/>
<line x1="273.5" y1="80.9" x2="263.8" y2="89.6" stroke="rgb(255,255,255)"  stroke-width="1.0"/>
<line x1="269.5" y1="76.4" x2="259.8" y2="85.1" stroke="rgb(255,255,255)"  stroke-width="1.0"/>
<line x1="290.3" y1="79.2" x2="308.7" y2="97.5" stroke="rgb(255,255,255)"  stroke-width="1.0"/>
<line x1="108.5" y1="123.4" x2="111.2" y2="149.2" stroke="rgb(255,255,255)"  stroke-width="1.0"/>
<line x1="111.2" y1="149.2" x2="90.1" y2="164.6" stroke="rgb(255,255,255)"  stroke-width="1.0"/>
<line x1="102.1" y1="146.9" x2="87.6" y2="157.5" stroke="rgb(255,255,255)"  stroke-width="1.0"/>
<line x1="72.0" y1="161.6" x2="47.6" y2="128.0" stroke="rgb(255,255,255)"  stroke-width="1.0"/>
<line x1="50.4" y1="110.0" x2="61.1" y2="102.2" stroke="rgb(255,255,255)"  stroke-width="1.0"/>
<line x1="56.3" y1="114.6" x2="63.7" y2="109.2" stroke="rgb(255,255,255)"  stroke-width="1.0"/>
<line x1="83.4" y1="99.9" x2="95.3" y2="105.2" stroke="rgb(255,255,255)"  stroke-width="1.0"/>
<line x1="142.8" y1="94.6" x2="174.3" y2="117.5" stroke="rgb(255,255,255)"  stroke-width="1.0"/>
<line x1="151.8" y1="92.3" x2="173.7" y2="108.2" stroke="rgb(255,255,255)"  stroke-width="1.0"/>
<line x1="174.3" y1="117.5" x2="209.9" y2="101.7" stroke="rgb(255,255,255)"  stroke-width="1.0"/>
<line x1="209.9" y1="101.7" x2="214.0" y2="62.9" stroke="rgb(255,255,255)"  stroke-width="1.0"/>
<line x1="203.4" y1="95.0" x2="206.2" y2="68.1" stroke="rgb(255,255,255)"  stroke-width="1.0"/>
<line x1="214.0" y1="62.9" x2="182.4" y2="40.0" stroke="rgb(255,255,255)"  stroke-width="1.0"/>
<line x1="182.4" y1="40.0" x2="146.8" y2="55.9" stroke="rgb(255,255,255)"  stroke-width="1.0"/>
<line x1="179.9" y1="49.0" x2="155.2" y2="60.0" stroke="rgb(255,255,255)"  stroke-width="1.0"/>
<line x1="146.8" y1="55.9" x2="142.8" y2="94.6" stroke="rgb(255,255,255)"  stroke-width="1.0"/>
<line x1="308.7" y1="97.5" x2="300.6" y2="135.7" stroke="rgb(255,255,255)"  stroke-width="1.0"/>
<line x1="300.6" y1="135.7" x2="329.6" y2="161.7" stroke="rgb(255,255,255)"  stroke-width="1.0"/>
<line x1="329.6" y1="161.7" x2="366.6" y2="149.7" stroke="rgb(255,255,255)"  stroke-width="1.0"/>
<line x1="366.6" y1="149.7" x2="374.7" y2="111.6" stroke="rgb(255,255,255)"  stroke-width="1.0"/>
<line x1="374.7" y1="111.6" x2="345.8" y2="85.5" stroke="rgb(255,255,255)"  stroke-width="1.0"/>
<line x1="345.8" y1="85.5" x2="308.7" y2="97.5" stroke="rgb(255,255,255)"  stroke-width="1.0"/>
<line x1="342.3" y1="94.2" x2="316.6" y2="102.5" stroke="rgb(255,255,255)"  stroke-width="1.0"/>
<line x1="440.8" y1="125.6" x2="432.7" y2="163.7" stroke="rgb(255,255,255)"  stroke-width="1.0"/>
<line x1="432.5" y1="130.0" x2="426.9" y2="156.4" stroke="rgb(255,255,255)"  stroke-width="1.0"/>
<line x1="432.7" y1="163.7" x2="395.6" y2="175.8" stroke="rgb(255,255,255)"  stroke-width="1.0"/>
<line x1="395.6" y1="175.8" x2="366.6" y2="149.7" stroke="rgb(255,255,255)"  stroke-width="1.0"/>
<line x1="396.0" y1="166.4" x2="375.9" y2="148.4" stroke="rgb(255,255,255)"  stroke-width="1.0"/>
<line x1="374.7" y1="111.6" x2="411.8" y2="99.5" stroke="rgb(255,255,255)"  stroke-width="1.0"/>
<line x1="382.7" y1="116.6" x2="408.3" y2="108.2" stroke="rgb(255,255,255)"  stroke-width="1.0"/>
<line x1="411.8" y1="99.5" x2="440.8" y2="125.6" stroke="rgb(255,255,255)"  stroke-width="1.0"/>
<text x="101.146922" y="118.478044" fill="rgb(12,12,255)"  stroke="rgb(12,12,255)" stroke-width="1" font-size="16" >N</text>
<text x="73.685243" y="180.153420" fill="rgb(12,12,255)"  stroke="rgb(12,12,255)" stroke-width="1" font-size="16" >N</text>
<text x="34.000000" y="125.532463" fill="rgb(12,12,255)"  stroke="rgb(12,12,255)" stroke-width="1" font-size="16" >N</text>
<text x="65.539350" y="102.625682" fill="rgb(12,12,255)"  stroke="rgb(12,12,255)" stroke-width="1" font-size="16" >N</text>
<text x="243.600834" y="55.059144" fill="rgb(12,12,255)"  stroke="rgb(12,12,255)" stroke-width="1" font-size="16" >N</text>
<text x="243.600834" y="39.059144" fill="rgb(12,12,255)"  stroke="rgb(12,12,255)" stroke-width="1" font-size="16" >H</text>
<text x="275.130734" y="77.970651" fill="rgb(178,178,0)"  stroke="rgb(178,178,0)" stroke-width="1" font-size="16" >S</text>
<text x="246.166507" y="104.057355" fill="rgb(255,12,12)"  stroke="rgb(255,12,12)" stroke-width="1" font-size="16" >O</text>
<text x="301.212713" y="49.001699" fill="rgb(255,12,12)"  stroke="rgb(255,12,12)" stroke-width="1" font-size="16" >O</text>
<text font-size="18.000000" fill ="white" font-family="sans-serif"
x="10.000000" y="20.000000" ></text>
<title> - OBDepict</title>
<cml:molecule>
 <cml:atomArray>
  <cml:atom id="a1" elementType="N" x2="-3.137800" y2="0.118100"/>
  <cml:atom id="a2" elementType="C" x2="-3.051500" y2="-0.702300"/>
  <cml:atom id="a3" elementType="N" x2="-3.719000" y2="-1.187200"/>
  <cml:atom id="a4" elementType="N" x2="-4.558900" y2="-0.031200"/>
  <cml:atom id="a5" elementType="N" x2="-3.891400" y2="0.453600"/>
  <cml:atom id="a6" elementType="C" x2="-2.384100" y2="0.453700"/>
  <cml:atom id="a7" elementType="C" x2="-1.716700" y2="-0.031100"/>
  <cml:atom id="a8" elementType="C" x2="-0.962900" y2="0.304400"/>
  <cml:atom id="a9" elementType="C" x2="-0.876600" y2="1.124800"/>
  <cml:atom id="a10" elementType="C" x2="-1.544100" y2="1.609700"/>
  <cml:atom id="a11" elementType="C" x2="-2.297800" y2="1.274200"/>
  <cml:atom id="a12" elementType="N" x2="-0.122900" y2="1.460300"/>
  <cml:atom id="a13" elementType="S" x2="0.544400" y2="0.975400"/>
  <cml:atom id="a14" elementType="O" x2="-0.068600" y2="0.423300"/>
  <cml:atom id="a15" elementType="O" x2="1.096400" y2="1.588500"/>
  <cml:atom id="a16" elementType="C" x2="1.127800" y2="0.392000"/>
  <cml:atom id="a17" elementType="C" x2="0.956200" y2="-0.414900"/>
  <cml:atom id="a18" elementType="C" x2="1.569400" y2="-0.967000"/>
  <cml:atom id="a19" elementType="C" x2="2.354000" y2="-0.712000"/>
  <cml:atom id="a20" elementType="C" x2="2.525600" y2="0.094900"/>
  <cml:atom id="a21" elementType="C" x2="1.912400" y2="0.647000"/>
  <cml:atom id="a22" elementType="C" x2="3.923300" y2="-0.202400"/>
  <cml:atom id="a23" elementType="C" x2="2.967100" y2="-1.264200"/>
  <cml:atom id="a24" elementType="C" x2="3.751600" y2="-1.009300"/>
  <cml:atom id="a25" elementType="C" x2="3.310200" y2="0.349700"/>
 </cml:atomArray>
 <cml:bondArray>
  <cml:bond atomRefs2="a1 a2" order="1"/>
  <cml:bond atomRefs2="a1 a5" order="1"/>
  <cml:bond atomRefs2="a4 a5" order="2"/>
  <cml:bond atomRefs2="a2 a3" order="2"/>
  <cml:bond atomRefs2="a3 a4" order="1"/>
  <cml:bond atomRefs2="a6 a7" order="2"/>
  <cml:bond atomRefs2="a7 a8" order="1"/>
  <cml:bond atomRefs2="a8 a9" order="2"/>
  <cml:bond atomRefs2="a9 a10" order="1"/>
  <cml:bond atomRefs2="a10 a11" order="2"/>
  <cml:bond atomRefs2="a11 a6" order="1"/>
  <cml:bond atomRefs2="a1 a6" order="1"/>
  <cml:bond atomRefs2="a9 a12" order="1"/>
  <cml:bond atomRefs2="a12 a13" order="1"/>
  <cml:bond atomRefs2="a13 a15" order="2"/>
  <cml:bond atomRefs2="a13 a14" order="2"/>
  <cml:bond atomRefs2="a13 a16" order="1"/>
  <cml:bond atomRefs2="a17 a18" order="1"/>
  <cml:bond atomRefs2="a18 a19" order="1"/>
  <cml:bond atomRefs2="a19 a20" order="1"/>
  <cml:bond atomRefs2="a20 a21" order="1"/>
  <cml:bond atomRefs2="a16 a17" order="1"/>
  <cml:bond atomRefs2="a16 a21" order="2">
   <cml:bondStereo atomRefs4="a13 a16 a21 a20">T</cml:bondStereo>
  </cml:bond>
  <cml:bond atomRefs2="a23 a24" order="1"/>
  <cml:bond atomRefs2="a22 a25" order="1"/>
  <cml:bond atomRefs2="a20 a25" order="2"/>
  <cml:bond atomRefs2="a19 a23" order="2"/>
  <cml:bond atomRefs2="a22 a24" order="2"/>
 </cml:bondArray>
</cml:molecule>
</svg>
