<?xml version="1.0"?>
<svg xmlns="http://www.w3.org/2000/svg"
xmlns:xlink="http://www.w3.org/1999/xlink" xmlns:cml="http://www.xml-cml.org/schema" width="683.533" height="296.238" x="0" y="0" font-family="sans-serif" stroke="rgb(255,255,255)" stroke-width="1"  stroke-linecap="round">
<rect x="0%" y="0%" width="100%" height="100%" stroke-width="0" fill="rgb(0,0,0)"  />
<line x1="164.9" y1="203.8" x2="142.1" y2="216.9" stroke="rgb(255,255,255)"  stroke-width="1.0"/>
<line x1="74.0" y1="216.9" x2="40.0" y2="197.3" stroke="rgb(255,255,255)"  stroke-width="1.0"/>
<line x1="142.1" y1="216.9" x2="119.4" y2="203.8" stroke="rgb(255,255,255)"  stroke-width="1.0"/>
<line x1="96.8" y1="203.8" x2="74.0" y2="216.9" stroke="rgb(255,255,255)"  stroke-width="1.0"/>
<line x1="145.1" y1="216.9" x2="145.1" y2="243.2" stroke="rgb(255,255,255)"  stroke-width="1.0"/>
<line x1="139.1" y1="216.9" x2="139.1" y2="243.2" stroke="rgb(255,255,255)"  stroke-width="1.0"/>
<line x1="255.6" y1="151.4" x2="278.3" y2="138.3" stroke="rgb(255,255,255)"  stroke-width="1.0"/>
<line x1="278.3" y1="99.0" x2="255.5" y2="85.8" stroke="rgb(255,255,255)"  stroke-width="1.0"/>
<line x1="377.5" y1="79.3" x2="377.5" y2="53.0" stroke="rgb(255,255,255)"  stroke-width="1.0"/>
<line x1="383.5" y1="79.3" x2="383.5" y2="53.0" stroke="rgb(255,255,255)"  stroke-width="1.0"/>
<line x1="380.5" y1="170.9" x2="380.5" y2="197.3" stroke="rgb(255,255,255)"  stroke-width="1.0"/>
<line x1="414.5" y1="99.0" x2="448.6" y2="79.3" stroke="rgb(255,255,255)"  stroke-width="1.0"/>
<line x1="516.3" y1="86.4" x2="548.1" y2="109.5" stroke="rgb(255,255,255)"  stroke-width="1.0"/>
<line x1="611.7" y1="155.8" x2="633.0" y2="171.2" stroke="rgb(255,255,255)"  stroke-width="1.0"/>
<line x1="584.0" y1="93.6" x2="586.8" y2="67.4" stroke="rgb(255,255,255)"  stroke-width="1.0"/>
<line x1="448.6" y1="79.3" x2="469.9" y2="94.8" stroke="rgb(255,255,255)"  stroke-width="1.0"/>
<line x1="492.3" y1="97.1" x2="516.3" y2="86.4" stroke="rgb(255,255,255)"  stroke-width="1.0"/>
<line x1="445.6" y1="79.2" x2="447.0" y2="52.9" stroke="rgb(255,255,255)"  stroke-width="1.0"/>
<line x1="451.6" y1="79.5" x2="453.0" y2="53.2" stroke="rgb(255,255,255)"  stroke-width="1.0"/>
<line x1="380.5" y1="197.3" x2="346.4" y2="216.9" stroke="rgb(255,255,255)"  stroke-width="1.0"/>
<line x1="346.4" y1="216.9" x2="414.5" y2="216.9" stroke="rgb(255,255,255)"  stroke-width="1.0"/>
<line x1="414.5" y1="216.9" x2="380.5" y2="197.3" stroke="rgb(255,255,255)"  stroke-width="1.0"/>
<line x1="210.2" y1="138.3" x2="176.2" y2="157.9" stroke="rgb(255,255,255)"  stroke-width="1.0"/>
<line x1="176.2" y1="157.9" x2="176.2" y2="184.3" stroke="rgb(255,255,255)"  stroke-width="1.0"/>
<line x1="187.5" y1="203.8" x2="210.2" y2="216.9" stroke="rgb(255,255,255)"  stroke-width="1.0"/>
<line x1="210.2" y1="216.9" x2="244.3" y2="197.3" stroke="rgb(255,255,255)"  stroke-width="1.0"/>
<line x1="244.3" y1="197.3" x2="244.3" y2="170.9" stroke="rgb(255,255,255)"  stroke-width="1.0"/>
<line x1="233.0" y1="151.4" x2="210.2" y2="138.3" stroke="rgb(255,255,255)"  stroke-width="1.0"/>
<line x1="278.3" y1="138.3" x2="312.4" y2="157.9" stroke="rgb(255,255,255)"  stroke-width="1.0"/>
<line x1="287.1" y1="135.1" x2="310.8" y2="148.7" stroke="rgb(255,255,255)"  stroke-width="1.0"/>
<line x1="312.4" y1="157.9" x2="346.4" y2="138.3" stroke="rgb(255,255,255)"  stroke-width="1.0"/>
<line x1="346.4" y1="138.3" x2="346.4" y2="99.0" stroke="rgb(255,255,255)"  stroke-width="1.0"/>
<line x1="339.2" y1="132.3" x2="339.2" y2="105.0" stroke="rgb(255,255,255)"  stroke-width="1.0"/>
<line x1="346.4" y1="99.0" x2="312.4" y2="79.3" stroke="rgb(255,255,255)"  stroke-width="1.0"/>
<line x1="312.4" y1="79.3" x2="278.3" y2="99.0" stroke="rgb(255,255,255)"  stroke-width="1.0"/>
<line x1="310.8" y1="88.6" x2="287.1" y2="102.2" stroke="rgb(255,255,255)"  stroke-width="1.0"/>
<line x1="278.3" y1="99.0" x2="278.3" y2="138.3" stroke="rgb(255,255,255)"  stroke-width="1.0"/>
<line x1="414.5" y1="99.0" x2="380.5" y2="79.3" stroke="rgb(255,255,255)"  stroke-width="1.0"/>
<line x1="380.5" y1="79.3" x2="346.4" y2="99.0" stroke="rgb(255,255,255)"  stroke-width="1.0"/>
<line x1="346.4" y1="138.3" x2="369.2" y2="151.4" stroke="rgb(255,255,255)"  stroke-width="1.0"/>
<line x1="391.7" y1="151.4" x2="414.5" y2="138.3" stroke="rgb(255,255,255)"  stroke-width="1.0"/>
<line x1="414.5" y1="138.3" x2="414.5" y2="99.0" stroke="rgb(255,255,255)"  stroke-width="1.0"/>
<line x1="407.3" y1="132.3" x2="407.3" y2="105.0" stroke="rgb(255,255,255)"  stroke-width="1.0"/>
<line x1="548.1" y1="109.5" x2="544.0" y2="148.6" stroke="rgb(255,255,255)"  stroke-width="1.0"/>
<line x1="554.6" y1="116.3" x2="551.8" y2="143.4" stroke="rgb(255,255,255)"  stroke-width="1.0"/>
<line x1="544.0" y1="148.6" x2="575.8" y2="171.8" stroke="rgb(255,255,255)"  stroke-width="1.0"/>
<line x1="575.8" y1="171.8" x2="611.7" y2="155.8" stroke="rgb(255,255,255)"  stroke-width="1.0"/>
<line x1="578.4" y1="162.7" x2="603.3" y2="151.6" stroke="rgb(255,255,255)"  stroke-width="1.0"/>
<line x1="611.7" y1="155.8" x2="615.8" y2="116.7" stroke="rgb(255,255,255)"  stroke-width="1.0"/>
<line x1="615.8" y1="116.7" x2="584.0" y2="93.6" stroke="rgb(255,255,255)"  stroke-width="1.0"/>
<line x1="606.8" y1="119.0" x2="584.7" y2="102.9" stroke="rgb(255,255,255)"  stroke-width="1.0"/>
<line x1="584.0" y1="93.6" x2="548.1" y2="109.5" stroke="rgb(255,255,255)"  stroke-width="1.0"/>
<text x="170.192591" y="205.260769" fill="rgb(12,12,255)"  stroke="rgb(12,12,255)" stroke-width="1" font-size="16" >N</text>
<text x="238.291270" y="165.940811" fill="rgb(12,12,255)"  stroke="rgb(12,12,255)" stroke-width="1" font-size="16" >N</text>
<text x="102.093913" y="205.265535" fill="rgb(255,12,12)"  stroke="rgb(255,12,12)" stroke-width="1" font-size="16" >O</text>
<text x="136.148018" y="264.238323" fill="rgb(255,12,12)"  stroke="rgb(255,12,12)" stroke-width="1" font-size="16" >O</text>
<text x="238.291270" y="87.315192" fill="rgb(127,178,255)"  stroke="rgb(127,178,255)" stroke-width="1" font-size="16" >F</text>
<text x="374.483861" y="165.945577" fill="rgb(12,12,255)"  stroke="rgb(12,12,255)" stroke-width="1" font-size="16" >N</text>
<text x="374.483861" y="48.000000" fill="rgb(255,12,12)"  stroke="rgb(255,12,12)" stroke-width="1" font-size="16" >O</text>
<text x="474.392104" y="110.432525" fill="rgb(12,12,255)"  stroke="rgb(12,12,255)" stroke-width="1" font-size="16" >N</text>
<text x="474.392104" y="126.432525" fill="rgb(12,12,255)"  stroke="rgb(12,12,255)" stroke-width="1" font-size="16" >H</text>
<text x="582.144324" y="62.458460" fill="rgb(30,239,30)"  stroke="rgb(30,239,30)" stroke-width="1" font-size="16" >Cl</text>
<text x="637.533473" y="186.875555" fill="rgb(30,239,30)"  stroke="rgb(30,239,30)" stroke-width="1" font-size="16" >Cl</text>
<text x="444.645992" y="48.061951" fill="rgb(255,12,12)"  stroke="rgb(255,12,12)" stroke-width="1" font-size="16" >O</text>
<text font-size="18.000000" fill ="white" font-family="sans-serif"
x="10.000000" y="20.000000" ></text>
<title> - OBDepict</title>
<cml:molecule>
 <cml:atomArray>
  <cml:atom id="a1" elementType="C" x2="-2.901700" y2="0.133000"/>
  <cml:atom id="a2" elementType="C" x2="-3.616200" y2="-0.279400"/>
  <cml:atom id="a3" elementType="N" x2="-3.616200" y2="-1.104500"/>
  <cml:atom id="a4" elementType="C" x2="-2.901700" y2="-1.516900"/>
  <cml:atom id="a5" elementType="C" x2="-2.187200" y2="-1.104500"/>
  <cml:atom id="a6" elementType="N" x2="-2.187200" y2="-0.279400"/>
  <cml:atom id="a7" elementType="C" x2="-4.330700" y2="-1.517100"/>
  <cml:atom id="a8" elementType="O" x2="-5.045200" y2="-1.104600"/>
  <cml:atom id="a9" elementType="C" x2="-5.759600" y2="-1.517100"/>
  <cml:atom id="a10" elementType="C" x2="-6.474100" y2="-1.104700"/>
  <cml:atom id="a11" elementType="O" x2="-4.330600" y2="-2.342100"/>
  <cml:atom id="a12" elementType="C" x2="-1.472800" y2="0.133000"/>
  <cml:atom id="a13" elementType="C" x2="-0.758300" y2="-0.279400"/>
  <cml:atom id="a14" elementType="C" x2="-0.043800" y2="0.133100"/>
  <cml:atom id="a15" elementType="C" x2="-0.043700" y2="0.958000"/>
  <cml:atom id="a16" elementType="C" x2="-0.758200" y2="1.370500"/>
  <cml:atom id="a17" elementType="C" x2="-1.472800" y2="0.958000"/>
  <cml:atom id="a18" elementType="F" x2="-2.187200" y2="1.370500"/>
  <cml:atom id="a19" elementType="N" x2="0.670700" y2="-0.279500"/>
  <cml:atom id="a20" elementType="C" x2="1.385100" y2="0.133000"/>
  <cml:atom id="a21" elementType="C" x2="1.385200" y2="0.957900"/>
  <cml:atom id="a22" elementType="C" x2="0.670700" y2="1.370500"/>
  <cml:atom id="a23" elementType="O" x2="0.670700" y2="2.195500"/>
  <cml:atom id="a24" elementType="C" x2="0.670600" y2="-1.104500"/>
  <cml:atom id="a25" elementType="C" x2="-0.043700" y2="-1.517000"/>
  <cml:atom id="a26" elementType="C" x2="1.385100" y2="-1.517000"/>
  <cml:atom id="a27" elementType="C" x2="2.099800" y2="1.370300"/>
  <cml:atom id="a28" elementType="N" x2="2.767200" y2="0.885400"/>
  <cml:atom id="a29" elementType="C" x2="3.520900" y2="1.221000"/>
  <cml:atom id="a30" elementType="C" x2="4.188300" y2="0.736100"/>
  <cml:atom id="a31" elementType="C" x2="4.102100" y2="-0.084300"/>
  <cml:atom id="a32" elementType="C" x2="4.769600" y2="-0.569300"/>
  <cml:atom id="a33" elementType="C" x2="5.523200" y2="-0.233800"/>
  <cml:atom id="a34" elementType="C" x2="5.609500" y2="0.586600"/>
  <cml:atom id="a35" elementType="C" x2="4.942000" y2="1.071600"/>
  <cml:atom id="a36" elementType="Cl" x2="5.028300" y2="1.892100"/>
  <cml:atom id="a37" elementType="Cl" x2="6.190600" y2="-0.718700"/>
  <cml:atom id="a38" elementType="O" x2="2.143000" y2="2.194200"/>
 </cml:atomArray>
 <cml:bondArray>
  <cml:bond atomRefs2="a1 a2" order="1"/>
  <cml:bond atomRefs2="a4 a5" order="1"/>
  <cml:bond atomRefs2="a2 a3" order="1"/>
  <cml:bond atomRefs2="a3 a4" order="1"/>
  <cml:bond atomRefs2="a1 a6" order="1"/>
  <cml:bond atomRefs2="a5 a6" order="1"/>
  <cml:bond atomRefs2="a3 a7" order="1"/>
  <cml:bond atomRefs2="a9 a10" order="1"/>
  <cml:bond atomRefs2="a7 a8" order="1"/>
  <cml:bond atomRefs2="a8 a9" order="1"/>
  <cml:bond atomRefs2="a7 a11" order="2"/>
  <cml:bond atomRefs2="a12 a13" order="2"/>
  <cml:bond atomRefs2="a13 a14" order="1"/>
  <cml:bond atomRefs2="a14 a15" order="2"/>
  <cml:bond atomRefs2="a15 a16" order="1"/>
  <cml:bond atomRefs2="a16 a17" order="2"/>
  <cml:bond atomRefs2="a17 a12" order="1"/>
  <cml:bond atomRefs2="a6 a12" order="1"/>
  <cml:bond atomRefs2="a17 a18" order="1"/>
  <cml:bond atomRefs2="a21 a22" order="1"/>
  <cml:bond atomRefs2="a15 a22" order="1"/>
  <cml:bond atomRefs2="a19 a20" order="1"/>
  <cml:bond atomRefs2="a14 a19" order="1"/>
  <cml:bond atomRefs2="a22 a23" order="2"/>
  <cml:bond atomRefs2="a21 a20" order="2"/>
  <cml:bond atomRefs2="a19 a24" order="1"/>
  <cml:bond atomRefs2="a24 a25" order="1"/>
  <cml:bond atomRefs2="a24 a26" order="1"/>
  <cml:bond atomRefs2="a25 a26" order="1"/>
  <cml:bond atomRefs2="a21 a27" order="1"/>
  <cml:bond atomRefs2="a29 a30" order="1"/>
  <cml:bond atomRefs2="a31 a32" order="1"/>
  <cml:bond atomRefs2="a32 a33" order="2"/>
  <cml:bond atomRefs2="a33 a34" order="1"/>
  <cml:bond atomRefs2="a34 a35" order="2"/>
  <cml:bond atomRefs2="a30 a31" order="2"/>
  <cml:bond atomRefs2="a35 a30" order="1"/>
  <cml:bond atomRefs2="a33 a37" order="1"/>
  <cml:bond atomRefs2="a35 a36" order="1"/>
  <cml:bond atomRefs2="a27 a28" order="1"/>
  <cml:bond atomRefs2="a28 a29" order="1"/>
  <cml:bond atomRefs2="a27 a38" order="2"/>
 </cml:bondArray>
</cml:molecule>
</svg>
