<?xml version="1.0"?>
<svg xmlns="http://www.w3.org/2000/svg"
xmlns:xlink="http://www.w3.org/1999/xlink" xmlns:cml="http://www.xml-cml.org/schema" width="459.74" height="344.104" x="0" y="0" font-family="sans-serif" stroke="rgb(255,255,255)" stroke-width="1"  stroke-linecap="round">
<rect x="0%" y="0%" width="100%" height="100%" stroke-width="0" fill="rgb(0,0,0)"  />
<line x1="187.1" y1="247.4" x2="214.1" y2="247.4" stroke="rgb(255,255,255)"  stroke-width="1.0"/>
<line x1="233.6" y1="236.1" x2="247.1" y2="212.7" stroke="rgb(255,255,255)"  stroke-width="1.0"/>
<line x1="247.1" y1="212.7" x2="228.9" y2="177.1" stroke="rgb(255,255,255)"  stroke-width="1.0"/>
<line x1="247.1" y1="212.7" x2="286.9" y2="216.9" stroke="rgb(255,255,255)"  stroke-width="1.0"/>
<line x1="181.9" y1="112.4" x2="158.5" y2="98.9" stroke="rgb(255,255,255)"  stroke-width="1.0"/>
<line x1="158.5" y1="85.9" x2="181.9" y2="72.4" stroke="rgb(255,255,255)"  stroke-width="1.0"/>
<line x1="181.9" y1="72.4" x2="166.1" y2="50.5" stroke="rgb(255,255,255)"  stroke-width="1.0"/>
<line x1="181.9" y1="72.4" x2="208.9" y2="72.4" stroke="rgb(255,255,255)"  stroke-width="1.0"/>
<line x1="301.2" y1="254.2" x2="286.5" y2="276.9" stroke="rgb(255,255,255)"  stroke-width="1.0"/>
<line x1="56.3" y1="227.4" x2="45.3" y2="202.7" stroke="rgb(255,255,255)"  stroke-width="1.0"/>
<line x1="40.7" y1="177.8" x2="42.1" y2="150.9" stroke="rgb(255,255,255)"  stroke-width="1.0"/>
<line x1="171.2" y1="269.2" x2="187.1" y2="247.4" stroke="rgb(255,255,255)"  stroke-width="1.0"/>
<line x1="187.1" y1="247.4" x2="171.4" y2="225.7" stroke="rgb(255,255,255)"  stroke-width="1.0"/>
<line x1="177.8" y1="246.7" x2="166.7" y2="231.5" stroke="rgb(255,255,255)"  stroke-width="1.0"/>
<line x1="151.2" y1="219.0" x2="125.6" y2="227.4" stroke="rgb(255,255,255)"  stroke-width="1.0"/>
<line x1="125.6" y1="227.4" x2="125.6" y2="267.4" stroke="rgb(255,255,255)"  stroke-width="1.0"/>
<line x1="132.8" y1="233.4" x2="132.8" y2="261.4" stroke="rgb(255,255,255)"  stroke-width="1.0"/>
<line x1="125.6" y1="267.4" x2="151.2" y2="275.7" stroke="rgb(255,255,255)"  stroke-width="1.0"/>
<line x1="90.9" y1="207.4" x2="56.3" y2="227.4" stroke="rgb(255,255,255)"  stroke-width="1.0"/>
<line x1="89.3" y1="216.6" x2="65.1" y2="230.6" stroke="rgb(255,255,255)"  stroke-width="1.0"/>
<line x1="56.3" y1="227.4" x2="56.3" y2="267.4" stroke="rgb(255,255,255)"  stroke-width="1.0"/>
<line x1="56.3" y1="267.4" x2="90.9" y2="287.4" stroke="rgb(255,255,255)"  stroke-width="1.0"/>
<line x1="65.1" y1="264.1" x2="89.3" y2="278.1" stroke="rgb(255,255,255)"  stroke-width="1.0"/>
<line x1="90.9" y1="287.4" x2="125.6" y2="267.4" stroke="rgb(255,255,255)"  stroke-width="1.0"/>
<line x1="125.6" y1="227.4" x2="90.9" y2="207.4" stroke="rgb(255,255,255)"  stroke-width="1.0"/>
<line x1="228.9" y1="177.1" x2="245.2" y2="140.5" stroke="rgb(255,255,255)"  stroke-width="1.0"/>
<line x1="245.2" y1="140.5" x2="221.7" y2="108.2" stroke="rgb(255,255,255)"  stroke-width="1.0"/>
<line x1="235.9" y1="139.9" x2="219.4" y2="117.3" stroke="rgb(255,255,255)"  stroke-width="1.0"/>
<line x1="221.7" y1="108.2" x2="181.9" y2="112.4" stroke="rgb(255,255,255)"  stroke-width="1.0"/>
<line x1="181.9" y1="112.4" x2="165.7" y2="148.9" stroke="rgb(255,255,255)"  stroke-width="1.0"/>
<line x1="186.1" y1="120.8" x2="174.7" y2="146.3" stroke="rgb(255,255,255)"  stroke-width="1.0"/>
<line x1="165.7" y1="148.9" x2="189.2" y2="181.3" stroke="rgb(255,255,255)"  stroke-width="1.0"/>
<line x1="189.2" y1="181.3" x2="228.9" y2="177.1" stroke="rgb(255,255,255)"  stroke-width="1.0"/>
<line x1="194.4" y1="173.5" x2="222.2" y2="170.5" stroke="rgb(255,255,255)"  stroke-width="1.0"/>
<line x1="286.9" y1="216.9" x2="301.2" y2="254.2" stroke="rgb(255,255,255)"  stroke-width="1.0"/>
<line x1="301.2" y1="254.2" x2="340.7" y2="260.5" stroke="rgb(255,255,255)"  stroke-width="1.0"/>
<line x1="308.3" y1="248.1" x2="335.9" y2="252.5" stroke="rgb(255,255,255)"  stroke-width="1.0"/>
<line x1="340.7" y1="260.5" x2="365.9" y2="229.4" stroke="rgb(255,255,255)"  stroke-width="1.0"/>
<line x1="365.9" y1="229.4" x2="351.6" y2="192.1" stroke="rgb(255,255,255)"  stroke-width="1.0"/>
<line x1="357.0" y1="226.4" x2="347.0" y2="200.3" stroke="rgb(255,255,255)"  stroke-width="1.0"/>
<line x1="351.6" y1="192.1" x2="312.1" y2="185.8" stroke="rgb(255,255,255)"  stroke-width="1.0"/>
<line x1="312.1" y1="185.8" x2="286.9" y2="216.9" stroke="rgb(255,255,255)"  stroke-width="1.0"/>
<line x1="313.9" y1="195.0" x2="296.3" y2="216.8" stroke="rgb(255,255,255)"  stroke-width="1.0"/>
<line x1="350.4" y1="285.7" x2="340.7" y2="260.5" stroke="rgb(255,255,255)"  stroke-width="1.0"/>
<line x1="365.9" y1="229.4" x2="405.4" y2="235.7" stroke="rgb(255,255,255)"  stroke-width="1.0"/>
<line x1="405.4" y1="235.7" x2="419.7" y2="273.0" stroke="rgb(255,255,255)"  stroke-width="1.0"/>
<line x1="400.8" y1="243.9" x2="410.9" y2="270.0" stroke="rgb(255,255,255)"  stroke-width="1.0"/>
<line x1="419.7" y1="273.0" x2="394.6" y2="304.1" stroke="rgb(255,255,255)"  stroke-width="1.0"/>
<line x1="394.6" y1="304.1" x2="368.1" y2="299.9" stroke="rgb(255,255,255)"  stroke-width="1.0"/>
<line x1="389.8" y1="296.1" x2="371.2" y2="293.1" stroke="rgb(255,255,255)"  stroke-width="1.0"/>
<text x="157.591705" y="222.999764" fill="rgb(12,12,255)"  stroke="rgb(12,12,255)" stroke-width="1" font-size="16" >N</text>
<text x="157.591705" y="287.721653" fill="rgb(178,178,0)"  stroke="rgb(178,178,0)" stroke-width="1" font-size="16" >S</text>
<text x="221.101482" y="255.363133" fill="rgb(12,12,255)"  stroke="rgb(12,12,255)" stroke-width="1" font-size="16" >N</text>
<text x="221.101482" y="271.363133" fill="rgb(12,12,255)"  stroke="rgb(12,12,255)" stroke-width="1" font-size="16" >H</text>
<text x="141.281537" y="100.358355" fill="rgb(255,12,12)"  stroke="rgb(255,12,12)" stroke-width="1" font-size="16" >O</text>
<text x="152.413566" y="48.000000" fill="rgb(127,178,255)"  stroke="rgb(127,178,255)" stroke-width="1" font-size="16" >F</text>
<text x="215.923343" y="80.358520" fill="rgb(127,178,255)"  stroke="rgb(127,178,255)" stroke-width="1" font-size="16" >F</text>
<text x="261.430747" y="295.794314" fill="rgb(255,12,12)"  stroke="rgb(255,12,12)" stroke-width="1" font-size="16" >HO</text>
<text x="349.061636" y="305.845140" fill="rgb(12,12,255)"  stroke="rgb(12,12,255)" stroke-width="1" font-size="16" >N</text>
<text x="34.000000" y="198.820570" fill="rgb(255,12,12)"  stroke="rgb(255,12,12)" stroke-width="1" font-size="16" >O</text>
<text font-size="18.000000" fill ="white" font-family="sans-serif"
x="10.000000" y="20.000000" ></text>
<title> - OBDepict</title>
<cml:molecule>
 <cml:atomArray>
  <cml:atom id="a1" elementType="C" x2="-14.732100" y2="0.624100"/>
  <cml:atom id="a2" elementType="C" x2="-15.446600" y2="0.211600"/>
  <cml:atom id="a3" elementType="C" x2="-15.446600" y2="-0.613400"/>
  <cml:atom id="a4" elementType="C" x2="-14.732100" y2="-1.025900"/>
  <cml:atom id="a5" elementType="C" x2="-14.017700" y2="-0.613400"/>
  <cml:atom id="a6" elementType="C" x2="-14.017700" y2="0.211600"/>
  <cml:atom id="a7" elementType="N" x2="-13.233100" y2="0.466600"/>
  <cml:atom id="a8" elementType="S" x2="-13.233100" y2="-0.868300"/>
  <cml:atom id="a9" elementType="C" x2="-12.748200" y2="-0.200900"/>
  <cml:atom id="a10" elementType="N" x2="-11.923200" y2="-0.200900"/>
  <cml:atom id="a11" elementType="C" x2="-11.510700" y2="0.513600"/>
  <cml:atom id="a12" elementType="C" x2="-11.885200" y2="1.248700"/>
  <cml:atom id="a13" elementType="C" x2="-10.690200" y2="0.427400"/>
  <cml:atom id="a14" elementType="C" x2="-12.034500" y2="2.669800"/>
  <cml:atom id="a15" elementType="C" x2="-12.855000" y2="2.583600"/>
  <cml:atom id="a16" elementType="C" x2="-13.190600" y2="1.829900"/>
  <cml:atom id="a17" elementType="C" x2="-12.705700" y2="1.162400"/>
  <cml:atom id="a18" elementType="C" x2="-11.549600" y2="2.002400"/>
  <cml:atom id="a19" elementType="O" x2="-13.569500" y2="2.996100"/>
  <cml:atom id="a20" elementType="C" x2="-12.855000" y2="3.408600"/>
  <cml:atom id="a21" elementType="F" x2="-13.339900" y2="4.076000"/>
  <cml:atom id="a22" elementType="F" x2="-12.030000" y2="3.408600"/>
  <cml:atom id="a23" elementType="C" x2="-9.356100" y2="0.939500"/>
  <cml:atom id="a24" elementType="C" x2="-10.171000" y2="1.068500"/>
  <cml:atom id="a25" elementType="C" x2="-10.394500" y2="-0.342800"/>
  <cml:atom id="a26" elementType="C" x2="-9.579700" y2="-0.471900"/>
  <cml:atom id="a27" elementType="C" x2="-9.060500" y2="0.169300"/>
  <cml:atom id="a28" elementType="O" x2="-10.843900" y2="-1.034800"/>
  <cml:atom id="a29" elementType="N" x2="-9.284000" y2="-1.242100"/>
  <cml:atom id="a30" elementType="C" x2="-8.469200" y2="-1.371200"/>
  <cml:atom id="a31" elementType="C" x2="-7.950000" y2="-0.730000"/>
  <cml:atom id="a32" elementType="C" x2="-8.245700" y2="0.040200"/>
  <cml:atom id="a33" elementType="O" x2="-15.782200" y2="0.965300"/>
  <cml:atom id="a34" elementType="C" x2="-15.739000" y2="1.789200"/>
 </cml:atomArray>
 <cml:bondArray>
  <cml:bond atomRefs2="a1 a2" order="2"/>
  <cml:bond atomRefs2="a2 a3" order="1"/>
  <cml:bond atomRefs2="a3 a4" order="2"/>
  <cml:bond atomRefs2="a4 a5" order="1"/>
  <cml:bond atomRefs2="a5 a6" order="2"/>
  <cml:bond atomRefs2="a1 a6" order="1"/>
  <cml:bond atomRefs2="a8 a9" order="1"/>
  <cml:bond atomRefs2="a7 a9" order="2"/>
  <cml:bond atomRefs2="a7 a6" order="1"/>
  <cml:bond atomRefs2="a5 a8" order="1"/>
  <cml:bond atomRefs2="a9 a10" order="1"/>
  <cml:bond atomRefs2="a10 a11" order="1"/>
  <cml:bond atomRefs2="a11 a12" order="1"/>
  <cml:bond atomRefs2="a11 a13" order="1"/>
  <cml:bond atomRefs2="a14 a15" order="1"/>
  <cml:bond atomRefs2="a15 a16" order="2"/>
  <cml:bond atomRefs2="a16 a17" order="1"/>
  <cml:bond atomRefs2="a14 a18" order="2"/>
  <cml:bond atomRefs2="a17 a12" order="2"/>
  <cml:bond atomRefs2="a12 a18" order="1"/>
  <cml:bond atomRefs2="a15 a19" order="1"/>
  <cml:bond atomRefs2="a19 a20" order="1"/>
  <cml:bond atomRefs2="a20 a21" order="1"/>
  <cml:bond atomRefs2="a20 a22" order="1"/>
  <cml:bond atomRefs2="a23 a24" order="1"/>
  <cml:bond atomRefs2="a25 a26" order="2"/>
  <cml:bond atomRefs2="a26 a27" order="1"/>
  <cml:bond atomRefs2="a23 a27" order="2"/>
  <cml:bond atomRefs2="a24 a13" order="2"/>
  <cml:bond atomRefs2="a13 a25" order="1"/>
  <cml:bond atomRefs2="a25 a28" order="1"/>
  <cml:bond atomRefs2="a29 a30" order="2"/>
  <cml:bond atomRefs2="a30 a31" order="1"/>
  <cml:bond atomRefs2="a31 a32" order="2"/>
  <cml:bond atomRefs2="a26 a29" order="1"/>
  <cml:bond atomRefs2="a27 a32" order="1"/>
  <cml:bond atomRefs2="a2 a33" order="1"/>
  <cml:bond atomRefs2="a33 a34" order="1"/>
 </cml:bondArray>
</cml:molecule>
</svg>
