<?xml version="1.0"?>
<svg xmlns="http://www.w3.org/2000/svg"
xmlns:xlink="http://www.w3.org/1999/xlink" xmlns:cml="http://www.xml-cml.org/schema" width="416.39" height="238.589" x="0" y="0" font-family="sans-serif" stroke="rgb(255,255,255)" stroke-width="1"  stroke-linecap="round">
<rect x="0%" y="0%" width="100%" height="100%" stroke-width="0" fill="rgb(0,0,0)"  />
<line x1="108.9" y1="78.6" x2="82.5" y2="84.2" stroke="rgb(255,255,255)"  stroke-width="1.0"/>
<line x1="60.1" y1="95.6" x2="40.0" y2="113.7" stroke="rgb(255,255,255)"  stroke-width="1.0"/>
<line x1="187.9" y1="80.8" x2="214.9" y2="79.4" stroke="rgb(255,255,255)"  stroke-width="1.0"/>
<line x1="228.4" y1="65.3" x2="232.0" y2="51.8" stroke="rgb(255,255,255)"  stroke-width="1.0"/>
<line x1="234.2" y1="66.9" x2="237.8" y2="53.3" stroke="rgb(255,255,255)"  stroke-width="1.0"/>
<line x1="240.9" y1="78.7" x2="255.0" y2="78.7" stroke="rgb(255,255,255)"  stroke-width="1.0"/>
<line x1="226.6" y1="91.6" x2="225.1" y2="105.6" stroke="rgb(255,255,255)"  stroke-width="1.0"/>
<line x1="127.9" y1="46.1" x2="108.9" y2="78.6" stroke="rgb(255,255,255)"  stroke-width="1.0"/>
<line x1="108.9" y1="78.6" x2="127.9" y2="115.5" stroke="rgb(255,255,255)"  stroke-width="1.0"/>
<line x1="118.1" y1="80.7" x2="131.5" y2="106.8" stroke="rgb(255,255,255)"  stroke-width="1.0"/>
<line x1="127.9" y1="115.5" x2="167.9" y2="115.5" stroke="rgb(255,255,255)"  stroke-width="1.0"/>
<line x1="167.9" y1="115.5" x2="187.9" y2="80.8" stroke="rgb(255,255,255)"  stroke-width="1.0"/>
<line x1="164.7" y1="106.7" x2="178.7" y2="82.4" stroke="rgb(255,255,255)"  stroke-width="1.0"/>
<line x1="187.9" y1="80.8" x2="167.9" y2="46.1" stroke="rgb(255,255,255)"  stroke-width="1.0"/>
<line x1="167.9" y1="46.1" x2="127.9" y2="46.1" stroke="rgb(255,255,255)"  stroke-width="1.0"/>
<line x1="161.9" y1="53.3" x2="133.9" y2="53.3" stroke="rgb(255,255,255)"  stroke-width="1.0"/>
<line x1="189.1" y1="138.5" x2="189.1" y2="178.6" stroke="rgb(255,255,255)"  stroke-width="1.0"/>
<line x1="189.1" y1="178.6" x2="212.5" y2="192.1" stroke="rgb(255,255,255)"  stroke-width="1.0"/>
<line x1="235.0" y1="192.1" x2="258.4" y2="178.6" stroke="rgb(255,255,255)"  stroke-width="1.0"/>
<line x1="258.4" y1="178.6" x2="258.4" y2="138.5" stroke="rgb(255,255,255)"  stroke-width="1.0"/>
<line x1="258.4" y1="138.5" x2="235.0" y2="125.0" stroke="rgb(255,255,255)"  stroke-width="1.0"/>
<line x1="212.5" y1="125.0" x2="189.1" y2="138.5" stroke="rgb(255,255,255)"  stroke-width="1.0"/>
<line x1="354.6" y1="41.8" x2="314.6" y2="43.9" stroke="rgb(255,255,255)"  stroke-width="1.0"/>
<line x1="314.6" y1="43.9" x2="302.3" y2="68.0" stroke="rgb(255,255,255)"  stroke-width="1.0"/>
<line x1="303.5" y1="90.5" x2="318.2" y2="113.2" stroke="rgb(255,255,255)"  stroke-width="1.0"/>
<line x1="318.2" y1="113.2" x2="358.2" y2="111.1" stroke="rgb(255,255,255)"  stroke-width="1.0"/>
<line x1="358.2" y1="111.1" x2="370.5" y2="87.0" stroke="rgb(255,255,255)"  stroke-width="1.0"/>
<line x1="369.3" y1="64.5" x2="354.6" y2="41.8" stroke="rgb(255,255,255)"  stroke-width="1.0"/>
<text x="217.731453" y="206.589356" fill="rgb(255,12,12)"  stroke="rgb(255,12,12)" stroke-width="1" font-size="16" >O</text>
<text x="301.210556" y="75.588644" fill="rgb(12,12,255)"  stroke="rgb(12,12,255)" stroke-width="1" font-size="16" >+</text>
<text x="270.410556" y="87.620644" fill="rgb(12,12,255)"  stroke="rgb(12,12,255)" stroke-width="1" font-size="16" >H</text>
<text x="282.410556" y="91.300644" fill="rgb(12,12,255)"  stroke="rgb(12,12,255)" stroke-width="1" font-size="13" >2</text>
<text x="288.910556" y="87.620644" fill="rgb(12,12,255)"  stroke="rgb(12,12,255)" stroke-width="1" font-size="16" >N</text>
<text x="370.389604" y="83.427059" fill="rgb(255,12,12)"  stroke="rgb(255,12,12)" stroke-width="1" font-size="16" >O</text>
<text x="63.757953" y="94.930296" fill="rgb(255,12,12)"  stroke="rgb(255,12,12)" stroke-width="1" font-size="16" >O</text>
<text x="221.920185" y="86.679029" fill="rgb(255,127,0)"  stroke="rgb(255,127,0)" stroke-width="1" font-size="16" >P</text>
<text x="232.282806" y="48.000000" fill="rgb(178,178,0)"  stroke="rgb(178,178,0)" stroke-width="1" font-size="16" >S</text>
<text x="272.763099" y="64.567029" fill="rgb(178,178,0)"  stroke="rgb(178,178,0)" stroke-width="1" font-size="16" >_</text>
<text x="261.963099" y="86.679029" fill="rgb(178,178,0)"  stroke="rgb(178,178,0)" stroke-width="1" font-size="16" >S</text>
<text x="217.731453" y="126.503527" fill="rgb(12,12,255)"  stroke="rgb(12,12,255)" stroke-width="1" font-size="16" >N</text>
<text font-size="18.000000" fill ="white" font-family="sans-serif"
x="10.000000" y="20.000000" ></text>
<title> - OBDepict</title>
<cml:molecule>
 <cml:atomArray>
  <cml:atom id="a1" elementType="C" x2="-2.823200" y2="2.634100"/>
  <cml:atom id="a2" elementType="C" x2="-3.213400" y2="1.964300"/>
  <cml:atom id="a3" elementType="C" x2="-2.823200" y2="1.205200"/>
  <cml:atom id="a4" elementType="C" x2="-1.998200" y2="1.205200"/>
  <cml:atom id="a5" elementType="C" x2="-1.585700" y2="1.919600"/>
  <cml:atom id="a6" elementType="C" x2="-1.998200" y2="2.634100"/>
  <cml:atom id="a7" elementType="C" x2="-1.562500" y2="0.729800"/>
  <cml:atom id="a8" elementType="C" x2="-1.562500" y2="-0.095200"/>
  <cml:atom id="a9" elementType="O" x2="-0.848100" y2="-0.507700"/>
  <cml:atom id="a10" elementType="C" x2="-0.133600" y2="-0.095200"/>
  <cml:atom id="a11" elementType="C" x2="-0.133600" y2="0.729800"/>
  <cml:atom id="a12" elementType="C" x2="1.847800" y2="2.721700"/>
  <cml:atom id="a13" elementType="C" x2="1.023900" y2="2.678500"/>
  <cml:atom id="a14" elementType="N" formalCharge="1" x2="0.649300" y2="1.943400"/>
  <cml:atom id="a15" elementType="C" x2="1.098700" y2="1.251500"/>
  <cml:atom id="a16" elementType="C" x2="1.922500" y2="1.294700"/>
  <cml:atom id="a17" elementType="O" x2="2.297100" y2="2.029800"/>
  <cml:atom id="a18" elementType="O" x2="-4.020400" y2="1.792800"/>
  <cml:atom id="a19" elementType="C" x2="-4.633500" y2="1.240700"/>
  <cml:atom id="a20" elementType="P" x2="-0.761800" y2="1.962800"/>
  <cml:atom id="a21" elementType="S" x2="-0.548300" y2="2.759700"/>
  <cml:atom id="a22" elementType="S" formalCharge="-1" x2="0.063200" y2="1.962800"/>
  <cml:atom id="a23" elementType="N" x2="-0.848100" y2="1.142300"/>
 </cml:atomArray>
 <cml:bondArray>
  <cml:bond atomRefs2="a1 a2" order="1"/>
  <cml:bond atomRefs2="a2 a3" order="2"/>
  <cml:bond atomRefs2="a3 a4" order="1"/>
  <cml:bond atomRefs2="a4 a5" order="2"/>
  <cml:bond atomRefs2="a5 a6" order="1"/>
  <cml:bond atomRefs2="a1 a6" order="2"/>
  <cml:bond atomRefs2="a7 a8" order="1"/>
  <cml:bond atomRefs2="a8 a9" order="1"/>
  <cml:bond atomRefs2="a9 a10" order="1"/>
  <cml:bond atomRefs2="a10 a11" order="1"/>
  <cml:bond atomRefs2="a12 a13" order="1"/>
  <cml:bond atomRefs2="a13 a14" order="1"/>
  <cml:bond atomRefs2="a14 a15" order="1"/>
  <cml:bond atomRefs2="a15 a16" order="1"/>
  <cml:bond atomRefs2="a16 a17" order="1"/>
  <cml:bond atomRefs2="a12 a17" order="1"/>
  <cml:bond atomRefs2="a2 a18" order="1"/>
  <cml:bond atomRefs2="a18 a19" order="1"/>
  <cml:bond atomRefs2="a5 a20" order="1"/>
  <cml:bond atomRefs2="a20 a21" order="2"/>
  <cml:bond atomRefs2="a20 a22" order="1"/>
  <cml:bond atomRefs2="a20 a23" order="1"/>
  <cml:bond atomRefs2="a23 a7" order="1"/>
  <cml:bond atomRefs2="a23 a11" order="1"/>
 </cml:bondArray>
</cml:molecule>
</svg>
