<?xml version="1.0"?>
<svg xmlns="http://www.w3.org/2000/svg"
xmlns:xlink="http://www.w3.org/1999/xlink" xmlns:cml="http://www.xml-cml.org/schema" width="306.607" height="310.705" x="0" y="0" font-family="sans-serif" stroke="rgb(255,255,255)" stroke-width="1"  stroke-linecap="round">
<rect x="0%" y="0%" width="100%" height="100%" stroke-width="0" fill="rgb(0,0,0)"  />
<polygon points="86.1671 196.27 75.9695 157.469 83.8709 156.217 " stroke-width="1" fill="rgb(255,255,255)"  stroke="rgb(255,255,255)" />
<line x1="79.9" y1="156.8" x2="53.0" y2="156.8" stroke="rgb(255,255,255)"  stroke-width="1.0"/>
<line x1="97.1" y1="239.4" x2="95.6" y2="238.8" stroke="rgb(255,255,255)"  stroke-width="1.0"/>
<line x1="95.9" y1="243.6" x2="93.3" y2="242.4" stroke="rgb(255,255,255)"  stroke-width="1.0"/>
<line x1="94.7" y1="247.8" x2="90.9" y2="246.1" stroke="rgb(255,255,255)"  stroke-width="1.0"/>
<line x1="93.6" y1="252.0" x2="88.6" y2="249.7" stroke="rgb(255,255,255)"  stroke-width="1.0"/>
<line x1="92.4" y1="256.1" x2="86.3" y2="253.4" stroke="rgb(255,255,255)"  stroke-width="1.0"/>
<line x1="91.3" y1="260.3" x2="84.0" y2="257.0" stroke="rgb(255,255,255)"  stroke-width="1.0"/>
<line x1="141.6" y1="238.6" x2="140.1" y2="239.4" stroke="rgb(255,255,255)"  stroke-width="1.0"/>
<line x1="144.1" y1="242.2" x2="141.5" y2="243.5" stroke="rgb(255,255,255)"  stroke-width="1.0"/>
<line x1="146.6" y1="245.7" x2="142.9" y2="247.6" stroke="rgb(255,255,255)"  stroke-width="1.0"/>
<line x1="149.1" y1="249.2" x2="144.3" y2="251.7" stroke="rgb(255,255,255)"  stroke-width="1.0"/>
<line x1="151.6" y1="252.7" x2="145.6" y2="255.8" stroke="rgb(255,255,255)"  stroke-width="1.0"/>
<line x1="154.1" y1="256.3" x2="147.0" y2="259.9" stroke="rgb(255,255,255)"  stroke-width="1.0"/>
<line x1="158.4" y1="198.8" x2="157.7" y2="200.2" stroke="rgb(255,255,255)"  stroke-width="1.0"/>
<line x1="164.5" y1="200.8" x2="163.3" y2="203.4" stroke="rgb(255,255,255)"  stroke-width="1.0"/>
<line x1="170.6" y1="202.8" x2="168.9" y2="206.6" stroke="rgb(255,255,255)"  stroke-width="1.0"/>
<line x1="176.7" y1="204.8" x2="174.4" y2="209.8" stroke="rgb(255,255,255)"  stroke-width="1.0"/>
<line x1="182.8" y1="206.8" x2="180.0" y2="213.0" stroke="rgb(255,255,255)"  stroke-width="1.0"/>
<line x1="188.9" y1="208.9" x2="185.6" y2="216.2" stroke="rgb(255,255,255)"  stroke-width="1.0"/>
<line x1="187.2" y1="212.5" x2="211.8" y2="223.5" stroke="rgb(255,255,255)"  stroke-width="1.0"/>
<line x1="188.9" y1="208.7" x2="213.5" y2="219.6" stroke="rgb(255,255,255)"  stroke-width="1.0"/>
<line x1="185.5" y1="216.3" x2="210.1" y2="227.3" stroke="rgb(255,255,255)"  stroke-width="1.0"/>
<line x1="150.8" y1="196.3" x2="161.1" y2="157.7" stroke="rgb(255,255,255)"  stroke-width="1.0"/>
<line x1="229.0" y1="79.9" x2="230.4" y2="53.0" stroke="rgb(255,255,255)"  stroke-width="1.0"/>
<line x1="107.9" y1="180.4" x2="86.2" y2="196.3" stroke="rgb(255,255,255)"  stroke-width="1.0"/>
<line x1="86.2" y1="196.3" x2="98.5" y2="234.2" stroke="rgb(255,255,255)"  stroke-width="1.0"/>
<line x1="98.5" y1="234.2" x2="138.4" y2="234.2" stroke="rgb(255,255,255)"  stroke-width="1.0"/>
<line x1="138.4" y1="234.2" x2="150.8" y2="196.3" stroke="rgb(255,255,255)"  stroke-width="1.0"/>
<line x1="150.8" y1="196.3" x2="129.0" y2="180.4" stroke="rgb(255,255,255)"  stroke-width="1.0"/>
<line x1="161.1" y1="157.7" x2="134.4" y2="128.0" stroke="rgb(255,255,255)"  stroke-width="1.0"/>
<line x1="162.4" y1="148.4" x2="143.7" y2="127.7" stroke="rgb(255,255,255)"  stroke-width="1.0"/>
<line x1="134.4" y1="128.0" x2="154.3" y2="93.5" stroke="rgb(255,255,255)"  stroke-width="1.0"/>
<line x1="154.3" y1="93.5" x2="193.4" y2="101.8" stroke="rgb(255,255,255)"  stroke-width="1.0"/>
<line x1="158.7" y1="101.8" x2="186.0" y2="107.6" stroke="rgb(255,255,255)"  stroke-width="1.0"/>
<line x1="193.4" y1="101.8" x2="196.2" y2="128.5" stroke="rgb(255,255,255)"  stroke-width="1.0"/>
<line x1="185.7" y1="146.8" x2="161.1" y2="157.7" stroke="rgb(255,255,255)"  stroke-width="1.0"/>
<line x1="229.0" y1="79.9" x2="252.8" y2="92.0" stroke="rgb(255,255,255)"  stroke-width="1.0"/>
<line x1="231.0" y1="89.0" x2="247.7" y2="97.5" stroke="rgb(255,255,255)"  stroke-width="1.0"/>
<line x1="265.2" y1="111.0" x2="266.6" y2="137.9" stroke="rgb(255,255,255)"  stroke-width="1.0"/>
<line x1="266.6" y1="137.9" x2="244.2" y2="152.4" stroke="rgb(255,255,255)"  stroke-width="1.0"/>
<line x1="257.7" y1="135.1" x2="241.9" y2="145.3" stroke="rgb(255,255,255)"  stroke-width="1.0"/>
<line x1="221.5" y1="153.7" x2="209.1" y2="147.4" stroke="rgb(255,255,255)"  stroke-width="1.0"/>
<line x1="193.4" y1="101.8" x2="229.0" y2="79.9" stroke="rgb(255,255,255)"  stroke-width="1.0"/>
<text x="112.461377" y="180.806102" fill="rgb(255,12,12)"  stroke="rgb(255,12,12)" stroke-width="1" font-size="16" >O</text>
<text x="22.000000" y="164.842853" fill="rgb(255,12,12)"  stroke="rgb(255,12,12)" stroke-width="1" font-size="16" >HO</text>
<text x="64.262206" y="278.704997" fill="rgb(255,12,12)"  stroke="rgb(255,12,12)" stroke-width="1" font-size="16" >HO</text>
<text x="150.542847" y="277.804977" fill="rgb(255,12,12)"  stroke="rgb(255,12,12)" stroke-width="1" font-size="16" >OH</text>
<text x="217.695914" y="236.742798" fill="rgb(12,12,255)"  stroke="rgb(12,12,255)" stroke-width="1" font-size="16" >N</text>
<text x="191.556638" y="149.474778" fill="rgb(12,12,255)"  stroke="rgb(12,12,255)" stroke-width="1" font-size="16" >N</text>
<text x="227.126764" y="167.596139" fill="rgb(12,12,255)"  stroke="rgb(12,12,255)" stroke-width="1" font-size="16" >N</text>
<text x="258.516153" y="105.988353" fill="rgb(12,12,255)"  stroke="rgb(12,12,255)" stroke-width="1" font-size="16" >N</text>
<text x="227.036396" y="48.000000" fill="rgb(12,12,255)"  stroke="rgb(12,12,255)" stroke-width="1" font-size="16" >NH</text>
<text x="251.036396" y="51.680000" fill="rgb(12,12,255)"  stroke="rgb(12,12,255)" stroke-width="1" font-size="13" >2</text>
<text font-size="18.000000" fill ="white" font-family="sans-serif"
x="10.000000" y="20.000000" ></text>
<title> - OBDepict</title>
<cml:molecule>
 <cml:atomArray>
  <cml:atom id="a1" elementType="O" x2="-0.937500" y2="0.724100"/>
  <cml:atom id="a2" elementType="C" x2="-1.604900" y2="0.239200">
   <cml:atomParity atomRefs4="a2 a6 a3 a1">1</cml:atomParity>
  </cml:atom>
  <cml:atom id="a3" elementType="C" x2="-1.350000" y2="-0.545400">
   <cml:atomParity atomRefs4="a3 a8 a2 a4">1</cml:atomParity>
  </cml:atom>
  <cml:atom id="a4" elementType="C" x2="-0.525000" y2="-0.545400">
   <cml:atomParity atomRefs4="a4 a9 a3 a5">1</cml:atomParity>
  </cml:atom>
  <cml:atom id="a5" elementType="C" x2="-0.270100" y2="0.239200">
   <cml:atomParity atomRefs4="a12 a1 a10 a4">1</cml:atomParity>
  </cml:atom>
  <cml:atom id="a6" elementType="C" x2="-1.734000" y2="1.054000"/>
  <cml:atom id="a7" elementType="O" x2="-2.559000" y2="1.054000"/>
  <cml:atom id="a8" elementType="O" x2="-1.685600" y2="-1.299100"/>
  <cml:atom id="a9" elementType="O" x2="-0.150500" y2="-1.280500"/>
  <cml:atom id="a10" elementType="C" x2="0.483600" y2="-0.096400"/>
  <cml:atom id="a11" elementType="N" x2="1.237300" y2="-0.431900"/>
  <cml:atom id="a12" elementType="C" x2="-0.056500" y2="1.036100"/>
  <cml:atom id="a13" elementType="C" x2="-0.196100" y2="2.363600"/>
  <cml:atom id="a14" elementType="C" x2="-0.608500" y2="1.649100"/>
  <cml:atom id="a15" elementType="N" x2="0.697100" y2="1.371600"/>
  <cml:atom id="a16" elementType="C" x2="0.610900" y2="2.192100"/>
  <cml:atom id="a17" elementType="C" x2="1.345900" y2="2.644800"/>
  <cml:atom id="a18" elementType="N" x2="1.432200" y2="0.997100"/>
  <cml:atom id="a19" elementType="C" x2="2.124100" y2="1.446400"/>
  <cml:atom id="a20" elementType="N" x2="2.080900" y2="2.270300"/>
  <cml:atom id="a21" elementType="N" x2="1.389000" y2="3.468700"/>
 </cml:atomArray>
 <cml:bondArray>
  <cml:bond atomRefs2="a1 a2" order="1"/>
  <cml:bond atomRefs2="a2 a3" order="1"/>
  <cml:bond atomRefs2="a3 a4" order="1"/>
  <cml:bond atomRefs2="a4 a5" order="1"/>
  <cml:bond atomRefs2="a1 a5" order="1"/>
  <cml:bond atomRefs2="a2 a6" order="1"/>
  <cml:bond atomRefs2="a6 a7" order="1"/>
  <cml:bond atomRefs2="a3 a8" order="1"/>
  <cml:bond atomRefs2="a4 a9" order="1"/>
  <cml:bond atomRefs2="a5 a10" order="1"/>
  <cml:bond atomRefs2="a10 a11" order="3"/>
  <cml:bond atomRefs2="a5 a12" order="1"/>
  <cml:bond atomRefs2="a13 a14" order="1"/>
  <cml:bond atomRefs2="a13 a16" order="2"/>
  <cml:bond atomRefs2="a14 a12" order="2"/>
  <cml:bond atomRefs2="a12 a15" order="1"/>
  <cml:bond atomRefs2="a18 a19" order="2"/>
  <cml:bond atomRefs2="a19 a20" order="1"/>
  <cml:bond atomRefs2="a17 a20" order="2"/>
  <cml:bond atomRefs2="a15 a18" order="1"/>
  <cml:bond atomRefs2="a17 a16" order="1"/>
  <cml:bond atomRefs2="a16 a15" order="1"/>
  <cml:bond atomRefs2="a17 a21" order="1"/>
 </cml:bondArray>
</cml:molecule>
</svg>
