<?xml version="1.0"?>
<svg xmlns="http://www.w3.org/2000/svg"
xmlns:xlink="http://www.w3.org/1999/xlink" xmlns:cml="http://www.xml-cml.org/schema" width="469.796" height="343.923" x="0" y="0" font-family="sans-serif" stroke="rgb(0,0,0)" stroke-width="1"  stroke-linecap="round">
<rect x="0%" y="0%" width="100%" height="100%" stroke-width="0" fill="rgb(255,255,255)"  />
<line x1="67.3" y1="250.4" x2="90.7" y2="263.9" stroke="rgb(0,0,0)"  stroke-width="1.0"/>
<line x1="90.7" y1="263.9" x2="90.7" y2="290.9" stroke="rgb(0,0,0)"  stroke-width="1.0"/>
<line x1="90.7" y1="263.9" x2="125.4" y2="243.9" stroke="rgb(0,0,0)"  stroke-width="1.0"/>
<line x1="125.4" y1="243.9" x2="148.7" y2="257.4" stroke="rgb(0,0,0)"  stroke-width="1.0"/>
<line x1="171.3" y1="257.4" x2="194.6" y2="243.9" stroke="rgb(0,0,0)"  stroke-width="1.0"/>
<line x1="196.1" y1="241.3" x2="219.5" y2="254.8" stroke="rgb(0,0,0)"  stroke-width="1.0"/>
<line x1="193.1" y1="246.5" x2="216.5" y2="260.0" stroke="rgb(0,0,0)"  stroke-width="1.0"/>
<line x1="194.6" y1="243.9" x2="194.6" y2="203.9" stroke="rgb(0,0,0)"  stroke-width="1.0"/>
<line x1="194.6" y1="203.9" x2="218.0" y2="190.4" stroke="rgb(0,0,0)"  stroke-width="1.0"/>
<line x1="194.6" y1="203.9" x2="171.3" y2="190.4" stroke="rgb(0,0,0)"  stroke-width="1.0"/>
<line x1="160.0" y1="170.9" x2="160.0" y2="156.9" stroke="rgb(0,0,0)"  stroke-width="1.0"/>
<line x1="173.0" y1="140.9" x2="187.0" y2="140.9" stroke="rgb(0,0,0)"  stroke-width="1.0"/>
<line x1="173.0" y1="146.9" x2="187.0" y2="146.9" stroke="rgb(0,0,0)"  stroke-width="1.0"/>
<line x1="160.0" y1="130.9" x2="160.0" y2="116.9" stroke="rgb(0,0,0)"  stroke-width="1.0"/>
<line x1="171.3" y1="97.4" x2="194.6" y2="83.9" stroke="rgb(0,0,0)"  stroke-width="1.0"/>
<line x1="194.6" y1="83.9" x2="229.3" y2="103.9" stroke="rgb(0,0,0)"  stroke-width="1.0"/>
<line x1="272.6" y1="152.0" x2="269.8" y2="178.9" stroke="rgb(0,0,0)"  stroke-width="1.0"/>
<line x1="272.6" y1="152.0" x2="304.9" y2="175.5" stroke="rgb(0,0,0)"  stroke-width="1.0"/>
<line x1="406.3" y1="191.4" x2="422.2" y2="213.2" stroke="rgb(0,0,0)"  stroke-width="1.0"/>
<line x1="292.6" y1="117.4" x2="319.4" y2="114.6" stroke="rgb(0,0,0)"  stroke-width="1.0"/>
<line x1="265.8" y1="87.7" x2="271.4" y2="61.2" stroke="rgb(0,0,0)"  stroke-width="1.0"/>
<line x1="147.0" y1="143.9" x2="133.0" y2="143.9" stroke="rgb(0,0,0)"  stroke-width="1.0"/>
<line x1="113.5" y1="132.7" x2="100.0" y2="109.3" stroke="rgb(0,0,0)"  stroke-width="1.0"/>
<line x1="229.3" y1="103.9" x2="265.8" y2="87.7" stroke="rgb(0,0,0)"  stroke-width="1.0"/>
<line x1="265.8" y1="87.7" x2="292.6" y2="117.4" stroke="rgb(0,0,0)"  stroke-width="1.0"/>
<line x1="292.6" y1="117.4" x2="272.6" y2="152.0" stroke="rgb(0,0,0)"  stroke-width="1.0"/>
<line x1="272.6" y1="152.0" x2="246.2" y2="146.4" stroke="rgb(0,0,0)"  stroke-width="1.0"/>
<line x1="232.1" y1="130.8" x2="229.3" y2="103.9" stroke="rgb(0,0,0)"  stroke-width="1.0"/>
<line x1="304.9" y1="175.5" x2="304.9" y2="215.5" stroke="rgb(0,0,0)"  stroke-width="1.0"/>
<line x1="312.1" y1="181.5" x2="312.1" y2="209.5" stroke="rgb(0,0,0)"  stroke-width="1.0"/>
<line x1="304.9" y1="215.5" x2="343.0" y2="227.9" stroke="rgb(0,0,0)"  stroke-width="1.0"/>
<line x1="343.0" y1="227.9" x2="366.5" y2="195.5" stroke="rgb(0,0,0)"  stroke-width="1.0"/>
<line x1="340.7" y1="218.8" x2="357.2" y2="196.2" stroke="rgb(0,0,0)"  stroke-width="1.0"/>
<line x1="366.5" y1="195.5" x2="350.6" y2="173.7" stroke="rgb(0,0,0)"  stroke-width="1.0"/>
<line x1="330.6" y1="167.2" x2="304.9" y2="175.5" stroke="rgb(0,0,0)"  stroke-width="1.0"/>
<line x1="414.9" y1="144.3" x2="399.0" y2="122.4" stroke="rgb(0,0,0)"  stroke-width="1.0"/>
<line x1="399.0" y1="122.4" x2="372.4" y2="125.2" stroke="rgb(0,0,0)"  stroke-width="1.0"/>
<line x1="393.8" y1="130.2" x2="375.1" y2="132.2" stroke="rgb(0,0,0)"  stroke-width="1.0"/>
<line x1="354.0" y1="138.5" x2="348.3" y2="151.3" stroke="rgb(0,0,0)"  stroke-width="1.0"/>
<line x1="366.5" y1="195.5" x2="406.3" y2="191.4" stroke="rgb(0,0,0)"  stroke-width="1.0"/>
<line x1="406.3" y1="191.4" x2="417.2" y2="166.9" stroke="rgb(0,0,0)"  stroke-width="1.0"/>
<line x1="402.1" y1="182.9" x2="409.8" y2="165.8" stroke="rgb(0,0,0)"  stroke-width="1.0"/>
<line x1="100.0" y1="109.3" x2="60.0" y2="109.3" stroke="rgb(0,0,0)"  stroke-width="1.0"/>
<line x1="94.0" y1="102.1" x2="66.0" y2="102.1" stroke="rgb(0,0,0)"  stroke-width="1.0"/>
<line x1="60.0" y1="109.3" x2="40.0" y2="74.6" stroke="rgb(0,0,0)"  stroke-width="1.0"/>
<line x1="40.0" y1="74.6" x2="60.0" y2="40.0" stroke="rgb(0,0,0)"  stroke-width="1.0"/>
<line x1="49.2" y1="73.0" x2="63.2" y2="48.8" stroke="rgb(0,0,0)"  stroke-width="1.0"/>
<line x1="60.0" y1="40.0" x2="100.0" y2="40.0" stroke="rgb(0,0,0)"  stroke-width="1.0"/>
<line x1="100.0" y1="40.0" x2="120.0" y2="74.6" stroke="rgb(0,0,0)"  stroke-width="1.0"/>
<line x1="96.8" y1="48.8" x2="110.8" y2="73.0" stroke="rgb(0,0,0)"  stroke-width="1.0"/>
<line x1="120.0" y1="74.6" x2="100.0" y2="109.3" stroke="rgb(0,0,0)"  stroke-width="1.0"/>
<text x="38.076952" y="251.923048" fill="rgb(0,0,0)"  stroke="rgb(0,0,0)" stroke-width="1" font-size="16" >Et</text>
<text x="84.717968" y="311.923048" fill="rgb(0,0,0)"  stroke="rgb(0,0,0)" stroke-width="1" font-size="16" >Et</text>
<text x="154.000000" y="271.923048" fill="rgb(255,12,12)"  stroke="rgb(255,12,12)" stroke-width="1" font-size="16" >O</text>
<text x="223.282032" y="271.923048" fill="rgb(255,12,12)"  stroke="rgb(255,12,12)" stroke-width="1" font-size="16" >O</text>
<text x="225.282032" y="191.923048" fill="rgb(102,102,102)"  stroke="rgb(102,102,102)" stroke-width="1" font-size="16" >CH</text>
<text x="249.282032" y="195.603048" fill="rgb(102,102,102)"  stroke="rgb(102,102,102)" stroke-width="1" font-size="13" >3</text>
<text x="142.000000" y="191.923048" fill="rgb(12,12,255)"  stroke="rgb(12,12,255)" stroke-width="1" font-size="16" >HN</text>
<text x="154.000000" y="151.923048" fill="rgb(255,127,0)"  stroke="rgb(255,127,0)" stroke-width="1" font-size="16" >P</text>
<text x="194.000000" y="151.923048" fill="rgb(255,12,12)"  stroke="rgb(255,12,12)" stroke-width="1" font-size="16" >O</text>
<text x="154.000000" y="111.923048" fill="rgb(255,12,12)"  stroke="rgb(255,12,12)" stroke-width="1" font-size="16" >O</text>
<text x="227.463171" y="151.703924" fill="rgb(255,12,12)"  stroke="rgb(255,12,12)" stroke-width="1" font-size="16" >O</text>
<text x="250.407936" y="199.801268" fill="rgb(0,0,0)"  stroke="rgb(0,0,0)" stroke-width="1" font-size="16" >NC</text>
<text x="336.992015" y="171.171122" fill="rgb(12,12,255)"  stroke="rgb(12,12,255)" stroke-width="1" font-size="16" >N</text>
<text x="353.261481" y="134.629304" fill="rgb(12,12,255)"  stroke="rgb(12,12,255)" stroke-width="1" font-size="16" >N</text>
<text x="416.553767" y="162.808845" fill="rgb(12,12,255)"  stroke="rgb(12,12,255)" stroke-width="1" font-size="16" >N</text>
<text x="425.795711" y="231.711343" fill="rgb(12,12,255)"  stroke="rgb(12,12,255)" stroke-width="1" font-size="16" >NH</text>
<text x="449.795711" y="235.391343" fill="rgb(12,12,255)"  stroke="rgb(12,12,255)" stroke-width="1" font-size="13" >2</text>
<text x="326.369951" y="121.198237" fill="rgb(255,12,12)"  stroke="rgb(255,12,12)" stroke-width="1" font-size="16" >OH</text>
<text x="268.140318" y="56.527679" fill="rgb(255,12,12)"  stroke="rgb(255,12,12)" stroke-width="1" font-size="16" >OH</text>
<text x="114.000000" y="151.923048" fill="rgb(255,12,12)"  stroke="rgb(255,12,12)" stroke-width="1" font-size="16" >O</text>
<text font-size="18.000000" fill ="black" font-family="sans-serif"
x="10.000000" y="20.000000" ></text>
<title> - OBDepict</title>
</svg>
