<?xml version="1.0"?>
<svg xmlns="http://www.w3.org/2000/svg"
xmlns:xlink="http://www.w3.org/1999/xlink" xmlns:cml="http://www.xml-cml.org/schema" width="367.282" height="437.233" x="0" y="0" font-family="sans-serif" stroke="rgb(255,255,255)" stroke-width="1"  stroke-linecap="round">
<rect x="0%" y="0%" width="100%" height="100%" stroke-width="0" fill="rgb(0,0,0)"  />
<line x1="114.7" y1="317.3" x2="114.7" y2="290.3" stroke="rgb(255,255,255)"  stroke-width="1.0"/>
<line x1="151.4" y1="260.4" x2="126.5" y2="271.9" stroke="rgb(255,255,255)"  stroke-width="1.0"/>
<line x1="220.7" y1="260.4" x2="245.9" y2="270.1" stroke="rgb(255,255,255)"  stroke-width="1.0"/>
<line x1="186.1" y1="200.4" x2="184.7" y2="173.5" stroke="rgb(255,255,255)"  stroke-width="1.0"/>
<line x1="171.1" y1="158.5" x2="157.3" y2="156.3" stroke="rgb(255,255,255)"  stroke-width="1.0"/>
<line x1="142.2" y1="141.1" x2="143.6" y2="114.2" stroke="rgb(255,255,255)"  stroke-width="1.0"/>
<line x1="148.2" y1="141.4" x2="149.6" y2="114.5" stroke="rgb(255,255,255)"  stroke-width="1.0"/>
<line x1="146.6" y1="114.3" x2="109.3" y2="100.0" stroke="rgb(255,255,255)"  stroke-width="1.0"/>
<line x1="114.7" y1="317.3" x2="80.0" y2="337.3" stroke="rgb(255,255,255)"  stroke-width="1.0"/>
<line x1="80.0" y1="337.3" x2="80.0" y2="377.2" stroke="rgb(255,255,255)"  stroke-width="1.0"/>
<line x1="87.2" y1="343.3" x2="87.2" y2="371.2" stroke="rgb(255,255,255)"  stroke-width="1.0"/>
<line x1="80.0" y1="377.2" x2="114.7" y2="397.2" stroke="rgb(255,255,255)"  stroke-width="1.0"/>
<line x1="114.7" y1="397.2" x2="149.3" y2="377.2" stroke="rgb(255,255,255)"  stroke-width="1.0"/>
<line x1="116.3" y1="388.0" x2="140.5" y2="374.0" stroke="rgb(255,255,255)"  stroke-width="1.0"/>
<line x1="149.3" y1="377.2" x2="149.3" y2="337.3" stroke="rgb(255,255,255)"  stroke-width="1.0"/>
<line x1="149.3" y1="337.3" x2="114.7" y2="317.3" stroke="rgb(255,255,255)"  stroke-width="1.0"/>
<line x1="140.5" y1="340.5" x2="116.3" y2="326.5" stroke="rgb(255,255,255)"  stroke-width="1.0"/>
<line x1="186.1" y1="200.4" x2="162.7" y2="213.9" stroke="rgb(255,255,255)"  stroke-width="1.0"/>
<line x1="151.4" y1="233.6" x2="151.4" y2="260.4" stroke="rgb(255,255,255)"  stroke-width="1.0"/>
<line x1="158.6" y1="235.6" x2="158.6" y2="254.4" stroke="rgb(255,255,255)"  stroke-width="1.0"/>
<line x1="151.4" y1="260.4" x2="174.8" y2="273.9" stroke="rgb(255,255,255)"  stroke-width="1.0"/>
<line x1="197.5" y1="273.8" x2="220.7" y2="260.4" stroke="rgb(255,255,255)"  stroke-width="1.0"/>
<line x1="195.6" y1="266.6" x2="211.9" y2="257.2" stroke="rgb(255,255,255)"  stroke-width="1.0"/>
<line x1="220.7" y1="260.4" x2="220.7" y2="233.4" stroke="rgb(255,255,255)"  stroke-width="1.0"/>
<line x1="209.3" y1="213.8" x2="186.1" y2="200.4" stroke="rgb(255,255,255)"  stroke-width="1.0"/>
<line x1="203.9" y1="219.1" x2="187.7" y2="209.7" stroke="rgb(255,255,255)"  stroke-width="1.0"/>
<line x1="258.0" y1="287.7" x2="258.0" y2="314.7" stroke="rgb(255,255,255)"  stroke-width="1.0"/>
<line x1="258.0" y1="314.7" x2="292.7" y2="334.7" stroke="rgb(255,255,255)"  stroke-width="1.0"/>
<line x1="292.7" y1="334.7" x2="316.0" y2="321.2" stroke="rgb(255,255,255)"  stroke-width="1.0"/>
<line x1="327.3" y1="301.7" x2="327.3" y2="274.7" stroke="rgb(255,255,255)"  stroke-width="1.0"/>
<line x1="327.3" y1="274.7" x2="292.7" y2="254.7" stroke="rgb(255,255,255)"  stroke-width="1.0"/>
<line x1="292.7" y1="254.7" x2="269.3" y2="268.2" stroke="rgb(255,255,255)"  stroke-width="1.0"/>
<line x1="109.3" y1="100.0" x2="109.3" y2="60.0" stroke="rgb(255,255,255)"  stroke-width="1.0"/>
<line x1="109.3" y1="60.0" x2="74.6" y2="40.0" stroke="rgb(255,255,255)"  stroke-width="1.0"/>
<line x1="100.5" y1="63.2" x2="76.2" y2="49.2" stroke="rgb(255,255,255)"  stroke-width="1.0"/>
<line x1="74.6" y1="40.0" x2="40.0" y2="60.0" stroke="rgb(255,255,255)"  stroke-width="1.0"/>
<line x1="40.0" y1="60.0" x2="40.0" y2="86.8" stroke="rgb(255,255,255)"  stroke-width="1.0"/>
<line x1="47.2" y1="66.0" x2="47.2" y2="84.8" stroke="rgb(255,255,255)"  stroke-width="1.0"/>
<line x1="51.3" y1="106.5" x2="74.6" y2="120.0" stroke="rgb(255,255,255)"  stroke-width="1.0"/>
<line x1="74.6" y1="120.0" x2="109.3" y2="100.0" stroke="rgb(255,255,255)"  stroke-width="1.0"/>
<line x1="76.2" y1="110.7" x2="100.5" y2="96.7" stroke="rgb(255,255,255)"  stroke-width="1.0"/>
<text x="96.671458" y="285.274653" fill="rgb(12,12,255)"  stroke="rgb(12,12,255)" stroke-width="1" font-size="16" >HN</text>
<text x="145.447406" y="228.414424" fill="rgb(12,12,255)"  stroke="rgb(12,12,255)" stroke-width="1" font-size="16" >N</text>
<text x="180.071466" y="288.391012" fill="rgb(12,12,255)"  stroke="rgb(12,12,255)" stroke-width="1" font-size="16" >N</text>
<text x="214.700373" y="228.414424" fill="rgb(12,12,255)"  stroke="rgb(12,12,255)" stroke-width="1" font-size="16" >N</text>
<text x="252.028832" y="282.730192" fill="rgb(12,12,255)"  stroke="rgb(12,12,255)" stroke-width="1" font-size="16" >N</text>
<text x="321.281800" y="322.714584" fill="rgb(255,12,12)"  stroke="rgb(255,12,12)" stroke-width="1" font-size="16" >O</text>
<text x="177.982585" y="168.491148" fill="rgb(12,12,255)"  stroke="rgb(12,12,255)" stroke-width="1" font-size="16" >NH</text>
<text x="138.487698" y="162.239043" fill="rgb(12,12,255)"  stroke="rgb(12,12,255)" stroke-width="1" font-size="16" >N</text>
<text x="34.000000" y="107.981435" fill="rgb(12,12,255)"  stroke="rgb(12,12,255)" stroke-width="1" font-size="16" >N</text>
<text font-size="18.000000" fill ="white" font-family="sans-serif"
x="10.000000" y="20.000000" ></text>
<title> - OBDepict</title>
<cml:molecule>
 <cml:atomArray>
  <cml:atom id="a1" elementType="C" x2="-1.852700" y2="-1.920500"/>
  <cml:atom id="a2" elementType="C" x2="-2.567100" y2="-2.333000"/>
  <cml:atom id="a3" elementType="C" x2="-2.567100" y2="-3.158000"/>
  <cml:atom id="a4" elementType="C" x2="-1.852700" y2="-3.570600"/>
  <cml:atom id="a5" elementType="C" x2="-1.138200" y2="-3.158000"/>
  <cml:atom id="a6" elementType="C" x2="-1.138200" y2="-2.333000"/>
  <cml:atom id="a7" elementType="N" x2="-1.852700" y2="-1.095500"/>
  <cml:atom id="a8" elementType="C" x2="-0.379500" y2="0.490200"/>
  <cml:atom id="a9" elementType="N" x2="-1.093900" y2="0.077700"/>
  <cml:atom id="a10" elementType="C" x2="-1.093900" y2="-0.747300"/>
  <cml:atom id="a11" elementType="N" x2="-0.379500" y2="-1.159800"/>
  <cml:atom id="a12" elementType="C" x2="0.335000" y2="-0.747300"/>
  <cml:atom id="a13" elementType="N" x2="0.335000" y2="0.077700"/>
  <cml:atom id="a14" elementType="N" x2="1.105200" y2="-1.043000"/>
  <cml:atom id="a15" elementType="C" x2="1.819700" y2="-0.630500"/>
  <cml:atom id="a16" elementType="C" x2="1.105200" y2="-1.868000"/>
  <cml:atom id="a17" elementType="C" x2="1.819700" y2="-2.280500"/>
  <cml:atom id="a18" elementType="O" x2="2.534100" y2="-1.868000"/>
  <cml:atom id="a19" elementType="C" x2="2.534100" y2="-1.043000"/>
  <cml:atom id="a20" elementType="N" x2="-0.422600" y2="1.314100"/>
  <cml:atom id="a21" elementType="N" x2="-1.237500" y2="1.443100"/>
  <cml:atom id="a22" elementType="C" x2="-1.194300" y2="2.267000"/>
  <cml:atom id="a23" elementType="C" x2="-1.964500" y2="2.562600"/>
  <cml:atom id="a24" elementType="C" x2="-2.679000" y2="3.800200"/>
  <cml:atom id="a25" elementType="C" x2="-3.393400" y2="3.387700"/>
  <cml:atom id="a26" elementType="N" x2="-3.393400" y2="2.562600"/>
  <cml:atom id="a27" elementType="C" x2="-2.679000" y2="2.150100"/>
  <cml:atom id="a28" elementType="C" x2="-1.964500" y2="3.387700"/>
 </cml:atomArray>
 <cml:bondArray>
  <cml:bond atomRefs2="a1 a2" order="1"/>
  <cml:bond atomRefs2="a2 a3" order="2"/>
  <cml:bond atomRefs2="a3 a4" order="1"/>
  <cml:bond atomRefs2="a4 a5" order="2"/>
  <cml:bond atomRefs2="a5 a6" order="1"/>
  <cml:bond atomRefs2="a1 a6" order="2"/>
  <cml:bond atomRefs2="a1 a7" order="1"/>
  <cml:bond atomRefs2="a8 a9" order="1"/>
  <cml:bond atomRefs2="a9 a10" order="2"/>
  <cml:bond atomRefs2="a10 a11" order="1"/>
  <cml:bond atomRefs2="a11 a12" order="2"/>
  <cml:bond atomRefs2="a12 a13" order="1"/>
  <cml:bond atomRefs2="a8 a13" order="2"/>
  <cml:bond atomRefs2="a10 a7" order="1"/>
  <cml:bond atomRefs2="a12 a14" order="1"/>
  <cml:bond atomRefs2="a16 a17" order="1"/>
  <cml:bond atomRefs2="a17 a18" order="1"/>
  <cml:bond atomRefs2="a18 a19" order="1"/>
  <cml:bond atomRefs2="a15 a19" order="1"/>
  <cml:bond atomRefs2="a15 a14" order="1"/>
  <cml:bond atomRefs2="a14 a16" order="1"/>
  <cml:bond atomRefs2="a8 a20" order="1"/>
  <cml:bond atomRefs2="a20 a21" order="1"/>
  <cml:bond atomRefs2="a21 a22" order="2">
   <cml:bondStereo atomRefs4="a20 a21 a22 a23">T</cml:bondStereo>
  </cml:bond>
  <cml:bond atomRefs2="a22 a23" order="1"/>
  <cml:bond atomRefs2="a24 a25" order="1"/>
  <cml:bond atomRefs2="a25 a26" order="2"/>
  <cml:bond atomRefs2="a26 a27" order="1"/>
  <cml:bond atomRefs2="a24 a28" order="2"/>
  <cml:bond atomRefs2="a27 a23" order="2"/>
  <cml:bond atomRefs2="a23 a28" order="1"/>
 </cml:bondArray>
</cml:molecule>
</svg>
