<?xml version="1.0"?>
<svg xmlns="http://www.w3.org/2000/svg"
xmlns:xlink="http://www.w3.org/1999/xlink" xmlns:cml="http://www.xml-cml.org/schema" width="329.604" height="265.685" x="0" y="0" font-family="sans-serif" stroke="rgb(255,255,255)" stroke-width="1"  stroke-linecap="round">
<rect x="0%" y="0%" width="100%" height="100%" stroke-width="0" fill="rgb(0,0,0)"  />
<line x1="109.5" y1="100.2" x2="135.8" y2="107.3" stroke="rgb(255,255,255)"  stroke-width="1.0"/>
<line x1="143.5" y1="122.7" x2="134.5" y2="145.4" stroke="rgb(255,255,255)"  stroke-width="1.0"/>
<line x1="158.4" y1="102.4" x2="169.4" y2="93.5" stroke="rgb(255,255,255)"  stroke-width="1.0"/>
<line x1="191.7" y1="90.0" x2="217.0" y2="99.7" stroke="rgb(255,255,255)"  stroke-width="1.0"/>
<line x1="217.0" y1="99.7" x2="249.5" y2="76.1" stroke="rgb(255,255,255)"  stroke-width="1.0"/>
<line x1="249.5" y1="76.1" x2="276.6" y2="77.6" stroke="rgb(255,255,255)"  stroke-width="1.0"/>
<line x1="74.8" y1="40.0" x2="40.0" y2="60.1" stroke="rgb(255,255,255)"  stroke-width="1.0"/>
<line x1="40.0" y1="60.1" x2="40.0" y2="100.2" stroke="rgb(255,255,255)"  stroke-width="1.0"/>
<line x1="47.2" y1="66.1" x2="47.2" y2="94.2" stroke="rgb(255,255,255)"  stroke-width="1.0"/>
<line x1="40.0" y1="100.2" x2="74.8" y2="120.3" stroke="rgb(255,255,255)"  stroke-width="1.0"/>
<line x1="74.8" y1="120.3" x2="109.5" y2="100.2" stroke="rgb(255,255,255)"  stroke-width="1.0"/>
<line x1="76.4" y1="111.1" x2="100.8" y2="97.0" stroke="rgb(255,255,255)"  stroke-width="1.0"/>
<line x1="109.5" y1="100.2" x2="109.5" y2="60.1" stroke="rgb(255,255,255)"  stroke-width="1.0"/>
<line x1="109.5" y1="60.1" x2="74.8" y2="40.0" stroke="rgb(255,255,255)"  stroke-width="1.0"/>
<line x1="100.8" y1="63.3" x2="76.4" y2="49.2" stroke="rgb(255,255,255)"  stroke-width="1.0"/>
<line x1="134.5" y1="145.4" x2="99.8" y2="165.5" stroke="rgb(255,255,255)"  stroke-width="1.0"/>
<line x1="99.8" y1="165.5" x2="99.8" y2="205.6" stroke="rgb(255,255,255)"  stroke-width="1.0"/>
<line x1="107.0" y1="171.5" x2="107.0" y2="199.6" stroke="rgb(255,255,255)"  stroke-width="1.0"/>
<line x1="99.8" y1="205.6" x2="134.5" y2="225.7" stroke="rgb(255,255,255)"  stroke-width="1.0"/>
<line x1="134.5" y1="225.7" x2="169.3" y2="205.6" stroke="rgb(255,255,255)"  stroke-width="1.0"/>
<line x1="136.1" y1="216.5" x2="160.5" y2="202.4" stroke="rgb(255,255,255)"  stroke-width="1.0"/>
<line x1="169.3" y1="205.6" x2="169.3" y2="165.5" stroke="rgb(255,255,255)"  stroke-width="1.0"/>
<line x1="169.3" y1="165.5" x2="134.5" y2="145.4" stroke="rgb(255,255,255)"  stroke-width="1.0"/>
<line x1="160.5" y1="168.7" x2="136.1" y2="154.6" stroke="rgb(255,255,255)"  stroke-width="1.0"/>
<text x="142.334324" y="118.624888" fill="rgb(255,181,181)"  stroke="rgb(255,181,181)" stroke-width="1" font-size="16" >B</text>
<text x="173.536595" y="93.355477" fill="rgb(255,12,12)"  stroke="rgb(255,12,12)" stroke-width="1" font-size="16" >O</text>
<text x="285.603567" y="86.244805" fill="rgb(12,12,255)"  stroke="rgb(12,12,255)" stroke-width="1" font-size="16" >NH</text>
<text x="309.603567" y="89.924805" fill="rgb(12,12,255)"  stroke="rgb(12,12,255)" stroke-width="1" font-size="13" >2</text>
<text font-size="18.000000" fill ="white" font-family="sans-serif"
x="10.000000" y="20.000000" ></text>
<title> - OBDepict</title>
<cml:molecule>
 <cml:atomArray>
  <cml:atom id="a1" elementType="C" x2="-3.526800" y2="2.253600"/>
  <cml:atom id="a2" elementType="C" x2="-4.241300" y2="1.841100"/>
  <cml:atom id="a3" elementType="C" x2="-4.241300" y2="1.016100"/>
  <cml:atom id="a4" elementType="C" x2="-3.526800" y2="0.603600"/>
  <cml:atom id="a5" elementType="C" x2="-2.812300" y2="1.016100"/>
  <cml:atom id="a6" elementType="C" x2="-2.812300" y2="1.841100"/>
  <cml:atom id="a7" elementType="C" x2="-2.299100" y2="0.088400"/>
  <cml:atom id="a8" elementType="C" x2="-3.013600" y2="-0.324100"/>
  <cml:atom id="a9" elementType="C" x2="-3.013600" y2="-1.149100"/>
  <cml:atom id="a10" elementType="C" x2="-2.299100" y2="-1.561600"/>
  <cml:atom id="a11" elementType="C" x2="-1.584600" y2="-1.149100"/>
  <cml:atom id="a12" elementType="C" x2="-1.584600" y2="-0.324100"/>
  <cml:atom id="a13" elementType="B" x2="-2.015400" y2="0.802500"/>
  <cml:atom id="a14" elementType="O" x2="-1.374300" y2="1.321700"/>
  <cml:atom id="a15" elementType="C" x2="-0.604100" y2="1.026100"/>
  <cml:atom id="a16" elementType="C" x2="0.063400" y2="1.511000"/>
  <cml:atom id="a17" elementType="N" x2="0.887200" y2="1.467800"/>
 </cml:atomArray>
 <cml:bondArray>
  <cml:bond atomRefs2="a1 a2" order="1"/>
  <cml:bond atomRefs2="a2 a3" order="2"/>
  <cml:bond atomRefs2="a3 a4" order="1"/>
  <cml:bond atomRefs2="a4 a5" order="2"/>
  <cml:bond atomRefs2="a5 a6" order="1"/>
  <cml:bond atomRefs2="a1 a6" order="2"/>
  <cml:bond atomRefs2="a7 a8" order="1"/>
  <cml:bond atomRefs2="a8 a9" order="2"/>
  <cml:bond atomRefs2="a9 a10" order="1"/>
  <cml:bond atomRefs2="a10 a11" order="2"/>
  <cml:bond atomRefs2="a11 a12" order="1"/>
  <cml:bond atomRefs2="a7 a12" order="2"/>
  <cml:bond atomRefs2="a5 a13" order="1"/>
  <cml:bond atomRefs2="a13 a7" order="1"/>
  <cml:bond atomRefs2="a13 a14" order="1"/>
  <cml:bond atomRefs2="a14 a15" order="1"/>
  <cml:bond atomRefs2="a15 a16" order="1"/>
  <cml:bond atomRefs2="a16 a17" order="1"/>
 </cml:bondArray>
</cml:molecule>
</svg>
