<?xml version="1.0"?>
<svg xmlns="http://www.w3.org/2000/svg"
xmlns:xlink="http://www.w3.org/1999/xlink" xmlns:cml="http://www.xml-cml.org/schema" width="589.785" height="295.623" x="0" y="0" font-family="sans-serif" stroke="rgb(255,255,255)" stroke-width="1"  stroke-linecap="round">
<rect x="0%" y="0%" width="100%" height="100%" stroke-width="0" fill="rgb(0,0,0)"  />
<line x1="107.9" y1="196.8" x2="74.0" y2="216.4" stroke="rgb(255,255,255)"  stroke-width="1.0"/>
<line x1="77.0" y1="216.4" x2="77.0" y2="242.6" stroke="rgb(255,255,255)"  stroke-width="1.0"/>
<line x1="71.0" y1="216.4" x2="71.0" y2="242.6" stroke="rgb(255,255,255)"  stroke-width="1.0"/>
<line x1="74.0" y1="216.4" x2="51.3" y2="203.3" stroke="rgb(255,255,255)"  stroke-width="1.0"/>
<line x1="187.1" y1="151.1" x2="209.8" y2="138.0" stroke="rgb(255,255,255)"  stroke-width="1.0"/>
<line x1="209.8" y1="98.8" x2="187.1" y2="85.7" stroke="rgb(255,255,255)"  stroke-width="1.0"/>
<line x1="311.6" y1="170.6" x2="311.6" y2="196.8" stroke="rgb(255,255,255)"  stroke-width="1.0"/>
<line x1="308.6" y1="79.2" x2="308.6" y2="53.0" stroke="rgb(255,255,255)"  stroke-width="1.0"/>
<line x1="314.6" y1="79.2" x2="314.6" y2="53.0" stroke="rgb(255,255,255)"  stroke-width="1.0"/>
<line x1="387.8" y1="56.6" x2="387.8" y2="82.8" stroke="rgb(255,255,255)"  stroke-width="1.0"/>
<line x1="381.8" y1="56.6" x2="381.8" y2="82.8" stroke="rgb(255,255,255)"  stroke-width="1.0"/>
<line x1="384.8" y1="82.8" x2="345.6" y2="98.8" stroke="rgb(255,255,255)"  stroke-width="1.0"/>
<line x1="384.8" y1="82.8" x2="406.5" y2="97.4" stroke="rgb(255,255,255)"  stroke-width="1.0"/>
<line x1="422.6" y1="92.7" x2="433.2" y2="68.8" stroke="rgb(255,255,255)"  stroke-width="1.0"/>
<line x1="433.2" y1="68.8" x2="462.4" y2="95.0" stroke="rgb(255,255,255)"  stroke-width="1.0"/>
<line x1="520.7" y1="147.5" x2="540.1" y2="165.0" stroke="rgb(255,255,255)"  stroke-width="1.0"/>
<line x1="499.7" y1="82.9" x2="505.1" y2="57.3" stroke="rgb(255,255,255)"  stroke-width="1.0"/>
<line x1="311.6" y1="196.8" x2="277.7" y2="216.4" stroke="rgb(255,255,255)"  stroke-width="1.0"/>
<line x1="277.7" y1="216.4" x2="345.6" y2="216.4" stroke="rgb(255,255,255)"  stroke-width="1.0"/>
<line x1="345.6" y1="216.4" x2="311.6" y2="196.8" stroke="rgb(255,255,255)"  stroke-width="1.0"/>
<line x1="141.9" y1="138.0" x2="107.9" y2="157.6" stroke="rgb(255,255,255)"  stroke-width="1.0"/>
<line x1="107.9" y1="157.6" x2="107.9" y2="196.8" stroke="rgb(255,255,255)"  stroke-width="1.0"/>
<line x1="107.9" y1="196.8" x2="141.9" y2="216.4" stroke="rgb(255,255,255)"  stroke-width="1.0"/>
<line x1="141.9" y1="216.4" x2="175.8" y2="196.8" stroke="rgb(255,255,255)"  stroke-width="1.0"/>
<line x1="175.8" y1="196.8" x2="175.8" y2="170.6" stroke="rgb(255,255,255)"  stroke-width="1.0"/>
<line x1="164.5" y1="151.1" x2="141.9" y2="138.0" stroke="rgb(255,255,255)"  stroke-width="1.0"/>
<line x1="209.8" y1="138.0" x2="243.7" y2="157.6" stroke="rgb(255,255,255)"  stroke-width="1.0"/>
<line x1="218.6" y1="134.8" x2="242.1" y2="148.4" stroke="rgb(255,255,255)"  stroke-width="1.0"/>
<line x1="243.7" y1="157.6" x2="277.7" y2="138.0" stroke="rgb(255,255,255)"  stroke-width="1.0"/>
<line x1="277.7" y1="138.0" x2="277.7" y2="98.8" stroke="rgb(255,255,255)"  stroke-width="1.0"/>
<line x1="270.5" y1="132.0" x2="270.5" y2="104.8" stroke="rgb(255,255,255)"  stroke-width="1.0"/>
<line x1="277.7" y1="98.8" x2="243.7" y2="79.2" stroke="rgb(255,255,255)"  stroke-width="1.0"/>
<line x1="243.7" y1="79.2" x2="209.8" y2="98.8" stroke="rgb(255,255,255)"  stroke-width="1.0"/>
<line x1="242.1" y1="88.4" x2="218.6" y2="102.0" stroke="rgb(255,255,255)"  stroke-width="1.0"/>
<line x1="209.8" y1="98.8" x2="209.8" y2="138.0" stroke="rgb(255,255,255)"  stroke-width="1.0"/>
<line x1="345.6" y1="98.8" x2="311.6" y2="79.2" stroke="rgb(255,255,255)"  stroke-width="1.0"/>
<line x1="311.6" y1="79.2" x2="277.7" y2="98.8" stroke="rgb(255,255,255)"  stroke-width="1.0"/>
<line x1="277.7" y1="138.0" x2="300.4" y2="151.1" stroke="rgb(255,255,255)"  stroke-width="1.0"/>
<line x1="322.9" y1="151.1" x2="345.6" y2="138.0" stroke="rgb(255,255,255)"  stroke-width="1.0"/>
<line x1="345.6" y1="138.0" x2="345.6" y2="98.8" stroke="rgb(255,255,255)"  stroke-width="1.0"/>
<line x1="338.4" y1="132.0" x2="338.4" y2="104.8" stroke="rgb(255,255,255)"  stroke-width="1.0"/>
<line x1="462.4" y1="95.0" x2="454.2" y2="133.4" stroke="rgb(255,255,255)"  stroke-width="1.0"/>
<line x1="468.2" y1="102.4" x2="462.5" y2="129.0" stroke="rgb(255,255,255)"  stroke-width="1.0"/>
<line x1="454.2" y1="133.4" x2="483.4" y2="159.6" stroke="rgb(255,255,255)"  stroke-width="1.0"/>
<line x1="483.4" y1="159.6" x2="520.7" y2="147.5" stroke="rgb(255,255,255)"  stroke-width="1.0"/>
<line x1="486.9" y1="150.9" x2="512.7" y2="142.5" stroke="rgb(255,255,255)"  stroke-width="1.0"/>
<line x1="520.7" y1="147.5" x2="528.8" y2="109.2" stroke="rgb(255,255,255)"  stroke-width="1.0"/>
<line x1="528.8" y1="109.2" x2="499.7" y2="82.9" stroke="rgb(255,255,255)"  stroke-width="1.0"/>
<line x1="519.5" y1="110.5" x2="499.3" y2="92.3" stroke="rgb(255,255,255)"  stroke-width="1.0"/>
<line x1="499.7" y1="82.9" x2="462.4" y2="95.0" stroke="rgb(255,255,255)"  stroke-width="1.0"/>
<text x="169.804981" y="165.609898" fill="rgb(12,12,255)"  stroke="rgb(12,12,255)" stroke-width="1" font-size="16" >N</text>
<text x="14.000000" y="204.822701" fill="rgb(12,12,255)"  stroke="rgb(12,12,255)" stroke-width="1" font-size="16" >H</text>
<text x="26.000000" y="208.502701" fill="rgb(12,12,255)"  stroke="rgb(12,12,255)" stroke-width="1" font-size="13" >2</text>
<text x="32.500000" y="204.822701" fill="rgb(12,12,255)"  stroke="rgb(12,12,255)" stroke-width="1" font-size="16" >N</text>
<text x="67.952433" y="263.622899" fill="rgb(255,12,12)"  stroke="rgb(255,12,12)" stroke-width="1" font-size="16" >O</text>
<text x="169.804981" y="87.203299" fill="rgb(127,178,255)"  stroke="rgb(127,178,255)" stroke-width="1" font-size="16" >F</text>
<text x="305.614714" y="165.614650" fill="rgb(12,12,255)"  stroke="rgb(12,12,255)" stroke-width="1" font-size="16" >N</text>
<text x="305.619466" y="48.000000" fill="rgb(255,12,12)"  stroke="rgb(255,12,12)" stroke-width="1" font-size="16" >O</text>
<text x="378.751439" y="51.563936" fill="rgb(255,12,12)"  stroke="rgb(255,12,12)" stroke-width="1" font-size="16" >O</text>
<text x="411.302057" y="112.616541" fill="rgb(12,12,255)"  stroke="rgb(12,12,255)" stroke-width="1" font-size="16" >N</text>
<text x="411.302057" y="128.616541" fill="rgb(12,12,255)"  stroke="rgb(12,12,255)" stroke-width="1" font-size="16" >H</text>
<text x="501.821288" y="52.571342" fill="rgb(30,239,30)"  stroke="rgb(30,239,30)" stroke-width="1" font-size="16" >Cl</text>
<text x="543.785450" y="181.737898" fill="rgb(30,239,30)"  stroke="rgb(30,239,30)" stroke-width="1" font-size="16" >Cl</text>
<text font-size="18.000000" fill ="white" font-family="sans-serif"
x="10.000000" y="20.000000" ></text>
<title> - OBDepict</title>
<cml:molecule>
 <cml:atomArray>
  <cml:atom id="a1" elementType="C" x2="-3.013400" y2="0.311600"/>
  <cml:atom id="a2" elementType="C" x2="-3.727900" y2="-0.100900"/>
  <cml:atom id="a3" elementType="C" x2="-3.727900" y2="-0.926000"/>
  <cml:atom id="a4" elementType="C" x2="-3.013400" y2="-1.338400"/>
  <cml:atom id="a5" elementType="C" x2="-2.298900" y2="-0.926000"/>
  <cml:atom id="a6" elementType="N" x2="-2.298900" y2="-0.100900"/>
  <cml:atom id="a7" elementType="C" x2="-4.442300" y2="-1.338500"/>
  <cml:atom id="a8" elementType="N" x2="-5.156800" y2="-0.926100"/>
  <cml:atom id="a9" elementType="O" x2="-4.442300" y2="-2.163500"/>
  <cml:atom id="a10" elementType="C" x2="-1.584400" y2="0.311600"/>
  <cml:atom id="a11" elementType="C" x2="-0.870000" y2="-0.100900"/>
  <cml:atom id="a12" elementType="C" x2="-0.155400" y2="0.311700"/>
  <cml:atom id="a13" elementType="C" x2="-0.155400" y2="1.136600"/>
  <cml:atom id="a14" elementType="C" x2="-0.869800" y2="1.549200"/>
  <cml:atom id="a15" elementType="C" x2="-1.584400" y2="1.136600"/>
  <cml:atom id="a16" elementType="F" x2="-2.298900" y2="1.549100"/>
  <cml:atom id="a17" elementType="N" x2="0.559100" y2="-0.101000"/>
  <cml:atom id="a18" elementType="C" x2="1.273500" y2="0.311600"/>
  <cml:atom id="a19" elementType="C" x2="1.273700" y2="1.136600"/>
  <cml:atom id="a20" elementType="C" x2="0.559100" y2="1.549100"/>
  <cml:atom id="a21" elementType="C" x2="0.559100" y2="-0.926000"/>
  <cml:atom id="a22" elementType="C" x2="-0.155400" y2="-1.338400"/>
  <cml:atom id="a23" elementType="C" x2="1.273600" y2="-1.338500"/>
  <cml:atom id="a24" elementType="O" x2="0.559200" y2="2.374100"/>
  <cml:atom id="a25" elementType="O" x2="2.098200" y2="2.299100"/>
  <cml:atom id="a26" elementType="C" x2="2.098200" y2="1.474100"/>
  <cml:atom id="a27" elementType="N" x2="2.783200" y2="1.014300"/>
  <cml:atom id="a28" elementType="C" x2="3.118800" y2="1.768000"/>
  <cml:atom id="a29" elementType="C" x2="3.731900" y2="1.216000"/>
  <cml:atom id="a30" elementType="C" x2="3.560400" y2="0.409100"/>
  <cml:atom id="a31" elementType="C" x2="4.173500" y2="-0.143000"/>
  <cml:atom id="a32" elementType="C" x2="4.958100" y2="0.111800"/>
  <cml:atom id="a33" elementType="C" x2="5.129700" y2="0.918800"/>
  <cml:atom id="a34" elementType="C" x2="4.516500" y2="1.470900"/>
  <cml:atom id="a35" elementType="Cl" x2="4.688100" y2="2.277900"/>
  <cml:atom id="a36" elementType="Cl" x2="5.571200" y2="-0.440300"/>
 </cml:atomArray>
 <cml:bondArray>
  <cml:bond atomRefs2="a1 a2" order="1"/>
  <cml:bond atomRefs2="a2 a3" order="1"/>
  <cml:bond atomRefs2="a3 a4" order="1"/>
  <cml:bond atomRefs2="a4 a5" order="1"/>
  <cml:bond atomRefs2="a1 a6" order="1"/>
  <cml:bond atomRefs2="a5 a6" order="1"/>
  <cml:bond atomRefs2="a3 a7" order="1"/>
  <cml:bond atomRefs2="a7 a9" order="2"/>
  <cml:bond atomRefs2="a7 a8" order="1"/>
  <cml:bond atomRefs2="a10 a11" order="2"/>
  <cml:bond atomRefs2="a11 a12" order="1"/>
  <cml:bond atomRefs2="a12 a13" order="2"/>
  <cml:bond atomRefs2="a13 a14" order="1"/>
  <cml:bond atomRefs2="a14 a15" order="2"/>
  <cml:bond atomRefs2="a15 a10" order="1"/>
  <cml:bond atomRefs2="a6 a10" order="1"/>
  <cml:bond atomRefs2="a15 a16" order="1"/>
  <cml:bond atomRefs2="a19 a20" order="1"/>
  <cml:bond atomRefs2="a13 a20" order="1"/>
  <cml:bond atomRefs2="a17 a18" order="1"/>
  <cml:bond atomRefs2="a12 a17" order="1"/>
  <cml:bond atomRefs2="a17 a21" order="1"/>
  <cml:bond atomRefs2="a21 a22" order="1"/>
  <cml:bond atomRefs2="a21 a23" order="1"/>
  <cml:bond atomRefs2="a22 a23" order="1"/>
  <cml:bond atomRefs2="a19 a18" order="2"/>
  <cml:bond atomRefs2="a20 a24" order="2"/>
  <cml:bond atomRefs2="a25 a26" order="2"/>
  <cml:bond atomRefs2="a26 a19" order="1"/>
  <cml:bond atomRefs2="a26 a27" order="1"/>
  <cml:bond atomRefs2="a27 a28" order="1"/>
  <cml:bond atomRefs2="a28 a29" order="1"/>
  <cml:bond atomRefs2="a30 a31" order="1"/>
  <cml:bond atomRefs2="a31 a32" order="2"/>
  <cml:bond atomRefs2="a32 a33" order="1"/>
  <cml:bond atomRefs2="a33 a34" order="2"/>
  <cml:bond atomRefs2="a29 a30" order="2"/>
  <cml:bond atomRefs2="a34 a29" order="1"/>
  <cml:bond atomRefs2="a32 a36" order="1"/>
  <cml:bond atomRefs2="a34 a35" order="1"/>
 </cml:bondArray>
</cml:molecule>
</svg>
