<?xml version="1.0"?>
<svg xmlns="http://www.w3.org/2000/svg"
xmlns:xlink="http://www.w3.org/1999/xlink" xmlns:cml="http://www.xml-cml.org/schema" width="535.155" height="649.997" x="0" y="0" font-family="sans-serif" stroke="rgb(255,255,255)" stroke-width="1"  stroke-linecap="round">
<rect x="0%" y="0%" width="100%" height="100%" stroke-width="0" fill="rgb(0,0,0)"  />
<line x1="356.1" y1="486.3" x2="389.4" y2="475.5" stroke="rgb(255,255,255)"  stroke-width="1.0"/>
<line x1="358.0" y1="492.0" x2="391.2" y2="481.2" stroke="rgb(255,255,255)"  stroke-width="1.0"/>
<line x1="292.3" y1="277.4" x2="320.5" y2="316.2" stroke="rgb(255,255,255)"  stroke-width="1.0"/>
<line x1="397.5" y1="422.2" x2="376.9" y2="393.9" stroke="rgb(255,255,255)"  stroke-width="1.0"/>
<line x1="303.1" y1="150.9" x2="283.6" y2="194.7" stroke="rgb(255,255,255)"  stroke-width="1.0"/>
<line x1="136.7" y1="187.4" x2="157.2" y2="159.1" stroke="rgb(255,255,255)"  stroke-width="1.0"/>
<line x1="141.5" y1="191.0" x2="162.1" y2="162.7" stroke="rgb(255,255,255)"  stroke-width="1.0"/>
<line x1="215.3" y1="171.4" x2="235.9" y2="199.7" stroke="rgb(255,255,255)"  stroke-width="1.0"/>
<line x1="221.6" y1="112.4" x2="254.9" y2="101.6" stroke="rgb(255,255,255)"  stroke-width="1.0"/>
<line x1="223.4" y1="118.1" x2="256.7" y2="107.3" stroke="rgb(255,255,255)"  stroke-width="1.0"/>
<line x1="396.5" y1="350.0" x2="444.2" y2="345.0" stroke="rgb(255,255,255)"  stroke-width="1.0"/>
<line x1="450.7" y1="430.9" x2="471.3" y2="402.6" stroke="rgb(255,255,255)"  stroke-width="1.0"/>
<line x1="455.6" y1="434.5" x2="476.1" y2="406.1" stroke="rgb(255,255,255)"  stroke-width="1.0"/>
<line x1="468.0" y1="478.3" x2="476.3" y2="492.8" stroke="rgb(255,255,255)"  stroke-width="1.0"/>
<line x1="468.0" y1="478.3" x2="483.3" y2="471.5" stroke="rgb(255,255,255)"  stroke-width="1.0"/>
<line x1="368.2" y1="311.2" x2="375.1" y2="295.9" stroke="rgb(255,255,255)"  stroke-width="1.0"/>
<line x1="303.1" y1="150.9" x2="318.4" y2="157.7" stroke="rgb(255,255,255)"  stroke-width="1.0"/>
<line x1="303.1" y1="150.9" x2="309.9" y2="135.5" stroke="rgb(255,255,255)"  stroke-width="1.0"/>
<line x1="303.1" y1="150.9" x2="287.8" y2="144.0" stroke="rgb(255,255,255)"  stroke-width="1.0"/>
<line x1="311.8" y1="233.5" x2="328.5" y2="231.8" stroke="rgb(255,255,255)"  stroke-width="1.0"/>
<line x1="130.0" y1="69.6" x2="146.4" y2="66.1" stroke="rgb(255,255,255)"  stroke-width="1.0"/>
<line x1="130.0" y1="69.6" x2="128.3" y2="52.9" stroke="rgb(255,255,255)"  stroke-width="1.0"/>
<line x1="82.0" y1="69.6" x2="83.8" y2="52.9" stroke="rgb(255,255,255)"  stroke-width="1.0"/>
<line x1="82.0" y1="69.6" x2="65.6" y2="66.1" stroke="rgb(255,255,255)"  stroke-width="1.0"/>
<line x1="67.2" y1="115.2" x2="51.9" y2="108.4" stroke="rgb(255,255,255)"  stroke-width="1.0"/>
<line x1="67.2" y1="115.2" x2="58.8" y2="129.8" stroke="rgb(255,255,255)"  stroke-width="1.0"/>
<line x1="106.0" y1="143.5" x2="94.8" y2="155.9" stroke="rgb(255,255,255)"  stroke-width="1.0"/>
<line x1="106.0" y1="143.5" x2="117.2" y2="155.9" stroke="rgb(255,255,255)"  stroke-width="1.0"/>
<line x1="183.7" y1="87.0" x2="194.9" y2="74.6" stroke="rgb(255,255,255)"  stroke-width="1.0"/>
<line x1="183.7" y1="87.0" x2="172.5" y2="74.6" stroke="rgb(255,255,255)"  stroke-width="1.0"/>
<line x1="216.4" y1="243.6" x2="199.7" y2="245.3" stroke="rgb(255,255,255)"  stroke-width="1.0"/>
<line x1="244.6" y1="282.4" x2="237.8" y2="297.7" stroke="rgb(255,255,255)"  stroke-width="1.0"/>
<line x1="301.0" y1="360.0" x2="284.3" y2="361.8" stroke="rgb(255,255,255)"  stroke-width="1.0"/>
<line x1="329.2" y1="398.9" x2="322.4" y2="414.2" stroke="rgb(255,255,255)"  stroke-width="1.0"/>
<line x1="444.2" y1="345.0" x2="445.9" y2="361.7" stroke="rgb(255,255,255)"  stroke-width="1.0"/>
<line x1="444.2" y1="345.0" x2="460.8" y2="343.2" stroke="rgb(255,255,255)"  stroke-width="1.0"/>
<line x1="444.2" y1="345.0" x2="442.4" y2="328.3" stroke="rgb(255,255,255)"  stroke-width="1.0"/>
<line x1="468.0" y1="534.8" x2="483.3" y2="541.6" stroke="rgb(255,255,255)"  stroke-width="1.0"/>
<line x1="468.0" y1="534.8" x2="476.3" y2="520.2" stroke="rgb(255,255,255)"  stroke-width="1.0"/>
<line x1="453.1" y1="580.4" x2="451.4" y2="597.1" stroke="rgb(255,255,255)"  stroke-width="1.0"/>
<line x1="453.1" y1="580.4" x2="469.5" y2="583.9" stroke="rgb(255,255,255)"  stroke-width="1.0"/>
<line x1="405.1" y1="580.4" x2="388.8" y2="583.9" stroke="rgb(255,255,255)"  stroke-width="1.0"/>
<line x1="405.1" y1="580.4" x2="406.9" y2="597.1" stroke="rgb(255,255,255)"  stroke-width="1.0"/>
<line x1="390.3" y1="534.8" x2="381.9" y2="520.2" stroke="rgb(255,255,255)"  stroke-width="1.0"/>
<line x1="390.3" y1="534.8" x2="375.0" y2="541.6" stroke="rgb(255,255,255)"  stroke-width="1.0"/>
<line x1="390.3" y1="478.3" x2="429.1" y2="506.5" stroke="rgb(255,255,255)"  stroke-width="1.0"/>
<line x1="429.1" y1="506.5" x2="468.0" y2="478.3" stroke="rgb(255,255,255)"  stroke-width="1.0"/>
<line x1="468.0" y1="478.3" x2="453.1" y2="432.7" stroke="rgb(255,255,255)"  stroke-width="1.0"/>
<line x1="453.1" y1="432.7" x2="418.1" y2="432.7" stroke="rgb(255,255,255)"  stroke-width="1.0"/>
<line x1="401.1" y1="445.1" x2="390.3" y2="478.3" stroke="rgb(255,255,255)"  stroke-width="1.0"/>
<line x1="144.8" y1="115.2" x2="130.0" y2="69.6" stroke="rgb(255,255,255)"  stroke-width="1.0"/>
<line x1="130.0" y1="69.6" x2="82.0" y2="69.6" stroke="rgb(255,255,255)"  stroke-width="1.0"/>
<line x1="82.0" y1="69.6" x2="67.2" y2="115.2" stroke="rgb(255,255,255)"  stroke-width="1.0"/>
<line x1="67.2" y1="115.2" x2="106.0" y2="143.5" stroke="rgb(255,255,255)"  stroke-width="1.0"/>
<line x1="106.0" y1="143.5" x2="144.8" y2="115.2" stroke="rgb(255,255,255)"  stroke-width="1.0"/>
<line x1="159.7" y1="160.9" x2="144.8" y2="115.2" stroke="rgb(255,255,255)"  stroke-width="1.0"/>
<line x1="144.8" y1="115.2" x2="183.7" y2="87.0" stroke="rgb(255,255,255)"  stroke-width="1.0"/>
<line x1="183.7" y1="87.0" x2="222.5" y2="115.2" stroke="rgb(255,255,255)"  stroke-width="1.0"/>
<line x1="222.5" y1="115.2" x2="211.7" y2="148.5" stroke="rgb(255,255,255)"  stroke-width="1.0"/>
<line x1="194.7" y1="160.9" x2="159.7" y2="160.9" stroke="rgb(255,255,255)"  stroke-width="1.0"/>
<line x1="429.1" y1="506.5" x2="468.0" y2="534.8" stroke="rgb(255,255,255)"  stroke-width="1.0"/>
<line x1="468.0" y1="534.8" x2="453.1" y2="580.4" stroke="rgb(255,255,255)"  stroke-width="1.0"/>
<line x1="453.1" y1="580.4" x2="405.1" y2="580.4" stroke="rgb(255,255,255)"  stroke-width="1.0"/>
<line x1="405.1" y1="580.4" x2="390.3" y2="534.8" stroke="rgb(255,255,255)"  stroke-width="1.0"/>
<line x1="390.3" y1="534.8" x2="429.1" y2="506.5" stroke="rgb(255,255,255)"  stroke-width="1.0"/>
<line x1="292.3" y1="277.4" x2="311.8" y2="233.5" stroke="rgb(255,255,255)"  stroke-width="1.0"/>
<line x1="311.8" y1="233.5" x2="283.6" y2="194.7" stroke="rgb(255,255,255)"  stroke-width="1.0"/>
<line x1="302.5" y1="232.9" x2="281.3" y2="203.8" stroke="rgb(255,255,255)"  stroke-width="1.0"/>
<line x1="283.6" y1="194.7" x2="235.9" y2="199.7" stroke="rgb(255,255,255)"  stroke-width="1.0"/>
<line x1="235.9" y1="199.7" x2="216.4" y2="243.6" stroke="rgb(255,255,255)"  stroke-width="1.0"/>
<line x1="240.0" y1="208.1" x2="225.4" y2="241.0" stroke="rgb(255,255,255)"  stroke-width="1.0"/>
<line x1="216.4" y1="243.6" x2="244.6" y2="282.4" stroke="rgb(255,255,255)"  stroke-width="1.0"/>
<line x1="244.6" y1="282.4" x2="292.3" y2="277.4" stroke="rgb(255,255,255)"  stroke-width="1.0"/>
<line x1="249.8" y1="274.6" x2="285.6" y2="270.8" stroke="rgb(255,255,255)"  stroke-width="1.0"/>
<line x1="368.2" y1="311.2" x2="320.5" y2="316.2" stroke="rgb(255,255,255)"  stroke-width="1.0"/>
<line x1="363.0" y1="319.0" x2="327.2" y2="322.7" stroke="rgb(255,255,255)"  stroke-width="1.0"/>
<line x1="320.5" y1="316.2" x2="301.0" y2="360.0" stroke="rgb(255,255,255)"  stroke-width="1.0"/>
<line x1="301.0" y1="360.0" x2="329.2" y2="398.9" stroke="rgb(255,255,255)"  stroke-width="1.0"/>
<line x1="310.3" y1="360.7" x2="331.5" y2="389.8" stroke="rgb(255,255,255)"  stroke-width="1.0"/>
<line x1="329.2" y1="398.9" x2="376.9" y2="393.9" stroke="rgb(255,255,255)"  stroke-width="1.0"/>
<line x1="376.9" y1="393.9" x2="396.5" y2="350.0" stroke="rgb(255,255,255)"  stroke-width="1.0"/>
<line x1="372.8" y1="385.5" x2="387.4" y2="352.6" stroke="rgb(255,255,255)"  stroke-width="1.0"/>
<line x1="396.5" y1="350.0" x2="368.2" y2="311.2" stroke="rgb(255,255,255)"  stroke-width="1.0"/>
<text x="338.666645" y="501.162778" fill="rgb(255,12,12)"  stroke="rgb(255,12,12)" stroke-width="1" font-size="16" >O</text>
<text x="399.140183" y="440.689240" fill="rgb(12,12,255)"  stroke="rgb(12,12,255)" stroke-width="1" font-size="16" >N</text>
<text x="125.463827" y="207.717334" fill="rgb(255,12,12)"  stroke="rgb(255,12,12)" stroke-width="1" font-size="16" >O</text>
<text x="201.670084" y="168.889483" fill="rgb(12,12,255)"  stroke="rgb(12,12,255)" stroke-width="1" font-size="16" >N</text>
<text x="262.143622" y="108.411145" fill="rgb(255,12,12)"  stroke="rgb(255,12,12)" stroke-width="1" font-size="16" >O</text>
<text x="475.346441" y="401.861389" fill="rgb(255,12,12)"  stroke="rgb(255,12,12)" stroke-width="1" font-size="16" >O</text>
<text x="476.848680" y="512.105609" fill="rgb(191,191,191)"  stroke="rgb(191,191,191)" stroke-width="1" font-size="16" >H</text>
<text x="489.154565" y="474.232855" fill="rgb(191,191,191)"  stroke="rgb(191,191,191)" stroke-width="1" font-size="16" >H</text>
<text x="374.346033" y="292.001128" fill="rgb(191,191,191)"  stroke="rgb(191,191,191)" stroke-width="1" font-size="16" >H</text>
<text x="324.316179" y="170.958061" fill="rgb(191,191,191)"  stroke="rgb(191,191,191)" stroke-width="1" font-size="16" >H</text>
<text x="309.236190" y="131.669460" fill="rgb(191,191,191)"  stroke="rgb(191,191,191)" stroke-width="1" font-size="16" >H</text>
<text x="269.947588" y="146.749448" fill="rgb(191,191,191)"  stroke="rgb(191,191,191)" stroke-width="1" font-size="16" >H</text>
<text x="335.412593" y="238.419653" fill="rgb(191,191,191)"  stroke="rgb(191,191,191)" stroke-width="1" font-size="16" >H</text>
<text x="153.118472" y="71.407099" fill="rgb(191,191,191)"  stroke="rgb(191,191,191)" stroke-width="1" font-size="16" >H</text>
<text x="120.899514" y="48.000000" fill="rgb(191,191,191)"  stroke="rgb(191,191,191)" stroke-width="1" font-size="16" >H</text>
<text x="79.124778" y="48.000000" fill="rgb(191,191,191)"  stroke="rgb(191,191,191)" stroke-width="1" font-size="16" >H</text>
<text x="46.910620" y="71.407099" fill="rgb(191,191,191)"  stroke="rgb(191,191,191)" stroke-width="1" font-size="16" >H</text>
<text x="34.000000" y="111.137254" fill="rgb(191,191,191)"  stroke="rgb(191,191,191)" stroke-width="1" font-size="16" >H</text>
<text x="46.305885" y="149.010007" fill="rgb(191,191,191)"  stroke="rgb(191,191,191)" stroke-width="1" font-size="16" >H</text>
<text x="80.103874" y="173.564183" fill="rgb(191,191,191)"  stroke="rgb(191,191,191)" stroke-width="1" font-size="16" >H</text>
<text x="119.925219" y="173.564183" fill="rgb(191,191,191)"  stroke="rgb(191,191,191)" stroke-width="1" font-size="16" >H</text>
<text x="197.580921" y="72.918937" fill="rgb(191,191,191)"  stroke="rgb(191,191,191)" stroke-width="1" font-size="16" >H</text>
<text x="157.759576" y="72.918937" fill="rgb(191,191,191)"  stroke="rgb(191,191,191)" stroke-width="1" font-size="16" >H</text>
<text x="180.763518" y="254.670716" fill="rgb(191,191,191)"  stroke="rgb(191,191,191)" stroke-width="1" font-size="16" >H</text>
<text x="226.464234" y="317.572795" fill="rgb(191,191,191)"  stroke="rgb(191,191,191)" stroke-width="1" font-size="16" >H</text>
<text x="265.397674" y="371.159069" fill="rgb(191,191,191)"  stroke="rgb(191,191,191)" stroke-width="1" font-size="16" >H</text>
<text x="311.098391" y="434.061148" fill="rgb(191,191,191)"  stroke="rgb(191,191,191)" stroke-width="1" font-size="16" >H</text>
<text x="441.294079" y="382.591448" fill="rgb(191,191,191)"  stroke="rgb(191,191,191)" stroke-width="1" font-size="16" >H</text>
<text x="467.777649" y="349.887742" fill="rgb(191,191,191)"  stroke="rgb(191,191,191)" stroke-width="1" font-size="16" >H</text>
<text x="435.073944" y="323.404172" fill="rgb(191,191,191)"  stroke="rgb(191,191,191)" stroke-width="1" font-size="16" >H</text>
<text x="489.154565" y="554.859440" fill="rgb(191,191,191)"  stroke="rgb(191,191,191)" stroke-width="1" font-size="16" >H</text>
<text x="476.848680" y="516.986687" fill="rgb(191,191,191)"  stroke="rgb(191,191,191)" stroke-width="1" font-size="16" >H</text>
<text x="444.024987" y="617.996694" fill="rgb(191,191,191)"  stroke="rgb(191,191,191)" stroke-width="1" font-size="16" >H</text>
<text x="476.243945" y="594.589595" fill="rgb(191,191,191)"  stroke="rgb(191,191,191)" stroke-width="1" font-size="16" >H</text>
<text x="370.036093" y="594.589595" fill="rgb(191,191,191)"  stroke="rgb(191,191,191)" stroke-width="1" font-size="16" >H</text>
<text x="402.255051" y="617.996694" fill="rgb(191,191,191)"  stroke="rgb(191,191,191)" stroke-width="1" font-size="16" >H</text>
<text x="369.431358" y="516.986687" fill="rgb(191,191,191)"  stroke="rgb(191,191,191)" stroke-width="1" font-size="16" >H</text>
<text x="357.125473" y="554.859440" fill="rgb(191,191,191)"  stroke="rgb(191,191,191)" stroke-width="1" font-size="16" >H</text>
<text font-size="18.000000" fill ="white" font-family="sans-serif"
x="10.000000" y="20.000000" >NSC308835 2-(4'-(1,3-dioxo-2-azaspiro[4.4]non-2-yl)-3,3'-dimethyl[1,1'-biphenyl]</text>
<title>NSC308835 2-(4'-(1,3-dioxo-2-azaspiro[4.4]non-2-yl)-3,3'-dimethyl[1,1'-biphenyl] - OBDepict</title>
<cml:molecule id="NSC308835 2-(4'-(1,3-dioxo-2-azaspiro[4.4]non-2-yl)-3,3'-dimethyl[1,1'-biphenyl]">
 <cml:atomArray>
  <cml:atom id="a1" elementType="O" x2="7.781500" y2="-3.503800"/>
  <cml:atom id="a2" elementType="C" x2="8.732500" y2="-3.194800"/>
  <cml:atom id="a3" elementType="C" x2="9.541500" y2="-3.782600"/>
  <cml:atom id="a4" elementType="C" x2="10.350600" y2="-3.194800"/>
  <cml:atom id="a5" elementType="C" x2="10.041500" y2="-2.243800"/>
  <cml:atom id="a6" elementType="N" x2="9.041500" y2="-2.243800"/>
  <cml:atom id="a7" elementType="C" x2="6.690400" y2="0.992300"/>
  <cml:atom id="a8" elementType="C" x2="7.278200" y2="0.183300"/>
  <cml:atom id="a9" elementType="C" x2="8.272700" y2="0.287800"/>
  <cml:atom id="a10" elementType="C" x2="8.860500" y2="-0.521200"/>
  <cml:atom id="a11" elementType="C" x2="8.453800" y2="-1.434800"/>
  <cml:atom id="a12" elementType="C" x2="6.916100" y2="3.628400"/>
  <cml:atom id="a13" elementType="C" x2="6.509400" y2="2.714900"/>
  <cml:atom id="a14" elementType="C" x2="7.097100" y2="1.905800"/>
  <cml:atom id="a15" elementType="O" x2="3.339300" y2="2.610300"/>
  <cml:atom id="a16" elementType="C" x2="3.927100" y2="3.419300"/>
  <cml:atom id="a17" elementType="N" x2="4.927100" y2="3.419300"/>
  <cml:atom id="a18" elementType="C" x2="5.514800" y2="2.610300"/>
  <cml:atom id="a19" elementType="C" x2="3.618000" y2="4.370400"/>
  <cml:atom id="a20" elementType="C" x2="3.309000" y2="5.321500"/>
  <cml:atom id="a21" elementType="C" x2="2.309000" y2="5.321500"/>
  <cml:atom id="a22" elementType="C" x2="2.000000" y2="4.370400"/>
  <cml:atom id="a23" elementType="C" x2="2.809000" y2="3.782600"/>
  <cml:atom id="a24" elementType="C" x2="4.427100" y2="4.958200"/>
  <cml:atom id="a25" elementType="C" x2="5.236100" y2="4.370400"/>
  <cml:atom id="a26" elementType="O" x2="6.187100" y2="4.679400"/>
  <cml:atom id="a27" elementType="C" x2="5.108100" y2="1.696800"/>
  <cml:atom id="a28" elementType="C" x2="5.695900" y2="0.887800"/>
  <cml:atom id="a29" elementType="C" x2="6.871500" y2="-0.730300"/>
  <cml:atom id="a30" elementType="C" x2="7.459200" y2="-1.539300"/>
  <cml:atom id="a31" elementType="C" x2="9.855000" y2="-0.416700"/>
  <cml:atom id="a32" elementType="O" x2="10.629300" y2="-1.434800"/>
  <cml:atom id="a33" elementType="C" x2="10.350600" y2="-4.370400"/>
  <cml:atom id="a34" elementType="C" x2="10.041500" y2="-5.321500"/>
  <cml:atom id="a35" elementType="C" x2="9.041500" y2="-5.321500"/>
  <cml:atom id="a36" elementType="C" x2="8.732500" y2="-4.370400"/>
  <cml:atom id="a37" elementType="H" x2="10.660600" y2="-3.731800"/>
  <cml:atom id="a38" elementType="H" x2="10.917000" y2="-2.942700"/>
  <cml:atom id="a39" elementType="H" x2="8.524900" y2="0.854200"/>
  <cml:atom id="a40" elementType="H" x2="7.482500" y2="3.376200"/>
  <cml:atom id="a41" elementType="H" x2="7.168300" y2="4.194800"/>
  <cml:atom id="a42" elementType="H" x2="6.349700" y2="3.880600"/>
  <cml:atom id="a43" elementType="H" x2="7.713700" y2="1.970600"/>
  <cml:atom id="a44" elementType="H" x2="3.915500" y2="5.450400"/>
  <cml:atom id="a45" elementType="H" x2="3.244200" y2="5.938100"/>
  <cml:atom id="a46" elementType="H" x2="2.373800" y2="5.938100"/>
  <cml:atom id="a47" elementType="H" x2="1.702600" y2="5.450400"/>
  <cml:atom id="a48" elementType="H" x2="1.433600" y2="4.622600"/>
  <cml:atom id="a49" elementType="H" x2="1.690000" y2="3.833500"/>
  <cml:atom id="a50" elementType="H" x2="2.394200" y2="3.321900"/>
  <cml:atom id="a51" elementType="H" x2="3.223900" y2="3.321900"/>
  <cml:atom id="a52" elementType="H" x2="4.841900" y2="5.418900"/>
  <cml:atom id="a53" elementType="H" x2="4.012200" y2="5.418900"/>
  <cml:atom id="a54" elementType="H" x2="4.491500" y2="1.632000"/>
  <cml:atom id="a55" elementType="H" x2="5.443700" y2="0.321400"/>
  <cml:atom id="a56" elementType="H" x2="6.254900" y2="-0.795100"/>
  <cml:atom id="a57" elementType="H" x2="7.207100" y2="-2.105700"/>
  <cml:atom id="a58" elementType="H" x2="9.919800" y2="-1.033300"/>
  <cml:atom id="a59" elementType="H" x2="10.471600" y2="-0.351900"/>
  <cml:atom id="a60" elementType="H" x2="9.790200" y2="0.199900"/>
  <cml:atom id="a61" elementType="H" x2="10.917000" y2="-4.622600"/>
  <cml:atom id="a62" elementType="H" x2="10.660600" y2="-3.833500"/>
  <cml:atom id="a63" elementType="H" x2="9.976700" y2="-5.938100"/>
  <cml:atom id="a64" elementType="H" x2="10.648000" y2="-5.450400"/>
  <cml:atom id="a65" elementType="H" x2="8.435100" y2="-5.450400"/>
  <cml:atom id="a66" elementType="H" x2="9.106400" y2="-5.938100"/>
  <cml:atom id="a67" elementType="H" x2="8.422500" y2="-3.833500"/>
  <cml:atom id="a68" elementType="H" x2="8.166100" y2="-4.622600"/>
 </cml:atomArray>
 <cml:bondArray>
  <cml:bond atomRefs2="a1 a2" order="2"/>
  <cml:bond atomRefs2="a2 a3" order="1"/>
  <cml:bond atomRefs2="a3 a4" order="1"/>
  <cml:bond atomRefs2="a4 a5" order="1"/>
  <cml:bond atomRefs2="a5 a6" order="1"/>
  <cml:bond atomRefs2="a2 a6" order="1"/>
  <cml:bond atomRefs2="a7 a8" order="1"/>
  <cml:bond atomRefs2="a8 a9" order="2"/>
  <cml:bond atomRefs2="a9 a10" order="1"/>
  <cml:bond atomRefs2="a10 a11" order="2"/>
  <cml:bond atomRefs2="a6 a11" order="1"/>
  <cml:bond atomRefs2="a12 a13" order="1"/>
  <cml:bond atomRefs2="a13 a14" order="2"/>
  <cml:bond atomRefs2="a7 a14" order="1"/>
  <cml:bond atomRefs2="a15 a16" order="2"/>
  <cml:bond atomRefs2="a16 a17" order="1"/>
  <cml:bond atomRefs2="a17 a18" order="1"/>
  <cml:bond atomRefs2="a13 a18" order="1"/>
  <cml:bond atomRefs2="a16 a19" order="1"/>
  <cml:bond atomRefs2="a19 a20" order="1"/>
  <cml:bond atomRefs2="a20 a21" order="1"/>
  <cml:bond atomRefs2="a21 a22" order="1"/>
  <cml:bond atomRefs2="a22 a23" order="1"/>
  <cml:bond atomRefs2="a19 a23" order="1"/>
  <cml:bond atomRefs2="a19 a24" order="1"/>
  <cml:bond atomRefs2="a24 a25" order="1"/>
  <cml:bond atomRefs2="a17 a25" order="1"/>
  <cml:bond atomRefs2="a25 a26" order="2"/>
  <cml:bond atomRefs2="a18 a27" order="2"/>
  <cml:bond atomRefs2="a27 a28" order="1"/>
  <cml:bond atomRefs2="a7 a28" order="2"/>
  <cml:bond atomRefs2="a8 a29" order="1"/>
  <cml:bond atomRefs2="a29 a30" order="2"/>
  <cml:bond atomRefs2="a11 a30" order="1"/>
  <cml:bond atomRefs2="a10 a31" order="1"/>
  <cml:bond atomRefs2="a5 a32" order="2"/>
  <cml:bond atomRefs2="a3 a33" order="1"/>
  <cml:bond atomRefs2="a33 a34" order="1"/>
  <cml:bond atomRefs2="a34 a35" order="1"/>
  <cml:bond atomRefs2="a35 a36" order="1"/>
  <cml:bond atomRefs2="a3 a36" order="1"/>
  <cml:bond atomRefs2="a4 a37" order="1"/>
  <cml:bond atomRefs2="a4 a38" order="1"/>
  <cml:bond atomRefs2="a9 a39" order="1"/>
  <cml:bond atomRefs2="a12 a40" order="1"/>
  <cml:bond atomRefs2="a12 a41" order="1"/>
  <cml:bond atomRefs2="a12 a42" order="1"/>
  <cml:bond atomRefs2="a14 a43" order="1"/>
  <cml:bond atomRefs2="a20 a44" order="1"/>
  <cml:bond atomRefs2="a20 a45" order="1"/>
  <cml:bond atomRefs2="a21 a46" order="1"/>
  <cml:bond atomRefs2="a21 a47" order="1"/>
  <cml:bond atomRefs2="a22 a48" order="1"/>
  <cml:bond atomRefs2="a22 a49" order="1"/>
  <cml:bond atomRefs2="a23 a50" order="1"/>
  <cml:bond atomRefs2="a23 a51" order="1"/>
  <cml:bond atomRefs2="a24 a52" order="1"/>
  <cml:bond atomRefs2="a24 a53" order="1"/>
  <cml:bond atomRefs2="a27 a54" order="1"/>
  <cml:bond atomRefs2="a28 a55" order="1"/>
  <cml:bond atomRefs2="a29 a56" order="1"/>
  <cml:bond atomRefs2="a30 a57" order="1"/>
  <cml:bond atomRefs2="a31 a58" order="1"/>
  <cml:bond atomRefs2="a31 a59" order="1"/>
  <cml:bond atomRefs2="a31 a60" order="1"/>
  <cml:bond atomRefs2="a33 a61" order="1"/>
  <cml:bond atomRefs2="a33 a62" order="1"/>
  <cml:bond atomRefs2="a34 a63" order="1"/>
  <cml:bond atomRefs2="a34 a64" order="1"/>
  <cml:bond atomRefs2="a35 a65" order="1"/>
  <cml:bond atomRefs2="a35 a66" order="1"/>
  <cml:bond atomRefs2="a36 a67" order="1"/>
  <cml:bond atomRefs2="a36 a68" order="1"/>
 </cml:bondArray>
 <cml:propertyList>
  <cml:property title="E_NSC">
   <cml:scalar>308835</cml:scalar>
  </cml:property>
  <cml:property title="E_CAS">
   <cml:scalar>78045-48-4</cml:scalar>
  </cml:property>
  <cml:property title="E_SMILES">
   <cml:scalar>CC1=CC(=CC=C1N2C(=O)CC3(CCCC3)C2=O)C4=CC(=C(C=C4)N5C(=O)CC6(CCCC6)C5=O)C</cml:scalar>
  </cml:property>
 </cml:propertyList>
</cml:molecule>
</svg>
