<?xml version="1.0"?>
<svg xmlns="http://www.w3.org/2000/svg"
xmlns:xlink="http://www.w3.org/1999/xlink" xmlns:cml="http://www.xml-cml.org/schema" width="393.608" height="441.48" x="0" y="0" font-family="sans-serif" stroke="rgb(255,255,255)" stroke-width="1"  stroke-linecap="round">
<rect x="0%" y="0%" width="100%" height="100%" stroke-width="0" fill="rgb(0,0,0)"  />
<line x1="127.9" y1="348.2" x2="104.7" y2="361.7" stroke="rgb(255,255,255)"  stroke-width="1.0"/>
<line x1="104.7" y1="361.7" x2="104.7" y2="401.5" stroke="rgb(255,255,255)"  stroke-width="1.0"/>
<line x1="173.6" y1="401.5" x2="173.6" y2="361.7" stroke="rgb(255,255,255)"  stroke-width="1.0"/>
<line x1="150.4" y1="348.2" x2="173.6" y2="361.7" stroke="rgb(255,255,255)"  stroke-width="1.0"/>
<line x1="319.1" y1="40.0" x2="284.6" y2="59.9" stroke="rgb(255,255,255)"  stroke-width="1.0"/>
<line x1="284.6" y1="59.9" x2="284.6" y2="86.7" stroke="rgb(255,255,255)"  stroke-width="1.0"/>
<line x1="295.9" y1="106.2" x2="319.1" y2="119.7" stroke="rgb(255,255,255)"  stroke-width="1.0"/>
<line x1="319.1" y1="119.7" x2="353.6" y2="99.7" stroke="rgb(255,255,255)"  stroke-width="1.0"/>
<line x1="242.3" y1="117.6" x2="271.7" y2="102.9" stroke="rgb(255,255,255)"  stroke-width="1.0"/>
<line x1="245.0" y1="122.9" x2="274.3" y2="108.3" stroke="rgb(255,255,255)"  stroke-width="1.0"/>
<line x1="137.0" y1="294.2" x2="138.6" y2="328.7" stroke="rgb(255,255,255)"  stroke-width="1.0"/>
<line x1="109.0" y1="162.2" x2="142.4" y2="183.9" stroke="rgb(255,255,255)"  stroke-width="1.0"/>
<line x1="142.4" y1="183.9" x2="137.0" y2="214.6" stroke="rgb(255,255,255)"  stroke-width="1.0"/>
<line x1="140.6" y1="181.5" x2="172.9" y2="157.7" stroke="rgb(255,255,255)"  stroke-width="1.0"/>
<line x1="144.2" y1="186.4" x2="176.5" y2="162.5" stroke="rgb(255,255,255)"  stroke-width="1.0"/>
<line x1="74.5" y1="102.5" x2="40.0" y2="122.4" stroke="rgb(255,255,255)"  stroke-width="1.0"/>
<line x1="40.0" y1="122.4" x2="40.0" y2="162.2" stroke="rgb(255,255,255)"  stroke-width="1.0"/>
<line x1="47.2" y1="128.4" x2="47.2" y2="156.2" stroke="rgb(255,255,255)"  stroke-width="1.0"/>
<line x1="40.0" y1="162.2" x2="74.5" y2="182.2" stroke="rgb(255,255,255)"  stroke-width="1.0"/>
<line x1="74.5" y1="182.2" x2="109.0" y2="162.2" stroke="rgb(255,255,255)"  stroke-width="1.0"/>
<line x1="76.1" y1="172.9" x2="100.2" y2="159.0" stroke="rgb(255,255,255)"  stroke-width="1.0"/>
<line x1="109.0" y1="162.2" x2="109.0" y2="122.4" stroke="rgb(255,255,255)"  stroke-width="1.0"/>
<line x1="109.0" y1="122.4" x2="74.5" y2="102.5" stroke="rgb(255,255,255)"  stroke-width="1.0"/>
<line x1="100.2" y1="125.7" x2="76.1" y2="111.7" stroke="rgb(255,255,255)"  stroke-width="1.0"/>
<line x1="209.2" y1="100.3" x2="174.7" y2="120.3" stroke="rgb(255,255,255)"  stroke-width="1.0"/>
<line x1="207.6" y1="109.6" x2="183.5" y2="123.5" stroke="rgb(255,255,255)"  stroke-width="1.0"/>
<line x1="174.7" y1="120.3" x2="174.7" y2="160.1" stroke="rgb(255,255,255)"  stroke-width="1.0"/>
<line x1="174.7" y1="160.1" x2="209.2" y2="180.0" stroke="rgb(255,255,255)"  stroke-width="1.0"/>
<line x1="209.2" y1="180.0" x2="243.7" y2="160.1" stroke="rgb(255,255,255)"  stroke-width="1.0"/>
<line x1="210.8" y1="170.8" x2="234.9" y2="156.9" stroke="rgb(255,255,255)"  stroke-width="1.0"/>
<line x1="243.7" y1="160.1" x2="243.7" y2="120.3" stroke="rgb(255,255,255)"  stroke-width="1.0"/>
<line x1="243.7" y1="120.3" x2="209.2" y2="100.3" stroke="rgb(255,255,255)"  stroke-width="1.0"/>
<line x1="137.0" y1="214.6" x2="102.5" y2="234.5" stroke="rgb(255,255,255)"  stroke-width="1.0"/>
<line x1="102.5" y1="234.5" x2="102.5" y2="274.3" stroke="rgb(255,255,255)"  stroke-width="1.0"/>
<line x1="109.7" y1="240.5" x2="109.7" y2="268.3" stroke="rgb(255,255,255)"  stroke-width="1.0"/>
<line x1="102.5" y1="274.3" x2="137.0" y2="294.2" stroke="rgb(255,255,255)"  stroke-width="1.0"/>
<line x1="137.0" y1="294.2" x2="171.5" y2="274.3" stroke="rgb(255,255,255)"  stroke-width="1.0"/>
<line x1="138.6" y1="285.0" x2="162.7" y2="271.1" stroke="rgb(255,255,255)"  stroke-width="1.0"/>
<line x1="171.5" y1="274.3" x2="171.5" y2="234.5" stroke="rgb(255,255,255)"  stroke-width="1.0"/>
<line x1="171.5" y1="234.5" x2="137.0" y2="214.6" stroke="rgb(255,255,255)"  stroke-width="1.0"/>
<line x1="162.7" y1="237.7" x2="138.6" y2="223.8" stroke="rgb(255,255,255)"  stroke-width="1.0"/>
<text x="133.148185" y="349.736456" fill="rgb(12,12,255)"  stroke="rgb(12,12,255)" stroke-width="1" font-size="16" >N</text>
<text x="289.423779" y="95.711818" fill="rgb(12,12,255)"  stroke="rgb(12,12,255)" stroke-width="1" font-size="16" >+</text>
<text x="278.623779" y="107.743818" fill="rgb(12,12,255)"  stroke="rgb(12,12,255)" stroke-width="1" font-size="16" >N</text>
<text font-size="18.000000" fill ="white" font-family="sans-serif"
x="10.000000" y="20.000000" ></text>
<title> - OBDepict</title>
<cml:molecule>
 <cml:atomArray>
  <cml:atom id="a1" elementType="C" x2="-3.683000" y2="3.659800"/>
  <cml:atom id="a2" elementType="C" x2="-4.397500" y2="3.247300"/>
  <cml:atom id="a3" elementType="C" x2="-4.397500" y2="2.422300"/>
  <cml:atom id="a4" elementType="C" x2="-3.683000" y2="2.009800"/>
  <cml:atom id="a5" elementType="C" x2="-2.968600" y2="2.422300"/>
  <cml:atom id="a6" elementType="C" x2="-2.968600" y2="3.247300"/>
  <cml:atom id="a7" elementType="C" x2="-0.892900" y2="3.704500"/>
  <cml:atom id="a8" elementType="C" x2="-1.607300" y2="3.292000"/>
  <cml:atom id="a9" elementType="C" x2="-1.607300" y2="2.467000"/>
  <cml:atom id="a10" elementType="C" x2="-0.892900" y2="2.054400"/>
  <cml:atom id="a11" elementType="C" x2="-0.178400" y2="2.467000"/>
  <cml:atom id="a12" elementType="C" x2="-0.178400" y2="3.292000"/>
  <cml:atom id="a13" elementType="C" x2="-2.388400" y2="1.338400"/>
  <cml:atom id="a14" elementType="C" x2="-3.102900" y2="0.925900"/>
  <cml:atom id="a15" elementType="C" x2="-3.102900" y2="0.100900"/>
  <cml:atom id="a16" elementType="C" x2="-2.388400" y2="-0.311600"/>
  <cml:atom id="a17" elementType="C" x2="-1.673900" y2="0.100900"/>
  <cml:atom id="a18" elementType="C" x2="-1.673900" y2="0.925900"/>
  <cml:atom id="a19" elementType="N" x2="-2.343800" y2="-1.295500"/>
  <cml:atom id="a20" elementType="C" x2="-3.058200" y2="-1.708000"/>
  <cml:atom id="a21" elementType="C" x2="-3.058200" y2="-2.533000"/>
  <cml:atom id="a22" elementType="C" x2="-1.629300" y2="-2.533000"/>
  <cml:atom id="a23" elementType="C" x2="-1.629300" y2="-1.708000"/>
  <cml:atom id="a24" elementType="C" x2="1.383900" y2="4.954500"/>
  <cml:atom id="a25" elementType="C" x2="0.669500" y2="4.542000"/>
  <cml:atom id="a26" elementType="N" formalCharge="1" x2="0.669500" y2="3.717000"/>
  <cml:atom id="a27" elementType="C" x2="1.383900" y2="3.304400"/>
  <cml:atom id="a28" elementType="C" x2="2.098400" y2="3.717000"/>
  <cml:atom id="a29" elementType="C" x2="-2.276700" y2="1.973000"/>
 </cml:atomArray>
 <cml:bondArray>
  <cml:bond atomRefs2="a1 a2" order="1"/>
  <cml:bond atomRefs2="a2 a3" order="2"/>
  <cml:bond atomRefs2="a3 a4" order="1"/>
  <cml:bond atomRefs2="a4 a5" order="2"/>
  <cml:bond atomRefs2="a5 a6" order="1"/>
  <cml:bond atomRefs2="a1 a6" order="2"/>
  <cml:bond atomRefs2="a7 a8" order="2">
   <cml:bondStereo atomRefs4="a12 a7 a8 a9">C</cml:bondStereo>
  </cml:bond>
  <cml:bond atomRefs2="a8 a9" order="1"/>
  <cml:bond atomRefs2="a9 a10" order="1"/>
  <cml:bond atomRefs2="a10 a11" order="2">
   <cml:bondStereo atomRefs4="a9 a10 a11 a12">C</cml:bondStereo>
  </cml:bond>
  <cml:bond atomRefs2="a11 a12" order="1"/>
  <cml:bond atomRefs2="a7 a12" order="1"/>
  <cml:bond atomRefs2="a13 a14" order="1"/>
  <cml:bond atomRefs2="a14 a15" order="2"/>
  <cml:bond atomRefs2="a15 a16" order="1"/>
  <cml:bond atomRefs2="a16 a17" order="2"/>
  <cml:bond atomRefs2="a17 a18" order="1"/>
  <cml:bond atomRefs2="a13 a18" order="2"/>
  <cml:bond atomRefs2="a19 a20" order="1"/>
  <cml:bond atomRefs2="a20 a21" order="1"/>
  <cml:bond atomRefs2="a22 a23" order="1"/>
  <cml:bond atomRefs2="a19 a23" order="1"/>
  <cml:bond atomRefs2="a24 a25" order="1"/>
  <cml:bond atomRefs2="a25 a26" order="1"/>
  <cml:bond atomRefs2="a26 a27" order="1"/>
  <cml:bond atomRefs2="a27 a28" order="1"/>
  <cml:bond atomRefs2="a12 a26" order="2"/>
  <cml:bond atomRefs2="a16 a19" order="1"/>
  <cml:bond atomRefs2="a5 a29" order="1"/>
  <cml:bond atomRefs2="a29 a13" order="1"/>
  <cml:bond atomRefs2="a29 a9" order="2">
   <cml:bondStereo atomRefs4="a5 a29 a9 a10">T</cml:bondStereo>
  </cml:bond>
 </cml:bondArray>
</cml:molecule>
</svg>
