<?xml version="1.0"?>
<svg xmlns="http://www.w3.org/2000/svg"
xmlns:xlink="http://www.w3.org/1999/xlink" xmlns:cml="http://www.xml-cml.org/schema" width="332.37" height="321.044" x="0" y="0" font-family="sans-serif" stroke="rgb(255,255,255)" stroke-width="1"  stroke-linecap="round">
<rect x="0%" y="0%" width="100%" height="100%" stroke-width="0" fill="rgb(0,0,0)"  />
<polygon points="150.839 190.937 128.556 153.282 135.784 149.855 " stroke-width="1" fill="rgb(255,255,255)"  stroke="rgb(255,255,255)" />
<line x1="132.2" y1="151.6" x2="121.0" y2="150.7" stroke="rgb(255,255,255)"  stroke-width="1.0"/>
<line x1="160.5" y1="233.1" x2="159.2" y2="232.1" stroke="rgb(255,255,255)"  stroke-width="1.0"/>
<line x1="158.6" y1="236.8" x2="156.2" y2="235.1" stroke="rgb(255,255,255)"  stroke-width="1.0"/>
<line x1="156.6" y1="240.6" x2="153.3" y2="238.2" stroke="rgb(255,255,255)"  stroke-width="1.0"/>
<line x1="154.7" y1="244.4" x2="150.3" y2="241.2" stroke="rgb(255,255,255)"  stroke-width="1.0"/>
<line x1="152.7" y1="248.2" x2="147.3" y2="244.2" stroke="rgb(255,255,255)"  stroke-width="1.0"/>
<line x1="150.7" y1="252.0" x2="144.3" y2="247.3" stroke="rgb(255,255,255)"  stroke-width="1.0"/>
<line x1="206.0" y1="232.1" x2="204.7" y2="233.1" stroke="rgb(255,255,255)"  stroke-width="1.0"/>
<line x1="209.0" y1="235.1" x2="206.7" y2="236.8" stroke="rgb(255,255,255)"  stroke-width="1.0"/>
<line x1="212.0" y1="238.2" x2="208.7" y2="240.6" stroke="rgb(255,255,255)"  stroke-width="1.0"/>
<line x1="215.0" y1="241.2" x2="210.6" y2="244.4" stroke="rgb(255,255,255)"  stroke-width="1.0"/>
<line x1="218.0" y1="244.2" x2="212.6" y2="248.2" stroke="rgb(255,255,255)"  stroke-width="1.0"/>
<line x1="221.0" y1="247.3" x2="214.5" y2="252.0" stroke="rgb(255,255,255)"  stroke-width="1.0"/>
<line x1="150.8" y1="190.9" x2="116.1" y2="221.8" stroke="rgb(255,255,255)"  stroke-width="1.0"/>
<polygon points="213.594952 189.236099 217.928595 162.954295 225.537045 165.426435 " stroke-width="1.000000" fill="rgb(255,255,255)"  stroke="rgb(255,255,255)" />
<line x1="268.3" y1="142.0" x2="285.9" y2="161.5" stroke="rgb(255,255,255)"  stroke-width="1.0"/>
<line x1="263.8" y1="146.0" x2="281.4" y2="165.5" stroke="rgb(255,255,255)"  stroke-width="1.0"/>
<line x1="96.7" y1="239.6" x2="92.6" y2="242.0" stroke="rgb(255,255,255)"  stroke-width="1.0"/>
<line x1="93.7" y1="234.4" x2="89.6" y2="236.9" stroke="rgb(255,255,255)"  stroke-width="1.0"/>
<line x1="72.1" y1="256.9" x2="51.8" y2="274.7" stroke="rgb(255,255,255)"  stroke-width="1.0"/>
<line x1="68.2" y1="252.4" x2="47.8" y2="270.2" stroke="rgb(255,255,255)"  stroke-width="1.0"/>
<line x1="251.9" y1="77.4" x2="260.0" y2="52.4" stroke="rgb(255,255,255)"  stroke-width="1.0"/>
<line x1="150.8" y1="190.9" x2="163.0" y2="228.3" stroke="rgb(255,255,255)"  stroke-width="1.0"/>
<line x1="163.0" y1="228.3" x2="202.3" y2="228.3" stroke="rgb(255,255,255)"  stroke-width="1.0"/>
<line x1="202.3" y1="228.3" x2="213.6" y2="189.2" stroke="rgb(255,255,255)"  stroke-width="1.0"/>
<line x1="213.6" y1="189.2" x2="193.3" y2="175.2" stroke="rgb(255,255,255)"  stroke-width="1.0"/>
<line x1="172.1" y1="175.5" x2="150.8" y2="190.9" stroke="rgb(255,255,255)"  stroke-width="1.0"/>
<line x1="238.5" y1="149.4" x2="266.1" y2="144.0" stroke="rgb(255,255,255)"  stroke-width="1.0"/>
<line x1="266.1" y1="144.0" x2="274.2" y2="119.0" stroke="rgb(255,255,255)"  stroke-width="1.0"/>
<line x1="269.5" y1="97.0" x2="251.9" y2="77.4" stroke="rgb(255,255,255)"  stroke-width="1.0"/>
<line x1="262.8" y1="100.2" x2="250.6" y2="86.7" stroke="rgb(255,255,255)"  stroke-width="1.0"/>
<line x1="251.9" y1="77.4" x2="213.5" y2="85.6" stroke="rgb(255,255,255)"  stroke-width="1.0"/>
<line x1="213.5" y1="85.6" x2="201.3" y2="122.9" stroke="rgb(255,255,255)"  stroke-width="1.0"/>
<line x1="218.5" y1="93.5" x2="210.0" y2="119.5" stroke="rgb(255,255,255)"  stroke-width="1.0"/>
<line x1="201.3" y1="122.9" x2="217.4" y2="141.9" stroke="rgb(255,255,255)"  stroke-width="1.0"/>
<text x="219.741024" y="159.854407" fill="rgb(12,12,255)"  stroke="rgb(12,12,255)" stroke-width="1" font-size="16" >N</text>
<text x="121.879877" y="268.130274" fill="rgb(255,12,12)"  stroke="rgb(255,12,12)" stroke-width="1" font-size="16" >HO</text>
<text x="219.407471" y="268.130274" fill="rgb(255,12,12)"  stroke="rgb(255,12,12)" stroke-width="1" font-size="16" >OH</text>
<text x="100.395983" y="238.391697" fill="rgb(12,12,255)"  stroke="rgb(12,12,255)" stroke-width="1" font-size="16" >N</text>
<text x="90.063745" y="157.791147" fill="rgb(255,12,12)"  stroke="rgb(255,12,12)" stroke-width="1" font-size="16" >HO</text>
<text x="84.707159" y="242.055719" fill="rgb(12,12,255)"  stroke="rgb(12,12,255)" stroke-width="1" font-size="16" >+</text>
<text x="73.907159" y="254.087719" fill="rgb(12,12,255)"  stroke="rgb(12,12,255)" stroke-width="1" font-size="16" >N</text>
<text x="44.800000" y="266.932008" fill="rgb(12,12,255)"  stroke="rgb(12,12,255)" stroke-width="1" font-size="16" >_</text>
<text x="34.000000" y="289.044008" fill="rgb(12,12,255)"  stroke="rgb(12,12,255)" stroke-width="1" font-size="16" >N</text>
<text x="286.370493" y="181.201759" fill="rgb(255,12,12)"  stroke="rgb(255,12,12)" stroke-width="1" font-size="16" >O</text>
<text x="176.641292" y="175.826801" fill="rgb(255,12,12)"  stroke="rgb(255,12,12)" stroke-width="1" font-size="16" >O</text>
<text x="272.213578" y="114.600880" fill="rgb(12,12,255)"  stroke="rgb(12,12,255)" stroke-width="1" font-size="16" >N</text>
<text x="260.066192" y="48.000000" fill="rgb(12,12,255)"  stroke="rgb(12,12,255)" stroke-width="1" font-size="16" >NH</text>
<text x="284.066192" y="51.680000" fill="rgb(12,12,255)"  stroke="rgb(12,12,255)" stroke-width="1" font-size="13" >2</text>
<text font-size="18.000000" fill ="white" font-family="sans-serif"
x="10.000000" y="20.000000" ></text>
<title> - OBDepict</title>
<cml:molecule>
 <cml:atomArray>
  <cml:atom id="a1" elementType="C" x2="-2.051300" y2="-0.653700">
   <cml:atomParity atomRefs4="a6 a9 a17 a2">1</cml:atomParity>
  </cml:atom>
  <cml:atom id="a2" elementType="C" x2="-1.796400" y2="-1.438300">
   <cml:atomParity atomRefs4="a2 a7 a1 a3">1</cml:atomParity>
  </cml:atom>
  <cml:atom id="a3" elementType="C" x2="-0.971400" y2="-1.438300">
   <cml:atomParity atomRefs4="a3 a8 a2 a4">1</cml:atomParity>
  </cml:atom>
  <cml:atom id="a4" elementType="C" x2="-0.734300" y2="-0.618000">
   <cml:atomParity atomRefs4="a4 a5 a17 a3">1</cml:atomParity>
  </cml:atom>
  <cml:atom id="a5" elementType="N" x2="-0.479400" y2="0.166500"/>
  <cml:atom id="a6" elementType="C" x2="-2.443100" y2="0.172500"/>
  <cml:atom id="a7" elementType="O" x2="-2.281300" y2="-2.105800"/>
  <cml:atom id="a8" elementType="O" x2="-0.486400" y2="-2.105800"/>
  <cml:atom id="a9" elementType="N" x2="-2.984000" y2="-1.481700"/>
  <cml:atom id="a10" elementType="O" x2="-2.949000" y2="0.209800"/>
  <cml:atom id="a11" elementType="N" formalCharge="1" x2="-3.539900" y2="-1.811100"/>
  <cml:atom id="a12" elementType="N" formalCharge="-1" x2="-4.377400" y2="-2.544700"/>
  <cml:atom id="a13" elementType="C" x2="0.366800" y2="0.331500"/>
  <cml:atom id="a14" elementType="C" x2="0.069900" y2="1.729300"/>
  <cml:atom id="a15" elementType="C" x2="-0.992000" y2="0.773100"/>
  <cml:atom id="a16" elementType="O" x2="0.918900" y2="-0.281500"/>
  <cml:atom id="a17" elementType="O" x2="-1.383900" y2="-0.168700"/>
  <cml:atom id="a18" elementType="N" x2="0.621800" y2="1.116200"/>
  <cml:atom id="a19" elementType="C" x2="-0.737000" y2="1.557800"/>
  <cml:atom id="a20" elementType="N" x2="0.324900" y2="2.513900"/>
 </cml:atomArray>
 <cml:bondArray>
  <cml:bond atomRefs2="a1 a2" order="1"/>
  <cml:bond atomRefs2="a2 a3" order="1"/>
  <cml:bond atomRefs2="a3 a4" order="1"/>
  <cml:bond atomRefs2="a1 a6" order="1"/>
  <cml:bond atomRefs2="a6 a10" order="1"/>
  <cml:bond atomRefs2="a2 a7" order="1"/>
  <cml:bond atomRefs2="a3 a8" order="1"/>
  <cml:bond atomRefs2="a1 a9" order="1"/>
  <cml:bond atomRefs2="a4 a5" order="1"/>
  <cml:bond atomRefs2="a5 a13" order="1"/>
  <cml:bond atomRefs2="a15 a5" order="1"/>
  <cml:bond atomRefs2="a13 a16" order="2"/>
  <cml:bond atomRefs2="a17 a4" order="1"/>
  <cml:bond atomRefs2="a17 a1" order="1"/>
  <cml:bond atomRefs2="a9 a11" order="2"/>
  <cml:bond atomRefs2="a11 a12" order="2"/>
  <cml:bond atomRefs2="a13 a18" order="1"/>
  <cml:bond atomRefs2="a18 a14" order="2"/>
  <cml:bond atomRefs2="a19 a15" order="2"/>
  <cml:bond atomRefs2="a14 a19" order="1"/>
  <cml:bond atomRefs2="a14 a20" order="1"/>
 </cml:bondArray>
</cml:molecule>
</svg>
