<?xml version="1.0"?>
<svg xmlns="http://www.w3.org/2000/svg"
xmlns:xlink="http://www.w3.org/1999/xlink" xmlns:cml="http://www.xml-cml.org/schema" width="334.609" height="280.009" x="0" y="0" font-family="sans-serif" stroke="rgb(255,255,255)" stroke-width="1"  stroke-linecap="round">
<rect x="0%" y="0%" width="100%" height="100%" stroke-width="0" fill="rgb(0,0,0)"  />
<line x1="134.6" y1="220.0" x2="100.0" y2="240.0" stroke="rgb(255,255,255)"  stroke-width="1.0"/>
<line x1="203.9" y1="220.0" x2="238.6" y2="240.0" stroke="rgb(255,255,255)"  stroke-width="1.0"/>
<line x1="134.6" y1="180.0" x2="100.0" y2="160.0" stroke="rgb(255,255,255)"  stroke-width="1.0"/>
<line x1="97.0" y1="159.7" x2="99.8" y2="132.8" stroke="rgb(255,255,255)"  stroke-width="1.0"/>
<line x1="103.0" y1="160.3" x2="105.8" y2="133.5" stroke="rgb(255,255,255)"  stroke-width="1.0"/>
<line x1="100.0" y1="160.0" x2="73.0" y2="160.0" stroke="rgb(255,255,255)"  stroke-width="1.0"/>
<line x1="53.5" y1="148.7" x2="40.0" y2="125.4" stroke="rgb(255,255,255)"  stroke-width="1.0"/>
<line x1="169.3" y1="160.0" x2="169.3" y2="120.0" stroke="rgb(255,255,255)"  stroke-width="1.0"/>
<line x1="203.9" y1="100.0" x2="227.3" y2="113.5" stroke="rgb(255,255,255)"  stroke-width="1.0"/>
<line x1="227.3" y1="113.5" x2="215.2" y2="106.5" stroke="rgb(255,255,255)"  stroke-width="1.0"/>
<line x1="248.3" y1="110.9" x2="260.4" y2="103.9" stroke="rgb(255,255,255)"  stroke-width="1.0"/>
<line x1="251.3" y1="116.1" x2="263.4" y2="109.1" stroke="rgb(255,255,255)"  stroke-width="1.0"/>
<line x1="203.9" y1="180.0" x2="238.6" y2="160.0" stroke="rgb(255,255,255)"  stroke-width="1.0"/>
<line x1="241.5" y1="159.7" x2="244.4" y2="186.5" stroke="rgb(255,255,255)"  stroke-width="1.0"/>
<line x1="235.6" y1="160.3" x2="238.4" y2="187.2" stroke="rgb(255,255,255)"  stroke-width="1.0"/>
<line x1="238.6" y1="160.0" x2="265.4" y2="162.8" stroke="rgb(255,255,255)"  stroke-width="1.0"/>
<line x1="283.6" y1="176.1" x2="294.6" y2="200.7" stroke="rgb(255,255,255)"  stroke-width="1.0"/>
<line x1="169.3" y1="160.0" x2="134.6" y2="180.0" stroke="rgb(255,255,255)"  stroke-width="1.0"/>
<line x1="134.6" y1="180.0" x2="134.6" y2="220.0" stroke="rgb(255,255,255)"  stroke-width="1.0"/>
<line x1="141.8" y1="186.0" x2="141.8" y2="214.0" stroke="rgb(255,255,255)"  stroke-width="1.0"/>
<line x1="134.6" y1="220.0" x2="158.0" y2="233.5" stroke="rgb(255,255,255)"  stroke-width="1.0"/>
<line x1="180.5" y1="233.5" x2="203.9" y2="220.0" stroke="rgb(255,255,255)"  stroke-width="1.0"/>
<line x1="203.9" y1="220.0" x2="203.9" y2="180.0" stroke="rgb(255,255,255)"  stroke-width="1.0"/>
<line x1="196.7" y1="214.0" x2="196.7" y2="186.0" stroke="rgb(255,255,255)"  stroke-width="1.0"/>
<line x1="203.9" y1="180.0" x2="169.3" y2="160.0" stroke="rgb(255,255,255)"  stroke-width="1.0"/>
<line x1="169.3" y1="120.0" x2="203.9" y2="100.0" stroke="rgb(255,255,255)"  stroke-width="1.0"/>
<line x1="170.9" y1="110.8" x2="195.1" y2="96.8" stroke="rgb(255,255,255)"  stroke-width="1.0"/>
<line x1="203.9" y1="100.0" x2="203.9" y2="60.0" stroke="rgb(255,255,255)"  stroke-width="1.0"/>
<line x1="203.9" y1="60.0" x2="169.3" y2="40.0" stroke="rgb(255,255,255)"  stroke-width="1.0"/>
<line x1="195.1" y1="63.2" x2="170.9" y2="49.2" stroke="rgb(255,255,255)"  stroke-width="1.0"/>
<line x1="169.3" y1="40.0" x2="134.6" y2="60.0" stroke="rgb(255,255,255)"  stroke-width="1.0"/>
<line x1="134.6" y1="60.0" x2="134.6" y2="100.0" stroke="rgb(255,255,255)"  stroke-width="1.0"/>
<line x1="141.8" y1="66.0" x2="141.8" y2="94.0" stroke="rgb(255,255,255)"  stroke-width="1.0"/>
<line x1="134.6" y1="100.0" x2="169.3" y2="120.0" stroke="rgb(255,255,255)"  stroke-width="1.0"/>
<text x="163.278025" y="248.009294" fill="rgb(12,12,255)"  stroke="rgb(12,12,255)" stroke-width="1" font-size="16" >N</text>
<text x="163.278025" y="264.009294" fill="rgb(12,12,255)"  stroke="rgb(12,12,255)" stroke-width="1" font-size="16" >H</text>
<text x="98.180820" y="128.224813" fill="rgb(255,12,12)"  stroke="rgb(255,12,12)" stroke-width="1" font-size="16" >O</text>
<text x="54.000445" y="168.002667" fill="rgb(255,12,12)"  stroke="rgb(255,12,12)" stroke-width="1" font-size="16" >O</text>
<text x="243.354716" y="115.974627" fill="rgb(12,12,255)"  stroke="rgb(12,12,255)" stroke-width="1" font-size="16" >+</text>
<text x="232.554716" y="128.006627" fill="rgb(12,12,255)"  stroke="rgb(12,12,255)" stroke-width="1" font-size="16" >N</text>
<text x="208.711522" y="85.894182" fill="rgb(255,12,12)"  stroke="rgb(255,12,12)" stroke-width="1" font-size="16" >_</text>
<text x="197.911522" y="108.006182" fill="rgb(255,12,12)"  stroke="rgb(255,12,12)" stroke-width="1" font-size="16" >O</text>
<text x="267.193062" y="108.006182" fill="rgb(255,12,12)"  stroke="rgb(255,12,12)" stroke-width="1" font-size="16" >O</text>
<text x="236.739052" y="207.785370" fill="rgb(255,12,12)"  stroke="rgb(255,12,12)" stroke-width="1" font-size="16" >O</text>
<text x="272.342267" y="172.182154" fill="rgb(255,12,12)"  stroke="rgb(255,12,12)" stroke-width="1" font-size="16" >O</text>
<text font-size="18.000000" fill ="white" font-family="sans-serif"
x="10.000000" y="20.000000" ></text>
<title> - OBDepict</title>
<cml:molecule>
 <cml:atomArray>
  <cml:atom id="a1" elementType="C" x2="-0.692000" y2="-0.023100"/>
  <cml:atom id="a2" elementType="C" x2="-1.406400" y2="-0.435600"/>
  <cml:atom id="a3" elementType="C" x2="-1.406400" y2="-1.260700"/>
  <cml:atom id="a4" elementType="N" x2="-0.692000" y2="-1.673200"/>
  <cml:atom id="a5" elementType="C" x2="0.022400" y2="-1.260700"/>
  <cml:atom id="a6" elementType="C" x2="0.022400" y2="-0.435600"/>
  <cml:atom id="a7" elementType="C" x2="-2.120800" y2="-1.673200"/>
  <cml:atom id="a8" elementType="C" x2="0.736900" y2="-1.673200"/>
  <cml:atom id="a9" elementType="C" x2="-2.120800" y2="-0.023100"/>
  <cml:atom id="a10" elementType="O" x2="-2.034600" y2="0.797300"/>
  <cml:atom id="a11" elementType="O" x2="-2.945800" y2="-0.023100"/>
  <cml:atom id="a12" elementType="C" x2="-3.358300" y2="0.691200"/>
  <cml:atom id="a13" elementType="C" x2="-0.692000" y2="0.801800"/>
  <cml:atom id="a14" elementType="C" x2="0.022300" y2="1.214300"/>
  <cml:atom id="a15" elementType="C" x2="0.022400" y2="2.039400"/>
  <cml:atom id="a16" elementType="C" x2="-0.691900" y2="2.451900"/>
  <cml:atom id="a17" elementType="C" x2="-1.406400" y2="2.039400"/>
  <cml:atom id="a18" elementType="C" x2="-1.406500" y2="1.214300"/>
  <cml:atom id="a19" elementType="N" formalCharge="1" x2="0.736800" y2="0.801800"/>
  <cml:atom id="a20" elementType="O" formalCharge="-1" x2="0.022300" y2="1.214300"/>
  <cml:atom id="a21" elementType="O" x2="1.451200" y2="1.214300"/>
  <cml:atom id="a22" elementType="C" x2="0.736900" y2="-0.023100"/>
  <cml:atom id="a23" elementType="O" x2="0.823100" y2="-0.843600"/>
  <cml:atom id="a24" elementType="O" x2="1.557400" y2="-0.109300"/>
  <cml:atom id="a25" elementType="C" x2="1.892900" y2="-0.863000"/>
 </cml:atomArray>
 <cml:bondArray>
  <cml:bond atomRefs2="a1 a2" order="1"/>
  <cml:bond atomRefs2="a2 a3" order="2">
   <cml:bondStereo atomRefs4="a1 a2 a3 a7">T</cml:bondStereo>
  </cml:bond>
  <cml:bond atomRefs2="a5 a6" order="2">
   <cml:bondStereo atomRefs4="a4 a5 a6 a22">T</cml:bondStereo>
  </cml:bond>
  <cml:bond atomRefs2="a6 a1" order="1"/>
  <cml:bond atomRefs2="a3 a4" order="1"/>
  <cml:bond atomRefs2="a4 a5" order="1"/>
  <cml:bond atomRefs2="a3 a7" order="1"/>
  <cml:bond atomRefs2="a5 a8" order="1"/>
  <cml:bond atomRefs2="a2 a9" order="1"/>
  <cml:bond atomRefs2="a9 a10" order="2"/>
  <cml:bond atomRefs2="a9 a11" order="1"/>
  <cml:bond atomRefs2="a11 a12" order="1"/>
  <cml:bond atomRefs2="a13 a14" order="2"/>
  <cml:bond atomRefs2="a14 a15" order="1"/>
  <cml:bond atomRefs2="a15 a16" order="2"/>
  <cml:bond atomRefs2="a16 a17" order="1"/>
  <cml:bond atomRefs2="a17 a18" order="2"/>
  <cml:bond atomRefs2="a18 a13" order="1"/>
  <cml:bond atomRefs2="a1 a13" order="1"/>
  <cml:bond atomRefs2="a14 a19" order="1"/>
  <cml:bond atomRefs2="a19 a20" order="1"/>
  <cml:bond atomRefs2="a19 a21" order="2"/>
  <cml:bond atomRefs2="a6 a22" order="1"/>
  <cml:bond atomRefs2="a22 a23" order="2"/>
  <cml:bond atomRefs2="a22 a24" order="1"/>
  <cml:bond atomRefs2="a24 a25" order="1"/>
 </cml:bondArray>
</cml:molecule>
</svg>
