<?xml version="1.0"?>
<svg xmlns="http://www.w3.org/2000/svg"
xmlns:xlink="http://www.w3.org/1999/xlink" xmlns:cml="http://www.xml-cml.org/schema" width="589.922" height="304.292" x="0" y="0" font-family="sans-serif" stroke="rgb(255,255,255)" stroke-width="1"  stroke-linecap="round">
<rect x="0%" y="0%" width="100%" height="100%" stroke-width="0" fill="rgb(0,0,0)"  />
<line x1="109.3" y1="149.2" x2="149.3" y2="149.2" stroke="rgb(255,255,255)"  stroke-width="1.0"/>
<line x1="149.3" y1="149.2" x2="170.3" y2="166.2" stroke="rgb(255,255,255)"  stroke-width="1.0"/>
<line x1="192.2" y1="169.1" x2="216.9" y2="158.1" stroke="rgb(255,255,255)"  stroke-width="1.0"/>
<line x1="213.9" y1="158.3" x2="212.5" y2="131.3" stroke="rgb(255,255,255)"  stroke-width="1.0"/>
<line x1="219.9" y1="158.0" x2="218.5" y2="131.0" stroke="rgb(255,255,255)"  stroke-width="1.0"/>
<line x1="216.9" y1="158.1" x2="241.6" y2="169.1" stroke="rgb(255,255,255)"  stroke-width="1.0"/>
<polygon points="284.539160 149.217407 266.226683 169.189260 261.192902 162.971459 " stroke-width="1.000000" fill="rgb(255,255,255)"  stroke="rgb(255,255,255)" />
<line x1="284.5" y1="149.2" x2="286.6" y2="109.3" stroke="rgb(255,255,255)"  stroke-width="1.0"/>
<line x1="286.6" y1="109.3" x2="259.9" y2="79.5" stroke="rgb(255,255,255)"  stroke-width="1.0"/>
<line x1="259.9" y1="79.5" x2="268.2" y2="40.4" stroke="rgb(255,255,255)"  stroke-width="1.0"/>
<line x1="259.9" y1="79.5" x2="222.5" y2="93.9" stroke="rgb(255,255,255)"  stroke-width="1.0"/>
<line x1="284.5" y1="149.2" x2="314.3" y2="176.0" stroke="rgb(255,255,255)"  stroke-width="1.0"/>
<line x1="317.3" y1="176.1" x2="315.8" y2="203.1" stroke="rgb(255,255,255)"  stroke-width="1.0"/>
<line x1="311.3" y1="175.8" x2="309.9" y2="202.8" stroke="rgb(255,255,255)"  stroke-width="1.0"/>
<line x1="314.3" y1="176.0" x2="336.9" y2="161.3" stroke="rgb(255,255,255)"  stroke-width="1.0"/>
<line x1="378.3" y1="170.6" x2="379.0" y2="169.2" stroke="rgb(255,255,255)"  stroke-width="1.0"/>
<line x1="374.2" y1="169.3" x2="375.5" y2="166.7" stroke="rgb(255,255,255)"  stroke-width="1.0"/>
<line x1="370.1" y1="167.9" x2="372.0" y2="164.2" stroke="rgb(255,255,255)"  stroke-width="1.0"/>
<line x1="366.0" y1="166.5" x2="368.4" y2="161.7" stroke="rgb(255,255,255)"  stroke-width="1.0"/>
<line x1="361.9" y1="165.1" x2="364.9" y2="159.1" stroke="rgb(255,255,255)"  stroke-width="1.0"/>
<line x1="357.8" y1="163.8" x2="361.4" y2="156.6" stroke="rgb(255,255,255)"  stroke-width="1.0"/>
<line x1="383.4" y1="172.4" x2="418.1" y2="152.4" stroke="rgb(255,255,255)"  stroke-width="1.0"/>
<line x1="415.1" y1="152.4" x2="415.1" y2="125.4" stroke="rgb(255,255,255)"  stroke-width="1.0"/>
<line x1="421.1" y1="152.4" x2="421.1" y2="125.4" stroke="rgb(255,255,255)"  stroke-width="1.0"/>
<line x1="383.4" y1="172.4" x2="383.4" y2="212.4" stroke="rgb(255,255,255)"  stroke-width="1.0"/>
<line x1="383.4" y1="212.4" x2="414.5" y2="237.5" stroke="rgb(255,255,255)"  stroke-width="1.0"/>
<line x1="414.5" y1="237.5" x2="384.8" y2="264.3" stroke="rgb(255,255,255)"  stroke-width="1.0"/>
<line x1="414.5" y1="237.5" x2="454.5" y2="235.4" stroke="rgb(255,255,255)"  stroke-width="1.0"/>
<line x1="418.1" y1="152.4" x2="442.8" y2="163.3" stroke="rgb(255,255,255)"  stroke-width="1.0"/>
<polygon points="489.276949 148.625889 468.066371 165.490080 464.066493 158.561806 " stroke-width="1.000000" fill="rgb(255,255,255)"  stroke="rgb(255,255,255)" />
<line x1="489.3" y1="148.6" x2="517.6" y2="176.9" stroke="rgb(255,255,255)"  stroke-width="1.0"/>
<line x1="520.6" y1="176.9" x2="520.6" y2="203.9" stroke="rgb(255,255,255)"  stroke-width="1.0"/>
<line x1="514.6" y1="176.9" x2="514.6" y2="203.9" stroke="rgb(255,255,255)"  stroke-width="1.0"/>
<line x1="517.6" y1="176.9" x2="539.4" y2="161.0" stroke="rgb(255,255,255)"  stroke-width="1.0"/>
<line x1="489.3" y1="148.6" x2="503.6" y2="111.3" stroke="rgb(255,255,255)"  stroke-width="1.0"/>
<line x1="503.6" y1="111.3" x2="485.5" y2="75.6" stroke="rgb(255,255,255)"  stroke-width="1.0"/>
<line x1="485.5" y1="75.6" x2="503.6" y2="40.0" stroke="rgb(255,255,255)"  stroke-width="1.0"/>
<line x1="485.5" y1="75.6" x2="445.9" y2="69.4" stroke="rgb(255,255,255)"  stroke-width="1.0"/>
<line x1="74.6" y1="129.2" x2="40.0" y2="149.2" stroke="rgb(255,255,255)"  stroke-width="1.0"/>
<line x1="40.0" y1="149.2" x2="40.0" y2="189.2" stroke="rgb(255,255,255)"  stroke-width="1.0"/>
<line x1="47.2" y1="155.2" x2="47.2" y2="183.2" stroke="rgb(255,255,255)"  stroke-width="1.0"/>
<line x1="40.0" y1="189.2" x2="74.6" y2="209.2" stroke="rgb(255,255,255)"  stroke-width="1.0"/>
<line x1="74.6" y1="209.2" x2="109.3" y2="189.2" stroke="rgb(255,255,255)"  stroke-width="1.0"/>
<line x1="76.2" y1="200.0" x2="100.5" y2="186.0" stroke="rgb(255,255,255)"  stroke-width="1.0"/>
<line x1="109.3" y1="189.2" x2="109.3" y2="149.2" stroke="rgb(255,255,255)"  stroke-width="1.0"/>
<line x1="109.3" y1="149.2" x2="74.6" y2="129.2" stroke="rgb(255,255,255)"  stroke-width="1.0"/>
<line x1="100.5" y1="152.5" x2="76.2" y2="138.4" stroke="rgb(255,255,255)"  stroke-width="1.0"/>
<text x="174.369047" y="182.385992" fill="rgb(255,12,12)"  stroke="rgb(255,12,12)" stroke-width="1" font-size="16" >O</text>
<text x="208.817669" y="126.172434" fill="rgb(255,12,12)"  stroke="rgb(255,12,12)" stroke-width="1" font-size="16" >O</text>
<text x="247.450551" y="182.385992" fill="rgb(12,12,255)"  stroke="rgb(12,12,255)" stroke-width="1" font-size="16" >N</text>
<text x="247.450551" y="198.385992" fill="rgb(12,12,255)"  stroke="rgb(12,12,255)" stroke-width="1" font-size="16" >H</text>
<text x="306.170786" y="223.927977" fill="rgb(255,12,12)"  stroke="rgb(255,12,12)" stroke-width="1" font-size="16" >O</text>
<text x="341.812141" y="162.196821" fill="rgb(12,12,255)"  stroke="rgb(12,12,255)" stroke-width="1" font-size="16" >N</text>
<text x="341.812141" y="146.196821" fill="rgb(12,12,255)"  stroke="rgb(12,12,255)" stroke-width="1" font-size="16" >H</text>
<text x="412.091210" y="120.354229" fill="rgb(255,12,12)"  stroke="rgb(255,12,12)" stroke-width="1" font-size="16" >O</text>
<text x="448.634387" y="176.625969" fill="rgb(12,12,255)"  stroke="rgb(12,12,255)" stroke-width="1" font-size="16" >N</text>
<text x="448.634387" y="192.625969" fill="rgb(12,12,255)"  stroke="rgb(12,12,255)" stroke-width="1" font-size="16" >H</text>
<text x="511.558275" y="224.907375" fill="rgb(255,12,12)"  stroke="rgb(255,12,12)" stroke-width="1" font-size="16" >O</text>
<text x="543.922041" y="161.396817" fill="rgb(191,191,191)"  stroke="rgb(191,191,191)" stroke-width="1" font-size="16" >H</text>
<text font-size="18.000000" fill ="white" font-family="sans-serif"
x="10.000000" y="20.000000" ></text>
<title> - OBDepict</title>
<cml:molecule>
 <cml:atomArray>
  <cml:atom id="a1" elementType="C" x2="-4.218800" y2="0.758100"/>
  <cml:atom id="a2" elementType="C" x2="-4.933200" y2="0.345500"/>
  <cml:atom id="a3" elementType="C" x2="-4.933200" y2="-0.479500"/>
  <cml:atom id="a4" elementType="C" x2="-4.218800" y2="-0.892000"/>
  <cml:atom id="a5" elementType="C" x2="-3.504300" y2="-0.479500"/>
  <cml:atom id="a6" elementType="C" x2="-3.504300" y2="0.345500"/>
  <cml:atom id="a7" elementType="C" x2="-2.679300" y2="0.345500"/>
  <cml:atom id="a8" elementType="O" x2="-2.038100" y2="-0.173600"/>
  <cml:atom id="a9" elementType="C" x2="-1.284500" y2="0.161900"/>
  <cml:atom id="a10" elementType="O" x2="-1.327600" y2="0.985800"/>
  <cml:atom id="a11" elementType="N" x2="-0.530800" y2="-0.173600"/>
  <cml:atom id="a12" elementType="C" x2="0.110400" y2="0.345500">
   <cml:atomParity atomRefs4="a12 a13 a11 a17">1</cml:atomParity>
  </cml:atom>
  <cml:atom id="a13" elementType="C" x2="0.153500" y2="1.169400"/>
  <cml:atom id="a14" elementType="C" x2="-0.398500" y2="1.782500"/>
  <cml:atom id="a15" elementType="C" x2="-0.227000" y2="2.589500"/>
  <cml:atom id="a16" elementType="C" x2="-1.168700" y2="1.486900"/>
  <cml:atom id="a17" elementType="C" x2="0.723500" y2="-0.206500"/>
  <cml:atom id="a18" elementType="O" x2="0.680300" y2="-1.030400"/>
  <cml:atom id="a19" elementType="N" x2="1.415400" y2="0.242800"/>
  <cml:atom id="a20" elementType="C" x2="2.150400" y2="-0.131700">
   <cml:atomParity atomRefs4="a20 a23 a19 a21">1</cml:atomParity>
  </cml:atom>
  <cml:atom id="a21" elementType="C" x2="2.864900" y2="0.280800"/>
  <cml:atom id="a22" elementType="O" x2="2.864900" y2="1.105800"/>
  <cml:atom id="a23" elementType="C" x2="2.150400" y2="-0.956700"/>
  <cml:atom id="a24" elementType="C" x2="2.791600" y2="-1.475900"/>
  <cml:atom id="a25" elementType="C" x2="2.178500" y2="-2.027900"/>
  <cml:atom id="a26" elementType="C" x2="3.615400" y2="-1.432700"/>
  <cml:atom id="a27" elementType="N" x2="3.618600" y2="-0.054800"/>
  <cml:atom id="a28" elementType="C" x2="4.333100" y2="0.357700">
   <cml:atomParity atomRefs4="a28 a32 a27 a29">1</cml:atomParity>
  </cml:atom>
  <cml:atom id="a29" elementType="C" x2="4.916400" y2="-0.225600"/>
  <cml:atom id="a30" elementType="O" x2="4.916400" y2="-1.050600"/>
  <cml:atom id="a31" elementType="H" x2="5.583900" y2="0.259300"/>
  <cml:atom id="a32" elementType="C" x2="4.628700" y2="1.127900"/>
  <cml:atom id="a33" elementType="C" x2="4.254200" y2="1.863000"/>
  <cml:atom id="a34" elementType="C" x2="4.628700" y2="2.598100"/>
  <cml:atom id="a35" elementType="C" x2="3.439300" y2="1.992100"/>
 </cml:atomArray>
 <cml:bondArray>
  <cml:bond atomRefs2="a1 a2" order="1"/>
  <cml:bond atomRefs2="a2 a3" order="2"/>
  <cml:bond atomRefs2="a3 a4" order="1"/>
  <cml:bond atomRefs2="a4 a5" order="2"/>
  <cml:bond atomRefs2="a5 a6" order="1"/>
  <cml:bond atomRefs2="a1 a6" order="2"/>
  <cml:bond atomRefs2="a6 a7" order="1"/>
  <cml:bond atomRefs2="a7 a8" order="1"/>
  <cml:bond atomRefs2="a8 a9" order="1"/>
  <cml:bond atomRefs2="a9 a10" order="2"/>
  <cml:bond atomRefs2="a9 a11" order="1"/>
  <cml:bond atomRefs2="a11 a12" order="1"/>
  <cml:bond atomRefs2="a12 a13" order="1"/>
  <cml:bond atomRefs2="a13 a14" order="1"/>
  <cml:bond atomRefs2="a14 a15" order="1"/>
  <cml:bond atomRefs2="a14 a16" order="1"/>
  <cml:bond atomRefs2="a12 a17" order="1"/>
  <cml:bond atomRefs2="a17 a18" order="2"/>
  <cml:bond atomRefs2="a17 a19" order="1"/>
  <cml:bond atomRefs2="a19 a20" order="1"/>
  <cml:bond atomRefs2="a20 a21" order="1"/>
  <cml:bond atomRefs2="a21 a22" order="2"/>
  <cml:bond atomRefs2="a20 a23" order="1"/>
  <cml:bond atomRefs2="a23 a24" order="1"/>
  <cml:bond atomRefs2="a24 a25" order="1"/>
  <cml:bond atomRefs2="a24 a26" order="1"/>
  <cml:bond atomRefs2="a21 a27" order="1"/>
  <cml:bond atomRefs2="a27 a28" order="1"/>
  <cml:bond atomRefs2="a28 a29" order="1"/>
  <cml:bond atomRefs2="a29 a30" order="2"/>
  <cml:bond atomRefs2="a29 a31" order="1"/>
  <cml:bond atomRefs2="a28 a32" order="1"/>
  <cml:bond atomRefs2="a32 a33" order="1"/>
  <cml:bond atomRefs2="a33 a34" order="1"/>
  <cml:bond atomRefs2="a33 a35" order="1"/>
 </cml:bondArray>
</cml:molecule>
</svg>
