<?xml version="1.0"?>
<svg xmlns="http://www.w3.org/2000/svg"
xmlns:xlink="http://www.w3.org/1999/xlink" xmlns:cml="http://www.xml-cml.org/schema" width="404.823" height="342.797" x="0" y="0" font-family="sans-serif" stroke="rgb(255,255,255)" stroke-width="1"  stroke-linecap="round">
<rect x="0%" y="0%" width="100%" height="100%" stroke-width="0" fill="rgb(0,0,0)"  />
<line x1="198.4" y1="198.9" x2="178.3" y2="217.0" stroke="rgb(255,255,255)"  stroke-width="1.0"/>
<line x1="170.0" y1="238.6" x2="172.8" y2="265.5" stroke="rgb(255,255,255)"  stroke-width="1.0"/>
<line x1="172.8" y1="265.5" x2="182.5" y2="290.7" stroke="rgb(255,255,255)"  stroke-width="1.0"/>
<line x1="176.7" y1="263.9" x2="186.4" y2="289.2" stroke="rgb(255,255,255)"  stroke-width="1.0"/>
<line x1="168.9" y1="267.0" x2="178.6" y2="292.2" stroke="rgb(255,255,255)"  stroke-width="1.0"/>
<line x1="158.1" y1="218.0" x2="136.3" y2="202.2" stroke="rgb(255,255,255)"  stroke-width="1.0"/>
<line x1="136.3" y1="202.2" x2="100.6" y2="220.3" stroke="rgb(255,255,255)"  stroke-width="1.0"/>
<line x1="100.6" y1="220.3" x2="78.8" y2="204.5" stroke="rgb(255,255,255)"  stroke-width="1.0"/>
<line x1="59.1" y1="206.0" x2="40.0" y2="225.1" stroke="rgb(255,255,255)"  stroke-width="1.0"/>
<line x1="103.6" y1="220.5" x2="102.2" y2="247.4" stroke="rgb(255,255,255)"  stroke-width="1.0"/>
<line x1="97.6" y1="220.2" x2="96.2" y2="247.1" stroke="rgb(255,255,255)"  stroke-width="1.0"/>
<line x1="233.0" y1="138.9" x2="230.2" y2="112.1" stroke="rgb(255,255,255)"  stroke-width="1.0"/>
<line x1="224.2" y1="87.0" x2="214.5" y2="61.8" stroke="rgb(255,255,255)"  stroke-width="1.0"/>
<line x1="214.5" y1="61.8" x2="175.0" y2="55.5" stroke="rgb(255,255,255)"  stroke-width="1.0"/>
<line x1="214.5" y1="61.8" x2="248.0" y2="40.0" stroke="rgb(255,255,255)"  stroke-width="1.0"/>
<line x1="267.7" y1="198.9" x2="289.5" y2="214.8" stroke="rgb(255,255,255)"  stroke-width="1.0"/>
<line x1="312.4" y1="218.4" x2="338.1" y2="210.1" stroke="rgb(255,255,255)"  stroke-width="1.0"/>
<line x1="338.1" y1="210.1" x2="340.1" y2="170.1" stroke="rgb(255,255,255)"  stroke-width="1.0"/>
<line x1="338.1" y1="210.1" x2="364.8" y2="239.8" stroke="rgb(255,255,255)"  stroke-width="1.0"/>
<line x1="233.0" y1="138.9" x2="209.6" y2="152.4" stroke="rgb(255,255,255)"  stroke-width="1.0"/>
<line x1="198.4" y1="172.1" x2="198.4" y2="198.9" stroke="rgb(255,255,255)"  stroke-width="1.0"/>
<line x1="205.6" y1="174.1" x2="205.6" y2="192.9" stroke="rgb(255,255,255)"  stroke-width="1.0"/>
<line x1="198.4" y1="198.9" x2="221.8" y2="212.4" stroke="rgb(255,255,255)"  stroke-width="1.0"/>
<line x1="244.4" y1="212.3" x2="267.7" y2="198.9" stroke="rgb(255,255,255)"  stroke-width="1.0"/>
<line x1="242.6" y1="205.1" x2="258.9" y2="195.7" stroke="rgb(255,255,255)"  stroke-width="1.0"/>
<line x1="267.7" y1="198.9" x2="267.7" y2="171.9" stroke="rgb(255,255,255)"  stroke-width="1.0"/>
<line x1="256.2" y1="152.3" x2="233.0" y2="138.9" stroke="rgb(255,255,255)"  stroke-width="1.0"/>
<line x1="250.9" y1="157.5" x2="234.6" y2="148.1" stroke="rgb(255,255,255)"  stroke-width="1.0"/>
<text x="192.375236" y="166.908700" fill="rgb(12,12,255)"  stroke="rgb(12,12,255)" stroke-width="1" font-size="16" >N</text>
<text x="227.012698" y="226.908502" fill="rgb(12,12,255)"  stroke="rgb(12,12,255)" stroke-width="1" font-size="16" >N</text>
<text x="261.655008" y="166.908700" fill="rgb(12,12,255)"  stroke="rgb(12,12,255)" stroke-width="1" font-size="16" >N</text>
<text x="162.649274" y="233.676965" fill="rgb(12,12,255)"  stroke="rgb(12,12,255)" stroke-width="1" font-size="16" >N</text>
<text x="181.165576" y="310.796711" fill="rgb(12,12,255)"  stroke="rgb(12,12,255)" stroke-width="1" font-size="16" >N</text>
<text x="62.285968" y="204.814029" fill="rgb(255,12,12)"  stroke="rgb(255,12,12)" stroke-width="1" font-size="16" >O</text>
<text x="92.554959" y="268.270790" fill="rgb(255,12,12)"  stroke="rgb(255,12,12)" stroke-width="1" font-size="16" >O</text>
<text x="222.833318" y="107.127078" fill="rgb(12,12,255)"  stroke="rgb(12,12,255)" stroke-width="1" font-size="16" >NH</text>
<text x="294.013690" y="230.423642" fill="rgb(12,12,255)"  stroke="rgb(12,12,255)" stroke-width="1" font-size="16" >N</text>
<text x="294.013690" y="246.423642" fill="rgb(12,12,255)"  stroke="rgb(12,12,255)" stroke-width="1" font-size="16" >H</text>
<text font-size="18.000000" fill ="white" font-family="sans-serif"
x="10.000000" y="20.000000" ></text>
<title> - OBDepict</title>
<cml:molecule>
 <cml:atomArray>
  <cml:atom id="a1" elementType="C" x2="-0.290200" y2="1.115200"/>
  <cml:atom id="a2" elementType="N" x2="-1.004600" y2="0.702700"/>
  <cml:atom id="a3" elementType="C" x2="-1.004600" y2="-0.122300"/>
  <cml:atom id="a4" elementType="N" x2="-0.290200" y2="-0.534800"/>
  <cml:atom id="a5" elementType="C" x2="0.424300" y2="-0.122300"/>
  <cml:atom id="a6" elementType="N" x2="0.424300" y2="0.702700"/>
  <cml:atom id="a7" elementType="N" x2="-1.617700" y2="-0.674400"/>
  <cml:atom id="a8" elementType="C" x2="-1.531500" y2="-1.494800"/>
  <cml:atom id="a9" elementType="N" x2="-1.235800" y2="-2.265000"/>
  <cml:atom id="a10" elementType="C" x2="-2.285200" y2="-0.189400"/>
  <cml:atom id="a11" elementType="C" x2="-3.020300" y2="-0.564000"/>
  <cml:atom id="a12" elementType="O" x2="-3.687700" y2="-0.079100"/>
  <cml:atom id="a13" elementType="C" x2="-4.271100" y2="-0.662400"/>
  <cml:atom id="a14" elementType="O" x2="-3.063400" y2="-1.387900"/>
  <cml:atom id="a15" elementType="N" x2="-0.376400" y2="1.935700"/>
  <cml:atom id="a16" elementType="C" x2="-0.672100" y2="2.705900"/>
  <cml:atom id="a17" elementType="C" x2="-1.486900" y2="2.834900"/>
  <cml:atom id="a18" elementType="C" x2="0.019800" y2="3.155200"/>
  <cml:atom id="a19" elementType="N" x2="1.091700" y2="-0.607300"/>
  <cml:atom id="a20" elementType="C" x2="1.876300" y2="-0.352300"/>
  <cml:atom id="a21" elementType="C" x2="1.919500" y2="0.471600"/>
  <cml:atom id="a22" elementType="C" x2="2.428400" y2="-0.965400"/>
 </cml:atomArray>
 <cml:bondArray>
  <cml:bond atomRefs2="a1 a2" order="1"/>
  <cml:bond atomRefs2="a2 a3" order="2"/>
  <cml:bond atomRefs2="a3 a4" order="1"/>
  <cml:bond atomRefs2="a4 a5" order="2"/>
  <cml:bond atomRefs2="a5 a6" order="1"/>
  <cml:bond atomRefs2="a1 a6" order="2"/>
  <cml:bond atomRefs2="a3 a7" order="1"/>
  <cml:bond atomRefs2="a7 a8" order="1"/>
  <cml:bond atomRefs2="a8 a9" order="3"/>
  <cml:bond atomRefs2="a7 a10" order="1"/>
  <cml:bond atomRefs2="a10 a11" order="1"/>
  <cml:bond atomRefs2="a11 a12" order="1"/>
  <cml:bond atomRefs2="a12 a13" order="1"/>
  <cml:bond atomRefs2="a11 a14" order="2"/>
  <cml:bond atomRefs2="a1 a15" order="1"/>
  <cml:bond atomRefs2="a15 a16" order="1"/>
  <cml:bond atomRefs2="a16 a17" order="1"/>
  <cml:bond atomRefs2="a16 a18" order="1"/>
  <cml:bond atomRefs2="a5 a19" order="1"/>
  <cml:bond atomRefs2="a19 a20" order="1"/>
  <cml:bond atomRefs2="a20 a21" order="1"/>
  <cml:bond atomRefs2="a20 a22" order="1"/>
 </cml:bondArray>
</cml:molecule>
</svg>
