<?xml version="1.0"?>
<svg xmlns="http://www.w3.org/2000/svg"
xmlns:xlink="http://www.w3.org/1999/xlink" xmlns:cml="http://www.xml-cml.org/schema" width="361.12" height="308.214" x="0" y="0" font-family="sans-serif" stroke="rgb(255,255,255)" stroke-width="1"  stroke-linecap="round">
<rect x="0%" y="0%" width="100%" height="100%" stroke-width="0" fill="rgb(0,0,0)"  />
<line x1="72.4" y1="206.7" x2="78.0" y2="180.3" stroke="rgb(255,255,255)"  stroke-width="1.0"/>
<line x1="94.0" y1="166.6" x2="107.8" y2="168.8" stroke="rgb(255,255,255)"  stroke-width="1.0"/>
<line x1="93.0" y1="172.5" x2="106.9" y2="174.7" stroke="rgb(255,255,255)"  stroke-width="1.0"/>
<line x1="67.3" y1="167.8" x2="53.6" y2="164.9" stroke="rgb(255,255,255)"  stroke-width="1.0"/>
<line x1="68.6" y1="161.9" x2="54.9" y2="159.0" stroke="rgb(255,255,255)"  stroke-width="1.0"/>
<line x1="86.0" y1="155.7" x2="91.7" y2="142.9" stroke="rgb(255,255,255)"  stroke-width="1.0"/>
<line x1="215.2" y1="114.4" x2="239.3" y2="102.1" stroke="rgb(255,255,255)"  stroke-width="1.0"/>
<line x1="243.4" y1="85.1" x2="238.4" y2="72.1" stroke="rgb(255,255,255)"  stroke-width="1.0"/>
<line x1="249.0" y1="83.0" x2="244.0" y2="69.9" stroke="rgb(255,255,255)"  stroke-width="1.0"/>
<line x1="259.4" y1="106.4" x2="265.8" y2="118.9" stroke="rgb(255,255,255)"  stroke-width="1.0"/>
<line x1="254.1" y1="109.1" x2="260.4" y2="121.6" stroke="rgb(255,255,255)"  stroke-width="1.0"/>
<line x1="262.4" y1="90.3" x2="274.9" y2="83.9" stroke="rgb(255,255,255)"  stroke-width="1.0"/>
<line x1="290.5" y1="65.7" x2="298.8" y2="40.0" stroke="rgb(255,255,255)"  stroke-width="1.0"/>
<line x1="297.7" y1="84.5" x2="321.1" y2="98.0" stroke="rgb(255,255,255)"  stroke-width="1.0"/>
<line x1="72.4" y1="206.7" x2="50.5" y2="222.5" stroke="rgb(255,255,255)"  stroke-width="1.0"/>
<line x1="44.0" y1="242.5" x2="52.4" y2="268.2" stroke="rgb(255,255,255)"  stroke-width="1.0"/>
<line x1="52.4" y1="268.2" x2="92.4" y2="268.2" stroke="rgb(255,255,255)"  stroke-width="1.0"/>
<line x1="58.4" y1="261.0" x2="86.4" y2="261.0" stroke="rgb(255,255,255)"  stroke-width="1.0"/>
<line x1="92.4" y1="268.2" x2="104.7" y2="230.2" stroke="rgb(255,255,255)"  stroke-width="1.0"/>
<line x1="104.7" y1="230.2" x2="72.4" y2="206.7" stroke="rgb(255,255,255)"  stroke-width="1.0"/>
<line x1="95.6" y1="232.5" x2="73.0" y2="216.0" stroke="rgb(255,255,255)"  stroke-width="1.0"/>
<line x1="92.9" y1="118.6" x2="84.6" y2="93.0" stroke="rgb(255,255,255)"  stroke-width="1.0"/>
<line x1="84.6" y1="93.0" x2="116.9" y2="69.4" stroke="rgb(255,255,255)"  stroke-width="1.0"/>
<line x1="116.9" y1="69.4" x2="149.3" y2="93.0" stroke="rgb(255,255,255)"  stroke-width="1.0"/>
<line x1="149.3" y1="93.0" x2="136.9" y2="131.0" stroke="rgb(255,255,255)"  stroke-width="1.0"/>
<line x1="140.6" y1="96.4" x2="132.0" y2="123.1" stroke="rgb(255,255,255)"  stroke-width="1.0"/>
<line x1="136.9" y1="131.0" x2="109.9" y2="131.0" stroke="rgb(255,255,255)"  stroke-width="1.0"/>
<line x1="188.4" y1="84.6" x2="215.2" y2="114.4" stroke="rgb(255,255,255)"  stroke-width="1.0"/>
<line x1="187.1" y1="93.9" x2="205.8" y2="114.7" stroke="rgb(255,255,255)"  stroke-width="1.0"/>
<line x1="215.2" y1="114.4" x2="202.8" y2="152.4" stroke="rgb(255,255,255)"  stroke-width="1.0"/>
<line x1="202.8" y1="152.4" x2="163.7" y2="160.7" stroke="rgb(255,255,255)"  stroke-width="1.0"/>
<line x1="195.5" y1="146.6" x2="168.1" y2="152.4" stroke="rgb(255,255,255)"  stroke-width="1.0"/>
<line x1="163.7" y1="160.7" x2="136.9" y2="131.0" stroke="rgb(255,255,255)"  stroke-width="1.0"/>
<line x1="149.3" y1="93.0" x2="188.4" y2="84.6" stroke="rgb(255,255,255)"  stroke-width="1.0"/>
<text x="34.000000" y="238.172414" fill="rgb(178,178,0)"  stroke="rgb(178,178,0)" stroke-width="1" font-size="16" >S</text>
<text x="74.678850" y="175.534742" fill="rgb(178,178,0)"  stroke="rgb(178,178,0)" stroke-width="1" font-size="16" >S</text>
<text x="114.184366" y="181.794145" fill="rgb(255,12,12)"  stroke="rgb(255,12,12)" stroke-width="1" font-size="16" >O</text>
<text x="35.551518" y="167.219577" fill="rgb(255,12,12)"  stroke="rgb(255,12,12)" stroke-width="1" font-size="16" >O</text>
<text x="90.945542" y="138.996504" fill="rgb(12,12,255)"  stroke="rgb(12,12,255)" stroke-width="1" font-size="16" >N</text>
<text x="244.836688" y="104.198874" fill="rgb(178,178,0)"  stroke="rgb(178,178,0)" stroke-width="1" font-size="16" >S</text>
<text x="230.504545" y="66.855787" fill="rgb(255,12,12)"  stroke="rgb(255,12,12)" stroke-width="1" font-size="16" >O</text>
<text x="262.999140" y="139.840141" fill="rgb(255,12,12)"  stroke="rgb(255,12,12)" stroke-width="1" font-size="16" >O</text>
<text x="280.477955" y="86.041271" fill="rgb(12,12,255)"  stroke="rgb(12,12,255)" stroke-width="1" font-size="16" >N</text>
<text font-size="18.000000" fill ="white" font-family="sans-serif"
x="10.000000" y="20.000000" ></text>
<title> - OBDepict</title>
<cml:molecule>
 <cml:atomArray>
  <cml:atom id="a1" elementType="C" x2="-3.928600" y2="-2.512500"/>
  <cml:atom id="a2" elementType="S" x2="-4.596000" y2="-2.997400"/>
  <cml:atom id="a3" elementType="C" x2="-4.341100" y2="-3.782000"/>
  <cml:atom id="a4" elementType="C" x2="-3.516100" y2="-3.782000"/>
  <cml:atom id="a5" elementType="C" x2="-3.261100" y2="-2.997400"/>
  <cml:atom id="a6" elementType="S" x2="-3.757000" y2="-1.705500"/>
  <cml:atom id="a7" elementType="O" x2="-2.942200" y2="-1.834600"/>
  <cml:atom id="a8" elementType="O" x2="-4.564000" y2="-1.534000"/>
  <cml:atom id="a9" elementType="N" x2="-3.421500" y2="-0.951900"/>
  <cml:atom id="a10" elementType="C" x2="-3.009000" y2="0.317700"/>
  <cml:atom id="a11" elementType="C" x2="-3.676400" y2="-0.167300"/>
  <cml:atom id="a12" elementType="C" x2="-2.596500" y2="-0.951900"/>
  <cml:atom id="a13" elementType="C" x2="-2.341600" y2="-0.167300"/>
  <cml:atom id="a14" elementType="C" x2="-1.534600" y2="0.004300"/>
  <cml:atom id="a15" elementType="C" x2="-2.044500" y2="-1.565000"/>
  <cml:atom id="a16" elementType="C" x2="-1.237500" y2="-1.393400"/>
  <cml:atom id="a17" elementType="C" x2="-0.982500" y2="-0.608800"/>
  <cml:atom id="a18" elementType="S" x2="-0.247500" y2="-0.234200"/>
  <cml:atom id="a19" elementType="O" x2="-0.543100" y2="0.536000"/>
  <cml:atom id="a20" elementType="O" x2="0.127100" y2="-0.969300"/>
  <cml:atom id="a21" elementType="N" x2="0.487600" y2="0.140300"/>
  <cml:atom id="a22" elementType="C" x2="0.742600" y2="0.924900"/>
  <cml:atom id="a23" elementType="C" x2="1.202100" y2="-0.272200"/>
 </cml:atomArray>
 <cml:bondArray>
  <cml:bond atomRefs2="a1 a2" order="1"/>
  <cml:bond atomRefs2="a2 a3" order="1"/>
  <cml:bond atomRefs2="a4 a5" order="1"/>
  <cml:bond atomRefs2="a1 a5" order="2"/>
  <cml:bond atomRefs2="a3 a4" order="2"/>
  <cml:bond atomRefs2="a1 a6" order="1"/>
  <cml:bond atomRefs2="a6 a7" order="2"/>
  <cml:bond atomRefs2="a6 a8" order="2"/>
  <cml:bond atomRefs2="a6 a9" order="1"/>
  <cml:bond atomRefs2="a10 a11" order="1"/>
  <cml:bond atomRefs2="a10 a13" order="1"/>
  <cml:bond atomRefs2="a11 a9" order="1"/>
  <cml:bond atomRefs2="a9 a12" order="1"/>
  <cml:bond atomRefs2="a15 a16" order="2"/>
  <cml:bond atomRefs2="a16 a17" order="1"/>
  <cml:bond atomRefs2="a14 a17" order="2"/>
  <cml:bond atomRefs2="a12 a15" order="1"/>
  <cml:bond atomRefs2="a14 a13" order="1"/>
  <cml:bond atomRefs2="a13 a12" order="2"/>
  <cml:bond atomRefs2="a17 a18" order="1"/>
  <cml:bond atomRefs2="a18 a19" order="2"/>
  <cml:bond atomRefs2="a18 a20" order="2"/>
  <cml:bond atomRefs2="a18 a21" order="1"/>
  <cml:bond atomRefs2="a21 a22" order="1"/>
  <cml:bond atomRefs2="a21 a23" order="1"/>
 </cml:bondArray>
</cml:molecule>
</svg>
