<?xml version="1.0"?>
<svg xmlns="http://www.w3.org/2000/svg"
xmlns:xlink="http://www.w3.org/1999/xlink" xmlns:cml="http://www.xml-cml.org/schema" width="363.127" height="322.519" x="0" y="0" font-family="sans-serif" stroke="rgb(0,0,0)" stroke-width="1"  stroke-linecap="round">
<rect x="0%" y="0%" width="100%" height="100%" stroke-width="0" fill="rgb(255,255,255)"  />
<line x1="289.6" y1="76.6" x2="312.2" y2="61.9" stroke="rgb(0,0,0)"  stroke-width="1.0"/>
<line x1="268.5" y1="177.0" x2="243.3" y2="208.1" stroke="rgb(0,0,0)"  stroke-width="1.0"/>
<polygon points="223.307043 242.738360 224.483767 269.809660 216.527592 268.973433 " stroke-width="1.000000" fill="rgb(0,0,0)"  stroke="rgb(0,0,0)" />
<polygon points="184.181139 234.421892 158.798430 243.906516 157.135136 236.081335 " stroke-width="1.000000" fill="rgb(0,0,0)"  stroke="rgb(0,0,0)" />
<line x1="176.6" y1="190.4" x2="178.0" y2="189.6" stroke="rgb(0,0,0)"  stroke-width="1.0"/>
<line x1="173.9" y1="187.0" x2="176.4" y2="185.6" stroke="rgb(0,0,0)"  stroke-width="1.0"/>
<line x1="171.2" y1="183.6" x2="174.8" y2="181.5" stroke="rgb(0,0,0)"  stroke-width="1.0"/>
<line x1="168.5" y1="180.2" x2="173.2" y2="177.5" stroke="rgb(0,0,0)"  stroke-width="1.0"/>
<line x1="165.8" y1="176.8" x2="171.7" y2="173.5" stroke="rgb(0,0,0)"  stroke-width="1.0"/>
<line x1="163.1" y1="173.4" x2="170.1" y2="169.4" stroke="rgb(0,0,0)"  stroke-width="1.0"/>
<line x1="180.0" y1="194.6" x2="140.0" y2="194.6" stroke="rgb(0,0,0)"  stroke-width="1.0"/>
<line x1="140.0" y1="194.6" x2="126.5" y2="171.3" stroke="rgb(0,0,0)"  stroke-width="1.0"/>
<line x1="107.0" y1="160.0" x2="93.0" y2="160.0" stroke="rgb(0,0,0)"  stroke-width="1.0"/>
<line x1="83.0" y1="173.0" x2="83.0" y2="187.0" stroke="rgb(0,0,0)"  stroke-width="1.0"/>
<line x1="77.0" y1="173.0" x2="77.0" y2="187.0" stroke="rgb(0,0,0)"  stroke-width="1.0"/>
<line x1="67.0" y1="160.0" x2="53.0" y2="160.0" stroke="rgb(0,0,0)"  stroke-width="1.0"/>
<line x1="80.0" y1="147.0" x2="80.0" y2="133.0" stroke="rgb(0,0,0)"  stroke-width="1.0"/>
<line x1="80.0" y1="107.0" x2="80.0" y2="93.0" stroke="rgb(0,0,0)"  stroke-width="1.0"/>
<line x1="67.0" y1="83.0" x2="53.0" y2="83.0" stroke="rgb(0,0,0)"  stroke-width="1.0"/>
<line x1="67.0" y1="77.0" x2="53.0" y2="77.0" stroke="rgb(0,0,0)"  stroke-width="1.0"/>
<line x1="80.0" y1="67.0" x2="80.0" y2="53.0" stroke="rgb(0,0,0)"  stroke-width="1.0"/>
<line x1="93.0" y1="80.0" x2="107.0" y2="80.0" stroke="rgb(0,0,0)"  stroke-width="1.0"/>
<line x1="133.0" y1="80.0" x2="147.0" y2="80.0" stroke="rgb(0,0,0)"  stroke-width="1.0"/>
<line x1="157.0" y1="67.0" x2="157.0" y2="53.0" stroke="rgb(0,0,0)"  stroke-width="1.0"/>
<line x1="163.0" y1="67.0" x2="163.0" y2="53.0" stroke="rgb(0,0,0)"  stroke-width="1.0"/>
<line x1="173.0" y1="80.0" x2="187.0" y2="80.0" stroke="rgb(0,0,0)"  stroke-width="1.0"/>
<line x1="160.0" y1="93.0" x2="160.0" y2="107.0" stroke="rgb(0,0,0)"  stroke-width="1.0"/>
<line x1="184.2" y1="234.4" x2="175.8" y2="260.1" stroke="rgb(0,0,0)"  stroke-width="1.0"/>
<line x1="223.3" y1="242.7" x2="245.2" y2="258.6" stroke="rgb(0,0,0)"  stroke-width="1.0"/>
<line x1="247.3" y1="211.7" x2="246.1" y2="212.7" stroke="rgb(0,0,0)"  stroke-width="1.0"/>
<line x1="250.6" y1="214.6" x2="248.3" y2="216.5" stroke="rgb(0,0,0)"  stroke-width="1.0"/>
<line x1="253.8" y1="217.5" x2="250.6" y2="220.2" stroke="rgb(0,0,0)"  stroke-width="1.0"/>
<line x1="257.0" y1="220.4" x2="252.8" y2="223.9" stroke="rgb(0,0,0)"  stroke-width="1.0"/>
<line x1="260.2" y1="223.3" x2="255.0" y2="227.6" stroke="rgb(0,0,0)"  stroke-width="1.0"/>
<line x1="263.4" y1="226.2" x2="257.3" y2="231.3" stroke="rgb(0,0,0)"  stroke-width="1.0"/>
<line x1="322.8" y1="141.8" x2="308.4" y2="179.1" stroke="rgb(0,0,0)"  stroke-width="1.0"/>
<line x1="308.4" y1="179.1" x2="268.5" y2="177.0" stroke="rgb(0,0,0)"  stroke-width="1.0"/>
<line x1="302.8" y1="171.6" x2="274.8" y2="170.1" stroke="rgb(0,0,0)"  stroke-width="1.0"/>
<line x1="268.5" y1="177.0" x2="261.5" y2="150.9" stroke="rgb(0,0,0)"  stroke-width="1.0"/>
<line x1="269.2" y1="131.2" x2="291.7" y2="116.6" stroke="rgb(0,0,0)"  stroke-width="1.0"/>
<line x1="274.8" y1="136.1" x2="290.6" y2="125.9" stroke="rgb(0,0,0)"  stroke-width="1.0"/>
<line x1="291.7" y1="116.6" x2="322.8" y2="141.8" stroke="rgb(0,0,0)"  stroke-width="1.0"/>
<line x1="243.3" y1="208.1" x2="223.3" y2="242.7" stroke="rgb(0,0,0)"  stroke-width="1.0"/>
<line x1="223.3" y1="242.7" x2="184.2" y2="234.4" stroke="rgb(0,0,0)"  stroke-width="1.0"/>
<line x1="184.2" y1="234.4" x2="180.0" y2="194.6" stroke="rgb(0,0,0)"  stroke-width="1.0"/>
<line x1="180.0" y1="194.6" x2="204.7" y2="183.7" stroke="rgb(0,0,0)"  stroke-width="1.0"/>
<line x1="225.2" y1="188.0" x2="243.3" y2="208.1" stroke="rgb(0,0,0)"  stroke-width="1.0"/>
<line x1="220.4" y1="80.3" x2="243.0" y2="65.6" stroke="rgb(0,0,0)"  stroke-width="1.0"/>
<line x1="265.7" y1="64.5" x2="289.6" y2="76.6" stroke="rgb(0,0,0)"  stroke-width="1.0"/>
<line x1="264.2" y1="71.8" x2="281.0" y2="80.3" stroke="rgb(0,0,0)"  stroke-width="1.0"/>
<line x1="289.6" y1="76.6" x2="291.7" y2="116.6" stroke="rgb(0,0,0)"  stroke-width="1.0"/>
<line x1="246.5" y1="132.5" x2="234.1" y2="126.1" stroke="rgb(0,0,0)"  stroke-width="1.0"/>
<line x1="221.8" y1="107.0" x2="220.4" y2="80.3" stroke="rgb(0,0,0)"  stroke-width="1.0"/>
<line x1="228.9" y1="104.7" x2="227.9" y2="85.9" stroke="rgb(0,0,0)"  stroke-width="1.0"/>
<text x="252.127096" y="146.374472" fill="rgb(12,12,255)"  stroke="rgb(12,12,255)" stroke-width="1" font-size="16" >N</text>
<text x="247.940220" y="66.484109" fill="rgb(12,12,255)"  stroke="rgb(12,12,255)" stroke-width="1" font-size="16" >N</text>
<text x="216.486835" y="128.214852" fill="rgb(12,12,255)"  stroke="rgb(12,12,255)" stroke-width="1" font-size="16" >N</text>
<text x="319.127304" y="62.858168" fill="rgb(12,12,255)"  stroke="rgb(12,12,255)" stroke-width="1" font-size="16" >NH</text>
<text x="343.127304" y="66.538168" fill="rgb(12,12,255)"  stroke="rgb(12,12,255)" stroke-width="1" font-size="13" >2</text>
<text x="213.125904" y="290.519235" fill="rgb(191,191,191)"  stroke="rgb(191,191,191)" stroke-width="1" font-size="16" >H</text>
<text x="139.055235" y="250.738360" fill="rgb(191,191,191)"  stroke="rgb(191,191,191)" stroke-width="1" font-size="16" >H</text>
<text x="154.000000" y="168.000000" fill="rgb(191,191,191)"  stroke="rgb(191,191,191)" stroke-width="1" font-size="16" >H</text>
<text x="210.541818" y="186.371550" fill="rgb(255,12,12)"  stroke="rgb(255,12,12)" stroke-width="1" font-size="16" >O</text>
<text x="114.000000" y="168.000000" fill="rgb(255,12,12)"  stroke="rgb(255,12,12)" stroke-width="1" font-size="16" >O</text>
<text x="74.000000" y="168.000000" fill="rgb(255,127,0)"  stroke="rgb(255,127,0)" stroke-width="1" font-size="16" >P</text>
<text x="74.000000" y="208.000000" fill="rgb(255,12,12)"  stroke="rgb(255,12,12)" stroke-width="1" font-size="16" >O</text>
<text x="22.000000" y="168.000000" fill="rgb(255,12,12)"  stroke="rgb(255,12,12)" stroke-width="1" font-size="16" >HO</text>
<text x="74.000000" y="128.000000" fill="rgb(255,12,12)"  stroke="rgb(255,12,12)" stroke-width="1" font-size="16" >O</text>
<text x="74.000000" y="88.000000" fill="rgb(255,127,0)"  stroke="rgb(255,127,0)" stroke-width="1" font-size="16" >P</text>
<text x="34.000000" y="88.000000" fill="rgb(255,12,12)"  stroke="rgb(255,12,12)" stroke-width="1" font-size="16" >O</text>
<text x="74.000000" y="48.000000" fill="rgb(255,12,12)"  stroke="rgb(255,12,12)" stroke-width="1" font-size="16" >OH</text>
<text x="114.000000" y="88.000000" fill="rgb(255,12,12)"  stroke="rgb(255,12,12)" stroke-width="1" font-size="16" >O</text>
<text x="154.000000" y="88.000000" fill="rgb(255,127,0)"  stroke="rgb(255,127,0)" stroke-width="1" font-size="16" >P</text>
<text x="154.000000" y="48.000000" fill="rgb(255,12,12)"  stroke="rgb(255,12,12)" stroke-width="1" font-size="16" >O</text>
<text x="194.000000" y="88.000000" fill="rgb(255,12,12)"  stroke="rgb(255,12,12)" stroke-width="1" font-size="16" >OH</text>
<text x="154.000000" y="128.000000" fill="rgb(255,12,12)"  stroke="rgb(255,12,12)" stroke-width="1" font-size="16" >OH</text>
<text x="153.820459" y="280.464153" fill="rgb(255,12,12)"  stroke="rgb(255,12,12)" stroke-width="1" font-size="16" >HO</text>
<text x="249.667722" y="274.249770" fill="rgb(255,12,12)"  stroke="rgb(255,12,12)" stroke-width="1" font-size="16" >OH</text>
<text x="262.763519" y="246.951319" fill="rgb(0,0,0)"  stroke="rgb(0,0,0)" stroke-width="1" font-size="16" >CN</text>
<text font-size="18.000000" fill ="black" font-family="sans-serif"
x="10.000000" y="20.000000" ></text>
<title> - OBDepict</title>
</svg>
