<?xml version="1.0"?>
<svg xmlns="http://www.w3.org/2000/svg"
xmlns:xlink="http://www.w3.org/1999/xlink" xmlns:cml="http://www.xml-cml.org/schema" width="431.112" height="323.786" x="0" y="0" font-family="sans-serif" stroke="rgb(255,255,255)" stroke-width="1"  stroke-linecap="round">
<rect x="0%" y="0%" width="100%" height="100%" stroke-width="0" fill="rgb(0,0,0)"  />
<line x1="109.3" y1="100.0" x2="140.4" y2="125.2" stroke="rgb(255,255,255)"  stroke-width="1.0"/>
<line x1="209.6" y1="165.2" x2="243.2" y2="187.0" stroke="rgb(255,255,255)"  stroke-width="1.0"/>
<line x1="246.2" y1="187.0" x2="246.2" y2="214.0" stroke="rgb(255,255,255)"  stroke-width="1.0"/>
<line x1="240.2" y1="187.0" x2="240.2" y2="214.0" stroke="rgb(255,255,255)"  stroke-width="1.0"/>
<line x1="243.2" y1="187.0" x2="275.6" y2="163.4" stroke="rgb(255,255,255)"  stroke-width="1.0"/>
<line x1="272.6" y1="163.4" x2="272.6" y2="136.4" stroke="rgb(255,255,255)"  stroke-width="1.0"/>
<line x1="278.6" y1="163.4" x2="278.6" y2="136.4" stroke="rgb(255,255,255)"  stroke-width="1.0"/>
<line x1="275.6" y1="163.4" x2="300.2" y2="174.4" stroke="rgb(255,255,255)"  stroke-width="1.0"/>
<line x1="316.8" y1="191.9" x2="326.4" y2="217.1" stroke="rgb(255,255,255)"  stroke-width="1.0"/>
<line x1="326.4" y1="217.1" x2="289.9" y2="233.3" stroke="rgb(255,255,255)"  stroke-width="1.0"/>
<line x1="326.4" y1="217.1" x2="351.6" y2="248.1" stroke="rgb(255,255,255)"  stroke-width="1.0"/>
<line x1="351.6" y1="248.1" x2="326.4" y2="279.2" stroke="rgb(255,255,255)"  stroke-width="1.0"/>
<line x1="351.6" y1="248.1" x2="369.8" y2="283.8" stroke="rgb(255,255,255)"  stroke-width="1.0"/>
<line x1="351.6" y1="248.1" x2="391.1" y2="241.9" stroke="rgb(255,255,255)"  stroke-width="1.0"/>
<line x1="330.7" y1="213.7" x2="331.5" y2="215.1" stroke="rgb(255,255,255)"  stroke-width="1.0"/>
<line x1="334.1" y1="211.0" x2="335.5" y2="213.5" stroke="rgb(255,255,255)"  stroke-width="1.0"/>
<line x1="337.5" y1="208.3" x2="339.5" y2="211.9" stroke="rgb(255,255,255)"  stroke-width="1.0"/>
<line x1="340.9" y1="205.6" x2="343.6" y2="210.3" stroke="rgb(255,255,255)"  stroke-width="1.0"/>
<line x1="344.2" y1="202.9" x2="347.6" y2="208.7" stroke="rgb(255,255,255)"  stroke-width="1.0"/>
<line x1="347.6" y1="200.2" x2="351.6" y2="207.1" stroke="rgb(255,255,255)"  stroke-width="1.0"/>
<line x1="74.6" y1="40.0" x2="40.0" y2="60.0" stroke="rgb(255,255,255)"  stroke-width="1.0"/>
<line x1="40.0" y1="60.0" x2="40.0" y2="100.0" stroke="rgb(255,255,255)"  stroke-width="1.0"/>
<line x1="40.0" y1="100.0" x2="74.6" y2="120.0" stroke="rgb(255,255,255)"  stroke-width="1.0"/>
<line x1="74.6" y1="120.0" x2="109.3" y2="100.0" stroke="rgb(255,255,255)"  stroke-width="1.0"/>
<line x1="109.3" y1="100.0" x2="109.3" y2="60.0" stroke="rgb(255,255,255)"  stroke-width="1.0"/>
<line x1="109.3" y1="60.0" x2="74.6" y2="40.0" stroke="rgb(255,255,255)"  stroke-width="1.0"/>
<line x1="140.4" y1="125.2" x2="140.4" y2="165.2" stroke="rgb(255,255,255)"  stroke-width="1.0"/>
<line x1="147.6" y1="131.2" x2="147.6" y2="159.2" stroke="rgb(255,255,255)"  stroke-width="1.0"/>
<line x1="140.4" y1="165.2" x2="175.0" y2="185.2" stroke="rgb(255,255,255)"  stroke-width="1.0"/>
<line x1="175.0" y1="185.2" x2="209.6" y2="165.2" stroke="rgb(255,255,255)"  stroke-width="1.0"/>
<line x1="176.6" y1="175.9" x2="200.9" y2="161.9" stroke="rgb(255,255,255)"  stroke-width="1.0"/>
<line x1="209.6" y1="165.2" x2="209.6" y2="125.2" stroke="rgb(255,255,255)"  stroke-width="1.0"/>
<line x1="209.6" y1="125.2" x2="175.0" y2="105.2" stroke="rgb(255,255,255)"  stroke-width="1.0"/>
<line x1="200.9" y1="128.4" x2="176.6" y2="114.4" stroke="rgb(255,255,255)"  stroke-width="1.0"/>
<line x1="175.0" y1="105.2" x2="140.4" y2="125.2" stroke="rgb(255,255,255)"  stroke-width="1.0"/>
<text x="237.194574" y="234.961892" fill="rgb(255,12,12)"  stroke="rgb(255,12,12)" stroke-width="1" font-size="16" >O</text>
<text x="269.553269" y="131.447035" fill="rgb(255,12,12)"  stroke="rgb(255,12,12)" stroke-width="1" font-size="16" >O</text>
<text x="306.096196" y="187.718390" fill="rgb(12,12,255)"  stroke="rgb(12,12,255)" stroke-width="1" font-size="16" >NH</text>
<text x="355.075450" y="205.061371" fill="rgb(191,191,191)"  stroke="rgb(191,191,191)" stroke-width="1" font-size="16" >H</text>
<text font-size="18.000000" fill ="white" font-family="sans-serif"
x="10.000000" y="20.000000" ></text>
<title> - OBDepict</title>
<cml:molecule>
 <cml:atomArray>
  <cml:atom id="a1" elementType="C" x2="-4.330400" y2="4.351800"/>
  <cml:atom id="a2" elementType="C" x2="-5.044800" y2="3.939300"/>
  <cml:atom id="a3" elementType="C" x2="-5.044800" y2="3.114300"/>
  <cml:atom id="a4" elementType="C" x2="-4.330400" y2="2.701800"/>
  <cml:atom id="a5" elementType="C" x2="-3.615900" y2="3.114300"/>
  <cml:atom id="a6" elementType="C" x2="-3.615900" y2="3.939300"/>
  <cml:atom id="a7" elementType="C" x2="-2.974700" y2="2.595100"/>
  <cml:atom id="a8" elementType="C" x2="-2.260300" y2="3.007600"/>
  <cml:atom id="a9" elementType="C" x2="-2.974700" y2="1.770100"/>
  <cml:atom id="a10" elementType="C" x2="-2.260300" y2="1.357600"/>
  <cml:atom id="a11" elementType="C" x2="-1.545800" y2="1.770100"/>
  <cml:atom id="a12" elementType="C" x2="-1.545800" y2="2.595100"/>
  <cml:atom id="a13" elementType="C" x2="-0.853900" y2="1.320700"/>
  <cml:atom id="a14" elementType="O" x2="-0.853900" y2="0.495700"/>
  <cml:atom id="a15" elementType="C" x2="-0.186500" y2="1.805700"/>
  <cml:atom id="a16" elementType="O" x2="-0.186500" y2="2.630700"/>
  <cml:atom id="a17" elementType="N" x2="0.567200" y2="1.470100"/>
  <cml:atom id="a18" elementType="C" x2="0.862900" y2="0.699900">
   <cml:atomParity atomRefs4="a24 a17 a19 a20">1</cml:atomParity>
  </cml:atom>
  <cml:atom id="a19" elementType="C" x2="0.109200" y2="0.364300"/>
  <cml:atom id="a20" elementType="C" x2="1.382000" y2="0.058800"/>
  <cml:atom id="a21" elementType="C" x2="0.862900" y2="-0.582400"/>
  <cml:atom id="a22" elementType="C" x2="1.756600" y2="-0.676300"/>
  <cml:atom id="a23" elementType="C" x2="2.196900" y2="0.187800"/>
  <cml:atom id="a24" elementType="H" x2="1.577400" y2="1.112400"/>
 </cml:atomArray>
 <cml:bondArray>
  <cml:bond atomRefs2="a1 a2" order="1"/>
  <cml:bond atomRefs2="a2 a3" order="1"/>
  <cml:bond atomRefs2="a3 a4" order="1"/>
  <cml:bond atomRefs2="a4 a5" order="1"/>
  <cml:bond atomRefs2="a5 a6" order="1"/>
  <cml:bond atomRefs2="a1 a6" order="1"/>
  <cml:bond atomRefs2="a5 a7" order="1"/>
  <cml:bond atomRefs2="a9 a10" order="1"/>
  <cml:bond atomRefs2="a10 a11" order="2"/>
  <cml:bond atomRefs2="a11 a12" order="1"/>
  <cml:bond atomRefs2="a8 a12" order="2"/>
  <cml:bond atomRefs2="a8 a7" order="1"/>
  <cml:bond atomRefs2="a7 a9" order="2"/>
  <cml:bond atomRefs2="a11 a13" order="1"/>
  <cml:bond atomRefs2="a13 a14" order="2"/>
  <cml:bond atomRefs2="a13 a15" order="1"/>
  <cml:bond atomRefs2="a15 a16" order="2"/>
  <cml:bond atomRefs2="a15 a17" order="1"/>
  <cml:bond atomRefs2="a17 a18" order="1"/>
  <cml:bond atomRefs2="a18 a19" order="1"/>
  <cml:bond atomRefs2="a18 a20" order="1"/>
  <cml:bond atomRefs2="a20 a21" order="1"/>
  <cml:bond atomRefs2="a20 a22" order="1"/>
  <cml:bond atomRefs2="a20 a23" order="1"/>
  <cml:bond atomRefs2="a18 a24" order="1"/>
 </cml:bondArray>
</cml:molecule>
</svg>
