<?xml version="1.0"?>
<svg xmlns="http://www.w3.org/2000/svg"
xmlns:xlink="http://www.w3.org/1999/xlink" xmlns:cml="http://www.xml-cml.org/schema" width="467.639" height="314.343" x="0" y="0" font-family="sans-serif" stroke="rgb(255,255,255)" stroke-width="1"  stroke-linecap="round">
<rect x="0%" y="0%" width="100%" height="100%" stroke-width="0" fill="rgb(0,0,0)"  />
<line x1="113.5" y1="180.0" x2="113.5" y2="207.0" stroke="rgb(255,255,255)"  stroke-width="1.0"/>
<line x1="102.2" y1="226.5" x2="78.8" y2="240.0" stroke="rgb(255,255,255)"  stroke-width="1.0"/>
<line x1="78.8" y1="160.0" x2="55.4" y2="173.5" stroke="rgb(255,255,255)"  stroke-width="1.0"/>
<line x1="42.8" y1="167.1" x2="40.0" y2="140.2" stroke="rgb(255,255,255)"  stroke-width="1.0"/>
<line x1="148.1" y1="120.0" x2="182.7" y2="100.0" stroke="rgb(255,255,255)"  stroke-width="1.0"/>
<line x1="182.7" y1="100.0" x2="182.7" y2="60.0" stroke="rgb(255,255,255)"  stroke-width="1.0"/>
<line x1="182.7" y1="60.0" x2="148.1" y2="40.0" stroke="rgb(255,255,255)"  stroke-width="1.0"/>
<line x1="182.7" y1="60.0" x2="217.4" y2="40.0" stroke="rgb(255,255,255)"  stroke-width="1.0"/>
<line x1="182.7" y1="100.0" x2="217.4" y2="120.0" stroke="rgb(255,255,255)"  stroke-width="1.0"/>
<line x1="182.7" y1="100.0" x2="182.7" y2="140.0" stroke="rgb(255,255,255)"  stroke-width="1.0"/>
<line x1="182.7" y1="140.0" x2="199.0" y2="176.5" stroke="rgb(255,255,255)"  stroke-width="1.0"/>
<line x1="199.0" y1="176.5" x2="175.5" y2="208.9" stroke="rgb(255,255,255)"  stroke-width="1.0"/>
<line x1="221.9" y1="260.4" x2="251.6" y2="233.6" stroke="rgb(255,255,255)"  stroke-width="1.0"/>
<line x1="175.5" y1="208.9" x2="201.2" y2="217.2" stroke="rgb(255,255,255)"  stroke-width="1.0"/>
<line x1="216.2" y1="234.0" x2="221.9" y2="260.4" stroke="rgb(255,255,255)"  stroke-width="1.0"/>
<line x1="223.2" y1="212.6" x2="243.3" y2="194.5" stroke="rgb(255,255,255)"  stroke-width="1.0"/>
<line x1="251.6" y1="233.6" x2="291.6" y2="233.6" stroke="rgb(255,255,255)"  stroke-width="1.0"/>
<line x1="351.6" y1="199.0" x2="367.5" y2="177.1" stroke="rgb(255,255,255)"  stroke-width="1.0"/>
<line x1="371.6" y1="233.6" x2="398.4" y2="236.4" stroke="rgb(255,255,255)"  stroke-width="1.0"/>
<line x1="369.8" y1="154.7" x2="358.8" y2="130.1" stroke="rgb(255,255,255)"  stroke-width="1.0"/>
<line x1="416.7" y1="249.7" x2="427.6" y2="274.3" stroke="rgb(255,255,255)"  stroke-width="1.0"/>
<line x1="217.4" y1="120.0" x2="243.1" y2="111.6" stroke="rgb(255,255,255)"  stroke-width="1.0"/>
<line x1="216.1" y1="116.0" x2="241.8" y2="107.7" stroke="rgb(255,255,255)"  stroke-width="1.0"/>
<line x1="218.7" y1="124.0" x2="244.4" y2="115.6" stroke="rgb(255,255,255)"  stroke-width="1.0"/>
<line x1="113.5" y1="100.0" x2="78.8" y2="120.0" stroke="rgb(255,255,255)"  stroke-width="1.0"/>
<line x1="111.9" y1="109.2" x2="87.6" y2="123.2" stroke="rgb(255,255,255)"  stroke-width="1.0"/>
<line x1="78.8" y1="120.0" x2="78.8" y2="160.0" stroke="rgb(255,255,255)"  stroke-width="1.0"/>
<line x1="78.8" y1="160.0" x2="113.5" y2="180.0" stroke="rgb(255,255,255)"  stroke-width="1.0"/>
<line x1="87.6" y1="156.8" x2="111.9" y2="170.8" stroke="rgb(255,255,255)"  stroke-width="1.0"/>
<line x1="113.5" y1="180.0" x2="148.1" y2="160.0" stroke="rgb(255,255,255)"  stroke-width="1.0"/>
<line x1="148.1" y1="160.0" x2="148.1" y2="120.0" stroke="rgb(255,255,255)"  stroke-width="1.0"/>
<line x1="140.9" y1="154.0" x2="140.9" y2="126.0" stroke="rgb(255,255,255)"  stroke-width="1.0"/>
<line x1="148.1" y1="120.0" x2="113.5" y2="100.0" stroke="rgb(255,255,255)"  stroke-width="1.0"/>
<line x1="291.6" y1="233.6" x2="311.6" y2="268.3" stroke="rgb(255,255,255)"  stroke-width="1.0"/>
<line x1="300.8" y1="235.2" x2="314.8" y2="259.5" stroke="rgb(255,255,255)"  stroke-width="1.0"/>
<line x1="311.6" y1="268.3" x2="351.6" y2="268.3" stroke="rgb(255,255,255)"  stroke-width="1.0"/>
<line x1="351.6" y1="268.3" x2="371.6" y2="233.6" stroke="rgb(255,255,255)"  stroke-width="1.0"/>
<line x1="348.4" y1="259.5" x2="362.4" y2="235.2" stroke="rgb(255,255,255)"  stroke-width="1.0"/>
<line x1="371.6" y1="233.6" x2="351.6" y2="199.0" stroke="rgb(255,255,255)"  stroke-width="1.0"/>
<line x1="351.6" y1="199.0" x2="311.6" y2="199.0" stroke="rgb(255,255,255)"  stroke-width="1.0"/>
<line x1="345.6" y1="206.2" x2="317.6" y2="206.2" stroke="rgb(255,255,255)"  stroke-width="1.0"/>
<line x1="311.6" y1="199.0" x2="291.6" y2="233.6" stroke="rgb(255,255,255)"  stroke-width="1.0"/>
<text x="38.179418" y="188.000795" fill="rgb(255,12,12)"  stroke="rgb(255,12,12)" stroke-width="1" font-size="16" >O</text>
<text x="107.459811" y="228.001023" fill="rgb(255,12,12)"  stroke="rgb(255,12,12)" stroke-width="1" font-size="16" >O</text>
<text x="207.542804" y="229.256787" fill="rgb(12,12,255)"  stroke="rgb(12,12,255)" stroke-width="1" font-size="16" >N</text>
<text x="369.100086" y="174.618901" fill="rgb(255,12,12)"  stroke="rgb(255,12,12)" stroke-width="1" font-size="16" >O</text>
<text x="405.366958" y="245.804760" fill="rgb(255,12,12)"  stroke="rgb(255,12,12)" stroke-width="1" font-size="16" >O</text>
<text x="249.429103" y="115.631899" fill="rgb(12,12,255)"  stroke="rgb(12,12,255)" stroke-width="1" font-size="16" >N</text>
<text font-size="18.000000" fill ="white" font-family="sans-serif"
x="10.000000" y="20.000000" ></text>
<title> - OBDepict</title>
<cml:molecule>
 <cml:atomArray>
  <cml:atom id="a1" elementType="C" x2="-4.575900" y2="-0.826700"/>
  <cml:atom id="a2" elementType="C" x2="-5.290300" y2="-1.239200"/>
  <cml:atom id="a3" elementType="C" x2="-5.290300" y2="-2.064300"/>
  <cml:atom id="a4" elementType="C" x2="-4.575900" y2="-2.476800"/>
  <cml:atom id="a5" elementType="C" x2="-3.861400" y2="-2.064300"/>
  <cml:atom id="a6" elementType="C" x2="-3.861400" y2="-1.239200"/>
  <cml:atom id="a7" elementType="O" x2="-6.004800" y2="-2.476800"/>
  <cml:atom id="a8" elementType="O" x2="-4.575900" y2="-3.301800"/>
  <cml:atom id="a9" elementType="C" x2="-6.091000" y2="-1.656300"/>
  <cml:atom id="a10" elementType="C" x2="-5.290400" y2="-3.714300"/>
  <cml:atom id="a11" elementType="C" x2="-3.146900" y2="-0.826700"/>
  <cml:atom id="a12" elementType="C" x2="-3.146900" y2="-0.001700"/>
  <cml:atom id="a13" elementType="C" x2="-3.861400" y2="0.410700"/>
  <cml:atom id="a14" elementType="C" x2="-2.432500" y2="0.410700"/>
  <cml:atom id="a15" elementType="C" x2="-2.432500" y2="-1.239200"/>
  <cml:atom id="a16" elementType="C" x2="-3.146900" y2="-1.651700"/>
  <cml:atom id="a17" elementType="C" x2="-2.811400" y2="-2.405400"/>
  <cml:atom id="a18" elementType="C" x2="-3.296300" y2="-3.072800"/>
  <cml:atom id="a19" elementType="N" x2="-2.511700" y2="-3.327700"/>
  <cml:atom id="a20" elementType="C" x2="-2.340100" y2="-4.134700"/>
  <cml:atom id="a21" elementType="C" x2="-1.727000" y2="-3.582700"/>
  <cml:atom id="a22" elementType="C" x2="-1.898600" y2="-2.775700"/>
  <cml:atom id="a23" elementType="C" x2="-0.902000" y2="-3.582700"/>
  <cml:atom id="a24" elementType="C" x2="-0.489600" y2="-4.297100"/>
  <cml:atom id="a25" elementType="C" x2="0.335400" y2="-4.297100"/>
  <cml:atom id="a26" elementType="C" x2="0.748000" y2="-3.582700"/>
  <cml:atom id="a27" elementType="C" x2="0.335500" y2="-2.868200"/>
  <cml:atom id="a28" elementType="C" x2="-0.489500" y2="-2.868200"/>
  <cml:atom id="a29" elementType="O" x2="0.820400" y2="-2.200800"/>
  <cml:atom id="a30" elementType="O" x2="1.568400" y2="-3.669000"/>
  <cml:atom id="a31" elementType="C" x2="0.484800" y2="-1.447100"/>
  <cml:atom id="a32" elementType="C" x2="1.904000" y2="-4.422600"/>
  <cml:atom id="a33" elementType="N" x2="-1.647800" y2="-0.984200"/>
 </cml:atomArray>
 <cml:bondArray>
  <cml:bond atomRefs2="a1 a2" order="2"/>
  <cml:bond atomRefs2="a2 a3" order="1"/>
  <cml:bond atomRefs2="a3 a4" order="2"/>
  <cml:bond atomRefs2="a4 a5" order="1"/>
  <cml:bond atomRefs2="a5 a6" order="2"/>
  <cml:bond atomRefs2="a6 a1" order="1"/>
  <cml:bond atomRefs2="a4 a8" order="1"/>
  <cml:bond atomRefs2="a8 a10" order="1"/>
  <cml:bond atomRefs2="a3 a7" order="1"/>
  <cml:bond atomRefs2="a7 a9" order="1"/>
  <cml:bond atomRefs2="a6 a11" order="1"/>
  <cml:bond atomRefs2="a11 a12" order="1"/>
  <cml:bond atomRefs2="a12 a13" order="1"/>
  <cml:bond atomRefs2="a12 a14" order="1"/>
  <cml:bond atomRefs2="a11 a15" order="1"/>
  <cml:bond atomRefs2="a11 a16" order="1"/>
  <cml:bond atomRefs2="a16 a17" order="1"/>
  <cml:bond atomRefs2="a17 a18" order="1"/>
  <cml:bond atomRefs2="a20 a21" order="1"/>
  <cml:bond atomRefs2="a18 a19" order="1"/>
  <cml:bond atomRefs2="a19 a20" order="1"/>
  <cml:bond atomRefs2="a19 a22" order="1"/>
  <cml:bond atomRefs2="a23 a24" order="2"/>
  <cml:bond atomRefs2="a24 a25" order="1"/>
  <cml:bond atomRefs2="a25 a26" order="2"/>
  <cml:bond atomRefs2="a26 a27" order="1"/>
  <cml:bond atomRefs2="a27 a28" order="2"/>
  <cml:bond atomRefs2="a28 a23" order="1"/>
  <cml:bond atomRefs2="a21 a23" order="1"/>
  <cml:bond atomRefs2="a27 a29" order="1"/>
  <cml:bond atomRefs2="a26 a30" order="1"/>
  <cml:bond atomRefs2="a29 a31" order="1"/>
  <cml:bond atomRefs2="a30 a32" order="1"/>
  <cml:bond atomRefs2="a15 a33" order="3"/>
 </cml:bondArray>
</cml:molecule>
</svg>
