<?xml version="1.0"?>
<svg xmlns="http://www.w3.org/2000/svg"
xmlns:xlink="http://www.w3.org/1999/xlink" xmlns:cml="http://www.xml-cml.org/schema" width="498.246" height="405.175" x="0" y="0" font-family="sans-serif" stroke="rgb(255,255,255)" stroke-width="1"  stroke-linecap="round">
<rect x="0%" y="0%" width="100%" height="100%" stroke-width="0" fill="rgb(0,0,0)"  />
<line x1="272.7" y1="152.2" x2="272.7" y2="125.2" stroke="rgb(255,255,255)"  stroke-width="1.0"/>
<line x1="272.7" y1="245.2" x2="307.3" y2="225.2" stroke="rgb(255,255,255)"  stroke-width="1.0"/>
<line x1="307.3" y1="225.2" x2="307.3" y2="185.2" stroke="rgb(255,255,255)"  stroke-width="1.0"/>
<line x1="283.9" y1="171.7" x2="307.3" y2="185.2" stroke="rgb(255,255,255)"  stroke-width="1.0"/>
<line x1="203.4" y1="285.2" x2="226.8" y2="298.7" stroke="rgb(255,255,255)"  stroke-width="1.0"/>
<line x1="249.3" y1="298.7" x2="272.7" y2="285.2" stroke="rgb(255,255,255)"  stroke-width="1.0"/>
<line x1="272.7" y1="285.2" x2="272.7" y2="245.2" stroke="rgb(255,255,255)"  stroke-width="1.0"/>
<line x1="203.4" y1="285.2" x2="168.7" y2="305.2" stroke="rgb(255,255,255)"  stroke-width="1.0"/>
<line x1="238.0" y1="345.2" x2="238.0" y2="318.2" stroke="rgb(255,255,255)"  stroke-width="1.0"/>
<line x1="238.0" y1="345.2" x2="272.7" y2="365.2" stroke="rgb(255,255,255)"  stroke-width="1.0"/>
<line x1="168.7" y1="65.2" x2="147.8" y2="48.2" stroke="rgb(255,255,255)"  stroke-width="1.0"/>
<line x1="76.3" y1="183.8" x2="75.6" y2="169.8" stroke="rgb(255,255,255)"  stroke-width="1.0"/>
<line x1="82.3" y1="183.5" x2="81.6" y2="169.5" stroke="rgb(255,255,255)"  stroke-width="1.0"/>
<line x1="93.0" y1="196.6" x2="107.0" y2="196.6" stroke="rgb(255,255,255)"  stroke-width="1.0"/>
<line x1="67.0" y1="196.6" x2="53.0" y2="196.6" stroke="rgb(255,255,255)"  stroke-width="1.0"/>
<line x1="78.0" y1="209.5" x2="75.8" y2="223.3" stroke="rgb(255,255,255)"  stroke-width="1.0"/>
<line x1="414.6" y1="205.6" x2="413.8" y2="191.6" stroke="rgb(255,255,255)"  stroke-width="1.0"/>
<line x1="420.6" y1="205.2" x2="419.8" y2="191.3" stroke="rgb(255,255,255)"  stroke-width="1.0"/>
<line x1="431.2" y1="218.4" x2="445.2" y2="218.4" stroke="rgb(255,255,255)"  stroke-width="1.0"/>
<line x1="405.2" y1="218.4" x2="391.2" y2="218.4" stroke="rgb(255,255,255)"  stroke-width="1.0"/>
<line x1="416.2" y1="231.2" x2="414.0" y2="245.0" stroke="rgb(255,255,255)"  stroke-width="1.0"/>
<line x1="307.3" y1="185.2" x2="344.6" y2="170.8" stroke="rgb(255,255,255)"  stroke-width="1.0"/>
<line x1="203.4" y1="45.2" x2="168.7" y2="65.2" stroke="rgb(255,255,255)"  stroke-width="1.0"/>
<line x1="201.8" y1="54.4" x2="177.5" y2="68.4" stroke="rgb(255,255,255)"  stroke-width="1.0"/>
<line x1="168.7" y1="65.2" x2="168.7" y2="105.2" stroke="rgb(255,255,255)"  stroke-width="1.0"/>
<line x1="168.7" y1="105.2" x2="203.4" y2="125.2" stroke="rgb(255,255,255)"  stroke-width="1.0"/>
<line x1="177.5" y1="101.9" x2="201.8" y2="115.9" stroke="rgb(255,255,255)"  stroke-width="1.0"/>
<line x1="203.4" y1="125.2" x2="238.0" y2="105.2" stroke="rgb(255,255,255)"  stroke-width="1.0"/>
<line x1="238.0" y1="105.2" x2="238.0" y2="65.2" stroke="rgb(255,255,255)"  stroke-width="1.0"/>
<line x1="230.8" y1="99.2" x2="230.8" y2="71.2" stroke="rgb(255,255,255)"  stroke-width="1.0"/>
<line x1="238.0" y1="65.2" x2="203.4" y2="45.2" stroke="rgb(255,255,255)"  stroke-width="1.0"/>
<line x1="272.7" y1="125.2" x2="307.3" y2="105.2" stroke="rgb(255,255,255)"  stroke-width="1.0"/>
<line x1="274.3" y1="115.9" x2="298.5" y2="101.9" stroke="rgb(255,255,255)"  stroke-width="1.0"/>
<line x1="307.3" y1="105.2" x2="307.3" y2="65.2" stroke="rgb(255,255,255)"  stroke-width="1.0"/>
<line x1="307.3" y1="65.2" x2="284.1" y2="51.8" stroke="rgb(255,255,255)"  stroke-width="1.0"/>
<line x1="298.5" y1="68.4" x2="282.2" y2="59.0" stroke="rgb(255,255,255)"  stroke-width="1.0"/>
<line x1="261.4" y1="51.7" x2="238.0" y2="65.2" stroke="rgb(255,255,255)"  stroke-width="1.0"/>
<line x1="238.0" y1="105.2" x2="272.7" y2="125.2" stroke="rgb(255,255,255)"  stroke-width="1.0"/>
<text x="266.657447" y="53.173290" fill="rgb(12,12,255)"  stroke="rgb(12,12,255)" stroke-width="1" font-size="16" >N</text>
<text x="254.657447" y="173.177134" fill="rgb(12,12,255)"  stroke="rgb(12,12,255)" stroke-width="1" font-size="16" >HN</text>
<text x="232.015313" y="313.175963" fill="rgb(12,12,255)"  stroke="rgb(12,12,255)" stroke-width="1" font-size="16" >N</text>
<text x="119.647668" y="48.000000" fill="rgb(30,239,30)"  stroke="rgb(30,239,30)" stroke-width="1" font-size="16" >Cl</text>
<text x="73.999665" y="204.643538" fill="rgb(255,127,0)"  stroke="rgb(255,127,0)" stroke-width="1" font-size="16" >P</text>
<text x="71.905137" y="164.702054" fill="rgb(255,12,12)"  stroke="rgb(255,12,12)" stroke-width="1" font-size="16" >O</text>
<text x="113.999331" y="204.643538" fill="rgb(255,12,12)"  stroke="rgb(255,12,12)" stroke-width="1" font-size="16" >OH</text>
<text x="22.000000" y="204.643538" fill="rgb(255,12,12)"  stroke="rgb(255,12,12)" stroke-width="1" font-size="16" >HO</text>
<text x="55.745172" y="244.153510" fill="rgb(255,12,12)"  stroke="rgb(255,12,12)" stroke-width="1" font-size="16" >HO</text>
<text x="412.246532" y="226.379114" fill="rgb(255,127,0)"  stroke="rgb(255,127,0)" stroke-width="1" font-size="16" >P</text>
<text x="410.152004" y="186.432781" fill="rgb(255,12,12)"  stroke="rgb(255,12,12)" stroke-width="1" font-size="16" >O</text>
<text x="452.246197" y="226.379114" fill="rgb(255,12,12)"  stroke="rgb(255,12,12)" stroke-width="1" font-size="16" >OH</text>
<text x="360.246867" y="226.379114" fill="rgb(255,12,12)"  stroke="rgb(255,12,12)" stroke-width="1" font-size="16" >HO</text>
<text x="393.992039" y="265.884238" fill="rgb(255,12,12)"  stroke="rgb(255,12,12)" stroke-width="1" font-size="16" >HO</text>
<text font-size="18.000000" fill ="white" font-family="sans-serif"
x="10.000000" y="20.000000" ></text>
<title> - OBDepict</title>
<cml:molecule>
 <cml:atomArray>
  <cml:atom id="a1" elementType="C" x2="-1.919600" y2="4.351800"/>
  <cml:atom id="a2" elementType="C" x2="-2.634100" y2="3.939300"/>
  <cml:atom id="a3" elementType="C" x2="-2.634100" y2="3.114300"/>
  <cml:atom id="a4" elementType="C" x2="-1.919600" y2="2.701800"/>
  <cml:atom id="a5" elementType="C" x2="-1.205200" y2="3.114300"/>
  <cml:atom id="a6" elementType="C" x2="-1.205200" y2="3.939300"/>
  <cml:atom id="a7" elementType="N" x2="-0.490700" y2="4.351800"/>
  <cml:atom id="a8" elementType="C" x2="-0.490700" y2="2.701800"/>
  <cml:atom id="a9" elementType="C" x2="0.223800" y2="3.114300"/>
  <cml:atom id="a10" elementType="C" x2="0.223800" y2="3.939300"/>
  <cml:atom id="a11" elementType="N" x2="-0.490700" y2="1.876700"/>
  <cml:atom id="a12" elementType="C" x2="-0.490700" y2="0.226700"/>
  <cml:atom id="a13" elementType="C" x2="0.223800" y2="0.639200"/>
  <cml:atom id="a14" elementType="C" x2="0.223800" y2="1.464200"/>
  <cml:atom id="a15" elementType="C" x2="-1.919600" y2="-0.598300"/>
  <cml:atom id="a16" elementType="N" x2="-1.205200" y2="-1.010800"/>
  <cml:atom id="a17" elementType="C" x2="-0.490700" y2="-0.598300"/>
  <cml:atom id="a18" elementType="C" x2="-2.634100" y2="-1.010800"/>
  <cml:atom id="a19" elementType="C" x2="-1.205200" y2="-1.835800"/>
  <cml:atom id="a20" elementType="C" x2="-0.490700" y2="-2.248300"/>
  <cml:atom id="a21" elementType="Cl" x2="-3.275300" y2="4.458500"/>
  <cml:atom id="a22" elementType="P" x2="-4.464300" y2="1.227700"/>
  <cml:atom id="a23" elementType="O" x2="-4.507500" y2="2.051500"/>
  <cml:atom id="a24" elementType="O" x2="-3.639300" y2="1.227700"/>
  <cml:atom id="a25" elementType="O" x2="-5.289300" y2="1.227700"/>
  <cml:atom id="a26" elementType="O" x2="-4.593300" y2="0.412800"/>
  <cml:atom id="a27" elementType="P" x2="2.512100" y2="0.779400"/>
  <cml:atom id="a28" elementType="O" x2="2.468900" y2="1.603300"/>
  <cml:atom id="a29" elementType="O" x2="3.337100" y2="0.779400"/>
  <cml:atom id="a30" elementType="O" x2="1.687100" y2="0.779400"/>
  <cml:atom id="a31" elementType="O" x2="2.383100" y2="-0.035400"/>
  <cml:atom id="a32" elementType="C" x2="0.994000" y2="1.759900"/>
 </cml:atomArray>
 <cml:bondArray>
  <cml:bond atomRefs2="a1 a2" order="2"/>
  <cml:bond atomRefs2="a2 a3" order="1"/>
  <cml:bond atomRefs2="a3 a4" order="2"/>
  <cml:bond atomRefs2="a4 a5" order="1"/>
  <cml:bond atomRefs2="a5 a6" order="2"/>
  <cml:bond atomRefs2="a1 a6" order="1"/>
  <cml:bond atomRefs2="a8 a9" order="2"/>
  <cml:bond atomRefs2="a9 a10" order="1"/>
  <cml:bond atomRefs2="a7 a10" order="2"/>
  <cml:bond atomRefs2="a5 a8" order="1"/>
  <cml:bond atomRefs2="a7 a6" order="1"/>
  <cml:bond atomRefs2="a11 a8" order="1"/>
  <cml:bond atomRefs2="a12 a13" order="1"/>
  <cml:bond atomRefs2="a13 a14" order="1"/>
  <cml:bond atomRefs2="a11 a14" order="1"/>
  <cml:bond atomRefs2="a15 a16" order="1"/>
  <cml:bond atomRefs2="a16 a17" order="1"/>
  <cml:bond atomRefs2="a17 a12" order="1"/>
  <cml:bond atomRefs2="a15 a18" order="1"/>
  <cml:bond atomRefs2="a19 a16" order="1"/>
  <cml:bond atomRefs2="a19 a20" order="1"/>
  <cml:bond atomRefs2="a2 a21" order="1"/>
  <cml:bond atomRefs2="a22 a23" order="2"/>
  <cml:bond atomRefs2="a22 a24" order="1"/>
  <cml:bond atomRefs2="a22 a25" order="1"/>
  <cml:bond atomRefs2="a22 a26" order="1"/>
  <cml:bond atomRefs2="a27 a28" order="2"/>
  <cml:bond atomRefs2="a27 a29" order="1"/>
  <cml:bond atomRefs2="a27 a30" order="1"/>
  <cml:bond atomRefs2="a27 a31" order="1"/>
  <cml:bond atomRefs2="a14 a32" order="1"/>
 </cml:bondArray>
</cml:molecule>
</svg>
