<?xml version="1.0"?>
<svg xmlns="http://www.w3.org/2000/svg"
xmlns:xlink="http://www.w3.org/1999/xlink" xmlns:cml="http://www.xml-cml.org/schema" width="391.452" height="383.718" x="0" y="0" font-family="sans-serif" stroke="rgb(255,255,255)" stroke-width="1"  stroke-linecap="round">
<rect x="0%" y="0%" width="100%" height="100%" stroke-width="0" fill="rgb(0,0,0)"  />
<line x1="119.2" y1="211.0" x2="109.3" y2="241.4" stroke="rgb(255,255,255)"  stroke-width="1.0"/>
<line x1="115.2" y1="262.1" x2="131.7" y2="276.0" stroke="rgb(255,255,255)"  stroke-width="1.0"/>
<line x1="177.5" y1="267.1" x2="154.4" y2="280.4" stroke="rgb(255,255,255)"  stroke-width="1.0"/>
<line x1="174.5" y1="261.9" x2="151.4" y2="275.2" stroke="rgb(255,255,255)"  stroke-width="1.0"/>
<line x1="210.3" y1="284.3" x2="176.0" y2="264.5" stroke="rgb(255,255,255)"  stroke-width="1.0"/>
<line x1="119.2" y1="142.9" x2="105.9" y2="119.9" stroke="rgb(255,255,255)"  stroke-width="1.0"/>
<line x1="278.9" y1="284.3" x2="301.9" y2="271.0" stroke="rgb(255,255,255)"  stroke-width="1.0"/>
<line x1="325.7" y1="267.9" x2="351.5" y2="274.8" stroke="rgb(255,255,255)"  stroke-width="1.0"/>
<line x1="278.9" y1="323.9" x2="303.7" y2="333.4" stroke="rgb(255,255,255)"  stroke-width="1.0"/>
<line x1="178.6" y1="177.2" x2="205.2" y2="177.2" stroke="rgb(255,255,255)"  stroke-width="1.0"/>
<line x1="244.6" y1="264.5" x2="210.3" y2="284.3" stroke="rgb(255,255,255)"  stroke-width="1.0"/>
<line x1="243.0" y1="273.7" x2="219.1" y2="287.5" stroke="rgb(255,255,255)"  stroke-width="1.0"/>
<line x1="210.3" y1="284.3" x2="210.3" y2="323.9" stroke="rgb(255,255,255)"  stroke-width="1.0"/>
<line x1="210.3" y1="323.9" x2="244.6" y2="343.7" stroke="rgb(255,255,255)"  stroke-width="1.0"/>
<line x1="219.1" y1="320.7" x2="243.0" y2="334.5" stroke="rgb(255,255,255)"  stroke-width="1.0"/>
<line x1="244.6" y1="343.7" x2="278.9" y2="323.9" stroke="rgb(255,255,255)"  stroke-width="1.0"/>
<line x1="278.9" y1="323.9" x2="278.9" y2="284.3" stroke="rgb(255,255,255)"  stroke-width="1.0"/>
<line x1="271.7" y1="317.9" x2="271.7" y2="290.3" stroke="rgb(255,255,255)"  stroke-width="1.0"/>
<line x1="278.9" y1="284.3" x2="244.6" y2="264.5" stroke="rgb(255,255,255)"  stroke-width="1.0"/>
<line x1="158.8" y1="211.5" x2="178.6" y2="177.2" stroke="rgb(255,255,255)"  stroke-width="1.0"/>
<line x1="155.6" y1="202.7" x2="169.4" y2="178.8" stroke="rgb(255,255,255)"  stroke-width="1.0"/>
<line x1="178.6" y1="177.2" x2="165.3" y2="154.2" stroke="rgb(255,255,255)"  stroke-width="1.0"/>
<line x1="145.8" y1="142.9" x2="119.2" y2="142.9" stroke="rgb(255,255,255)"  stroke-width="1.0"/>
<line x1="143.7" y1="150.1" x2="125.2" y2="150.1" stroke="rgb(255,255,255)"  stroke-width="1.0"/>
<line x1="119.2" y1="142.9" x2="105.9" y2="166.0" stroke="rgb(255,255,255)"  stroke-width="1.0"/>
<line x1="105.9" y1="188.3" x2="119.2" y2="211.0" stroke="rgb(255,255,255)"  stroke-width="1.0"/>
<line x1="113.2" y1="186.5" x2="122.4" y2="202.1" stroke="rgb(255,255,255)"  stroke-width="1.0"/>
<line x1="119.2" y1="211.0" x2="158.8" y2="211.5" stroke="rgb(255,255,255)"  stroke-width="1.0"/>
<line x1="105.9" y1="97.3" x2="119.2" y2="74.3" stroke="rgb(255,255,255)"  stroke-width="1.0"/>
<line x1="119.2" y1="74.3" x2="99.4" y2="40.0" stroke="rgb(255,255,255)"  stroke-width="1.0"/>
<line x1="99.4" y1="40.0" x2="72.8" y2="40.0" stroke="rgb(255,255,255)"  stroke-width="1.0"/>
<line x1="53.3" y1="51.3" x2="40.0" y2="74.3" stroke="rgb(255,255,255)"  stroke-width="1.0"/>
<line x1="40.0" y1="74.3" x2="59.8" y2="108.6" stroke="rgb(255,255,255)"  stroke-width="1.0"/>
<line x1="59.8" y1="108.6" x2="86.4" y2="108.6" stroke="rgb(255,255,255)"  stroke-width="1.0"/>
<line x1="224.7" y1="188.5" x2="238.0" y2="211.5" stroke="rgb(255,255,255)"  stroke-width="1.0"/>
<line x1="238.0" y1="211.5" x2="277.7" y2="211.5" stroke="rgb(255,255,255)"  stroke-width="1.0"/>
<line x1="277.7" y1="211.5" x2="291.0" y2="188.5" stroke="rgb(255,255,255)"  stroke-width="1.0"/>
<line x1="291.0" y1="166.0" x2="277.7" y2="142.9" stroke="rgb(255,255,255)"  stroke-width="1.0"/>
<line x1="277.7" y1="142.9" x2="238.0" y2="142.9" stroke="rgb(255,255,255)"  stroke-width="1.0"/>
<line x1="238.0" y1="142.9" x2="224.7" y2="166.0" stroke="rgb(255,255,255)"  stroke-width="1.0"/>
<text x="87.236374" y="261.780193" fill="rgb(12,12,255)"  stroke="rgb(12,12,255)" stroke-width="1" font-size="16" >HN</text>
<text x="135.680981" y="292.300331" fill="rgb(12,12,255)"  stroke="rgb(12,12,255)" stroke-width="1" font-size="16" >N</text>
<text x="93.412727" y="185.213392" fill="rgb(12,12,255)"  stroke="rgb(12,12,255)" stroke-width="1" font-size="16" >N</text>
<text x="152.825453" y="150.910044" fill="rgb(12,12,255)"  stroke="rgb(12,12,255)" stroke-width="1" font-size="16" >N</text>
<text x="93.412727" y="116.606696" fill="rgb(12,12,255)"  stroke="rgb(12,12,255)" stroke-width="1" font-size="16" >N</text>
<text x="53.804242" y="48.000000" fill="rgb(255,12,12)"  stroke="rgb(255,12,12)" stroke-width="1" font-size="16" >O</text>
<text x="307.192919" y="272.496088" fill="rgb(255,12,12)"  stroke="rgb(255,12,12)" stroke-width="1" font-size="16" >O</text>
<text x="309.867092" y="346.105456" fill="rgb(255,12,12)"  stroke="rgb(255,12,12)" stroke-width="1" font-size="16" >OH</text>
<text x="212.238180" y="185.213392" fill="rgb(12,12,255)"  stroke="rgb(12,12,255)" stroke-width="1" font-size="16" >N</text>
<text x="291.459949" y="185.213392" fill="rgb(255,12,12)"  stroke="rgb(255,12,12)" stroke-width="1" font-size="16" >O</text>
<text font-size="18.000000" fill ="white" font-family="sans-serif"
x="10.000000" y="20.000000" ></text>
<title> - OBDepict</title>
<cml:molecule>
 <cml:atomArray>
  <cml:atom id="a1" elementType="C" x2="-0.580400" y2="-1.295500"/>
  <cml:atom id="a2" elementType="C" x2="-1.294800" y2="-1.708000"/>
  <cml:atom id="a3" elementType="C" x2="-1.294800" y2="-2.533000"/>
  <cml:atom id="a4" elementType="C" x2="-0.580400" y2="-2.945600"/>
  <cml:atom id="a5" elementType="C" x2="0.134100" y2="-2.533000"/>
  <cml:atom id="a6" elementType="C" x2="0.134100" y2="-1.708000"/>
  <cml:atom id="a7" elementType="C" x2="-2.009300" y2="-1.295500"/>
  <cml:atom id="a8" elementType="C" x2="-2.366700" y2="-0.192000"/>
  <cml:atom id="a9" elementType="C" x2="-3.192700" y2="-0.180300"/>
  <cml:atom id="a10" elementType="N" x2="-3.482900" y2="-1.072300"/>
  <cml:atom id="a11" elementType="N" x2="-2.723800" y2="-1.708000"/>
  <cml:atom id="a12" elementType="C" x2="-3.191700" y2="1.237000"/>
  <cml:atom id="a13" elementType="N" x2="-3.604200" y2="0.522500"/>
  <cml:atom id="a14" elementType="C" x2="-1.954200" y2="0.522500"/>
  <cml:atom id="a15" elementType="N" x2="-2.366700" y2="1.237000"/>
  <cml:atom id="a16" elementType="N" x2="-3.604200" y2="1.951500"/>
  <cml:atom id="a17" elementType="C" x2="-3.191700" y2="2.666000"/>
  <cml:atom id="a18" elementType="C" x2="-3.604200" y2="3.380500"/>
  <cml:atom id="a19" elementType="O" x2="-4.429200" y2="3.380500"/>
  <cml:atom id="a20" elementType="C" x2="-4.841700" y2="2.666000"/>
  <cml:atom id="a21" elementType="C" x2="-4.429200" y2="1.951500"/>
  <cml:atom id="a22" elementType="O" x2="0.848600" y2="-1.295500"/>
  <cml:atom id="a23" elementType="C" x2="1.645500" y2="-1.509100"/>
  <cml:atom id="a24" elementType="O" x2="0.904300" y2="-2.828700"/>
  <cml:atom id="a25" elementType="N" x2="-1.129200" y2="0.522500"/>
  <cml:atom id="a26" elementType="C" x2="-0.716700" y2="-0.191900"/>
  <cml:atom id="a27" elementType="C" x2="0.108400" y2="-0.191900"/>
  <cml:atom id="a28" elementType="O" x2="0.520900" y2="0.522500"/>
  <cml:atom id="a29" elementType="C" x2="0.108400" y2="1.237000"/>
  <cml:atom id="a30" elementType="C" x2="-0.716700" y2="1.237000"/>
 </cml:atomArray>
 <cml:bondArray>
  <cml:bond atomRefs2="a1 a2" order="2"/>
  <cml:bond atomRefs2="a2 a3" order="1"/>
  <cml:bond atomRefs2="a3 a4" order="2"/>
  <cml:bond atomRefs2="a4 a5" order="1"/>
  <cml:bond atomRefs2="a5 a6" order="2"/>
  <cml:bond atomRefs2="a1 a6" order="1"/>
  <cml:bond atomRefs2="a9 a10" order="1"/>
  <cml:bond atomRefs2="a10 a11" order="1"/>
  <cml:bond atomRefs2="a7 a11" order="2">
   <cml:bondStereo atomRefs4="a2 a7 a11 a10">T</cml:bondStereo>
  </cml:bond>
  <cml:bond atomRefs2="a2 a7" order="1"/>
  <cml:bond atomRefs2="a12 a13" order="1"/>
  <cml:bond atomRefs2="a14 a15" order="1"/>
  <cml:bond atomRefs2="a12 a15" order="2"/>
  <cml:bond atomRefs2="a8 a14" order="2"/>
  <cml:bond atomRefs2="a13 a9" order="2"/>
  <cml:bond atomRefs2="a9 a8" order="1"/>
  <cml:bond atomRefs2="a17 a18" order="1"/>
  <cml:bond atomRefs2="a18 a19" order="1"/>
  <cml:bond atomRefs2="a19 a20" order="1"/>
  <cml:bond atomRefs2="a20 a21" order="1"/>
  <cml:bond atomRefs2="a16 a17" order="1"/>
  <cml:bond atomRefs2="a16 a21" order="1"/>
  <cml:bond atomRefs2="a12 a16" order="1"/>
  <cml:bond atomRefs2="a6 a22" order="1"/>
  <cml:bond atomRefs2="a22 a23" order="1"/>
  <cml:bond atomRefs2="a5 a24" order="1"/>
  <cml:bond atomRefs2="a26 a27" order="1"/>
  <cml:bond atomRefs2="a27 a28" order="1"/>
  <cml:bond atomRefs2="a28 a29" order="1"/>
  <cml:bond atomRefs2="a29 a30" order="1"/>
  <cml:bond atomRefs2="a25 a26" order="1"/>
  <cml:bond atomRefs2="a25 a30" order="1"/>
  <cml:bond atomRefs2="a14 a25" order="1"/>
 </cml:bondArray>
</cml:molecule>
</svg>
