<?xml version="1.0"?>
<svg xmlns="http://www.w3.org/2000/svg"
xmlns:xlink="http://www.w3.org/1999/xlink" xmlns:cml="http://www.xml-cml.org/schema" width="523.289" height="374.603" x="0" y="0" font-family="sans-serif" stroke="rgb(255,255,255)" stroke-width="1"  stroke-linecap="round">
<rect x="0%" y="0%" width="100%" height="100%" stroke-width="0" fill="rgb(0,0,0)"  />
<line x1="154.7" y1="199.4" x2="127.7" y2="202.2" stroke="rgb(255,255,255)"  stroke-width="1.0"/>
<line x1="109.5" y1="215.5" x2="98.4" y2="240.3" stroke="rgb(255,255,255)"  stroke-width="1.0"/>
<line x1="213.2" y1="161.4" x2="216.0" y2="134.4" stroke="rgb(255,255,255)"  stroke-width="1.0"/>
<line x1="230.3" y1="120.1" x2="244.4" y2="118.6" stroke="rgb(255,255,255)"  stroke-width="1.0"/>
<line x1="257.1" y1="103.9" x2="262.8" y2="77.3" stroke="rgb(255,255,255)"  stroke-width="1.0"/>
<line x1="263.0" y1="105.2" x2="268.6" y2="78.5" stroke="rgb(255,255,255)"  stroke-width="1.0"/>
<line x1="265.7" y1="77.9" x2="240.4" y2="46.7" stroke="rgb(255,255,255)"  stroke-width="1.0"/>
<line x1="265.7" y1="77.9" x2="305.7" y2="73.7" stroke="rgb(255,255,255)"  stroke-width="1.0"/>
<line x1="379.5" y1="77.9" x2="406.7" y2="77.9" stroke="rgb(255,255,255)"  stroke-width="1.0"/>
<line x1="427.3" y1="88.4" x2="443.3" y2="110.5" stroke="rgb(255,255,255)"  stroke-width="1.0"/>
<line x1="445.7" y1="112.2" x2="429.7" y2="134.2" stroke="rgb(255,255,255)"  stroke-width="1.0"/>
<line x1="440.9" y1="108.7" x2="424.9" y2="130.7" stroke="rgb(255,255,255)"  stroke-width="1.0"/>
<line x1="443.3" y1="110.5" x2="483.3" y2="114.7" stroke="rgb(255,255,255)"  stroke-width="1.0"/>
<line x1="216.8" y1="231.0" x2="231.3" y2="254.0" stroke="rgb(255,255,255)"  stroke-width="1.0"/>
<line x1="98.4" y1="240.3" x2="58.3" y2="242.4" stroke="rgb(255,255,255)"  stroke-width="1.0"/>
<line x1="92.8" y1="247.8" x2="64.6" y2="249.3" stroke="rgb(255,255,255)"  stroke-width="1.0"/>
<line x1="58.3" y1="242.4" x2="40.0" y2="278.2" stroke="rgb(255,255,255)"  stroke-width="1.0"/>
<line x1="40.0" y1="278.2" x2="61.9" y2="312.0" stroke="rgb(255,255,255)"  stroke-width="1.0"/>
<line x1="49.3" y1="279.3" x2="64.7" y2="303.0" stroke="rgb(255,255,255)"  stroke-width="1.0"/>
<line x1="61.9" y1="312.0" x2="102.0" y2="309.9" stroke="rgb(255,255,255)"  stroke-width="1.0"/>
<line x1="102.0" y1="309.9" x2="120.3" y2="274.0" stroke="rgb(255,255,255)"  stroke-width="1.0"/>
<line x1="98.4" y1="301.2" x2="111.2" y2="276.1" stroke="rgb(255,255,255)"  stroke-width="1.0"/>
<line x1="120.3" y1="274.0" x2="98.4" y2="240.3" stroke="rgb(255,255,255)"  stroke-width="1.0"/>
<line x1="154.7" y1="199.4" x2="167.1" y2="175.1" stroke="rgb(255,255,255)"  stroke-width="1.0"/>
<line x1="186.3" y1="162.8" x2="213.2" y2="161.4" stroke="rgb(255,255,255)"  stroke-width="1.0"/>
<line x1="188.6" y1="169.9" x2="207.5" y2="168.9" stroke="rgb(255,255,255)"  stroke-width="1.0"/>
<line x1="213.2" y1="161.4" x2="228.0" y2="184.3" stroke="rgb(255,255,255)"  stroke-width="1.0"/>
<line x1="229.0" y1="207.0" x2="216.8" y2="231.0" stroke="rgb(255,255,255)"  stroke-width="1.0"/>
<line x1="221.7" y1="205.5" x2="213.1" y2="222.4" stroke="rgb(255,255,255)"  stroke-width="1.0"/>
<line x1="216.8" y1="231.0" x2="191.4" y2="231.6" stroke="rgb(255,255,255)"  stroke-width="1.0"/>
<line x1="170.6" y1="221.2" x2="154.7" y2="199.4" stroke="rgb(255,255,255)"  stroke-width="1.0"/>
<line x1="175.2" y1="215.3" x2="164.1" y2="200.0" stroke="rgb(255,255,255)"  stroke-width="1.0"/>
<line x1="305.7" y1="73.7" x2="323.9" y2="109.5" stroke="rgb(255,255,255)"  stroke-width="1.0"/>
<line x1="323.9" y1="109.5" x2="364.1" y2="111.7" stroke="rgb(255,255,255)"  stroke-width="1.0"/>
<line x1="330.3" y1="102.7" x2="358.5" y2="104.1" stroke="rgb(255,255,255)"  stroke-width="1.0"/>
<line x1="364.1" y1="111.7" x2="379.5" y2="77.9" stroke="rgb(255,255,255)"  stroke-width="1.0"/>
<line x1="379.5" y1="77.9" x2="367.7" y2="42.1" stroke="rgb(255,255,255)"  stroke-width="1.0"/>
<line x1="370.8" y1="74.5" x2="362.8" y2="50.0" stroke="rgb(255,255,255)"  stroke-width="1.0"/>
<line x1="367.7" y1="42.1" x2="327.6" y2="40.0" stroke="rgb(255,255,255)"  stroke-width="1.0"/>
<line x1="327.6" y1="40.0" x2="305.7" y2="73.7" stroke="rgb(255,255,255)"  stroke-width="1.0"/>
<line x1="330.4" y1="49.0" x2="315.0" y2="72.6" stroke="rgb(255,255,255)"  stroke-width="1.0"/>
<line x1="232.1" y1="276.5" x2="219.4" y2="300.6" stroke="rgb(255,255,255)"  stroke-width="1.0"/>
<line x1="219.4" y1="300.6" x2="240.9" y2="334.6" stroke="rgb(255,255,255)"  stroke-width="1.0"/>
<line x1="240.9" y1="334.6" x2="268.0" y2="333.6" stroke="rgb(255,255,255)"  stroke-width="1.0"/>
<line x1="287.1" y1="321.6" x2="299.8" y2="297.5" stroke="rgb(255,255,255)"  stroke-width="1.0"/>
<line x1="299.8" y1="297.5" x2="278.4" y2="263.5" stroke="rgb(255,255,255)"  stroke-width="1.0"/>
<line x1="278.4" y1="263.5" x2="251.2" y2="264.5" stroke="rgb(255,255,255)"  stroke-width="1.0"/>
<text x="108.759519" y="211.574219" fill="rgb(12,12,255)"  stroke="rgb(12,12,255)" stroke-width="1" font-size="16" >N</text>
<text x="108.759519" y="195.574219" fill="rgb(12,12,255)"  stroke="rgb(12,12,255)" stroke-width="1" font-size="16" >H</text>
<text x="172.378214" y="239.899012" fill="rgb(12,12,255)"  stroke="rgb(12,12,255)" stroke-width="1" font-size="16" >N</text>
<text x="167.002741" y="171.543274" fill="rgb(12,12,255)"  stroke="rgb(12,12,255)" stroke-width="1" font-size="16" >N</text>
<text x="229.047294" y="203.157681" fill="rgb(12,12,255)"  stroke="rgb(12,12,255)" stroke-width="1" font-size="16" >N</text>
<text x="211.356482" y="129.450838" fill="rgb(12,12,255)"  stroke="rgb(12,12,255)" stroke-width="1" font-size="16" >N</text>
<text x="211.356482" y="113.450838" fill="rgb(12,12,255)"  stroke="rgb(12,12,255)" stroke-width="1" font-size="16" >H</text>
<text x="251.338692" y="125.249879" fill="rgb(12,12,255)"  stroke="rgb(12,12,255)" stroke-width="1" font-size="16" >N</text>
<text x="413.670167" y="85.925592" fill="rgb(12,12,255)"  stroke="rgb(12,12,255)" stroke-width="1" font-size="16" >N</text>
<text x="413.670167" y="69.925592" fill="rgb(12,12,255)"  stroke="rgb(12,12,255)" stroke-width="1" font-size="16" >H</text>
<text x="413.670167" y="150.981969" fill="rgb(255,12,12)"  stroke="rgb(255,12,12)" stroke-width="1" font-size="16" >O</text>
<text x="232.210197" y="273.014457" fill="rgb(12,12,255)"  stroke="rgb(12,12,255)" stroke-width="1" font-size="16" >N</text>
<text x="275.038532" y="341.072912" fill="rgb(255,12,12)"  stroke="rgb(255,12,12)" stroke-width="1" font-size="16" >O</text>
<text font-size="18.000000" fill ="white" font-family="sans-serif"
x="10.000000" y="20.000000" ></text>
<title> - OBDepict</title>
<cml:molecule>
 <cml:atomArray>
  <cml:atom id="a1" elementType="C" x2="-3.576300" y2="-0.247000"/>
  <cml:atom id="a2" elementType="C" x2="-4.400200" y2="-0.290200"/>
  <cml:atom id="a3" elementType="C" x2="-4.774800" y2="-1.025300"/>
  <cml:atom id="a4" elementType="C" x2="-4.325400" y2="-1.717200"/>
  <cml:atom id="a5" elementType="C" x2="-3.501600" y2="-1.674100"/>
  <cml:atom id="a6" elementType="C" x2="-3.127000" y2="-0.939000"/>
  <cml:atom id="a7" elementType="C" x2="-2.420300" y2="0.592900"/>
  <cml:atom id="a8" elementType="N" x2="-3.240800" y2="0.506600"/>
  <cml:atom id="a9" elementType="N" x2="-1.935400" y2="-0.074600"/>
  <cml:atom id="a10" elementType="C" x2="-1.221900" y2="1.371200"/>
  <cml:atom id="a11" elementType="N" x2="-2.045700" y2="1.328000"/>
  <cml:atom id="a12" elementType="C" x2="-1.147100" y2="-0.055800"/>
  <cml:atom id="a13" elementType="N" x2="-0.772600" y2="0.679300"/>
  <cml:atom id="a14" elementType="N" x2="-1.135600" y2="2.191700"/>
  <cml:atom id="a15" elementType="N" x2="-0.315200" y2="2.277900"/>
  <cml:atom id="a16" elementType="C" x2="-0.143600" y2="3.084900"/>
  <cml:atom id="a17" elementType="C" x2="-0.662800" y2="3.726000"/>
  <cml:atom id="a18" elementType="C" x2="0.676800" y2="3.171100"/>
  <cml:atom id="a19" elementType="C" x2="1.950100" y2="3.819900"/>
  <cml:atom id="a20" elementType="C" x2="1.126200" y2="3.863000"/>
  <cml:atom id="a21" elementType="C" x2="1.051400" y2="2.436000"/>
  <cml:atom id="a22" elementType="C" x2="1.875200" y2="2.392800"/>
  <cml:atom id="a23" elementType="C" x2="2.190700" y2="3.084800"/>
  <cml:atom id="a24" elementType="N" x2="3.015700" y2="3.084800"/>
  <cml:atom id="a25" elementType="C" x2="3.500600" y2="2.417300"/>
  <cml:atom id="a26" elementType="O" x2="3.015700" y2="1.749900"/>
  <cml:atom id="a27" elementType="C" x2="4.321100" y2="2.331100"/>
  <cml:atom id="a28" elementType="N" x2="-0.707700" y2="-0.754100"/>
  <cml:atom id="a29" elementType="C" x2="-1.092700" y2="-1.483700"/>
  <cml:atom id="a30" elementType="C" x2="-0.653300" y2="-2.182000"/>
  <cml:atom id="a31" elementType="O" x2="0.171100" y2="-2.150600"/>
  <cml:atom id="a32" elementType="C" x2="0.556100" y2="-1.421000"/>
  <cml:atom id="a33" elementType="C" x2="0.116700" y2="-0.722700"/>
 </cml:atomArray>
 <cml:bondArray>
  <cml:bond atomRefs2="a1 a2" order="2"/>
  <cml:bond atomRefs2="a2 a3" order="1"/>
  <cml:bond atomRefs2="a3 a4" order="2"/>
  <cml:bond atomRefs2="a4 a5" order="1"/>
  <cml:bond atomRefs2="a5 a6" order="2"/>
  <cml:bond atomRefs2="a1 a6" order="1"/>
  <cml:bond atomRefs2="a7 a8" order="1"/>
  <cml:bond atomRefs2="a7 a9" order="2"/>
  <cml:bond atomRefs2="a8 a1" order="1"/>
  <cml:bond atomRefs2="a10 a11" order="2"/>
  <cml:bond atomRefs2="a12 a13" order="2"/>
  <cml:bond atomRefs2="a10 a13" order="1"/>
  <cml:bond atomRefs2="a11 a7" order="1"/>
  <cml:bond atomRefs2="a9 a12" order="1"/>
  <cml:bond atomRefs2="a10 a14" order="1"/>
  <cml:bond atomRefs2="a14 a15" order="1"/>
  <cml:bond atomRefs2="a15 a16" order="2">
   <cml:bondStereo atomRefs4="a14 a15 a16 a18">T</cml:bondStereo>
  </cml:bond>
  <cml:bond atomRefs2="a16 a17" order="1"/>
  <cml:bond atomRefs2="a16 a18" order="1"/>
  <cml:bond atomRefs2="a19 a20" order="1"/>
  <cml:bond atomRefs2="a21 a22" order="2"/>
  <cml:bond atomRefs2="a22 a23" order="1"/>
  <cml:bond atomRefs2="a19 a23" order="2"/>
  <cml:bond atomRefs2="a20 a18" order="2"/>
  <cml:bond atomRefs2="a18 a21" order="1"/>
  <cml:bond atomRefs2="a23 a24" order="1"/>
  <cml:bond atomRefs2="a24 a25" order="1"/>
  <cml:bond atomRefs2="a25 a26" order="2"/>
  <cml:bond atomRefs2="a25 a27" order="1"/>
  <cml:bond atomRefs2="a29 a30" order="1"/>
  <cml:bond atomRefs2="a30 a31" order="1"/>
  <cml:bond atomRefs2="a31 a32" order="1"/>
  <cml:bond atomRefs2="a32 a33" order="1"/>
  <cml:bond atomRefs2="a28 a29" order="1"/>
  <cml:bond atomRefs2="a28 a33" order="1"/>
  <cml:bond atomRefs2="a12 a28" order="1"/>
 </cml:bondArray>
</cml:molecule>
</svg>
