<?xml version="1.0"?>
<svg xmlns="http://www.w3.org/2000/svg"
xmlns:xlink="http://www.w3.org/1999/xlink" xmlns:cml="http://www.xml-cml.org/schema" width="577.897" height="459.48" x="0" y="0" font-family="sans-serif" stroke="rgb(255,255,255)" stroke-width="1"  stroke-linecap="round">
<rect x="0%" y="0%" width="100%" height="100%" stroke-width="0" fill="rgb(0,0,0)"  />
<line x1="73.3" y1="268.0" x2="98.4" y2="258.4" stroke="rgb(255,255,255)"  stroke-width="1.0"/>
<line x1="98.4" y1="258.4" x2="94.2" y2="218.8" stroke="rgb(255,255,255)"  stroke-width="1.0"/>
<line x1="100.0" y1="255.9" x2="133.5" y2="277.6" stroke="rgb(255,255,255)"  stroke-width="1.0"/>
<line x1="96.8" y1="260.9" x2="130.2" y2="282.6" stroke="rgb(255,255,255)"  stroke-width="1.0"/>
<line x1="131.8" y1="280.1" x2="131.8" y2="319.9" stroke="rgb(255,255,255)"  stroke-width="1.0"/>
<line x1="131.8" y1="280.1" x2="166.3" y2="260.2" stroke="rgb(255,255,255)"  stroke-width="1.0"/>
<line x1="163.3" y1="260.0" x2="164.7" y2="233.2" stroke="rgb(255,255,255)"  stroke-width="1.0"/>
<line x1="169.3" y1="260.3" x2="170.7" y2="233.5" stroke="rgb(255,255,255)"  stroke-width="1.0"/>
<line x1="166.3" y1="260.2" x2="188.0" y2="275.9" stroke="rgb(255,255,255)"  stroke-width="1.0"/>
<line x1="239.1" y1="262.8" x2="238.3" y2="261.4" stroke="rgb(255,255,255)"  stroke-width="1.0"/>
<line x1="234.4" y1="266.0" x2="233.1" y2="263.5" stroke="rgb(255,255,255)"  stroke-width="1.0"/>
<line x1="229.7" y1="269.3" x2="227.8" y2="265.6" stroke="rgb(255,255,255)"  stroke-width="1.0"/>
<line x1="225.1" y1="272.5" x2="222.5" y2="267.7" stroke="rgb(255,255,255)"  stroke-width="1.0"/>
<line x1="220.4" y1="275.7" x2="217.2" y2="269.8" stroke="rgb(255,255,255)"  stroke-width="1.0"/>
<line x1="215.7" y1="278.9" x2="212.0" y2="271.9" stroke="rgb(255,255,255)"  stroke-width="1.0"/>
<line x1="257.2" y1="296.7" x2="235.5" y2="330.1" stroke="rgb(255,255,255)"  stroke-width="1.0"/>
<polygon points="277.156493 235.364441 267.691078 210.082281 275.516127 208.418368 " stroke-width="1.000000" fill="rgb(255,255,255)"  stroke="rgb(255,255,255)" />
<line x1="259.7" y1="187.2" x2="240.7" y2="168.2" stroke="rgb(255,255,255)"  stroke-width="1.0"/>
<line x1="237.7" y1="168.4" x2="236.3" y2="141.6" stroke="rgb(255,255,255)"  stroke-width="1.0"/>
<line x1="243.7" y1="168.1" x2="242.3" y2="141.2" stroke="rgb(255,255,255)"  stroke-width="1.0"/>
<line x1="240.7" y1="168.2" x2="200.9" y2="170.3" stroke="rgb(255,255,255)"  stroke-width="1.0"/>
<line x1="186.6" y1="133.1" x2="147.3" y2="126.9" stroke="rgb(255,255,255)"  stroke-width="1.0"/>
<line x1="147.3" y1="126.9" x2="133.0" y2="89.7" stroke="rgb(255,255,255)"  stroke-width="1.0"/>
<line x1="133.0" y1="89.7" x2="93.6" y2="83.4" stroke="rgb(255,255,255)"  stroke-width="1.0"/>
<line x1="93.6" y1="83.4" x2="79.4" y2="46.2" stroke="rgb(255,255,255)"  stroke-width="1.0"/>
<line x1="79.4" y1="46.2" x2="40.0" y2="40.0" stroke="rgb(255,255,255)"  stroke-width="1.0"/>
<line x1="200.9" y1="170.3" x2="186.6" y2="133.1" stroke="rgb(255,255,255)"  stroke-width="1.0"/>
<polygon points="309.390418 258.784025 305.390418 232.087437 313.390418 232.087437 " stroke-width="1.000000" fill="rgb(255,255,255)"  stroke="rgb(255,255,255)" />
<polygon points="323.739682 326.289804 294.106648 299.354869 300.051989 294.002026 " stroke-width="1.000000" fill="rgb(255,255,255)"  stroke="rgb(255,255,255)" />
<polygon points="348.366710 250.500959 362.055626 227.235157 368.273427 232.268938 " stroke-width="1.000000" fill="rgb(255,255,255)"  stroke="rgb(255,255,255)" />
<line x1="348.4" y1="250.5" x2="336.1" y2="212.6" stroke="rgb(255,255,255)"  stroke-width="1.0"/>
<line x1="385.6" y1="214.9" x2="410.6" y2="205.3" stroke="rgb(255,255,255)"  stroke-width="1.0"/>
<line x1="407.6" y1="205.4" x2="406.2" y2="178.6" stroke="rgb(255,255,255)"  stroke-width="1.0"/>
<line x1="413.6" y1="205.1" x2="412.2" y2="178.3" stroke="rgb(255,255,255)"  stroke-width="1.0"/>
<line x1="410.6" y1="205.3" x2="446.1" y2="223.3" stroke="rgb(255,255,255)"  stroke-width="1.0"/>
<line x1="380.4" y1="279.3" x2="380.4" y2="280.9" stroke="rgb(255,255,255)"  stroke-width="1.0"/>
<line x1="384.6" y1="278.7" x2="384.6" y2="281.6" stroke="rgb(255,255,255)"  stroke-width="1.0"/>
<line x1="388.9" y1="278.0" x2="388.9" y2="282.2" stroke="rgb(255,255,255)"  stroke-width="1.0"/>
<line x1="393.2" y1="277.4" x2="393.2" y2="282.8" stroke="rgb(255,255,255)"  stroke-width="1.0"/>
<line x1="397.5" y1="276.8" x2="397.5" y2="283.5" stroke="rgb(255,255,255)"  stroke-width="1.0"/>
<line x1="401.7" y1="276.1" x2="401.7" y2="284.1" stroke="rgb(255,255,255)"  stroke-width="1.0"/>
<line x1="427.9" y1="280.1" x2="454.7" y2="280.1" stroke="rgb(255,255,255)"  stroke-width="1.0"/>
<line x1="452.4" y1="278.2" x2="469.3" y2="257.4" stroke="rgb(255,255,255)"  stroke-width="1.0"/>
<line x1="457.0" y1="282.0" x2="473.9" y2="261.1" stroke="rgb(255,255,255)"  stroke-width="1.0"/>
<line x1="454.7" y1="280.1" x2="476.4" y2="313.5" stroke="rgb(255,255,255)"  stroke-width="1.0"/>
<line x1="476.4" y1="313.5" x2="512.8" y2="297.3" stroke="rgb(255,255,255)"  stroke-width="1.0"/>
<line x1="512.8" y1="297.3" x2="537.9" y2="328.3" stroke="rgb(255,255,255)"  stroke-width="1.0"/>
<polygon points="362.711145 318.006738 389.407732 314.006738 389.407732 322.006738 " stroke-width="1.000000" fill="rgb(255,255,255)"  stroke="rgb(255,255,255)" />
<line x1="362.5" y1="379.5" x2="365.3" y2="406.2" stroke="rgb(255,255,255)"  stroke-width="1.0"/>
<line x1="356.5" y1="380.2" x2="359.3" y2="406.9" stroke="rgb(255,255,255)"  stroke-width="1.0"/>
<polygon points="386.135559 350.240663 404.146783 386.006347 396.677971 388.872850 " stroke-width="1.000000" fill="rgb(255,255,255)"  stroke="rgb(255,255,255)" />
<line x1="386.1" y1="350.2" x2="412.8" y2="347.4" stroke="rgb(255,255,255)"  stroke-width="1.0"/>
<line x1="244.9" y1="258.8" x2="257.2" y2="296.7" stroke="rgb(255,255,255)"  stroke-width="1.0"/>
<line x1="257.2" y1="296.7" x2="297.1" y2="296.7" stroke="rgb(255,255,255)"  stroke-width="1.0"/>
<line x1="263.2" y1="289.5" x2="291.1" y2="289.5" stroke="rgb(255,255,255)"  stroke-width="1.0"/>
<line x1="297.1" y1="296.7" x2="309.4" y2="258.8" stroke="rgb(255,255,255)"  stroke-width="1.0"/>
<line x1="309.4" y1="258.8" x2="277.2" y2="235.4" stroke="rgb(255,255,255)"  stroke-width="1.0"/>
<line x1="277.2" y1="235.4" x2="244.9" y2="258.8" stroke="rgb(255,255,255)"  stroke-width="1.0"/>
<line x1="359.5" y1="379.9" x2="331.8" y2="370.2" stroke="rgb(255,255,255)"  stroke-width="1.0"/>
<line x1="320.9" y1="353.0" x2="323.7" y2="326.3" stroke="rgb(255,255,255)"  stroke-width="1.0"/>
<line x1="323.7" y1="326.3" x2="362.7" y2="318.0" stroke="rgb(255,255,255)"  stroke-width="1.0"/>
<line x1="362.7" y1="318.0" x2="386.1" y2="350.2" stroke="rgb(255,255,255)"  stroke-width="1.0"/>
<line x1="386.1" y1="350.2" x2="359.5" y2="379.9" stroke="rgb(255,255,255)"  stroke-width="1.0"/>
<line x1="348.4" y1="250.5" x2="388.2" y2="250.5" stroke="rgb(255,255,255)"  stroke-width="1.0"/>
<line x1="388.2" y1="250.5" x2="375.0" y2="280.1" stroke="rgb(255,255,255)"  stroke-width="1.0"/>
<line x1="375.0" y1="280.1" x2="362.7" y2="318.0" stroke="rgb(255,255,255)"  stroke-width="1.0"/>
<line x1="323.7" y1="326.3" x2="297.1" y2="296.7" stroke="rgb(255,255,255)"  stroke-width="1.0"/>
<line x1="309.4" y1="258.8" x2="348.4" y2="250.5" stroke="rgb(255,255,255)"  stroke-width="1.0"/>
<text x="55.202717" y="280.659971" fill="rgb(191,191,191)"  stroke="rgb(191,191,191)" stroke-width="1" font-size="16" >H</text>
<text x="162.409255" y="228.367986" fill="rgb(255,12,12)"  stroke="rgb(255,12,12)" stroke-width="1" font-size="16" >O</text>
<text x="192.561547" y="291.580095" fill="rgb(255,12,12)"  stroke="rgb(255,12,12)" stroke-width="1" font-size="16" >O</text>
<text x="262.868597" y="204.388148" fill="rgb(255,12,12)"  stroke="rgb(255,12,12)" stroke-width="1" font-size="16" >O</text>
<text x="232.610050" y="136.423540" fill="rgb(255,12,12)"  stroke="rgb(255,12,12)" stroke-width="1" font-size="16" >O</text>
<text x="303.390418" y="226.938372" fill="rgb(191,191,191)"  stroke="rgb(191,191,191)" stroke-width="1" font-size="16" >H</text>
<text x="367.438078" y="227.532435" fill="rgb(255,12,12)"  stroke="rgb(255,12,12)" stroke-width="1" font-size="16" >O</text>
<text x="402.555379" y="173.463092" fill="rgb(255,12,12)"  stroke="rgb(255,12,12)" stroke-width="1" font-size="16" >O</text>
<text x="408.872726" y="288.112315" fill="rgb(255,12,12)"  stroke="rgb(255,12,12)" stroke-width="1" font-size="16" >O</text>
<text x="473.794576" y="257.143792" fill="rgb(255,12,12)"  stroke="rgb(255,12,12)" stroke-width="1" font-size="16" >O</text>
<text x="396.556797" y="326.006738" fill="rgb(255,12,12)"  stroke="rgb(255,12,12)" stroke-width="1" font-size="16" >OH</text>
<text x="313.571586" y="373.918116" fill="rgb(255,12,12)"  stroke="rgb(255,12,12)" stroke-width="1" font-size="16" >O</text>
<text x="357.638462" y="427.480333" fill="rgb(255,12,12)"  stroke="rgb(255,12,12)" stroke-width="1" font-size="16" >O</text>
<text x="419.759042" y="354.077397" fill="rgb(255,12,12)"  stroke="rgb(255,12,12)" stroke-width="1" font-size="16" >OH</text>
<text font-size="18.000000" fill ="white" font-family="sans-serif"
x="10.000000" y="20.000000" ></text>
<title> - OBDepict</title>
<cml:molecule>
 <cml:atomArray>
  <cml:atom id="a1" elementType="H" x2="-4.486600" y2="-0.513400"/>
  <cml:atom id="a2" elementType="C" x2="-3.716400" y2="-0.217700"/>
  <cml:atom id="a3" elementType="C" x2="-3.802600" y2="0.602700"/>
  <cml:atom id="a4" elementType="C" x2="-3.024500" y2="-0.667100"/>
  <cml:atom id="a5" elementType="C" x2="-3.024500" y2="-1.492100"/>
  <cml:atom id="a6" elementType="C" x2="-2.310000" y2="-0.254600"/>
  <cml:atom id="a7" elementType="O" x2="-2.266900" y2="0.569300"/>
  <cml:atom id="a8" elementType="O" x2="-1.642600" y2="-0.739500"/>
  <cml:atom id="a9" elementType="C" x2="-0.682800" y2="-0.226100">
   <cml:atomParity atomRefs4="a9 a8 a10 a11">1</cml:atomParity>
  </cml:atom>
  <cml:atom id="a10" elementType="C" x2="-0.015300" y2="0.258800">
   <cml:atomParity atomRefs4="a10 a15 a9 a13">1</cml:atomParity>
  </cml:atom>
  <cml:atom id="a11" elementType="C" x2="-0.427800" y2="-1.010700"/>
  <cml:atom id="a12" elementType="C" x2="0.397200" y2="-1.010700"/>
  <cml:atom id="a13" elementType="C" x2="0.652100" y2="-0.226100">
   <cml:atomParity atomRefs4="a25 a10 a26 a12">1</cml:atomParity>
  </cml:atom>
  <cml:atom id="a14" elementType="C" x2="-0.877200" y2="-1.702600"/>
  <cml:atom id="a15" elementType="O" x2="-0.186900" y2="1.065800"/>
  <cml:atom id="a16" elementType="C" x2="-0.770200" y2="1.649200"/>
  <cml:atom id="a17" elementType="O" x2="-0.813400" y2="2.473000"/>
  <cml:atom id="a18" elementType="C" x2="-1.594100" y2="1.606000"/>
  <cml:atom id="a19" elementType="C" x2="-1.889800" y2="2.376200"/>
  <cml:atom id="a20" elementType="C" x2="-2.704600" y2="2.505300"/>
  <cml:atom id="a21" elementType="C" x2="-3.000200" y2="3.275500"/>
  <cml:atom id="a22" elementType="C" x2="-3.815100" y2="3.404500"/>
  <cml:atom id="a23" elementType="C" x2="-4.110700" y2="4.174700"/>
  <cml:atom id="a24" elementType="C" x2="-4.925600" y2="4.303800"/>
  <cml:atom id="a25" elementType="H" x2="0.652100" y2="0.598900"/>
  <cml:atom id="a26" elementType="C" x2="1.459100" y2="-0.054600">
   <cml:atomParity atomRefs4="a30 a31 a48 a13">1</cml:atomParity>
  </cml:atom>
  <cml:atom id="a27" elementType="C" x2="0.949200" y2="-1.623800">
   <cml:atomParity atomRefs4="a27 a42 a28 a12">1</cml:atomParity>
  </cml:atom>
  <cml:atom id="a28" elementType="C" x2="1.756100" y2="-1.452300">
   <cml:atomParity atomRefs4="a41 a29 a43 a27">1</cml:atomParity>
  </cml:atom>
  <cml:atom id="a29" elementType="C" x2="2.011100" y2="-0.667700">
   <cml:atomParity atomRefs4="a29 a35 a48 a28">1</cml:atomParity>
  </cml:atom>
  <cml:atom id="a30" elementType="O" x2="1.978200" y2="0.586600"/>
  <cml:atom id="a31" elementType="C" x2="1.204100" y2="0.730100"/>
  <cml:atom id="a32" elementType="C" x2="2.748500" y2="0.882200"/>
  <cml:atom id="a33" elementType="O" x2="2.705300" y2="1.706100"/>
  <cml:atom id="a34" elementType="C" x2="3.483500" y2="0.507700"/>
  <cml:atom id="a35" elementType="O" x2="2.836100" y2="-0.667700"/>
  <cml:atom id="a36" elementType="C" x2="3.661100" y2="-0.667700"/>
  <cml:atom id="a37" elementType="O" x2="4.180300" y2="-0.026500"/>
  <cml:atom id="a38" elementType="C" x2="4.110400" y2="-1.359600"/>
  <cml:atom id="a39" elementType="C" x2="4.864100" y2="-1.024000"/>
  <cml:atom id="a40" elementType="C" x2="5.383300" y2="-1.665200"/>
  <cml:atom id="a41" elementType="O" x2="2.581100" y2="-1.452300"/>
  <cml:atom id="a42" elementType="O" x2="0.862900" y2="-2.444300"/>
  <cml:atom id="a43" elementType="C" x2="2.241100" y2="-2.119700">
   <cml:atomParity atomRefs4="a46 a47 a44 a28">1</cml:atomParity>
  </cml:atom>
  <cml:atom id="a44" elementType="C" x2="1.689000" y2="-2.732800"/>
  <cml:atom id="a45" elementType="O" x2="1.775300" y2="-3.553300"/>
  <cml:atom id="a46" elementType="C" x2="2.536700" y2="-2.889900"/>
  <cml:atom id="a47" elementType="O" x2="3.061500" y2="-2.033500"/>
  <cml:atom id="a48" elementType="C" x2="2.284100" y2="-0.054600"/>
 </cml:atomArray>
 <cml:bondArray>
  <cml:bond atomRefs2="a1 a2" order="1"/>
  <cml:bond atomRefs2="a2 a3" order="1"/>
  <cml:bond atomRefs2="a2 a4" order="2">
   <cml:bondStereo atomRefs4="a1 a2 a4 a6">T</cml:bondStereo>
  </cml:bond>
  <cml:bond atomRefs2="a4 a5" order="1"/>
  <cml:bond atomRefs2="a4 a6" order="1"/>
  <cml:bond atomRefs2="a6 a7" order="2"/>
  <cml:bond atomRefs2="a6 a8" order="1"/>
  <cml:bond atomRefs2="a9 a8" order="1"/>
  <cml:bond atomRefs2="a11 a12" order="2">
   <cml:bondStereo atomRefs4="a9 a11 a12 a27">T</cml:bondStereo>
  </cml:bond>
  <cml:bond atomRefs2="a12 a13" order="1"/>
  <cml:bond atomRefs2="a10 a13" order="1"/>
  <cml:bond atomRefs2="a10 a9" order="1"/>
  <cml:bond atomRefs2="a9 a11" order="1"/>
  <cml:bond atomRefs2="a11 a14" order="1"/>
  <cml:bond atomRefs2="a10 a15" order="1"/>
  <cml:bond atomRefs2="a15 a16" order="1"/>
  <cml:bond atomRefs2="a16 a17" order="2"/>
  <cml:bond atomRefs2="a16 a18" order="1"/>
  <cml:bond atomRefs2="a19 a20" order="1"/>
  <cml:bond atomRefs2="a20 a21" order="1"/>
  <cml:bond atomRefs2="a21 a22" order="1"/>
  <cml:bond atomRefs2="a22 a23" order="1"/>
  <cml:bond atomRefs2="a23 a24" order="1"/>
  <cml:bond atomRefs2="a18 a19" order="1"/>
  <cml:bond atomRefs2="a13 a25" order="1"/>
  <cml:bond atomRefs2="a27 a28" order="1"/>
  <cml:bond atomRefs2="a28 a29" order="1"/>
  <cml:bond atomRefs2="a26 a13" order="1"/>
  <cml:bond atomRefs2="a12 a27" order="1"/>
  <cml:bond atomRefs2="a26 a30" order="1"/>
  <cml:bond atomRefs2="a26 a31" order="1"/>
  <cml:bond atomRefs2="a30 a32" order="1"/>
  <cml:bond atomRefs2="a32 a33" order="2"/>
  <cml:bond atomRefs2="a32 a34" order="1"/>
  <cml:bond atomRefs2="a29 a35" order="1"/>
  <cml:bond atomRefs2="a35 a36" order="1"/>
  <cml:bond atomRefs2="a36 a37" order="2"/>
  <cml:bond atomRefs2="a36 a38" order="1"/>
  <cml:bond atomRefs2="a38 a39" order="1"/>
  <cml:bond atomRefs2="a39 a40" order="1"/>
  <cml:bond atomRefs2="a28 a41" order="1"/>
  <cml:bond atomRefs2="a27 a42" order="1"/>
  <cml:bond atomRefs2="a28 a43" order="1"/>
  <cml:bond atomRefs2="a43 a44" order="1"/>
  <cml:bond atomRefs2="a44 a42" order="1"/>
  <cml:bond atomRefs2="a44 a45" order="2"/>
  <cml:bond atomRefs2="a43 a46" order="1"/>
  <cml:bond atomRefs2="a43 a47" order="1"/>
  <cml:bond atomRefs2="a26 a48" order="1"/>
  <cml:bond atomRefs2="a48 a29" order="1"/>
 </cml:bondArray>
</cml:molecule>
</svg>
