<?xml version="1.0"?>
<svg xmlns="http://www.w3.org/2000/svg"
xmlns:xlink="http://www.w3.org/1999/xlink" xmlns:cml="http://www.xml-cml.org/schema" width="357.028" height="342.313" x="0" y="0" font-family="sans-serif" stroke="rgb(255,255,255)" stroke-width="1"  stroke-linecap="round">
<rect x="0%" y="0%" width="100%" height="100%" stroke-width="0" fill="rgb(0,0,0)"  />
<line x1="122.7" y1="182.3" x2="138.6" y2="204.1" stroke="rgb(255,255,255)"  stroke-width="1.0"/>
<line x1="139.2" y1="225.6" x2="124.5" y2="248.2" stroke="rgb(255,255,255)"  stroke-width="1.0"/>
<line x1="126.2" y1="245.8" x2="148.1" y2="261.6" stroke="rgb(255,255,255)"  stroke-width="1.0"/>
<line x1="122.7" y1="250.6" x2="144.5" y2="266.5" stroke="rgb(255,255,255)"  stroke-width="1.0"/>
<line x1="124.5" y1="248.2" x2="87.1" y2="262.5" stroke="rgb(255,255,255)"  stroke-width="1.0"/>
<line x1="87.1" y1="262.5" x2="71.2" y2="240.7" stroke="rgb(255,255,255)"  stroke-width="1.0"/>
<line x1="87.1" y1="262.5" x2="60.2" y2="263.9" stroke="rgb(255,255,255)"  stroke-width="1.0"/>
<line x1="87.1" y1="262.5" x2="84.3" y2="289.4" stroke="rgb(255,255,255)"  stroke-width="1.0"/>
<line x1="139.0" y1="145.8" x2="178.5" y2="139.5" stroke="rgb(255,255,255)"  stroke-width="1.0"/>
<line x1="175.8" y1="138.3" x2="186.8" y2="113.6" stroke="rgb(255,255,255)"  stroke-width="1.0"/>
<line x1="181.3" y1="140.7" x2="192.2" y2="116.0" stroke="rgb(255,255,255)"  stroke-width="1.0"/>
<line x1="178.5" y1="139.5" x2="198.6" y2="157.6" stroke="rgb(255,255,255)"  stroke-width="1.0"/>
<line x1="221.1" y1="164.2" x2="247.7" y2="160.0" stroke="rgb(255,255,255)"  stroke-width="1.0"/>
<line x1="80.3" y1="165.4" x2="74.6" y2="139.0" stroke="rgb(255,255,255)"  stroke-width="1.0"/>
<line x1="74.6" y1="139.0" x2="109.3" y2="119.0" stroke="rgb(255,255,255)"  stroke-width="1.0"/>
<line x1="83.4" y1="142.2" x2="107.7" y2="128.2" stroke="rgb(255,255,255)"  stroke-width="1.0"/>
<line x1="109.3" y1="119.0" x2="139.0" y2="145.8" stroke="rgb(255,255,255)"  stroke-width="1.0"/>
<line x1="139.0" y1="145.8" x2="122.7" y2="182.3" stroke="rgb(255,255,255)"  stroke-width="1.0"/>
<line x1="130.0" y1="148.3" x2="118.6" y2="173.9" stroke="rgb(255,255,255)"  stroke-width="1.0"/>
<line x1="122.7" y1="182.3" x2="95.9" y2="179.5" stroke="rgb(255,255,255)"  stroke-width="1.0"/>
<line x1="74.6" y1="59.0" x2="40.0" y2="79.0" stroke="rgb(255,255,255)"  stroke-width="1.0"/>
<line x1="40.0" y1="79.0" x2="40.0" y2="119.0" stroke="rgb(255,255,255)"  stroke-width="1.0"/>
<line x1="40.0" y1="119.0" x2="74.6" y2="139.0" stroke="rgb(255,255,255)"  stroke-width="1.0"/>
<line x1="109.3" y1="119.0" x2="109.3" y2="79.0" stroke="rgb(255,255,255)"  stroke-width="1.0"/>
<line x1="109.3" y1="79.0" x2="74.6" y2="59.0" stroke="rgb(255,255,255)"  stroke-width="1.0"/>
<line x1="247.7" y1="160.0" x2="247.7" y2="120.0" stroke="rgb(255,255,255)"  stroke-width="1.0"/>
<line x1="254.9" y1="154.0" x2="254.9" y2="126.0" stroke="rgb(255,255,255)"  stroke-width="1.0"/>
<line x1="247.7" y1="120.0" x2="282.4" y2="100.0" stroke="rgb(255,255,255)"  stroke-width="1.0"/>
<line x1="282.4" y1="100.0" x2="317.0" y2="120.0" stroke="rgb(255,255,255)"  stroke-width="1.0"/>
<line x1="284.0" y1="109.2" x2="308.2" y2="123.2" stroke="rgb(255,255,255)"  stroke-width="1.0"/>
<line x1="317.0" y1="120.0" x2="317.0" y2="160.0" stroke="rgb(255,255,255)"  stroke-width="1.0"/>
<line x1="317.0" y1="160.0" x2="282.4" y2="180.0" stroke="rgb(255,255,255)"  stroke-width="1.0"/>
<line x1="308.2" y1="156.8" x2="284.0" y2="170.8" stroke="rgb(255,255,255)"  stroke-width="1.0"/>
<line x1="282.4" y1="180.0" x2="247.7" y2="160.0" stroke="rgb(255,255,255)"  stroke-width="1.0"/>
<line x1="247.7" y1="40.0" x2="282.4" y2="60.0" stroke="rgb(255,255,255)"  stroke-width="1.0"/>
<line x1="249.3" y1="49.2" x2="273.6" y2="63.2" stroke="rgb(255,255,255)"  stroke-width="1.0"/>
<line x1="282.4" y1="60.0" x2="282.4" y2="100.0" stroke="rgb(255,255,255)"  stroke-width="1.0"/>
<line x1="247.7" y1="120.0" x2="213.1" y2="100.0" stroke="rgb(255,255,255)"  stroke-width="1.0"/>
<line x1="213.1" y1="100.0" x2="213.1" y2="60.0" stroke="rgb(255,255,255)"  stroke-width="1.0"/>
<line x1="220.3" y1="94.0" x2="220.3" y2="66.0" stroke="rgb(255,255,255)"  stroke-width="1.0"/>
<line x1="213.1" y1="60.0" x2="247.7" y2="40.0" stroke="rgb(255,255,255)"  stroke-width="1.0"/>
<text x="76.957585" y="186.109121" fill="rgb(178,178,0)"  stroke="rgb(178,178,0)" stroke-width="1" font-size="16" >S</text>
<text x="140.249720" y="222.652159" fill="rgb(12,12,255)"  stroke="rgb(12,12,255)" stroke-width="1" font-size="16" >NH</text>
<text x="150.824268" y="279.709141" fill="rgb(255,12,12)"  stroke="rgb(255,12,12)" stroke-width="1" font-size="16" >O</text>
<text x="57.607278" y="238.172162" fill="rgb(127,178,255)"  stroke="rgb(127,178,255)" stroke-width="1" font-size="16" >F</text>
<text x="41.175759" y="272.625503" fill="rgb(127,178,255)"  stroke="rgb(127,178,255)" stroke-width="1" font-size="16" >F</text>
<text x="76.938191" y="310.312784" fill="rgb(127,178,255)"  stroke="rgb(127,178,255)" stroke-width="1" font-size="16" >F</text>
<text x="188.783064" y="110.952741" fill="rgb(255,12,12)"  stroke="rgb(255,12,12)" stroke-width="1" font-size="16" >O</text>
<text x="202.237612" y="174.259421" fill="rgb(12,12,255)"  stroke="rgb(12,12,255)" stroke-width="1" font-size="16" >N</text>
<text x="202.237612" y="190.259421" fill="rgb(12,12,255)"  stroke="rgb(12,12,255)" stroke-width="1" font-size="16" >H</text>
<text font-size="18.000000" fill ="white" font-family="sans-serif"
x="10.000000" y="20.000000" ></text>
<title> - OBDepict</title>
<cml:molecule>
 <cml:atomArray>
  <cml:atom id="a1" elementType="C" x2="-3.705400" y2="3.481300"/>
  <cml:atom id="a2" elementType="C" x2="-4.419800" y2="3.068800"/>
  <cml:atom id="a3" elementType="C" x2="-4.419800" y2="2.243700"/>
  <cml:atom id="a4" elementType="C" x2="-3.705400" y2="1.831200"/>
  <cml:atom id="a5" elementType="C" x2="-2.990900" y2="2.243700"/>
  <cml:atom id="a6" elementType="C" x2="-2.990900" y2="3.068800"/>
  <cml:atom id="a7" elementType="S" x2="-3.533800" y2="1.024300"/>
  <cml:atom id="a8" elementType="C" x2="-2.713400" y2="0.938100"/>
  <cml:atom id="a9" elementType="C" x2="-2.377800" y2="1.691700"/>
  <cml:atom id="a10" elementType="N" x2="-2.228400" y2="0.270600"/>
  <cml:atom id="a11" elementType="C" x2="-2.677800" y2="-0.421300"/>
  <cml:atom id="a12" elementType="O" x2="-2.010300" y2="-0.906200"/>
  <cml:atom id="a13" elementType="C" x2="-3.448000" y2="-0.716900"/>
  <cml:atom id="a14" elementType="F" x2="-3.932900" y2="-0.049500"/>
  <cml:atom id="a15" elementType="F" x2="-4.271800" y2="-0.760100"/>
  <cml:atom id="a16" elementType="F" x2="-3.534200" y2="-1.537400"/>
  <cml:atom id="a17" elementType="C" x2="-1.563000" y2="1.820800"/>
  <cml:atom id="a18" elementType="O" x2="-1.227400" y2="2.574400"/>
  <cml:atom id="a19" elementType="N" x2="-0.949900" y2="1.268700"/>
  <cml:atom id="a20" elementType="C" x2="-0.135000" y2="1.397800"/>
  <cml:atom id="a21" elementType="C" x2="1.293900" y2="2.222800"/>
  <cml:atom id="a22" elementType="C" x2="0.579500" y2="2.635300"/>
  <cml:atom id="a23" elementType="C" x2="-0.135000" y2="2.222800"/>
  <cml:atom id="a24" elementType="C" x2="0.579500" y2="0.985300"/>
  <cml:atom id="a25" elementType="C" x2="1.293900" y2="1.397800"/>
  <cml:atom id="a26" elementType="C" x2="-0.135000" y2="3.872800"/>
  <cml:atom id="a27" elementType="C" x2="-0.849500" y2="3.460300"/>
  <cml:atom id="a28" elementType="C" x2="-0.849500" y2="2.635300"/>
  <cml:atom id="a29" elementType="C" x2="0.579500" y2="3.460300"/>
 </cml:atomArray>
 <cml:bondArray>
  <cml:bond atomRefs2="a1 a2" order="1"/>
  <cml:bond atomRefs2="a2 a3" order="1"/>
  <cml:bond atomRefs2="a3 a4" order="1"/>
  <cml:bond atomRefs2="a4 a5" order="2"/>
  <cml:bond atomRefs2="a5 a6" order="1"/>
  <cml:bond atomRefs2="a1 a6" order="1"/>
  <cml:bond atomRefs2="a7 a8" order="1"/>
  <cml:bond atomRefs2="a8 a9" order="2"/>
  <cml:bond atomRefs2="a4 a7" order="1"/>
  <cml:bond atomRefs2="a5 a9" order="1"/>
  <cml:bond atomRefs2="a8 a10" order="1"/>
  <cml:bond atomRefs2="a10 a11" order="1"/>
  <cml:bond atomRefs2="a11 a12" order="2"/>
  <cml:bond atomRefs2="a11 a13" order="1"/>
  <cml:bond atomRefs2="a13 a14" order="1"/>
  <cml:bond atomRefs2="a13 a15" order="1"/>
  <cml:bond atomRefs2="a13 a16" order="1"/>
  <cml:bond atomRefs2="a9 a17" order="1"/>
  <cml:bond atomRefs2="a17 a18" order="2"/>
  <cml:bond atomRefs2="a17 a19" order="1"/>
  <cml:bond atomRefs2="a19 a20" order="1"/>
  <cml:bond atomRefs2="a21 a22" order="2"/>
  <cml:bond atomRefs2="a22 a23" order="1"/>
  <cml:bond atomRefs2="a24 a25" order="2"/>
  <cml:bond atomRefs2="a21 a25" order="1"/>
  <cml:bond atomRefs2="a23 a20" order="2"/>
  <cml:bond atomRefs2="a20 a24" order="1"/>
  <cml:bond atomRefs2="a26 a27" order="1"/>
  <cml:bond atomRefs2="a27 a28" order="2"/>
  <cml:bond atomRefs2="a26 a29" order="2"/>
  <cml:bond atomRefs2="a28 a23" order="1"/>
  <cml:bond atomRefs2="a22 a29" order="1"/>
 </cml:bondArray>
</cml:molecule>
</svg>
