<?xml version="1.0"?>
<svg xmlns="http://www.w3.org/2000/svg"
xmlns:xlink="http://www.w3.org/1999/xlink" xmlns:cml="http://www.xml-cml.org/schema" width="451.731" height="307.658" x="0" y="0" font-family="sans-serif" stroke="rgb(255,255,255)" stroke-width="1"  stroke-linecap="round">
<rect x="0%" y="0%" width="100%" height="100%" stroke-width="0" fill="rgb(0,0,0)"  />
<line x1="173.8" y1="65.8" x2="192.6" y2="47.1" stroke="rgb(255,255,255)"  stroke-width="1.0"/>
<line x1="178.1" y1="70.1" x2="196.8" y2="51.3" stroke="rgb(255,255,255)"  stroke-width="1.0"/>
<line x1="164.6" y1="156.5" x2="156.6" y2="188.6" stroke="rgb(255,255,255)"  stroke-width="1.0"/>
<polygon points="203.911945 95.923519 230.406953 91.923519 230.406953 99.923519 " stroke-width="1.000000" fill="rgb(255,255,255)"  stroke="rgb(255,255,255)" />
<line x1="254.0" y1="103.6" x2="275.4" y2="119.2" stroke="rgb(255,255,255)"  stroke-width="1.0"/>
<line x1="278.1" y1="120.5" x2="266.1" y2="144.2" stroke="rgb(255,255,255)"  stroke-width="1.0"/>
<line x1="272.8" y1="117.8" x2="260.7" y2="141.5" stroke="rgb(255,255,255)"  stroke-width="1.0"/>
<line x1="275.4" y1="119.2" x2="302.0" y2="119.2" stroke="rgb(255,255,255)"  stroke-width="1.0"/>
<line x1="323.7" y1="128.8" x2="341.5" y2="148.6" stroke="rgb(255,255,255)"  stroke-width="1.0"/>
<line x1="381.0" y1="148.6" x2="401.6" y2="131.9" stroke="rgb(255,255,255)"  stroke-width="1.0"/>
<line x1="74.2" y1="74.1" x2="40.0" y2="93.9" stroke="rgb(255,255,255)"  stroke-width="1.0"/>
<line x1="40.0" y1="93.9" x2="40.0" y2="133.4" stroke="rgb(255,255,255)"  stroke-width="1.0"/>
<line x1="47.2" y1="99.9" x2="47.2" y2="127.4" stroke="rgb(255,255,255)"  stroke-width="1.0"/>
<line x1="40.0" y1="133.4" x2="74.2" y2="153.2" stroke="rgb(255,255,255)"  stroke-width="1.0"/>
<line x1="74.2" y1="153.2" x2="108.5" y2="133.4" stroke="rgb(255,255,255)"  stroke-width="1.0"/>
<line x1="75.8" y1="143.9" x2="99.7" y2="130.2" stroke="rgb(255,255,255)"  stroke-width="1.0"/>
<line x1="108.5" y1="133.4" x2="108.5" y2="93.9" stroke="rgb(255,255,255)"  stroke-width="1.0"/>
<line x1="108.5" y1="93.9" x2="74.2" y2="74.1" stroke="rgb(255,255,255)"  stroke-width="1.0"/>
<line x1="99.7" y1="97.1" x2="75.8" y2="83.3" stroke="rgb(255,255,255)"  stroke-width="1.0"/>
<line x1="156.6" y1="188.6" x2="122.4" y2="208.3" stroke="rgb(255,255,255)"  stroke-width="1.0"/>
<line x1="122.4" y1="208.3" x2="122.4" y2="247.9" stroke="rgb(255,255,255)"  stroke-width="1.0"/>
<line x1="129.6" y1="214.3" x2="129.6" y2="241.9" stroke="rgb(255,255,255)"  stroke-width="1.0"/>
<line x1="122.4" y1="247.9" x2="156.6" y2="267.7" stroke="rgb(255,255,255)"  stroke-width="1.0"/>
<line x1="156.6" y1="267.7" x2="190.9" y2="247.9" stroke="rgb(255,255,255)"  stroke-width="1.0"/>
<line x1="158.2" y1="258.4" x2="182.1" y2="244.7" stroke="rgb(255,255,255)"  stroke-width="1.0"/>
<line x1="190.9" y1="247.9" x2="190.9" y2="208.3" stroke="rgb(255,255,255)"  stroke-width="1.0"/>
<line x1="190.9" y1="208.3" x2="156.6" y2="188.6" stroke="rgb(255,255,255)"  stroke-width="1.0"/>
<line x1="182.1" y1="211.6" x2="158.2" y2="197.8" stroke="rgb(255,255,255)"  stroke-width="1.0"/>
<line x1="341.5" y1="148.6" x2="321.7" y2="182.8" stroke="rgb(255,255,255)"  stroke-width="1.0"/>
<line x1="344.7" y1="157.4" x2="330.9" y2="181.2" stroke="rgb(255,255,255)"  stroke-width="1.0"/>
<line x1="321.7" y1="182.8" x2="341.5" y2="217.1" stroke="rgb(255,255,255)"  stroke-width="1.0"/>
<line x1="341.5" y1="217.1" x2="381.0" y2="217.1" stroke="rgb(255,255,255)"  stroke-width="1.0"/>
<line x1="347.5" y1="209.9" x2="375.0" y2="209.9" stroke="rgb(255,255,255)"  stroke-width="1.0"/>
<line x1="381.0" y1="217.1" x2="400.8" y2="182.8" stroke="rgb(255,255,255)"  stroke-width="1.0"/>
<line x1="400.8" y1="182.8" x2="381.0" y2="148.6" stroke="rgb(255,255,255)"  stroke-width="1.0"/>
<line x1="391.5" y1="181.2" x2="377.8" y2="157.4" stroke="rgb(255,255,255)"  stroke-width="1.0"/>
<line x1="381.0" y1="148.6" x2="341.5" y2="148.6" stroke="rgb(255,255,255)"  stroke-width="1.0"/>
<line x1="203.9" y1="95.9" x2="175.9" y2="68.0" stroke="rgb(255,255,255)"  stroke-width="1.0"/>
<line x1="175.9" y1="68.0" x2="149.4" y2="66.6" stroke="rgb(255,255,255)"  stroke-width="1.0"/>
<line x1="127.3" y1="75.1" x2="108.5" y2="93.9" stroke="rgb(255,255,255)"  stroke-width="1.0"/>
<line x1="108.5" y1="133.4" x2="164.6" y2="156.5" stroke="rgb(255,255,255)"  stroke-width="1.0"/>
<line x1="164.6" y1="156.5" x2="186.8" y2="142.1" stroke="rgb(255,255,255)"  stroke-width="1.0"/>
<line x1="165.7" y1="147.2" x2="181.1" y2="137.2" stroke="rgb(255,255,255)"  stroke-width="1.0"/>
<line x1="199.8" y1="122.1" x2="203.9" y2="95.9" stroke="rgb(255,255,255)"  stroke-width="1.0"/>
<text x="130.455728" y="73.893447" fill="rgb(12,12,255)"  stroke="rgb(12,12,255)" stroke-width="1" font-size="16" >N</text>
<text x="130.455728" y="57.893447" fill="rgb(12,12,255)"  stroke="rgb(12,12,255)" stroke-width="1" font-size="16" >H</text>
<text x="197.911945" y="48.000000" fill="rgb(255,12,12)"  stroke="rgb(255,12,12)" stroke-width="1" font-size="16" >O</text>
<text x="191.723785" y="142.984183" fill="rgb(12,12,255)"  stroke="rgb(12,12,255)" stroke-width="1" font-size="16" >N</text>
<text x="237.456733" y="103.923519" fill="rgb(12,12,255)"  stroke="rgb(12,12,255)" stroke-width="1" font-size="16" >N</text>
<text x="237.456733" y="87.923519" fill="rgb(12,12,255)"  stroke="rgb(12,12,255)" stroke-width="1" font-size="16" >H</text>
<text x="251.496331" y="162.401872" fill="rgb(255,12,12)"  stroke="rgb(255,12,12)" stroke-width="1" font-size="16" >O</text>
<text x="308.992055" y="127.171061" fill="rgb(12,12,255)"  stroke="rgb(12,12,255)" stroke-width="1" font-size="16" >N</text>
<text x="308.992055" y="111.171061" fill="rgb(12,12,255)"  stroke="rgb(12,12,255)" stroke-width="1" font-size="16" >H</text>
<text x="405.730588" y="131.671977" fill="rgb(127,178,255)"  stroke="rgb(127,178,255)" stroke-width="1" font-size="16" >F</text>
<text font-size="18.000000" fill ="white" font-family="sans-serif"
x="10.000000" y="20.000000" ></text>
<title> - OBDepict</title>
<cml:molecule>
 <cml:atomArray>
  <cml:atom id="a1" elementType="C" x2="-4.263400" y2="3.458900"/>
  <cml:atom id="a2" elementType="C" x2="-4.977900" y2="3.046400"/>
  <cml:atom id="a3" elementType="C" x2="-4.977900" y2="2.221400"/>
  <cml:atom id="a4" elementType="C" x2="-4.263400" y2="1.808900"/>
  <cml:atom id="a5" elementType="C" x2="-3.548900" y2="2.221400"/>
  <cml:atom id="a6" elementType="C" x2="-3.548900" y2="3.046400"/>
  <cml:atom id="a7" elementType="N" x2="-2.965600" y2="3.629800"/>
  <cml:atom id="a8" elementType="C" x2="-2.141700" y2="3.586600"/>
  <cml:atom id="a9" elementType="O" x2="-1.558300" y2="4.170000"/>
  <cml:atom id="a10" elementType="C" x2="-1.558300" y2="3.003300">
   <cml:atomParity atomRefs4="a10 a19 a8 a11">1</cml:atomParity>
  </cml:atom>
  <cml:atom id="a11" elementType="N" x2="-1.687400" y2="2.188400"/>
  <cml:atom id="a12" elementType="C" x2="-2.379300" y2="1.739100"/>
  <cml:atom id="a13" elementType="C" x2="-2.544600" y2="1.070600"/>
  <cml:atom id="a14" elementType="C" x2="-3.259100" y2="0.658000"/>
  <cml:atom id="a15" elementType="C" x2="-3.259100" y2="-0.167000"/>
  <cml:atom id="a16" elementType="C" x2="-2.544600" y2="-0.579500"/>
  <cml:atom id="a17" elementType="C" x2="-1.830200" y2="-0.167000"/>
  <cml:atom id="a18" elementType="C" x2="-1.830200" y2="0.658000"/>
  <cml:atom id="a19" elementType="N" x2="-0.733300" y2="3.003300"/>
  <cml:atom id="a20" elementType="C" x2="-0.065900" y2="2.518300"/>
  <cml:atom id="a21" elementType="O" x2="-0.440400" y2="1.783300"/>
  <cml:atom id="a22" elementType="N" x2="0.759100" y2="2.518300"/>
  <cml:atom id="a23" elementType="C" x2="1.311100" y2="1.905200"/>
  <cml:atom id="a24" elementType="C" x2="2.136100" y2="1.905300"/>
  <cml:atom id="a25" elementType="C" x2="0.898600" y2="1.190800"/>
  <cml:atom id="a26" elementType="C" x2="1.311100" y2="0.476300"/>
  <cml:atom id="a27" elementType="C" x2="2.136100" y2="0.476300"/>
  <cml:atom id="a28" elementType="C" x2="2.548600" y2="1.190800"/>
  <cml:atom id="a29" elementType="F" x2="2.777300" y2="2.424400"/>
 </cml:atomArray>
 <cml:bondArray>
  <cml:bond atomRefs2="a1 a2" order="1"/>
  <cml:bond atomRefs2="a2 a3" order="2"/>
  <cml:bond atomRefs2="a3 a4" order="1"/>
  <cml:bond atomRefs2="a4 a5" order="2"/>
  <cml:bond atomRefs2="a5 a6" order="1"/>
  <cml:bond atomRefs2="a1 a6" order="2"/>
  <cml:bond atomRefs2="a6 a7" order="1"/>
  <cml:bond atomRefs2="a7 a8" order="1"/>
  <cml:bond atomRefs2="a8 a9" order="2"/>
  <cml:bond atomRefs2="a8 a10" order="1"/>
  <cml:bond atomRefs2="a10 a11" order="1"/>
  <cml:bond atomRefs2="a11 a12" order="2">
   <cml:bondStereo atomRefs4="a10 a11 a12 a13">T</cml:bondStereo>
  </cml:bond>
  <cml:bond atomRefs2="a12 a5" order="1"/>
  <cml:bond atomRefs2="a13 a14" order="1"/>
  <cml:bond atomRefs2="a14 a15" order="2"/>
  <cml:bond atomRefs2="a15 a16" order="1"/>
  <cml:bond atomRefs2="a16 a17" order="2"/>
  <cml:bond atomRefs2="a17 a18" order="1"/>
  <cml:bond atomRefs2="a13 a18" order="2"/>
  <cml:bond atomRefs2="a12 a13" order="1"/>
  <cml:bond atomRefs2="a10 a19" order="1"/>
  <cml:bond atomRefs2="a19 a20" order="1"/>
  <cml:bond atomRefs2="a20 a21" order="2"/>
  <cml:bond atomRefs2="a20 a22" order="1"/>
  <cml:bond atomRefs2="a22 a23" order="1"/>
  <cml:bond atomRefs2="a25 a26" order="1"/>
  <cml:bond atomRefs2="a26 a27" order="2"/>
  <cml:bond atomRefs2="a27 a28" order="1"/>
  <cml:bond atomRefs2="a24 a28" order="2"/>
  <cml:bond atomRefs2="a24 a23" order="1"/>
  <cml:bond atomRefs2="a23 a25" order="2"/>
  <cml:bond atomRefs2="a24 a29" order="1"/>
 </cml:bondArray>
</cml:molecule>
</svg>
