<?xml version="1.0"?>
<svg xmlns="http://www.w3.org/2000/svg"
xmlns:xlink="http://www.w3.org/1999/xlink" xmlns:cml="http://www.xml-cml.org/schema" width="399.759" height="259.947" x="0" y="0" font-family="sans-serif" stroke="rgb(255,255,255)" stroke-width="1"  stroke-linecap="round">
<rect x="0%" y="0%" width="100%" height="100%" stroke-width="0" fill="rgb(0,0,0)"  />
<line x1="181.6" y1="180.2" x2="180.1" y2="207.1" stroke="rgb(255,255,255)"  stroke-width="1.0"/>
<line x1="175.6" y1="179.8" x2="174.2" y2="206.8" stroke="rgb(255,255,255)"  stroke-width="1.0"/>
<line x1="225.8" y1="116.6" x2="251.8" y2="109.6" stroke="rgb(255,255,255)"  stroke-width="1.0"/>
<line x1="248.8" y1="109.5" x2="250.3" y2="82.5" stroke="rgb(255,255,255)"  stroke-width="1.0"/>
<line x1="254.8" y1="109.8" x2="256.3" y2="82.8" stroke="rgb(255,255,255)"  stroke-width="1.0"/>
<line x1="251.8" y1="109.6" x2="290.5" y2="120.0" stroke="rgb(255,255,255)"  stroke-width="1.0"/>
<line x1="74.6" y1="40.0" x2="40.0" y2="60.0" stroke="rgb(255,255,255)"  stroke-width="1.0"/>
<line x1="73.0" y1="49.2" x2="48.8" y2="63.2" stroke="rgb(255,255,255)"  stroke-width="1.0"/>
<line x1="40.0" y1="60.0" x2="40.0" y2="100.0" stroke="rgb(255,255,255)"  stroke-width="1.0"/>
<line x1="40.0" y1="100.0" x2="74.6" y2="120.0" stroke="rgb(255,255,255)"  stroke-width="1.0"/>
<line x1="48.8" y1="96.8" x2="73.0" y2="110.8" stroke="rgb(255,255,255)"  stroke-width="1.0"/>
<line x1="74.6" y1="120.0" x2="109.3" y2="100.0" stroke="rgb(255,255,255)"  stroke-width="1.0"/>
<line x1="109.3" y1="100.0" x2="109.3" y2="60.0" stroke="rgb(255,255,255)"  stroke-width="1.0"/>
<line x1="102.1" y1="94.0" x2="102.1" y2="66.0" stroke="rgb(255,255,255)"  stroke-width="1.0"/>
<line x1="109.3" y1="60.0" x2="74.6" y2="40.0" stroke="rgb(255,255,255)"  stroke-width="1.0"/>
<line x1="74.6" y1="160.0" x2="74.6" y2="120.0" stroke="rgb(255,255,255)"  stroke-width="1.0"/>
<line x1="109.3" y1="100.0" x2="143.9" y2="120.0" stroke="rgb(255,255,255)"  stroke-width="1.0"/>
<line x1="143.9" y1="120.0" x2="143.9" y2="147.0" stroke="rgb(255,255,255)"  stroke-width="1.0"/>
<line x1="132.7" y1="166.5" x2="109.3" y2="180.0" stroke="rgb(255,255,255)"  stroke-width="1.0"/>
<line x1="109.3" y1="180.0" x2="74.6" y2="160.0" stroke="rgb(255,255,255)"  stroke-width="1.0"/>
<line x1="178.6" y1="180.0" x2="213.2" y2="160.0" stroke="rgb(255,255,255)"  stroke-width="1.0"/>
<line x1="213.2" y1="160.0" x2="213.2" y2="133.0" stroke="rgb(255,255,255)"  stroke-width="1.0"/>
<line x1="201.9" y1="113.5" x2="178.6" y2="100.0" stroke="rgb(255,255,255)"  stroke-width="1.0"/>
<line x1="178.6" y1="100.0" x2="143.9" y2="120.0" stroke="rgb(255,255,255)"  stroke-width="1.0"/>
<line x1="155.2" y1="166.5" x2="178.6" y2="180.0" stroke="rgb(255,255,255)"  stroke-width="1.0"/>
<line x1="290.5" y1="120.0" x2="290.5" y2="160.0" stroke="rgb(255,255,255)"  stroke-width="1.0"/>
<line x1="290.5" y1="160.0" x2="325.1" y2="180.0" stroke="rgb(255,255,255)"  stroke-width="1.0"/>
<line x1="325.1" y1="180.0" x2="359.8" y2="160.0" stroke="rgb(255,255,255)"  stroke-width="1.0"/>
<line x1="359.8" y1="160.0" x2="359.8" y2="120.0" stroke="rgb(255,255,255)"  stroke-width="1.0"/>
<line x1="359.8" y1="120.0" x2="325.1" y2="100.0" stroke="rgb(255,255,255)"  stroke-width="1.0"/>
<line x1="325.1" y1="100.0" x2="290.5" y2="120.0" stroke="rgb(255,255,255)"  stroke-width="1.0"/>
<text x="137.922791" y="168.000423" fill="rgb(12,12,255)"  stroke="rgb(12,12,255)" stroke-width="1" font-size="16" >N</text>
<text x="207.203035" y="128.000282" fill="rgb(12,12,255)"  stroke="rgb(12,12,255)" stroke-width="1" font-size="16" >N</text>
<text x="170.470785" y="227.947302" fill="rgb(255,12,12)"  stroke="rgb(255,12,12)" stroke-width="1" font-size="16" >O</text>
<text x="247.935300" y="77.701923" fill="rgb(255,12,12)"  stroke="rgb(255,12,12)" stroke-width="1" font-size="16" >O</text>
<text font-size="18.000000" fill ="white" font-family="sans-serif"
x="10.000000" y="20.000000" ></text>
<title> - OBDepict</title>
<cml:molecule>
 <cml:atomArray>
  <cml:atom id="a1" elementType="C" x2="-3.705400" y2="3.548200"/>
  <cml:atom id="a2" elementType="C" x2="-4.419800" y2="3.135700"/>
  <cml:atom id="a3" elementType="C" x2="-4.419800" y2="2.310700"/>
  <cml:atom id="a4" elementType="C" x2="-3.705400" y2="1.898200"/>
  <cml:atom id="a5" elementType="C" x2="-2.990900" y2="2.310700"/>
  <cml:atom id="a6" elementType="C" x2="-2.990900" y2="3.135700"/>
  <cml:atom id="a7" elementType="C" x2="-3.705400" y2="1.073200"/>
  <cml:atom id="a8" elementType="C" x2="-2.990900" y2="0.660700"/>
  <cml:atom id="a9" elementType="N" x2="-2.276400" y2="1.073200"/>
  <cml:atom id="a10" elementType="C" x2="-2.276400" y2="1.898200"/>
  <cml:atom id="a11" elementType="C" x2="-1.562000" y2="2.310700"/>
  <cml:atom id="a12" elementType="C" x2="-1.562000" y2="0.660700"/>
  <cml:atom id="a13" elementType="C" x2="-0.847500" y2="1.073200"/>
  <cml:atom id="a14" elementType="N" x2="-0.847500" y2="1.898200"/>
  <cml:atom id="a15" elementType="O" x2="-1.605100" y2="-0.163200"/>
  <cml:atom id="a16" elementType="C" x2="-0.050600" y2="2.111700"/>
  <cml:atom id="a17" elementType="O" x2="-0.007400" y2="2.935600"/>
  <cml:atom id="a18" elementType="C" x2="0.746300" y2="1.898200"/>
  <cml:atom id="a19" elementType="C" x2="1.460700" y2="2.310700"/>
  <cml:atom id="a20" elementType="C" x2="0.746300" y2="1.073200"/>
  <cml:atom id="a21" elementType="C" x2="1.460700" y2="0.660700"/>
  <cml:atom id="a22" elementType="C" x2="2.175200" y2="1.073200"/>
  <cml:atom id="a23" elementType="C" x2="2.175200" y2="1.898200"/>
 </cml:atomArray>
 <cml:bondArray>
  <cml:bond atomRefs2="a1 a2" order="2"/>
  <cml:bond atomRefs2="a2 a3" order="1"/>
  <cml:bond atomRefs2="a3 a4" order="2"/>
  <cml:bond atomRefs2="a4 a5" order="1"/>
  <cml:bond atomRefs2="a5 a6" order="2"/>
  <cml:bond atomRefs2="a1 a6" order="1"/>
  <cml:bond atomRefs2="a7 a8" order="1"/>
  <cml:bond atomRefs2="a8 a9" order="1"/>
  <cml:bond atomRefs2="a9 a10" order="1"/>
  <cml:bond atomRefs2="a4 a7" order="1"/>
  <cml:bond atomRefs2="a5 a10" order="1"/>
  <cml:bond atomRefs2="a12 a13" order="1"/>
  <cml:bond atomRefs2="a13 a14" order="1"/>
  <cml:bond atomRefs2="a11 a14" order="1"/>
  <cml:bond atomRefs2="a9 a12" order="1"/>
  <cml:bond atomRefs2="a11 a10" order="1"/>
  <cml:bond atomRefs2="a12 a15" order="2"/>
  <cml:bond atomRefs2="a14 a16" order="1"/>
  <cml:bond atomRefs2="a16 a17" order="2"/>
  <cml:bond atomRefs2="a16 a18" order="1"/>
  <cml:bond atomRefs2="a20 a21" order="1"/>
  <cml:bond atomRefs2="a21 a22" order="1"/>
  <cml:bond atomRefs2="a22 a23" order="1"/>
  <cml:bond atomRefs2="a19 a23" order="1"/>
  <cml:bond atomRefs2="a19 a18" order="1"/>
  <cml:bond atomRefs2="a18 a20" order="1"/>
 </cml:bondArray>
</cml:molecule>
</svg>
