<?xml version="1.0"?>
<svg xmlns="http://www.w3.org/2000/svg"
xmlns:xlink="http://www.w3.org/1999/xlink" xmlns:cml="http://www.xml-cml.org/schema" width="390.66" height="319.153" x="0" y="0" font-family="sans-serif" stroke="rgb(255,255,255)" stroke-width="1"  stroke-linecap="round">
<rect x="0%" y="0%" width="100%" height="100%" stroke-width="0" fill="rgb(0,0,0)"  />
<line x1="212.6" y1="99.8" x2="235.8" y2="113.2" stroke="rgb(255,255,255)"  stroke-width="1.0"/>
<line x1="179.6" y1="157.0" x2="202.8" y2="170.4" stroke="rgb(255,255,255)"  stroke-width="1.0"/>
<line x1="176.6" y1="162.2" x2="199.8" y2="175.6" stroke="rgb(255,255,255)"  stroke-width="1.0"/>
<line x1="212.6" y1="99.8" x2="178.1" y2="119.7" stroke="rgb(255,255,255)"  stroke-width="1.0"/>
<line x1="291.4" y1="170.4" x2="314.6" y2="157.0" stroke="rgb(255,255,255)"  stroke-width="1.0"/>
<line x1="294.4" y1="175.6" x2="317.6" y2="162.2" stroke="rgb(255,255,255)"  stroke-width="1.0"/>
<line x1="316.1" y1="159.6" x2="316.1" y2="119.7" stroke="rgb(255,255,255)"  stroke-width="1.0"/>
<line x1="281.6" y1="99.8" x2="258.4" y2="113.2" stroke="rgb(255,255,255)"  stroke-width="1.0"/>
<line x1="74.5" y1="219.4" x2="109.0" y2="239.3" stroke="rgb(255,255,255)"  stroke-width="1.0"/>
<line x1="74.5" y1="179.5" x2="74.5" y2="219.4" stroke="rgb(255,255,255)"  stroke-width="1.0"/>
<line x1="112.0" y1="239.3" x2="112.0" y2="279.2" stroke="rgb(255,255,255)"  stroke-width="1.0"/>
<line x1="106.0" y1="239.3" x2="106.0" y2="279.2" stroke="rgb(255,255,255)"  stroke-width="1.0"/>
<line x1="209.6" y1="99.3" x2="214.9" y2="68.9" stroke="rgb(255,255,255)"  stroke-width="1.0"/>
<line x1="215.5" y1="100.3" x2="220.8" y2="69.9" stroke="rgb(255,255,255)"  stroke-width="1.0"/>
<line x1="316.1" y1="159.6" x2="337.9" y2="175.4" stroke="rgb(255,255,255)"  stroke-width="1.0"/>
<line x1="74.5" y1="99.8" x2="40.0" y2="119.7" stroke="rgb(255,255,255)"  stroke-width="1.0"/>
<line x1="72.9" y1="109.0" x2="48.8" y2="123.0" stroke="rgb(255,255,255)"  stroke-width="1.0"/>
<line x1="40.0" y1="119.7" x2="40.0" y2="159.6" stroke="rgb(255,255,255)"  stroke-width="1.0"/>
<line x1="40.0" y1="159.6" x2="74.5" y2="179.5" stroke="rgb(255,255,255)"  stroke-width="1.0"/>
<line x1="48.8" y1="156.3" x2="72.9" y2="170.3" stroke="rgb(255,255,255)"  stroke-width="1.0"/>
<line x1="74.5" y1="179.5" x2="109.0" y2="159.6" stroke="rgb(255,255,255)"  stroke-width="1.0"/>
<line x1="109.0" y1="159.6" x2="109.0" y2="119.7" stroke="rgb(255,255,255)"  stroke-width="1.0"/>
<line x1="101.8" y1="153.6" x2="101.8" y2="125.7" stroke="rgb(255,255,255)"  stroke-width="1.0"/>
<line x1="109.0" y1="119.7" x2="74.5" y2="99.8" stroke="rgb(255,255,255)"  stroke-width="1.0"/>
<line x1="154.8" y1="173.0" x2="178.1" y2="159.6" stroke="rgb(255,255,255)"  stroke-width="1.0"/>
<line x1="178.1" y1="159.6" x2="178.1" y2="119.7" stroke="rgb(255,255,255)"  stroke-width="1.0"/>
<line x1="178.1" y1="119.7" x2="143.6" y2="99.8" stroke="rgb(255,255,255)"  stroke-width="1.0"/>
<line x1="169.3" y1="123.0" x2="145.1" y2="109.0" stroke="rgb(255,255,255)"  stroke-width="1.0"/>
<line x1="143.6" y1="99.8" x2="109.0" y2="119.7" stroke="rgb(255,255,255)"  stroke-width="1.0"/>
<line x1="109.0" y1="159.6" x2="132.3" y2="173.0" stroke="rgb(255,255,255)"  stroke-width="1.0"/>
<line x1="281.6" y1="99.8" x2="316.1" y2="119.7" stroke="rgb(255,255,255)"  stroke-width="1.0"/>
<line x1="316.1" y1="119.7" x2="350.7" y2="99.8" stroke="rgb(255,255,255)"  stroke-width="1.0"/>
<line x1="317.7" y1="110.5" x2="341.9" y2="96.6" stroke="rgb(255,255,255)"  stroke-width="1.0"/>
<line x1="350.7" y1="99.8" x2="350.7" y2="59.9" stroke="rgb(255,255,255)"  stroke-width="1.0"/>
<line x1="350.7" y1="59.9" x2="316.1" y2="40.0" stroke="rgb(255,255,255)"  stroke-width="1.0"/>
<line x1="341.9" y1="63.2" x2="317.7" y2="49.2" stroke="rgb(255,255,255)"  stroke-width="1.0"/>
<line x1="316.1" y1="40.0" x2="281.6" y2="59.9" stroke="rgb(255,255,255)"  stroke-width="1.0"/>
<line x1="281.6" y1="59.9" x2="281.6" y2="99.8" stroke="rgb(255,255,255)"  stroke-width="1.0"/>
<line x1="288.8" y1="65.9" x2="288.8" y2="93.8" stroke="rgb(255,255,255)"  stroke-width="1.0"/>
<text x="137.553491" y="187.507820" fill="rgb(255,12,12)"  stroke="rgb(255,12,12)" stroke-width="1" font-size="16" >O</text>
<text x="206.587541" y="187.507820" fill="rgb(255,12,12)"  stroke="rgb(255,12,12)" stroke-width="1" font-size="16" >O</text>
<text x="241.106982" y="127.715993" fill="rgb(12,12,255)"  stroke="rgb(12,12,255)" stroke-width="1" font-size="16" >N</text>
<text x="241.106982" y="143.715993" fill="rgb(12,12,255)"  stroke="rgb(12,12,255)" stroke-width="1" font-size="16" >H</text>
<text x="275.626423" y="187.507820" fill="rgb(255,12,12)"  stroke="rgb(255,12,12)" stroke-width="1" font-size="16" >O</text>
<text x="214.105001" y="64.609914" fill="rgb(255,12,12)"  stroke="rgb(255,12,12)" stroke-width="1" font-size="16" >O</text>
<text x="342.389775" y="191.005661" fill="rgb(255,12,12)"  stroke="rgb(255,12,12)" stroke-width="1" font-size="16" >OH</text>
<text font-size="18.000000" fill ="white" font-family="sans-serif"
x="10.000000" y="20.000000" ></text>
<title> - OBDepict</title>
<cml:molecule>
 <cml:atomArray>
  <cml:atom id="a1" elementType="C" x2="-3.772300" y2="1.829500"/>
  <cml:atom id="a2" elementType="C" x2="-4.486800" y2="1.417000"/>
  <cml:atom id="a3" elementType="C" x2="-4.486800" y2="0.592000"/>
  <cml:atom id="a4" elementType="C" x2="-3.772300" y2="0.179400"/>
  <cml:atom id="a5" elementType="C" x2="-3.057900" y2="0.592000"/>
  <cml:atom id="a6" elementType="C" x2="-3.057900" y2="1.417000"/>
  <cml:atom id="a7" elementType="C" x2="-2.343400" y2="1.829500"/>
  <cml:atom id="a8" elementType="O" x2="-2.343400" y2="0.179400"/>
  <cml:atom id="a9" elementType="C" x2="-1.628900" y2="0.592000"/>
  <cml:atom id="a10" elementType="C" x2="-1.628900" y2="1.417000"/>
  <cml:atom id="a11" elementType="C" x2="-0.914500" y2="1.829500"/>
  <cml:atom id="a12" elementType="O" x2="-0.914500" y2="0.179400"/>
  <cml:atom id="a13" elementType="N" x2="-0.200000" y2="1.417000"/>
  <cml:atom id="a14" elementType="C" x2="0.514500" y2="1.829500"/>
  <cml:atom id="a15" elementType="O" x2="0.514500" y2="0.179400"/>
  <cml:atom id="a16" elementType="C" x2="1.228900" y2="0.592000"/>
  <cml:atom id="a17" elementType="C" x2="1.228900" y2="1.417000"/>
  <cml:atom id="a18" elementType="C" x2="1.228900" y2="3.067000"/>
  <cml:atom id="a19" elementType="C" x2="0.514500" y2="2.654500"/>
  <cml:atom id="a20" elementType="C" x2="1.943400" y2="1.829500"/>
  <cml:atom id="a21" elementType="C" x2="1.943400" y2="2.654500"/>
  <cml:atom id="a22" elementType="C" x2="-3.772300" y2="-0.645600"/>
  <cml:atom id="a23" elementType="C" x2="-3.057900" y2="-1.058100"/>
  <cml:atom id="a24" elementType="C" x2="-3.057900" y2="-1.883100"/>
  <cml:atom id="a25" elementType="O" x2="-0.758900" y2="2.723200"/>
  <cml:atom id="a26" elementType="O" x2="1.896400" y2="0.107000"/>
 </cml:atomArray>
 <cml:bondArray>
  <cml:bond atomRefs2="a1 a2" order="2"/>
  <cml:bond atomRefs2="a2 a3" order="1"/>
  <cml:bond atomRefs2="a3 a4" order="2"/>
  <cml:bond atomRefs2="a4 a5" order="1"/>
  <cml:bond atomRefs2="a5 a6" order="2"/>
  <cml:bond atomRefs2="a1 a6" order="1"/>
  <cml:bond atomRefs2="a8 a9" order="1"/>
  <cml:bond atomRefs2="a7 a10" order="2"/>
  <cml:bond atomRefs2="a5 a8" order="1"/>
  <cml:bond atomRefs2="a7 a6" order="1"/>
  <cml:bond atomRefs2="a11 a13" order="1"/>
  <cml:bond atomRefs2="a9 a12" order="2"/>
  <cml:bond atomRefs2="a11 a10" order="1"/>
  <cml:bond atomRefs2="a10 a9" order="1"/>
  <cml:bond atomRefs2="a15 a16" order="2"/>
  <cml:bond atomRefs2="a16 a17" order="1"/>
  <cml:bond atomRefs2="a14 a13" order="1"/>
  <cml:bond atomRefs2="a18 a19" order="1"/>
  <cml:bond atomRefs2="a20 a21" order="1"/>
  <cml:bond atomRefs2="a18 a21" order="2"/>
  <cml:bond atomRefs2="a19 a14" order="2"/>
  <cml:bond atomRefs2="a17 a20" order="2"/>
  <cml:bond atomRefs2="a14 a17" order="1"/>
  <cml:bond atomRefs2="a22 a23" order="1"/>
  <cml:bond atomRefs2="a4 a22" order="1"/>
  <cml:bond atomRefs2="a23 a24" order="2"/>
  <cml:bond atomRefs2="a11 a25" order="2"/>
  <cml:bond atomRefs2="a16 a26" order="1"/>
 </cml:bondArray>
</cml:molecule>
</svg>
