<?xml version="1.0"?>
<svg xmlns="http://www.w3.org/2000/svg"
xmlns:xlink="http://www.w3.org/1999/xlink" xmlns:cml="http://www.xml-cml.org/schema" width="421.126" height="403.706" x="0" y="0" font-family="sans-serif" stroke="rgb(255,255,255)" stroke-width="1"  stroke-linecap="round">
<rect x="0%" y="0%" width="100%" height="100%" stroke-width="0" fill="rgb(0,0,0)"  />
<line x1="85.9" y1="310.2" x2="109.3" y2="323.7" stroke="rgb(255,255,255)"  stroke-width="1.0"/>
<line x1="109.3" y1="323.7" x2="143.9" y2="303.7" stroke="rgb(255,255,255)"  stroke-width="1.0"/>
<line x1="74.6" y1="263.7" x2="74.6" y2="290.7" stroke="rgb(255,255,255)"  stroke-width="1.0"/>
<line x1="109.3" y1="243.7" x2="143.9" y2="263.7" stroke="rgb(255,255,255)"  stroke-width="1.0"/>
<line x1="156.7" y1="187.6" x2="180.1" y2="201.1" stroke="rgb(255,255,255)"  stroke-width="1.0"/>
<line x1="153.7" y1="192.8" x2="177.1" y2="206.3" stroke="rgb(255,255,255)"  stroke-width="1.0"/>
<line x1="142.4" y1="261.1" x2="177.1" y2="241.1" stroke="rgb(255,255,255)"  stroke-width="1.0"/>
<line x1="145.4" y1="266.3" x2="180.1" y2="246.3" stroke="rgb(255,255,255)"  stroke-width="1.0"/>
<line x1="272.7" y1="150.6" x2="281.0" y2="111.5" stroke="rgb(255,255,255)"  stroke-width="1.0"/>
<line x1="216.6" y1="118.3" x2="232.9" y2="154.8" stroke="rgb(255,255,255)"  stroke-width="1.0"/>
<line x1="74.6" y1="183.7" x2="74.6" y2="156.7" stroke="rgb(255,255,255)"  stroke-width="1.0"/>
<line x1="112.3" y1="323.7" x2="112.3" y2="350.7" stroke="rgb(255,255,255)"  stroke-width="1.0"/>
<line x1="106.3" y1="323.7" x2="106.3" y2="350.7" stroke="rgb(255,255,255)"  stroke-width="1.0"/>
<line x1="232.9" y1="154.8" x2="205.9" y2="156.2" stroke="rgb(255,255,255)"  stroke-width="1.0"/>
<line x1="281.0" y1="111.5" x2="307.6" y2="115.7" stroke="rgb(255,255,255)"  stroke-width="1.0"/>
<line x1="329.7" y1="108.6" x2="348.8" y2="89.5" stroke="rgb(255,255,255)"  stroke-width="1.0"/>
<line x1="348.8" y1="89.5" x2="381.1" y2="113.0" stroke="rgb(255,255,255)"  stroke-width="1.0"/>
<line x1="278.0" y1="111.5" x2="278.0" y2="84.5" stroke="rgb(255,255,255)"  stroke-width="1.0"/>
<line x1="284.0" y1="111.5" x2="284.0" y2="84.5" stroke="rgb(255,255,255)"  stroke-width="1.0"/>
<line x1="296.2" y1="183.0" x2="336.2" y2="183.0" stroke="rgb(255,255,255)"  stroke-width="1.0"/>
<line x1="178.6" y1="243.7" x2="178.6" y2="203.7" stroke="rgb(255,255,255)"  stroke-width="1.0"/>
<line x1="178.6" y1="203.7" x2="204.2" y2="195.4" stroke="rgb(255,255,255)"  stroke-width="1.0"/>
<line x1="224.2" y1="201.9" x2="240.1" y2="223.7" stroke="rgb(255,255,255)"  stroke-width="1.0"/>
<line x1="240.1" y1="223.7" x2="224.2" y2="245.5" stroke="rgb(255,255,255)"  stroke-width="1.0"/>
<line x1="204.2" y1="252.0" x2="178.6" y2="243.7" stroke="rgb(255,255,255)"  stroke-width="1.0"/>
<line x1="74.6" y1="183.7" x2="40.0" y2="203.7" stroke="rgb(255,255,255)"  stroke-width="1.0"/>
<line x1="73.0" y1="192.9" x2="48.8" y2="206.9" stroke="rgb(255,255,255)"  stroke-width="1.0"/>
<line x1="40.0" y1="203.7" x2="40.0" y2="243.7" stroke="rgb(255,255,255)"  stroke-width="1.0"/>
<line x1="40.0" y1="243.7" x2="74.6" y2="263.7" stroke="rgb(255,255,255)"  stroke-width="1.0"/>
<line x1="48.8" y1="240.5" x2="73.0" y2="254.5" stroke="rgb(255,255,255)"  stroke-width="1.0"/>
<line x1="74.6" y1="263.7" x2="109.3" y2="243.7" stroke="rgb(255,255,255)"  stroke-width="1.0"/>
<line x1="109.3" y1="243.7" x2="109.3" y2="203.7" stroke="rgb(255,255,255)"  stroke-width="1.0"/>
<line x1="102.1" y1="237.7" x2="102.1" y2="209.7" stroke="rgb(255,255,255)"  stroke-width="1.0"/>
<line x1="109.3" y1="203.7" x2="74.6" y2="183.7" stroke="rgb(255,255,255)"  stroke-width="1.0"/>
<line x1="272.7" y1="150.6" x2="232.9" y2="154.8" stroke="rgb(255,255,255)"  stroke-width="1.0"/>
<line x1="232.9" y1="154.8" x2="221.9" y2="179.5" stroke="rgb(255,255,255)"  stroke-width="1.0"/>
<line x1="240.1" y1="223.7" x2="266.8" y2="220.9" stroke="rgb(255,255,255)"  stroke-width="1.0"/>
<line x1="245.3" y1="215.9" x2="264.0" y2="213.9" stroke="rgb(255,255,255)"  stroke-width="1.0"/>
<line x1="285.2" y1="207.6" x2="296.2" y2="183.0" stroke="rgb(255,255,255)"  stroke-width="1.0"/>
<line x1="296.2" y1="183.0" x2="272.7" y2="150.6" stroke="rgb(255,255,255)"  stroke-width="1.0"/>
<line x1="286.8" y1="182.4" x2="270.4" y2="159.7" stroke="rgb(255,255,255)"  stroke-width="1.0"/>
<line x1="246.3" y1="91.5" x2="216.6" y2="118.3" stroke="rgb(255,255,255)"  stroke-width="1.0"/>
<line x1="237.1" y1="90.2" x2="216.2" y2="108.9" stroke="rgb(255,255,255)"  stroke-width="1.0"/>
<line x1="216.6" y1="118.3" x2="178.6" y2="105.9" stroke="rgb(255,255,255)"  stroke-width="1.0"/>
<line x1="178.6" y1="105.9" x2="170.2" y2="66.8" stroke="rgb(255,255,255)"  stroke-width="1.0"/>
<line x1="184.4" y1="98.5" x2="178.5" y2="71.1" stroke="rgb(255,255,255)"  stroke-width="1.0"/>
<line x1="170.2" y1="66.8" x2="200.0" y2="40.0" stroke="rgb(255,255,255)"  stroke-width="1.0"/>
<line x1="200.0" y1="40.0" x2="238.0" y2="52.4" stroke="rgb(255,255,255)"  stroke-width="1.0"/>
<line x1="203.5" y1="48.7" x2="230.1" y2="57.4" stroke="rgb(255,255,255)"  stroke-width="1.0"/>
<line x1="238.0" y1="52.4" x2="246.3" y2="91.5" stroke="rgb(255,255,255)"  stroke-width="1.0"/>
<text x="68.642574" y="311.700536" fill="rgb(255,12,12)"  stroke="rgb(255,12,12)" stroke-width="1" font-size="16" >O</text>
<text x="137.922874" y="191.700016" fill="rgb(255,12,12)"  stroke="rgb(255,12,12)" stroke-width="1" font-size="16" >O</text>
<text x="210.606826" y="199.336413" fill="rgb(12,12,255)"  stroke="rgb(12,12,255)" stroke-width="1" font-size="16" >N</text>
<text x="210.606826" y="264.059118" fill="rgb(178,178,0)"  stroke="rgb(178,178,0)" stroke-width="1" font-size="16" >S</text>
<text x="273.899221" y="227.515929" fill="rgb(12,12,255)"  stroke="rgb(12,12,255)" stroke-width="1" font-size="16" >N</text>
<text x="68.642574" y="151.699843" fill="rgb(165,40,40)"  stroke="rgb(165,40,40)" stroke-width="1" font-size="16" >Br</text>
<text x="103.280300" y="371.705645" fill="rgb(255,12,12)"  stroke="rgb(255,12,12)" stroke-width="1" font-size="16" >O</text>
<text x="186.931572" y="164.887779" fill="rgb(191,191,191)"  stroke="rgb(191,191,191)" stroke-width="1" font-size="16" >H</text>
<text x="314.481215" y="125.745791" fill="rgb(255,12,12)"  stroke="rgb(255,12,12)" stroke-width="1" font-size="16" >O</text>
<text x="274.970741" y="79.491046" fill="rgb(255,12,12)"  stroke="rgb(255,12,12)" stroke-width="1" font-size="16" >O</text>
<text font-size="18.000000" fill ="white" font-family="sans-serif"
x="10.000000" y="20.000000" ></text>
<title> - OBDepict</title>
<cml:molecule>
 <cml:atomArray>
  <cml:atom id="a1" elementType="C" x2="-2.745500" y2="1.963400"/>
  <cml:atom id="a2" elementType="C" x2="-3.460000" y2="1.550900"/>
  <cml:atom id="a3" elementType="C" x2="-3.460000" y2="0.725900"/>
  <cml:atom id="a4" elementType="C" x2="-2.745500" y2="0.313400"/>
  <cml:atom id="a5" elementType="C" x2="-2.031100" y2="0.725900"/>
  <cml:atom id="a6" elementType="C" x2="-2.031100" y2="1.550900"/>
  <cml:atom id="a7" elementType="O" x2="-2.745500" y2="-0.511600"/>
  <cml:atom id="a8" elementType="C" x2="-2.031100" y2="-0.924200"/>
  <cml:atom id="a9" elementType="C" x2="-1.316600" y2="-0.511600"/>
  <cml:atom id="a10" elementType="C" x2="-1.316600" y2="0.313400"/>
  <cml:atom id="a11" elementType="O" x2="-1.316600" y2="1.963400"/>
  <cml:atom id="a12" elementType="C" x2="-0.602100" y2="0.725900"/>
  <cml:atom id="a13" elementType="C" x2="-0.602100" y2="1.550900"/>
  <cml:atom id="a14" elementType="N" x2="0.182500" y2="1.805900"/>
  <cml:atom id="a15" elementType="S" x2="0.182500" y2="0.471000"/>
  <cml:atom id="a16" elementType="C" x2="0.667400" y2="1.138400"/>
  <cml:atom id="a17" elementType="C" x2="1.338500" y2="2.645800"/>
  <cml:atom id="a18" elementType="C" x2="0.518000" y2="2.559500"/>
  <cml:atom id="a19" elementType="N" x2="1.487900" y2="1.224700"/>
  <cml:atom id="a20" elementType="C" x2="1.823400" y2="1.978400"/>
  <cml:atom id="a21" elementType="C" x2="0.795600" y2="3.865200"/>
  <cml:atom id="a22" elementType="C" x2="0.182500" y2="3.313200"/>
  <cml:atom id="a23" elementType="C" x2="1.510000" y2="3.452700"/>
  <cml:atom id="a24" elementType="C" x2="-0.160600" y2="4.927200"/>
  <cml:atom id="a25" elementType="C" x2="-0.773700" y2="4.375100"/>
  <cml:atom id="a26" elementType="C" x2="-0.602100" y2="3.568100"/>
  <cml:atom id="a27" elementType="C" x2="0.624000" y2="4.672200"/>
  <cml:atom id="a28" elementType="Br" x2="-2.745500" y2="2.788400"/>
  <cml:atom id="a29" elementType="O" x2="-2.031100" y2="-1.749200"/>
  <cml:atom id="a30" elementType="H" x2="-0.305800" y2="2.516400"/>
  <cml:atom id="a31" elementType="O" x2="2.324900" y2="3.323700"/>
  <cml:atom id="a32" elementType="C" x2="2.908200" y2="3.907000"/>
  <cml:atom id="a33" elementType="C" x2="3.575700" y2="3.422100"/>
  <cml:atom id="a34" elementType="O" x2="1.510000" y2="4.277700"/>
  <cml:atom id="a35" elementType="C" x2="2.648400" y2="1.978400"/>
 </cml:atomArray>
 <cml:bondArray>
  <cml:bond atomRefs2="a1 a2" order="2"/>
  <cml:bond atomRefs2="a2 a3" order="1"/>
  <cml:bond atomRefs2="a3 a4" order="2"/>
  <cml:bond atomRefs2="a4 a5" order="1"/>
  <cml:bond atomRefs2="a5 a6" order="2"/>
  <cml:bond atomRefs2="a1 a6" order="1"/>
  <cml:bond atomRefs2="a7 a8" order="1"/>
  <cml:bond atomRefs2="a8 a9" order="1"/>
  <cml:bond atomRefs2="a4 a7" order="1"/>
  <cml:bond atomRefs2="a5 a10" order="1"/>
  <cml:bond atomRefs2="a12 a13" order="1"/>
  <cml:bond atomRefs2="a11 a13" order="2"/>
  <cml:bond atomRefs2="a10 a12" order="2">
   <cml:bondStereo atomRefs4="a5 a10 a12 a15">T</cml:bondStereo>
  </cml:bond>
  <cml:bond atomRefs2="a15 a16" order="1"/>
  <cml:bond atomRefs2="a14 a16" order="1"/>
  <cml:bond atomRefs2="a14 a13" order="1"/>
  <cml:bond atomRefs2="a12 a15" order="1"/>
  <cml:bond atomRefs2="a17 a18" order="1"/>
  <cml:bond atomRefs2="a19 a20" order="1"/>
  <cml:bond atomRefs2="a17 a20" order="2">
   <cml:bondStereo atomRefs4="a18 a17 a20 a35">T</cml:bondStereo>
  </cml:bond>
  <cml:bond atomRefs2="a18 a14" order="1"/>
  <cml:bond atomRefs2="a16 a19" order="2">
   <cml:bondStereo atomRefs4="a15 a16 a19 a20">T</cml:bondStereo>
  </cml:bond>
  <cml:bond atomRefs2="a17 a23" order="1"/>
  <cml:bond atomRefs2="a22 a18" order="1"/>
  <cml:bond atomRefs2="a24 a25" order="1"/>
  <cml:bond atomRefs2="a25 a26" order="2"/>
  <cml:bond atomRefs2="a24 a27" order="2"/>
  <cml:bond atomRefs2="a21 a27" order="1"/>
  <cml:bond atomRefs2="a26 a22" order="1"/>
  <cml:bond atomRefs2="a22 a21" order="2"/>
  <cml:bond atomRefs2="a1 a28" order="1"/>
  <cml:bond atomRefs2="a8 a29" order="2"/>
  <cml:bond atomRefs2="a18 a30" order="1"/>
  <cml:bond atomRefs2="a23 a31" order="1"/>
  <cml:bond atomRefs2="a31 a32" order="1"/>
  <cml:bond atomRefs2="a32 a33" order="1"/>
  <cml:bond atomRefs2="a23 a34" order="2"/>
  <cml:bond atomRefs2="a20 a35" order="1"/>
 </cml:bondArray>
</cml:molecule>
</svg>
