<?xml version="1.0"?>
<svg xmlns="http://www.w3.org/2000/svg"
xmlns:xlink="http://www.w3.org/1999/xlink" xmlns:cml="http://www.xml-cml.org/schema" width="292.556" height="399.948" x="0" y="0" font-family="sans-serif" stroke="rgb(255,255,255)" stroke-width="1"  stroke-linecap="round">
<rect x="0%" y="0%" width="100%" height="100%" stroke-width="0" fill="rgb(0,0,0)"  />
<line x1="78.0" y1="60.0" x2="52.4" y2="51.7" stroke="rgb(255,255,255)"  stroke-width="1.0"/>
<line x1="182.0" y1="120.0" x2="180.6" y2="147.0" stroke="rgb(255,255,255)"  stroke-width="1.0"/>
<line x1="191.1" y1="166.4" x2="214.5" y2="179.9" stroke="rgb(255,255,255)"  stroke-width="1.0"/>
<line x1="214.5" y1="179.9" x2="252.6" y2="167.6" stroke="rgb(255,255,255)"  stroke-width="1.0"/>
<line x1="179.9" y1="239.9" x2="214.5" y2="219.9" stroke="rgb(255,255,255)"  stroke-width="1.0"/>
<line x1="214.5" y1="219.9" x2="214.5" y2="179.9" stroke="rgb(255,255,255)"  stroke-width="1.0"/>
<line x1="110.6" y1="279.9" x2="134.0" y2="293.4" stroke="rgb(255,255,255)"  stroke-width="1.0"/>
<line x1="156.5" y1="293.4" x2="179.9" y2="279.9" stroke="rgb(255,255,255)"  stroke-width="1.0"/>
<line x1="179.9" y1="279.9" x2="179.9" y2="239.9" stroke="rgb(255,255,255)"  stroke-width="1.0"/>
<line x1="145.2" y1="339.9" x2="145.2" y2="312.9" stroke="rgb(255,255,255)"  stroke-width="1.0"/>
<line x1="110.6" y1="279.9" x2="76.0" y2="299.9" stroke="rgb(255,255,255)"  stroke-width="1.0"/>
<line x1="145.2" y1="339.9" x2="179.9" y2="359.9" stroke="rgb(255,255,255)"  stroke-width="1.0"/>
<line x1="112.7" y1="40.0" x2="78.0" y2="60.0" stroke="rgb(255,255,255)"  stroke-width="1.0"/>
<line x1="111.1" y1="49.2" x2="86.8" y2="63.2" stroke="rgb(255,255,255)"  stroke-width="1.0"/>
<line x1="78.0" y1="60.0" x2="78.0" y2="100.0" stroke="rgb(255,255,255)"  stroke-width="1.0"/>
<line x1="78.0" y1="100.0" x2="112.7" y2="120.0" stroke="rgb(255,255,255)"  stroke-width="1.0"/>
<line x1="86.8" y1="96.8" x2="111.1" y2="110.8" stroke="rgb(255,255,255)"  stroke-width="1.0"/>
<line x1="112.7" y1="120.0" x2="147.3" y2="100.0" stroke="rgb(255,255,255)"  stroke-width="1.0"/>
<line x1="147.3" y1="100.0" x2="147.3" y2="60.0" stroke="rgb(255,255,255)"  stroke-width="1.0"/>
<line x1="140.1" y1="94.0" x2="140.1" y2="66.0" stroke="rgb(255,255,255)"  stroke-width="1.0"/>
<line x1="147.3" y1="60.0" x2="112.7" y2="40.0" stroke="rgb(255,255,255)"  stroke-width="1.0"/>
<line x1="182.0" y1="120.0" x2="216.6" y2="100.0" stroke="rgb(255,255,255)"  stroke-width="1.0"/>
<line x1="183.6" y1="110.8" x2="207.8" y2="96.8" stroke="rgb(255,255,255)"  stroke-width="1.0"/>
<line x1="216.6" y1="100.0" x2="216.6" y2="60.0" stroke="rgb(255,255,255)"  stroke-width="1.0"/>
<line x1="216.6" y1="60.0" x2="193.4" y2="46.6" stroke="rgb(255,255,255)"  stroke-width="1.0"/>
<line x1="207.8" y1="63.2" x2="191.5" y2="53.8" stroke="rgb(255,255,255)"  stroke-width="1.0"/>
<line x1="170.7" y1="46.5" x2="147.3" y2="60.0" stroke="rgb(255,255,255)"  stroke-width="1.0"/>
<line x1="147.3" y1="100.0" x2="182.0" y2="120.0" stroke="rgb(255,255,255)"  stroke-width="1.0"/>
<text x="175.967131" y="48.000000" fill="rgb(12,12,255)"  stroke="rgb(12,12,255)" stroke-width="1" font-size="16" >N</text>
<text x="22.000000" y="55.641139" fill="rgb(30,239,30)"  stroke="rgb(30,239,30)" stroke-width="1" font-size="16" >Cl</text>
<text x="161.872606" y="167.945523" fill="rgb(12,12,255)"  stroke="rgb(12,12,255)" stroke-width="1" font-size="16" >HN</text>
<text x="139.230512" y="307.949037" fill="rgb(12,12,255)"  stroke="rgb(12,12,255)" stroke-width="1" font-size="16" >N</text>
<text font-size="18.000000" fill ="white" font-family="sans-serif"
x="10.000000" y="20.000000" ></text>
<title> - OBDepict</title>
<cml:molecule>
 <cml:atomArray>
  <cml:atom id="a1" elementType="C" x2="-1.317000" y2="4.017000"/>
  <cml:atom id="a2" elementType="C" x2="-2.031400" y2="3.604500"/>
  <cml:atom id="a3" elementType="C" x2="-2.031400" y2="2.779500"/>
  <cml:atom id="a4" elementType="C" x2="-1.317000" y2="2.366900"/>
  <cml:atom id="a5" elementType="C" x2="-0.602500" y2="2.779500"/>
  <cml:atom id="a6" elementType="C" x2="-0.602500" y2="3.604500"/>
  <cml:atom id="a7" elementType="N" x2="0.112000" y2="4.017000"/>
  <cml:atom id="a8" elementType="C" x2="0.112000" y2="2.366900"/>
  <cml:atom id="a9" elementType="C" x2="0.826400" y2="2.779500"/>
  <cml:atom id="a10" elementType="C" x2="0.826400" y2="3.604500"/>
  <cml:atom id="a11" elementType="Cl" x2="-2.816100" y2="3.859400"/>
  <cml:atom id="a12" elementType="N" x2="0.068800" y2="1.543100"/>
  <cml:atom id="a13" elementType="C" x2="0.783300" y2="1.130600"/>
  <cml:atom id="a14" elementType="C" x2="1.567900" y2="1.385500"/>
  <cml:atom id="a15" elementType="C" x2="0.068800" y2="-0.107000"/>
  <cml:atom id="a16" elementType="C" x2="0.783300" y2="0.305500"/>
  <cml:atom id="a17" elementType="C" x2="-1.360100" y2="-0.932000"/>
  <cml:atom id="a18" elementType="N" x2="-0.645700" y2="-1.344500"/>
  <cml:atom id="a19" elementType="C" x2="0.068800" y2="-0.932000"/>
  <cml:atom id="a20" elementType="C" x2="-2.074600" y2="-1.344500"/>
  <cml:atom id="a21" elementType="C" x2="-0.645700" y2="-2.169500"/>
  <cml:atom id="a22" elementType="C" x2="0.068800" y2="-2.582000"/>
 </cml:atomArray>
 <cml:bondArray>
  <cml:bond atomRefs2="a1 a2" order="2"/>
  <cml:bond atomRefs2="a2 a3" order="1"/>
  <cml:bond atomRefs2="a3 a4" order="2"/>
  <cml:bond atomRefs2="a4 a5" order="1"/>
  <cml:bond atomRefs2="a5 a6" order="2"/>
  <cml:bond atomRefs2="a1 a6" order="1"/>
  <cml:bond atomRefs2="a8 a9" order="2"/>
  <cml:bond atomRefs2="a9 a10" order="1"/>
  <cml:bond atomRefs2="a7 a10" order="2"/>
  <cml:bond atomRefs2="a5 a8" order="1"/>
  <cml:bond atomRefs2="a7 a6" order="1"/>
  <cml:bond atomRefs2="a2 a11" order="1"/>
  <cml:bond atomRefs2="a8 a12" order="1"/>
  <cml:bond atomRefs2="a12 a13" order="1"/>
  <cml:bond atomRefs2="a13 a14" order="1"/>
  <cml:bond atomRefs2="a15 a16" order="1"/>
  <cml:bond atomRefs2="a16 a13" order="1"/>
  <cml:bond atomRefs2="a17 a18" order="1"/>
  <cml:bond atomRefs2="a18 a19" order="1"/>
  <cml:bond atomRefs2="a19 a15" order="1"/>
  <cml:bond atomRefs2="a21 a18" order="1"/>
  <cml:bond atomRefs2="a17 a20" order="1"/>
  <cml:bond atomRefs2="a21 a22" order="1"/>
 </cml:bondArray>
</cml:molecule>
</svg>
