<?xml version="1.0" encoding="UTF-8"?>
<svg xmlns="http://www.w3.org/2000/svg" width="60" height="60">
    <path style="fill:none;stroke:#c2c2c2;stroke-width:2;stroke-linecap:round;stroke-linejoin:round"
       d="m 2,58 0,-40 40,0 0,40 -40,0 15,-15 0,-40 40,0 0,40 -40,0 0,0" />
    <path style="fill:none;stroke:#c2c2c2;stroke-width:2;stroke-linecap:round;stroke-linejoin:round"
       d="M 2,18 17,3" />
    <path style="fill:none;stroke:#c2c2c2;stroke-width:2;stroke-linecap:round;stroke-linejoin:round"
       d="M 42,18 57,3" />
    <path style="fill:none;stroke:#c2c2c2;stroke-width:2;stroke-linecap:round;stroke-linejoin:round"
       d="M 42,58 57,43" />
    <path style="fill:none;stroke:#000000;stroke-width:1px;stroke-linecap:round;stroke-linejoin:round"
       d="m 2,58 0,-40 40,0 0,40 -40,0 15,-15 0,-40 40,0 0,40 -40,0 0,0" />
    <path style="fill:none;stroke:#000000;stroke-width:1px;stroke-linecap:round;stroke-linejoin:round"
       d="M 2,18 17,3" />
    <path style="fill:none;stroke:#000000;stroke-width:1px;stroke-linecap:round;stroke-linejoin:round"
       d="M 42,18 57,3" />
    <path style="fill:none;stroke:#000000;stroke-width:1px;stroke-linecap:round;stroke-linejoin:round"
       d="M 42,58 57,43" />
    <text style="font-size:20px;font-weight:500;fill:#000000;fill-opacity:1;font-family:Century Schoolbook L;" x="25" y="38">?</text>
</svg>
