<?xml version="1.0"?>
<svg xmlns="http://www.w3.org/2000/svg"
xmlns:xlink="http://www.w3.org/1999/xlink" xmlns:cml="http://www.xml-cml.org/schema" width="495.689" height="539.999" x="0" y="0" font-family="sans-serif" stroke="rgb(0,0,0)" stroke-width="1" >
<line x1="386.4" y1="260.0" x2="386.4" y2="230.4"/>
<line x1="387.9" y1="257.4" x2="413.5" y2="272.2"/>
<line x1="384.9" y1="262.6" x2="410.5" y2="277.4"/>
<line x1="314.1" y1="260.0" x2="314.1" y2="230.4"/>
<line x1="320.1" y1="260.0" x2="320.1" y2="230.4"/>
<line x1="213.2" y1="280.0" x2="187.6" y2="265.2"/>
<line x1="100.3" y1="385.2" x2="74.6" y2="400.0"/>
<line x1="74.6" y1="400.0" x2="74.6" y2="429.6"/>
<line x1="65.6" y1="445.2" x2="40.0" y2="460.0"/>
<line x1="40.0" y1="460.0" x2="40.0" y2="489.6"/>
<line x1="73.1" y1="402.6" x2="47.5" y2="387.8"/>
<line x1="76.1" y1="397.4" x2="50.5" y2="382.6"/>
<line x1="317.1" y1="350.4" x2="317.1" y2="380.0"/>
<line x1="395.4" y1="214.8" x2="421.1" y2="200.0"/>
<line x1="421.1" y1="200.0" x2="421.1" y2="160.0"/>
<line x1="213.2" y1="320.0" x2="187.6" y2="334.8"/>
<line x1="386.4" y1="140.0" x2="360.8" y2="154.8"/>
<line x1="421.1" y1="80.0" x2="421.1" y2="50.4"/>
<line x1="351.8" y1="280.0" x2="386.4" y2="260.0"/>
<line x1="317.1" y1="380.0" x2="297.1" y2="414.6"/>
<line x1="297.1" y1="414.6" x2="337.1" y2="414.6"/>
<line x1="337.1" y1="414.6" x2="317.1" y2="380.0"/>
<line x1="213.2" y1="320.0" x2="247.8" y2="340.0"/>
<line x1="222.0" y1="316.8" x2="246.2" y2="330.8"/>
<line x1="247.8" y1="340.0" x2="282.5" y2="320.0"/>
<line x1="282.5" y1="320.0" x2="282.5" y2="280.0"/>
<line x1="275.3" y1="314.0" x2="275.3" y2="286.0"/>
<line x1="282.5" y1="280.0" x2="247.8" y2="260.0"/>
<line x1="247.8" y1="260.0" x2="213.2" y2="280.0"/>
<line x1="246.2" y1="269.2" x2="222.0" y2="283.2"/>
<line x1="213.2" y1="280.0" x2="213.2" y2="320.0"/>
<line x1="282.5" y1="320.0" x2="308.1" y2="334.8"/>
<line x1="326.1" y1="334.8" x2="351.8" y2="320.0"/>
<line x1="351.8" y1="320.0" x2="351.8" y2="280.0"/>
<line x1="344.6" y1="314.0" x2="344.6" y2="286.0"/>
<line x1="351.8" y1="280.0" x2="317.1" y2="260.0"/>
<line x1="317.1" y1="260.0" x2="282.5" y2="280.0"/>
<line x1="169.6" y1="334.8" x2="143.9" y2="320.0"/>
<line x1="143.9" y1="320.0" x2="109.3" y2="340.0"/>
<line x1="109.3" y1="340.0" x2="109.3" y2="369.6"/>
<line x1="118.3" y1="385.2" x2="143.9" y2="400.0"/>
<line x1="143.9" y1="400.0" x2="178.6" y2="380.0"/>
<line x1="178.6" y1="380.0" x2="178.6" y2="350.4"/>
<line x1="421.1" y1="160.0" x2="455.7" y2="140.0"/>
<line x1="422.6" y1="150.8" x2="446.9" y2="136.8"/>
<line x1="455.7" y1="140.0" x2="455.7" y2="100.0"/>
<line x1="455.7" y1="100.0" x2="421.1" y2="80.0"/>
<line x1="446.9" y1="103.2" x2="422.6" y2="89.2"/>
<line x1="421.1" y1="80.0" x2="386.4" y2="100.0"/>
<line x1="386.4" y1="100.0" x2="386.4" y2="140.0"/>
<line x1="393.6" y1="106.0" x2="393.6" y2="134.0"/>
<line x1="386.4" y1="140.0" x2="421.1" y2="160.0"/>
<text x="311.124266" y="344.799369" fill="rgb(12,12,255)"  stroke="rgb(12,12,255)" stroke-width="1" font-size="16" >N</text>
<text x="172.564557" y="344.799369" fill="rgb(12,12,255)"  stroke="rgb(12,12,255)" stroke-width="1" font-size="16" >N</text>
<text x="103.279854" y="388.319285" fill="rgb(12,12,255)"  stroke="rgb(12,12,255)" stroke-width="1" font-size="16" >N</text>
<text x="370.808968" y="228.319621" fill="rgb(12,12,255)"  stroke="rgb(12,12,255)" stroke-width="1" font-size="16" >HN</text>
<text x="415.051320" y="284.799495" fill="rgb(255,12,12)"  stroke="rgb(255,12,12)" stroke-width="1" font-size="16" >O</text>
<text x="311.124266" y="228.319621" fill="rgb(255,12,12)"  stroke="rgb(255,12,12)" stroke-width="1" font-size="16" >O</text>
<text x="174.964557" y="268.319537" fill="rgb(127,178,255)"  stroke="rgb(127,178,255)" stroke-width="1" font-size="16" >F</text>
<text x="68.642351" y="444.799159" fill="rgb(255,12,12)"  stroke="rgb(255,12,12)" stroke-width="1" font-size="16" >O</text>
<text x="34.000000" y="504.799033" fill="rgb(102,102,102)"  stroke="rgb(102,102,102)" stroke-width="1" font-size="16" >CH</text>
<text x="58.000000" y="509.599033" fill="rgb(102,102,102)"  stroke="rgb(102,102,102)" stroke-width="1" font-size="13" >3</text>
<text x="36.400000" y="388.319285" fill="rgb(255,12,12)"  stroke="rgb(255,12,12)" stroke-width="1" font-size="16" >O</text>
<text x="336.166617" y="164.799748" fill="rgb(30,239,30)"  stroke="rgb(30,239,30)" stroke-width="1" font-size="16" >Cl</text>
<text x="415.051320" y="48.320000" fill="rgb(30,239,30)"  stroke="rgb(30,239,30)" stroke-width="1" font-size="16" >Cl</text>
<text font-size="18.000000" fill ="black" font-family="sans-serif"
x="140.000000" y="20.000000" >CHEMBL551897</text>
<title>CHEMBL551897 - OBDepict</title>
</svg>
