<?xml version="1.0"?>
<svg xmlns="http://www.w3.org/2000/svg"
xmlns:xlink="http://www.w3.org/1999/xlink" xmlns:cml="http://www.xml-cml.org/schema" width="678.234" height="322.745" x="0" y="0" font-family="sans-serif" stroke="rgb(0,0,0)" stroke-width="1" >
<line x1="334.6" y1="118.8" x2="334.6" y2="147.9"/>
<polygon points="334.589224 171.138841 330.589224 184.528393 338.589224 184.528393 " />
<line x1="313.0" y1="210.5" x2="312.6" y2="209.8"/>
<line x1="316.6" y1="208.8" x2="315.8" y2="207.5"/>
<line x1="320.2" y1="207.2" x2="319.0" y2="205.1"/>
<line x1="323.8" y1="205.6" x2="322.2" y2="202.8"/>
<line x1="327.4" y1="204.0" x2="325.4" y2="200.5"/>
<line x1="331.0" y1="202.4" x2="328.6" y2="198.2"/>
<line x1="334.6" y1="200.7" x2="331.8" y2="195.9"/>
<line x1="344.8" y1="197.0" x2="363.7" y2="196.0"/>
<line x1="331.6" y1="226.7" x2="331.6" y2="207.8"/>
<line x1="337.6" y1="226.7" x2="337.6" y2="207.8"/>
<line x1="271.6" y1="196.7" x2="272.0" y2="196.1"/>
<line x1="274.5" y1="199.3" x2="275.5" y2="198.1"/>
<line x1="277.5" y1="202.0" x2="278.9" y2="200.0"/>
<line x1="280.4" y1="204.6" x2="282.3" y2="202.0"/>
<line x1="283.4" y1="207.3" x2="285.7" y2="204.0"/>
<line x1="286.3" y1="209.9" x2="289.2" y2="206.0"/>
<line x1="289.3" y1="212.5" x2="292.6" y2="208.0"/>
<line x1="268.6" y1="194.1" x2="223.7" y2="215.5"/>
<polygon points="266.971321 166.832132 264.632150 194.310540 272.617449 193.825759 " />
<line x1="226.7" y1="215.7" x2="225.1" y2="247.2"/>
<line x1="220.7" y1="215.4" x2="219.2" y2="246.9"/>
<line x1="223.7" y1="215.5" x2="184.3" y2="209.2"/>
<line x1="160.3" y1="208.6" x2="131.5" y2="213.1"/>
<line x1="131.5" y1="213.1" x2="106.7" y2="182.5"/>
<line x1="69.3" y1="194.7" x2="47.6" y2="175.2"/>
<line x1="69.3" y1="194.7" x2="106.7" y2="182.5"/>
<line x1="93.2" y1="124.5" x2="114.9" y2="144.0"/>
<line x1="114.9" y1="144.0" x2="106.7" y2="182.5"/>
<line x1="384.1" y1="196.0" x2="413.2" y2="197.5"/>
<polygon points="413.241501 197.524134 442.568195 170.934748 436.623337 165.581370 " />
<polygon points="439.782790 107.300181 448.199380 132.626423 455.327244 128.994130 " />
<polygon points="497.972539 105.323683 487.280607 129.775130 495.008084 131.845423 " />
<polygon points="523.002408 202.364421 506.776028 166.258120 499.847755 170.257998 " />
<line x1="528.1" y1="142.9" x2="528.7" y2="143.5"/>
<line x1="525.0" y1="145.4" x2="526.2" y2="146.5"/>
<line x1="522.0" y1="147.9" x2="523.7" y2="149.6"/>
<line x1="518.9" y1="150.4" x2="521.2" y2="152.7"/>
<line x1="515.8" y1="152.9" x2="518.7" y2="155.8"/>
<line x1="512.8" y1="155.4" x2="516.1" y2="158.8"/>
<line x1="509.7" y1="157.9" x2="513.6" y2="161.9"/>
<line x1="613.4" y1="246.0" x2="623.9" y2="273.2"/>
<line x1="531.2" y1="140.4" x2="550.7" y2="118.8"/>
<line x1="528.0" y1="137.6" x2="547.5" y2="115.9"/>
<line x1="534.3" y1="143.2" x2="553.8" y2="121.6"/>
<line x1="439.6" y1="168.3" x2="451.8" y2="130.8"/>
<line x1="451.8" y1="130.8" x2="491.1" y2="130.8"/>
<line x1="491.1" y1="130.8" x2="503.3" y2="168.3"/>
<line x1="503.3" y1="168.3" x2="479.7" y2="185.4"/>
<line x1="463.2" y1="185.4" x2="439.6" y2="168.3"/>
<line x1="523.0" y1="202.4" x2="510.8" y2="239.8"/>
<line x1="528.0" y1="210.3" x2="519.5" y2="236.3"/>
<line x1="510.8" y1="239.8" x2="542.7" y2="263.0"/>
<line x1="542.7" y1="263.0" x2="574.6" y2="239.8"/>
<line x1="543.3" y1="253.6" x2="565.5" y2="237.5"/>
<line x1="574.6" y1="239.8" x2="565.5" y2="212.1"/>
<line x1="552.1" y1="202.4" x2="523.0" y2="202.4"/>
<line x1="334.6" y1="118.8" x2="300.5" y2="99.1"/>
<line x1="333.0" y1="109.5" x2="309.3" y2="95.8"/>
<line x1="300.5" y1="99.1" x2="300.5" y2="59.7"/>
<line x1="300.5" y1="59.7" x2="334.6" y2="40.0"/>
<line x1="309.3" y1="62.9" x2="333.0" y2="49.2"/>
<line x1="334.6" y1="40.0" x2="368.7" y2="59.7"/>
<line x1="368.7" y1="59.7" x2="368.7" y2="99.1"/>
<line x1="361.5" y1="65.7" x2="361.5" y2="93.1"/>
<line x1="368.7" y1="99.1" x2="334.6" y2="118.8"/>
<line x1="613.4" y1="246.0" x2="631.8" y2="223.3"/>
<line x1="611.6" y1="236.8" x2="624.9" y2="220.4"/>
<line x1="634.6" y1="205.8" x2="624.1" y2="178.6"/>
<line x1="624.1" y1="178.6" x2="595.3" y2="174.0"/>
<line x1="617.1" y1="184.8" x2="596.2" y2="181.5"/>
<line x1="579.3" y1="180.2" x2="568.3" y2="194.6"/>
<line x1="574.6" y1="239.8" x2="613.4" y2="246.0"/>
<text x="328.589224" y="162.943100" fill="rgb(255,12,12)"  stroke="rgb(255,12,12)" stroke-width="1" font-size="16" >O</text>
<text x="330.989224" y="205.844134" fill="rgb(255,127,0)"  stroke="rgb(255,127,0)" stroke-width="1" font-size="16" >P</text>
<text x="328.589224" y="241.705167" fill="rgb(255,12,12)"  stroke="rgb(255,12,12)" stroke-width="1" font-size="16" >O</text>
<text x="284.882862" y="222.014650" fill="rgb(12,12,255)"  stroke="rgb(12,12,255)" stroke-width="1" font-size="16" >HN</text>
<text x="217.996685" y="262.899323" fill="rgb(255,12,12)"  stroke="rgb(255,12,12)" stroke-width="1" font-size="16" >O</text>
<text x="242.556921" y="161.737376" fill="rgb(102,102,102)"  stroke="rgb(102,102,102)" stroke-width="1" font-size="16" >H</text>
<text x="254.556921" y="169.417376" fill="rgb(102,102,102)"  stroke="rgb(102,102,102)" stroke-width="1" font-size="13" >3</text>
<text x="261.056921" y="161.737376" fill="rgb(102,102,102)"  stroke="rgb(102,102,102)" stroke-width="1" font-size="16" >C</text>
<text x="166.796569" y="215.276488" fill="rgb(255,12,12)"  stroke="rgb(255,12,12)" stroke-width="1" font-size="16" >O</text>
<text x="16.400000" y="176.649661" fill="rgb(102,102,102)"  stroke="rgb(102,102,102)" stroke-width="1" font-size="16" >H</text>
<text x="28.400000" y="184.329661" fill="rgb(102,102,102)"  stroke="rgb(102,102,102)" stroke-width="1" font-size="13" >3</text>
<text x="34.900000" y="176.649661" fill="rgb(102,102,102)"  stroke="rgb(102,102,102)" stroke-width="1" font-size="16" >C</text>
<text x="62.039038" y="125.960304" fill="rgb(102,102,102)"  stroke="rgb(102,102,102)" stroke-width="1" font-size="16" >H</text>
<text x="74.039038" y="133.640304" fill="rgb(102,102,102)"  stroke="rgb(102,102,102)" stroke-width="1" font-size="13" >3</text>
<text x="80.539038" y="125.960304" fill="rgb(102,102,102)"  stroke="rgb(102,102,102)" stroke-width="1" font-size="16" >C</text>
<text x="367.917749" y="203.782000" fill="rgb(255,12,12)"  stroke="rgb(255,12,12)" stroke-width="1" font-size="16" >O</text>
<text x="465.453829" y="196.209333" fill="rgb(255,12,12)"  stroke="rgb(255,12,12)" stroke-width="1" font-size="16" >O</text>
<text x="556.383442" y="210.684421" fill="rgb(12,12,255)"  stroke="rgb(12,12,255)" stroke-width="1" font-size="16" >N</text>
<text x="581.624441" y="180.764382" fill="rgb(12,12,255)"  stroke="rgb(12,12,255)" stroke-width="1" font-size="16" >N</text>
<text x="632.233699" y="220.172095" fill="rgb(12,12,255)"  stroke="rgb(12,12,255)" stroke-width="1" font-size="16" >N</text>
<text x="621.560245" y="287.544690" fill="rgb(12,12,255)"  stroke="rgb(12,12,255)" stroke-width="1" font-size="16" >NH</text>
<text x="645.560245" y="292.344690" fill="rgb(12,12,255)"  stroke="rgb(12,12,255)" stroke-width="1" font-size="13" >2</text>
<text x="418.281936" y="104.040582" fill="rgb(255,12,12)"  stroke="rgb(255,12,12)" stroke-width="1" font-size="16" >HO</text>
<text x="495.335680" y="101.090585" fill="rgb(255,12,12)"  stroke="rgb(255,12,12)" stroke-width="1" font-size="16" >OH</text>
<text x="551.509740" y="119.468400" fill="rgb(12,12,255)"  stroke="rgb(12,12,255)" stroke-width="1" font-size="16" >N</text>
<text font-size="18.000000" fill ="black" font-family="sans-serif"
x="140.000000" y="20.000000" ></text>
<title> - OBDepict</title>
</svg>
