<?xml version="1.0"?>
<svg version="1.1" id="topsvg"
xmlns="http://www.w3.org/2000/svg" xmlns:xlink="http://www.w3.org/1999/xlink"
xmlns:cml="http://www.xml-cml.org/schema" x="0" y="0" width="100%" height="100%" viewBox="0 0 100 66">
<title>OBDepict</title>
<text text-anchor="middle" font-size="2" fill ="black" font-family="sans-serif"
x="16.6667" y="32.3333" >CHEMBL3120789</text>
<g transform="translate(0,0)">
<svg width="33.3333" height="33.3333" x="0" y="0" viewBox="0 0 617.894 360.168"
font-family="sans-serif" stroke="rgb(0,0,0)" stroke-width="2" >
<line x1="325.9" y1="207.3" x2="316.3" y2="190.7"/>
<line x1="308.5" y1="192.2" x2="298.9" y2="208.8"/>
<line x1="303.3" y1="189.2" x2="293.7" y2="205.8"/>
<line x1="444.5" y1="50.3" x2="447.8" y2="79.8"/>
<polygon points="469.351444 63.818846 445.419322 76.537622 450.175194 82.970482 " />
<polygon points="357.493873 130.171197 396.783549 121.628685 394.314602 114.019198 " />
<polygon points="471.316773 156.476434 464.181860 116.902405 456.489041 119.097977 " />
<line x1="392.4" y1="59.3" x2="393.0" y2="58.9"/>
<line x1="394.4" y1="62.8" x2="395.7" y2="61.9"/>
<line x1="396.5" y1="66.3" x2="398.4" y2="64.9"/>
<line x1="398.5" y1="69.7" x2="401.1" y2="67.9"/>
<line x1="400.5" y1="73.2" x2="403.8" y2="70.9"/>
<line x1="402.6" y1="76.7" x2="406.4" y2="73.9"/>
<line x1="404.6" y1="80.2" x2="409.1" y2="76.9"/>
<line x1="541.0" y1="231.6" x2="539.9" y2="261.1"/>
<line x1="493.2" y1="95.4" x2="517.5" y2="78.5"/>
<line x1="490.8" y1="92.0" x2="515.1" y2="75.1"/>
<line x1="495.6" y1="98.9" x2="519.9" y2="82.0"/>
<line x1="460.3" y1="118.0" x2="493.2" y2="95.4"/>
<line x1="357.5" y1="130.2" x2="351.3" y2="159.1"/>
<line x1="339.3" y1="172.5" x2="321.0" y2="178.4"/>
<line x1="303.4" y1="174.7" x2="289.1" y2="161.8"/>
<line x1="271.5" y1="158.1" x2="243.3" y2="167.2"/>
<line x1="243.3" y1="167.2" x2="213.6" y2="140.4"/>
<line x1="238.4" y1="192.3" x2="237.6" y2="192.2"/>
<line x1="239.6" y1="188.5" x2="238.0" y2="188.2"/>
<line x1="240.8" y1="184.7" x2="238.5" y2="184.2"/>
<line x1="242.1" y1="180.8" x2="238.9" y2="180.2"/>
<line x1="243.3" y1="177.0" x2="239.4" y2="176.2"/>
<line x1="244.5" y1="173.2" x2="239.8" y2="172.2"/>
<line x1="245.7" y1="169.4" x2="240.3" y2="168.2"/>
<line x1="213.6" y1="140.4" x2="185.4" y2="149.6"/>
<line x1="210.7" y1="139.8" x2="216.8" y2="110.8"/>
<line x1="216.5" y1="141.0" x2="222.7" y2="112.1"/>
<line x1="325.9" y1="225.3" x2="311.1" y2="250.9"/>
<line x1="167.8" y1="145.8" x2="145.8" y2="126.0"/>
<line x1="145.8" y1="126.0" x2="107.8" y2="138.3"/>
<line x1="107.8" y1="138.3" x2="78.1" y2="111.5"/>
<line x1="78.1" y1="111.5" x2="49.9" y2="120.7"/>
<line x1="107.8" y1="138.3" x2="99.4" y2="177.5"/>
<line x1="99.4" y1="177.5" x2="121.4" y2="197.3"/>
<line x1="407.8" y1="79.8" x2="447.8" y2="79.8"/>
<line x1="447.8" y1="79.8" x2="460.3" y2="118.0"/>
<line x1="460.3" y1="118.0" x2="436.3" y2="135.3"/>
<line x1="419.4" y1="135.3" x2="395.5" y2="117.8"/>
<line x1="395.5" y1="117.8" x2="407.8" y2="79.8"/>
<line x1="471.3" y1="156.5" x2="499.0" y2="166.8"/>
<line x1="508.4" y1="180.8" x2="507.4" y2="210.4"/>
<line x1="507.4" y1="210.4" x2="468.9" y2="221.4"/>
<line x1="499.6" y1="205.1" x2="472.7" y2="212.8"/>
<line x1="468.9" y1="221.4" x2="446.6" y2="188.2"/>
<line x1="446.6" y1="188.2" x2="471.3" y2="156.5"/>
<line x1="455.9" y1="187.9" x2="473.3" y2="165.6"/>
<line x1="567.1" y1="217.9" x2="541.0" y2="231.6"/>
<line x1="562.0" y1="212.4" x2="543.0" y2="222.4"/>
<line x1="541.0" y1="231.6" x2="507.4" y2="210.4"/>
<line x1="517.9" y1="165.6" x2="534.9" y2="156.6"/>
<line x1="552.8" y1="157.3" x2="577.9" y2="173.0"/>
<line x1="550.7" y1="164.4" x2="569.0" y2="175.9"/>
<line x1="577.9" y1="173.0" x2="576.7" y2="202.6"/>
<line x1="311.1" y1="250.9" x2="331.3" y2="285.5"/>
<line x1="307.9" y1="259.8" x2="322.1" y2="284.0"/>
<line x1="331.3" y1="285.5" x2="311.3" y2="320.1"/>
<line x1="311.3" y1="320.1" x2="271.3" y2="320.2"/>
<line x1="305.3" y1="313.0" x2="277.3" y2="313.0"/>
<line x1="271.3" y1="320.2" x2="251.3" y2="285.3"/>
<line x1="251.3" y1="285.3" x2="271.4" y2="250.8"/>
<line x1="260.5" y1="283.7" x2="274.6" y2="259.6"/>
<line x1="271.4" y1="250.8" x2="311.1" y2="250.9"/>
<text x="307.501091" y="189.965840" fill="rgb(255,127,0)"  stroke="rgb(255,127,0)" stroke-width="1" font-size="16" >P</text>
<text x="325.105408" y="221.093553" fill="rgb(255,12,12)"  stroke="rgb(255,12,12)" stroke-width="1" font-size="16" >O</text>
<text x="287.496774" y="221.093553" fill="rgb(255,12,12)"  stroke="rgb(255,12,12)" stroke-width="1" font-size="16" >O</text>
<text x="427.688208" y="48.320000" fill="rgb(255,12,12)"  stroke="rgb(255,12,12)" stroke-width="1" font-size="16" >HO</text>
<text x="473.967686" y="64.290162" fill="rgb(102,102,102)"  stroke="rgb(102,102,102)" stroke-width="1" font-size="16" >CH</text>
<text x="497.967686" y="71.970162" fill="rgb(102,102,102)"  stroke="rgb(102,102,102)" stroke-width="1" font-size="13" >3</text>
<text x="424.197837" y="146.226686" fill="rgb(255,12,12)"  stroke="rgb(255,12,12)" stroke-width="1" font-size="16" >O</text>
<text x="368.634838" y="55.781228" fill="rgb(255,12,12)"  stroke="rgb(255,12,12)" stroke-width="1" font-size="16" >HO</text>
<text x="502.774686" y="178.734831" fill="rgb(12,12,255)"  stroke="rgb(12,12,255)" stroke-width="1" font-size="16" >N</text>
<text x="538.024584" y="160.057281" fill="rgb(12,12,255)"  stroke="rgb(12,12,255)" stroke-width="1" font-size="16" >N</text>
<text x="570.292928" y="217.867208" fill="rgb(12,12,255)"  stroke="rgb(12,12,255)" stroke-width="1" font-size="16" >N</text>
<text x="515.842097" y="276.337976" fill="rgb(12,12,255)"  stroke="rgb(12,12,255)" stroke-width="1" font-size="16" >H</text>
<text x="527.842097" y="281.137976" fill="rgb(12,12,255)"  stroke="rgb(12,12,255)" stroke-width="1" font-size="13" >2</text>
<text x="534.342097" y="276.337976" fill="rgb(12,12,255)"  stroke="rgb(12,12,255)" stroke-width="1" font-size="16" >N</text>
<text x="520.052032" y="80.906572" fill="rgb(12,12,255)"  stroke="rgb(12,12,255)" stroke-width="1" font-size="16" >N</text>
<text x="343.156293" y="174.098584" fill="rgb(255,12,12)"  stroke="rgb(255,12,12)" stroke-width="1" font-size="16" >O</text>
<text x="275.383468" y="163.180814" fill="rgb(12,12,255)"  stroke="rgb(12,12,255)" stroke-width="1" font-size="16" >NH</text>
<text x="211.390686" y="211.140352" fill="rgb(102,102,102)"  stroke="rgb(102,102,102)" stroke-width="1" font-size="16" >H</text>
<text x="223.390686" y="215.940352" fill="rgb(102,102,102)"  stroke="rgb(102,102,102)" stroke-width="1" font-size="13" >3</text>
<text x="229.890686" y="211.140352" fill="rgb(102,102,102)"  stroke="rgb(102,102,102)" stroke-width="1" font-size="16" >C</text>
<text x="171.950545" y="157.570299" fill="rgb(255,12,12)"  stroke="rgb(255,12,12)" stroke-width="1" font-size="16" >O</text>
<text x="215.943328" y="109.615656" fill="rgb(255,12,12)"  stroke="rgb(255,12,12)" stroke-width="1" font-size="16" >O</text>
<text x="16.400000" y="128.694757" fill="rgb(102,102,102)"  stroke="rgb(102,102,102)" stroke-width="1" font-size="16" >H</text>
<text x="28.400000" y="133.494757" fill="rgb(102,102,102)"  stroke="rgb(102,102,102)" stroke-width="1" font-size="13" >3</text>
<text x="34.900000" y="128.694757" fill="rgb(102,102,102)"  stroke="rgb(102,102,102)" stroke-width="1" font-size="16" >C</text>
<text x="123.157763" y="209.044942" fill="rgb(102,102,102)"  stroke="rgb(102,102,102)" stroke-width="1" font-size="16" >CH</text>
<text x="147.157763" y="213.844942" fill="rgb(102,102,102)"  stroke="rgb(102,102,102)" stroke-width="1" font-size="13" >3</text>
</svg>
</g>
<text text-anchor="middle" font-size="2.000000" fill ="black" font-family="sans-serif"
x="50.000000" y="32.333333" >CHEMBL4068210</text>
<g transform="translate(33.333333,0.000000)">
<svg width="33.333333" height="33.333333" x="0" y="0" viewBox="0 0 567.176780 286.700293"
font-family="sans-serif" stroke="rgb(0,0,0)" stroke-width="2.000000" >
<line x1="203.2" y1="160.2" x2="177.3" y2="174.7"/>
<line x1="177.4" y1="200.3" x2="176.6" y2="200.3"/>
<line x1="177.9" y1="196.3" x2="176.3" y2="196.3"/>
<line x1="178.3" y1="192.3" x2="175.9" y2="192.3"/>
<line x1="178.8" y1="188.3" x2="175.6" y2="188.3"/>
<line x1="179.2" y1="184.3" x2="175.2" y2="184.3"/>
<line x1="179.6" y1="180.3" x2="174.8" y2="180.3"/>
<line x1="180.1" y1="176.3" x2="174.5" y2="176.3"/>
<line x1="177.3" y1="174.7" x2="143.0" y2="154.3"/>
<line x1="143.0" y1="154.3" x2="117.2" y2="168.7"/>
<line x1="140.0" y1="154.2" x2="140.4" y2="124.6"/>
<line x1="146.0" y1="154.3" x2="146.4" y2="124.7"/>
<line x1="99.2" y1="168.4" x2="73.8" y2="153.3"/>
<line x1="73.8" y1="153.3" x2="74.3" y2="113.3"/>
<line x1="74.3" y1="113.3" x2="40.0" y2="92.8"/>
<line x1="40.0" y1="92.8" x2="40.4" y2="63.2"/>
<line x1="74.3" y1="113.3" x2="109.2" y2="93.8"/>
<line x1="109.2" y1="93.8" x2="109.6" y2="64.2"/>
<line x1="282.2" y1="159.2" x2="288.3" y2="130.2"/>
<polygon points="288.254519 130.226357 327.475603 121.614461 324.990063 114.010378 " />
<line x1="391.0" y1="117.5" x2="427.5" y2="101.1"/>
<line x1="427.5" y1="101.1" x2="454.5" y2="88.9"/>
<line x1="425.8" y1="97.2" x2="452.8" y2="85.1"/>
<line x1="429.2" y1="104.9" x2="456.2" y2="92.8"/>
<polygon points="411.100168 152.156677 394.451947 115.476233 387.531496 119.489630 " />
<line x1="497.5" y1="207.6" x2="503.8" y2="236.5"/>
<line x1="393.2" y1="58.5" x2="393.9" y2="59.0"/>
<line x1="390.5" y1="61.5" x2="391.8" y2="62.5"/>
<line x1="387.9" y1="64.5" x2="389.8" y2="65.9"/>
<line x1="385.2" y1="67.5" x2="387.8" y2="69.4"/>
<line x1="382.6" y1="70.6" x2="385.8" y2="72.9"/>
<line x1="379.9" y1="73.6" x2="383.8" y2="76.4"/>
<line x1="377.2" y1="76.6" x2="381.8" y2="79.8"/>
<line x1="323.0" y1="59.1" x2="323.7" y2="58.6"/>
<line x1="325.1" y1="62.6" x2="326.4" y2="61.6"/>
<line x1="327.1" y1="66.0" x2="329.0" y2="64.6"/>
<line x1="329.2" y1="69.5" x2="331.7" y2="67.6"/>
<line x1="331.2" y1="73.0" x2="334.4" y2="70.6"/>
<line x1="333.2" y1="76.4" x2="337.1" y2="73.6"/>
<line x1="335.3" y1="79.9" x2="339.8" y2="76.6"/>
<line x1="270.2" y1="172.7" x2="251.9" y2="178.7"/>
<line x1="242.9" y1="192.7" x2="238.9" y2="211.5"/>
<line x1="237.0" y1="191.5" x2="233.1" y2="210.2"/>
<line x1="234.3" y1="174.9" x2="220.0" y2="162.1"/>
<line x1="244.7" y1="171.9" x2="249.6" y2="153.5"/>
<line x1="247.0" y1="134.6" x2="232.1" y2="109.0"/>
<line x1="395.0" y1="188.6" x2="411.1" y2="152.2"/>
<line x1="404.0" y1="186.1" x2="415.3" y2="160.6"/>
<line x1="411.1" y1="152.2" x2="440.5" y2="155.2"/>
<line x1="453.1" y1="166.4" x2="459.4" y2="195.3"/>
<line x1="459.4" y1="195.3" x2="424.8" y2="215.5"/>
<line x1="450.6" y1="192.1" x2="426.3" y2="206.2"/>
<line x1="424.8" y1="215.5" x2="395.0" y2="188.6"/>
<line x1="326.2" y1="117.8" x2="338.5" y2="79.6"/>
<line x1="338.5" y1="79.6" x2="378.6" y2="79.5"/>
<line x1="378.6" y1="79.5" x2="391.0" y2="117.5"/>
<line x1="391.0" y1="117.5" x2="367.1" y2="135.0"/>
<line x1="350.2" y1="135.1" x2="326.2" y2="117.8"/>
<line x1="458.6" y1="149.3" x2="473.0" y2="136.4"/>
<line x1="490.6" y1="132.6" x2="518.8" y2="141.6"/>
<line x1="490.3" y1="140.1" x2="510.9" y2="146.7"/>
<line x1="518.8" y1="141.6" x2="525.0" y2="170.6"/>
<line x1="519.5" y1="187.7" x2="497.5" y2="207.6"/>
<line x1="513.1" y1="183.7" x2="497.1" y2="198.2"/>
<line x1="497.5" y1="207.6" x2="459.4" y2="195.3"/>
<line x1="232.1" y1="109.0" x2="192.1" y2="109.4"/>
<line x1="226.0" y1="101.9" x2="198.0" y2="102.1"/>
<line x1="192.1" y1="109.4" x2="171.9" y2="74.9"/>
<line x1="171.9" y1="74.9" x2="191.7" y2="40.1"/>
<line x1="181.1" y1="73.2" x2="195.0" y2="48.9"/>
<line x1="191.7" y1="40.1" x2="231.9" y2="40.0"/>
<line x1="231.9" y1="40.0" x2="251.9" y2="74.5"/>
<line x1="228.7" y1="48.8" x2="242.6" y2="72.9"/>
<line x1="251.9" y1="74.5" x2="232.1" y2="109.0"/>
<text x="206.268818" y="163.451758" fill="rgb(12,12,255)"  stroke="rgb(12,12,255)" stroke-width="1" font-size="16" >NH</text>
<text x="153.244035" y="219.467296" fill="rgb(102,102,102)"  stroke="rgb(102,102,102)" stroke-width="1" font-size="16" >H</text>
<text x="165.244035" y="224.267296" fill="rgb(102,102,102)"  stroke="rgb(102,102,102)" stroke-width="1" font-size="13" >3</text>
<text x="171.744035" y="219.467296" fill="rgb(102,102,102)"  stroke="rgb(102,102,102)" stroke-width="1" font-size="16" >C</text>
<text x="104.497375" y="178.552664" fill="rgb(255,12,12)"  stroke="rgb(255,12,12)" stroke-width="1" font-size="16" >O</text>
<text x="137.560922" y="122.600117" fill="rgb(255,12,12)"  stroke="rgb(255,12,12)" stroke-width="1" font-size="16" >O</text>
<text x="34.562067" y="61.174869" fill="rgb(102,102,102)"  stroke="rgb(102,102,102)" stroke-width="1" font-size="16" >CH</text>
<text x="58.562067" y="68.854869" fill="rgb(102,102,102)"  stroke="rgb(102,102,102)" stroke-width="1" font-size="13" >3</text>
<text x="103.793268" y="62.153642" fill="rgb(102,102,102)"  stroke="rgb(102,102,102)" stroke-width="1" font-size="16" >CH</text>
<text x="127.793268" y="69.833642" fill="rgb(102,102,102)"  stroke="rgb(102,102,102)" stroke-width="1" font-size="13" >3</text>
<text x="274.036705" y="174.240250" fill="rgb(255,12,12)"  stroke="rgb(255,12,12)" stroke-width="1" font-size="16" >O</text>
<text x="352.663154" y="145.967290" fill="rgb(255,12,12)"  stroke="rgb(255,12,12)" stroke-width="1" font-size="16" >O</text>
<text x="458.012031" y="92.994669" fill="rgb(12,12,255)"  stroke="rgb(12,12,255)" stroke-width="1" font-size="16" >N</text>
<text x="444.866437" y="164.541975" fill="rgb(12,12,255)"  stroke="rgb(12,12,255)" stroke-width="1" font-size="16" >N</text>
<text x="477.143228" y="137.737174" fill="rgb(12,12,255)"  stroke="rgb(12,12,255)" stroke-width="1" font-size="16" >N</text>
<text x="521.176780" y="185.520362" fill="rgb(12,12,255)"  stroke="rgb(12,12,255)" stroke-width="1" font-size="16" >N</text>
<text x="500.070180" y="251.500293" fill="rgb(12,12,255)"  stroke="rgb(12,12,255)" stroke-width="1" font-size="16" >NH</text>
<text x="524.070180" y="256.300293" fill="rgb(12,12,255)"  stroke="rgb(12,12,255)" stroke-width="1" font-size="13" >2</text>
<text x="395.937500" y="55.394297" fill="rgb(255,12,12)"  stroke="rgb(255,12,12)" stroke-width="1" font-size="16" >OH</text>
<text x="299.212204" y="55.544504" fill="rgb(255,12,12)"  stroke="rgb(255,12,12)" stroke-width="1" font-size="16" >HO</text>
<text x="238.458391" y="186.707487" fill="rgb(255,127,0)"  stroke="rgb(255,127,0)" stroke-width="1" font-size="16" >P</text>
<text x="230.264805" y="225.829317" fill="rgb(255,12,12)"  stroke="rgb(255,12,12)" stroke-width="1" font-size="16" >O</text>
<text x="246.296740" y="151.861540" fill="rgb(255,12,12)"  stroke="rgb(255,12,12)" stroke-width="1" font-size="16" >O</text>
</svg>
</g>
<text text-anchor="middle" font-size="2.000000" fill ="black" font-family="sans-serif"
x="83.333333" y="32.333333" >CHEMBL4065616</text>
<g transform="translate(66.666667,0.000000)">
<svg width="33.333333" height="33.333333" x="0" y="0" viewBox="0 0 674.277149 298.111916"
font-family="sans-serif" stroke="rgb(0,0,0)" stroke-width="2.000000" >
<polygon points="301.256909 142.951532 311.572047 133.166855 304.655852 129.146129 " />
<line x1="326.9" y1="147.0" x2="317.4" y2="130.3"/>
<line x1="332.1" y1="144.0" x2="322.6" y2="127.3"/>
<polygon points="514.037782 143.106296 488.650457 111.656658 482.953408 117.273030 " />
<line x1="480.8" y1="53.6" x2="481.5" y2="53.9"/>
<line x1="479.2" y1="57.3" x2="480.7" y2="57.8"/>
<line x1="477.6" y1="61.0" x2="479.8" y2="61.8"/>
<line x1="476.0" y1="64.7" x2="479.0" y2="65.7"/>
<line x1="474.4" y1="68.4" x2="478.2" y2="69.6"/>
<line x1="472.7" y1="72.1" x2="477.3" y2="73.6"/>
<line x1="471.1" y1="75.8" x2="476.5" y2="77.5"/>
<line x1="424.9" y1="54.0" x2="425.6" y2="53.8"/>
<line x1="425.8" y1="57.9" x2="427.3" y2="57.4"/>
<line x1="426.7" y1="61.9" x2="429.0" y2="61.1"/>
<line x1="427.6" y1="65.8" x2="430.6" y2="64.8"/>
<line x1="428.5" y1="69.7" x2="432.3" y2="68.4"/>
<line x1="429.4" y1="73.6" x2="433.9" y2="72.1"/>
<line x1="430.3" y1="77.6" x2="435.6" y2="75.8"/>
<polygon points="383.594805 127.893732 422.340570 119.842646 419.929619 112.214585 " />
<line x1="485.8" y1="114.5" x2="520.5" y2="94.3"/>
<line x1="520.5" y1="94.3" x2="546.2" y2="79.5"/>
<line x1="518.4" y1="90.7" x2="544.1" y2="75.9"/>
<line x1="522.6" y1="97.9" x2="548.3" y2="83.2"/>
<line x1="612.3" y1="175.1" x2="625.7" y2="201.6"/>
<line x1="383.6" y1="127.9" x2="359.8" y2="110.2"/>
<line x1="341.9" y1="108.0" x2="324.3" y2="115.6"/>
<line x1="306.4" y1="113.5" x2="291.1" y2="102.0"/>
<line x1="273.2" y1="99.9" x2="246.1" y2="111.6"/>
<line x1="246.1" y1="111.6" x2="214.1" y2="87.7"/>
<line x1="243.5" y1="137.0" x2="242.7" y2="137.0"/>
<line x1="244.4" y1="133.1" x2="242.8" y2="132.9"/>
<line x1="245.2" y1="129.2" x2="242.8" y2="128.9"/>
<line x1="246.1" y1="125.3" x2="242.9" y2="124.9"/>
<line x1="246.9" y1="121.4" x2="243.0" y2="120.9"/>
<line x1="247.8" y1="117.4" x2="243.0" y2="116.9"/>
<line x1="248.7" y1="113.5" x2="243.1" y2="112.9"/>
<line x1="214.1" y1="87.7" x2="186.9" y2="99.4"/>
<line x1="211.1" y1="87.4" x2="214.5" y2="58.0"/>
<line x1="217.0" y1="88.1" x2="220.5" y2="58.7"/>
<line x1="169.1" y1="97.3" x2="145.4" y2="79.7"/>
<line x1="145.4" y1="79.7" x2="108.7" y2="95.4"/>
<line x1="108.7" y1="95.4" x2="76.7" y2="71.6"/>
<line x1="108.7" y1="95.4" x2="104.0" y2="135.1"/>
<line x1="76.7" y1="71.6" x2="49.5" y2="83.2"/>
<line x1="104.0" y1="135.1" x2="76.9" y2="146.8"/>
<line x1="299.8" y1="163.4" x2="314.5" y2="189.0"/>
<line x1="444.7" y1="132.9" x2="421.1" y2="116.0"/>
<line x1="421.1" y1="116.0" x2="433.5" y2="78.2"/>
<line x1="433.5" y1="78.2" x2="473.3" y2="78.2"/>
<line x1="473.3" y1="78.2" x2="485.8" y2="114.5"/>
<line x1="485.8" y1="114.5" x2="461.6" y2="132.5"/>
<line x1="514.0" y1="143.1" x2="543.4" y2="138.4"/>
<line x1="558.5" y1="146.1" x2="572.1" y2="172.7"/>
<line x1="572.1" y1="172.7" x2="543.5" y2="201.2"/>
<line x1="562.8" y1="171.9" x2="542.7" y2="191.9"/>
<line x1="543.5" y1="201.2" x2="507.6" y2="182.9"/>
<line x1="507.6" y1="182.9" x2="514.0" y2="143.1"/>
<line x1="515.7" y1="178.1" x2="520.2" y2="150.2"/>
<line x1="628.6" y1="149.9" x2="612.3" y2="175.1"/>
<line x1="621.5" y1="147.7" x2="609.5" y2="166.2"/>
<line x1="612.3" y1="175.1" x2="572.1" y2="172.7"/>
<line x1="559.4" y1="128.0" x2="570.0" y2="111.9"/>
<line x1="586.2" y1="103.7" x2="616.1" y2="105.2"/>
<line x1="587.8" y1="111.0" x2="609.7" y2="112.1"/>
<line x1="616.1" y1="105.2" x2="629.5" y2="131.8"/>
<line x1="314.5" y1="189.0" x2="354.4" y2="188.9"/>
<line x1="320.5" y1="196.2" x2="348.4" y2="196.2"/>
<line x1="354.4" y1="188.9" x2="374.3" y2="223.5"/>
<line x1="374.3" y1="223.5" x2="354.2" y2="258.1"/>
<line x1="365.0" y1="225.1" x2="351.0" y2="249.3"/>
<line x1="354.2" y1="258.1" x2="314.1" y2="257.9"/>
<line x1="314.1" y1="257.9" x2="294.4" y2="223.2"/>
<line x1="317.3" y1="249.1" x2="303.6" y2="224.9"/>
<line x1="294.4" y1="223.2" x2="314.5" y2="189.0"/>
<text x="291.001547" y="159.199658" fill="rgb(255,12,12)"  stroke="rgb(255,12,12)" stroke-width="1" font-size="16" >O</text>
<text x="311.169312" y="128.028365" fill="rgb(255,127,0)"  stroke="rgb(255,127,0)" stroke-width="1" font-size="16" >P</text>
<text x="328.731833" y="159.321828" fill="rgb(255,12,12)"  stroke="rgb(255,12,12)" stroke-width="1" font-size="16" >O</text>
<text x="449.445807" y="143.615698" fill="rgb(255,12,12)"  stroke="rgb(255,12,12)" stroke-width="1" font-size="16" >O</text>
<text x="479.567367" y="48.320000" fill="rgb(255,12,12)"  stroke="rgb(255,12,12)" stroke-width="1" font-size="16" >OH</text>
<text x="405.061076" y="48.520358" fill="rgb(255,12,12)"  stroke="rgb(255,12,12)" stroke-width="1" font-size="16" >HO</text>
<text x="550.113597" y="145.009946" fill="rgb(12,12,255)"  stroke="rgb(12,12,255)" stroke-width="1" font-size="16" >N</text>
<text x="572.148114" y="111.506142" fill="rgb(12,12,255)"  stroke="rgb(12,12,255)" stroke-width="1" font-size="16" >N</text>
<text x="628.277149" y="145.902714" fill="rgb(12,12,255)"  stroke="rgb(12,12,255)" stroke-width="1" font-size="16" >N</text>
<text x="549.184519" y="82.649671" fill="rgb(12,12,255)"  stroke="rgb(12,12,255)" stroke-width="1" font-size="16" >N</text>
<text x="624.367720" y="215.744658" fill="rgb(12,12,255)"  stroke="rgb(12,12,255)" stroke-width="1" font-size="16" >NH</text>
<text x="648.367720" y="220.544658" fill="rgb(12,12,255)"  stroke="rgb(12,12,255)" stroke-width="1" font-size="13" >2</text>
<text x="345.454414" y="112.244047" fill="rgb(255,12,12)"  stroke="rgb(255,12,12)" stroke-width="1" font-size="16" >O</text>
<text x="276.760864" y="104.151529" fill="rgb(12,12,255)"  stroke="rgb(12,12,255)" stroke-width="1" font-size="16" >NH</text>
<text x="217.808882" y="156.077002" fill="rgb(102,102,102)"  stroke="rgb(102,102,102)" stroke-width="1" font-size="16" >H</text>
<text x="229.808882" y="160.877002" fill="rgb(102,102,102)"  stroke="rgb(102,102,102)" stroke-width="1" font-size="13" >3</text>
<text x="236.308882" y="156.077002" fill="rgb(102,102,102)"  stroke="rgb(102,102,102)" stroke-width="1" font-size="16" >C</text>
<text x="173.787099" y="108.328217" fill="rgb(255,12,12)"  stroke="rgb(255,12,12)" stroke-width="1" font-size="16" >O</text>
<text x="212.739082" y="56.402744" fill="rgb(255,12,12)"  stroke="rgb(255,12,12)" stroke-width="1" font-size="16" >O</text>
<text x="16.400000" y="92.143182" fill="rgb(102,102,102)"  stroke="rgb(102,102,102)" stroke-width="1" font-size="16" >H</text>
<text x="28.400000" y="96.943182" fill="rgb(102,102,102)"  stroke="rgb(102,102,102)" stroke-width="1" font-size="13" >3</text>
<text x="34.900000" y="92.143182" fill="rgb(102,102,102)"  stroke="rgb(102,102,102)" stroke-width="1" font-size="16" >C</text>
<text x="43.736680" y="155.681173" fill="rgb(102,102,102)"  stroke="rgb(102,102,102)" stroke-width="1" font-size="16" >H</text>
<text x="55.736680" y="160.481173" fill="rgb(102,102,102)"  stroke="rgb(102,102,102)" stroke-width="1" font-size="13" >3</text>
<text x="62.236680" y="155.681173" fill="rgb(102,102,102)"  stroke="rgb(102,102,102)" stroke-width="1" font-size="16" >C</text>
</svg>
</g>
<text text-anchor="middle" font-size="2.000000" fill ="black" font-family="sans-serif"
x="16.666667" y="65.666667" >CHEMBL4061258</text>
<g transform="translate(0.000000,33.333333)">
<svg width="33.333333" height="33.333333" x="0" y="0" viewBox="0 0 567.178092 286.693802"
font-family="sans-serif" stroke="rgb(0,0,0)" stroke-width="2.000000" >
<line x1="203.2" y1="160.2" x2="177.3" y2="174.7"/>
<line x1="177.4" y1="200.3" x2="176.6" y2="200.3"/>
<line x1="177.9" y1="196.3" x2="176.3" y2="196.3"/>
<line x1="178.3" y1="192.3" x2="175.9" y2="192.3"/>
<line x1="178.8" y1="188.3" x2="175.6" y2="188.3"/>
<line x1="179.2" y1="184.3" x2="175.2" y2="184.3"/>
<line x1="179.6" y1="180.3" x2="174.8" y2="180.3"/>
<line x1="180.1" y1="176.3" x2="174.5" y2="176.3"/>
<line x1="177.3" y1="174.7" x2="143.0" y2="154.2"/>
<line x1="143.0" y1="154.2" x2="117.2" y2="168.7"/>
<line x1="140.0" y1="154.2" x2="140.4" y2="124.6"/>
<line x1="146.0" y1="154.3" x2="146.4" y2="124.7"/>
<line x1="99.2" y1="168.4" x2="73.8" y2="153.3"/>
<line x1="73.8" y1="153.3" x2="74.3" y2="113.3"/>
<line x1="74.3" y1="113.3" x2="40.0" y2="92.8"/>
<line x1="40.0" y1="92.8" x2="40.4" y2="63.2"/>
<line x1="74.3" y1="113.3" x2="109.2" y2="93.8"/>
<line x1="109.2" y1="93.8" x2="109.7" y2="64.2"/>
<line x1="282.2" y1="159.2" x2="288.3" y2="130.2"/>
<polygon points="288.255466 130.217447 327.473778 121.609720 324.988828 114.005443 " />
<line x1="391.0" y1="117.5" x2="427.5" y2="101.1"/>
<line x1="427.5" y1="101.1" x2="454.5" y2="88.9"/>
<line x1="425.8" y1="97.2" x2="452.8" y2="85.1"/>
<line x1="429.2" y1="104.9" x2="456.2" y2="92.8"/>
<polygon points="411.099085 152.144289 394.454422 115.471316 387.534038 119.484830 " />
<line x1="497.5" y1="207.6" x2="503.8" y2="236.5"/>
<line x1="393.2" y1="58.5" x2="393.9" y2="59.0"/>
<line x1="390.5" y1="61.5" x2="391.8" y2="62.5"/>
<line x1="387.9" y1="64.5" x2="389.8" y2="65.9"/>
<line x1="385.2" y1="67.5" x2="387.8" y2="69.4"/>
<line x1="382.6" y1="70.5" x2="385.8" y2="72.9"/>
<line x1="379.9" y1="73.6" x2="383.8" y2="76.4"/>
<line x1="377.2" y1="76.6" x2="381.8" y2="79.8"/>
<line x1="323.0" y1="59.1" x2="323.7" y2="58.6"/>
<line x1="325.1" y1="62.6" x2="326.4" y2="61.6"/>
<line x1="327.1" y1="66.0" x2="329.0" y2="64.6"/>
<line x1="329.2" y1="69.5" x2="331.7" y2="67.6"/>
<line x1="331.2" y1="73.0" x2="334.4" y2="70.6"/>
<line x1="333.2" y1="76.4" x2="337.1" y2="73.6"/>
<line x1="335.3" y1="79.9" x2="339.8" y2="76.6"/>
<line x1="270.2" y1="172.7" x2="251.9" y2="178.7"/>
<line x1="242.9" y1="192.7" x2="238.9" y2="211.5"/>
<line x1="237.0" y1="191.5" x2="233.1" y2="210.2"/>
<polygon points="222.101044 163.959344 229.556464 176.037161 234.903796 170.086864 " />
<line x1="244.7" y1="171.9" x2="249.6" y2="153.5"/>
<line x1="247.0" y1="134.6" x2="232.1" y2="109.0"/>
<line x1="395.0" y1="188.6" x2="411.1" y2="152.1"/>
<line x1="404.0" y1="186.1" x2="415.3" y2="160.5"/>
<line x1="411.1" y1="152.1" x2="440.5" y2="155.2"/>
<line x1="453.1" y1="166.4" x2="459.4" y2="195.3"/>
<line x1="459.4" y1="195.3" x2="424.8" y2="215.4"/>
<line x1="450.6" y1="192.1" x2="426.3" y2="206.2"/>
<line x1="424.8" y1="215.4" x2="395.0" y2="188.6"/>
<line x1="326.2" y1="117.8" x2="338.5" y2="79.5"/>
<line x1="338.5" y1="79.5" x2="378.6" y2="79.5"/>
<line x1="378.6" y1="79.5" x2="391.0" y2="117.5"/>
<line x1="391.0" y1="117.5" x2="367.1" y2="135.0"/>
<line x1="350.2" y1="135.1" x2="326.2" y2="117.8"/>
<line x1="458.6" y1="149.2" x2="473.0" y2="136.4"/>
<line x1="490.6" y1="132.6" x2="518.8" y2="141.6"/>
<line x1="490.3" y1="140.1" x2="510.9" y2="146.7"/>
<line x1="518.8" y1="141.6" x2="525.0" y2="170.6"/>
<line x1="519.5" y1="187.7" x2="497.5" y2="207.6"/>
<line x1="513.1" y1="183.7" x2="497.1" y2="198.2"/>
<line x1="497.5" y1="207.6" x2="459.4" y2="195.3"/>
<line x1="232.1" y1="109.0" x2="192.1" y2="109.4"/>
<line x1="226.0" y1="101.9" x2="198.0" y2="102.1"/>
<line x1="192.1" y1="109.4" x2="171.9" y2="74.9"/>
<line x1="171.9" y1="74.9" x2="191.7" y2="40.1"/>
<line x1="181.1" y1="73.2" x2="195.0" y2="48.9"/>
<line x1="191.7" y1="40.1" x2="231.9" y2="40.0"/>
<line x1="231.9" y1="40.0" x2="251.9" y2="74.5"/>
<line x1="228.7" y1="48.8" x2="242.7" y2="72.9"/>
<line x1="251.9" y1="74.5" x2="232.1" y2="109.0"/>
<text x="206.269871" y="163.444402" fill="rgb(12,12,255)"  stroke="rgb(12,12,255)" stroke-width="1" font-size="16" >NH</text>
<text x="153.247724" y="219.458807" fill="rgb(102,102,102)"  stroke="rgb(102,102,102)" stroke-width="1" font-size="16" >H</text>
<text x="165.247724" y="224.258807" fill="rgb(102,102,102)"  stroke="rgb(102,102,102)" stroke-width="1" font-size="13" >3</text>
<text x="171.747724" y="219.458807" fill="rgb(102,102,102)"  stroke="rgb(102,102,102)" stroke-width="1" font-size="16" >C</text>
<text x="104.506468" y="178.541623" fill="rgb(255,12,12)"  stroke="rgb(255,12,12)" stroke-width="1" font-size="16" >O</text>
<text x="137.567381" y="122.595058" fill="rgb(255,12,12)"  stroke="rgb(255,12,12)" stroke-width="1" font-size="16" >O</text>
<text x="34.571794" y="61.170826" fill="rgb(102,102,102)"  stroke="rgb(102,102,102)" stroke-width="1" font-size="16" >CH</text>
<text x="58.571794" y="68.850826" fill="rgb(102,102,102)"  stroke="rgb(102,102,102)" stroke-width="1" font-size="13" >3</text>
<text x="103.802467" y="62.154505" fill="rgb(102,102,102)"  stroke="rgb(102,102,102)" stroke-width="1" font-size="16" >CH</text>
<text x="127.802467" y="69.834505" fill="rgb(102,102,102)"  stroke="rgb(102,102,102)" stroke-width="1" font-size="13" >3</text>
<text x="274.041985" y="174.233786" fill="rgb(255,12,12)"  stroke="rgb(255,12,12)" stroke-width="1" font-size="16" >O</text>
<text x="352.668492" y="145.963908" fill="rgb(255,12,12)"  stroke="rgb(255,12,12)" stroke-width="1" font-size="16" >O</text>
<text x="458.014249" y="92.982918" fill="rgb(12,12,255)"  stroke="rgb(12,12,255)" stroke-width="1" font-size="16" >N</text>
<text x="444.858144" y="164.539532" fill="rgb(12,12,255)"  stroke="rgb(12,12,255)" stroke-width="1" font-size="16" >N</text>
<text x="477.141643" y="137.728214" fill="rgb(12,12,255)"  stroke="rgb(12,12,255)" stroke-width="1" font-size="16" >N</text>
<text x="521.178092" y="185.519447" fill="rgb(12,12,255)"  stroke="rgb(12,12,255)" stroke-width="1" font-size="16" >N</text>
<text x="500.070175" y="251.493802" fill="rgb(12,12,255)"  stroke="rgb(12,12,255)" stroke-width="1" font-size="16" >NH</text>
<text x="524.070175" y="256.293802" fill="rgb(12,12,255)"  stroke="rgb(12,12,255)" stroke-width="1" font-size="13" >2</text>
<text x="395.940691" y="55.389892" fill="rgb(255,12,12)"  stroke="rgb(255,12,12)" stroke-width="1" font-size="16" >OH</text>
<text x="299.214807" y="55.544955" fill="rgb(255,12,12)"  stroke="rgb(255,12,12)" stroke-width="1" font-size="16" >HO</text>
<text x="238.461303" y="186.696955" fill="rgb(255,127,0)"  stroke="rgb(255,127,0)" stroke-width="1" font-size="16" >P</text>
<text x="230.267205" y="225.826071" fill="rgb(255,12,12)"  stroke="rgb(255,12,12)" stroke-width="1" font-size="16" >O</text>
<text x="246.295444" y="151.858307" fill="rgb(255,12,12)"  stroke="rgb(255,12,12)" stroke-width="1" font-size="16" >O</text>
</svg>
</g>
<text text-anchor="middle" font-size="2.000000" fill ="black" font-family="sans-serif"
x="50.000000" y="65.666667" >CHEMBL4090912</text>
<g transform="translate(33.333333,33.333333)">
<svg width="33.333333" height="33.333333" x="0" y="0" viewBox="0 0 637.539286 286.695057"
font-family="sans-serif" stroke="rgb(0,0,0)" stroke-width="2.000000" >
<line x1="273.5" y1="160.2" x2="247.7" y2="174.7"/>
<polygon points="247.358941 201.472609 251.673574 174.752323 243.674127 174.658212 " />
<line x1="247.7" y1="174.7" x2="213.4" y2="154.2"/>
<line x1="213.4" y1="154.2" x2="187.5" y2="168.7"/>
<line x1="210.4" y1="154.2" x2="210.8" y2="124.6"/>
<line x1="216.4" y1="154.3" x2="216.8" y2="124.7"/>
<line x1="169.5" y1="168.4" x2="144.1" y2="153.3"/>
<line x1="352.5" y1="159.2" x2="358.6" y2="130.2"/>
<polygon points="358.621566 130.218610 397.838767 121.606401 395.352940 114.002410 " />
<line x1="461.4" y1="117.5" x2="497.9" y2="101.1"/>
<line x1="497.9" y1="101.1" x2="524.9" y2="88.9"/>
<line x1="496.1" y1="97.2" x2="523.2" y2="85.1"/>
<line x1="499.6" y1="104.9" x2="526.6" y2="92.8"/>
<polygon points="481.460172 152.144558 464.816451 115.468364 457.895824 119.481457 " />
<line x1="567.9" y1="207.6" x2="574.2" y2="236.5"/>
<line x1="463.6" y1="58.5" x2="464.2" y2="59.0"/>
<line x1="460.9" y1="61.5" x2="462.2" y2="62.5"/>
<line x1="458.2" y1="64.5" x2="460.2" y2="65.9"/>
<line x1="455.6" y1="67.5" x2="458.2" y2="69.4"/>
<line x1="452.9" y1="70.6" x2="456.2" y2="72.9"/>
<line x1="450.3" y1="73.6" x2="454.2" y2="76.4"/>
<line x1="447.6" y1="76.6" x2="452.1" y2="79.8"/>
<line x1="393.4" y1="59.1" x2="394.0" y2="58.6"/>
<line x1="395.4" y1="62.6" x2="396.7" y2="61.6"/>
<line x1="397.5" y1="66.0" x2="399.4" y2="64.6"/>
<line x1="399.5" y1="69.5" x2="402.1" y2="67.6"/>
<line x1="401.6" y1="73.0" x2="404.8" y2="70.6"/>
<line x1="403.6" y1="76.4" x2="407.5" y2="73.6"/>
<line x1="405.7" y1="79.9" x2="410.2" y2="76.6"/>
<line x1="340.5" y1="172.7" x2="322.3" y2="178.7"/>
<line x1="313.2" y1="192.7" x2="309.3" y2="211.5"/>
<line x1="307.4" y1="191.5" x2="303.4" y2="210.2"/>
<line x1="304.7" y1="174.9" x2="290.4" y2="162.1"/>
<line x1="315.1" y1="171.9" x2="320.0" y2="153.5"/>
<line x1="317.4" y1="134.6" x2="302.5" y2="109.0"/>
<line x1="144.1" y1="153.3" x2="109.2" y2="172.8"/>
<line x1="109.2" y1="172.8" x2="74.9" y2="152.3"/>
<line x1="109.2" y1="172.8" x2="108.7" y2="212.7"/>
<line x1="74.9" y1="152.3" x2="49.1" y2="166.7"/>
<line x1="108.7" y1="212.7" x2="82.8" y2="227.2"/>
<line x1="465.4" y1="188.6" x2="481.5" y2="152.1"/>
<line x1="474.4" y1="186.1" x2="485.6" y2="160.5"/>
<line x1="481.5" y1="152.1" x2="510.9" y2="155.2"/>
<line x1="523.5" y1="166.4" x2="529.8" y2="195.3"/>
<line x1="529.8" y1="195.3" x2="495.1" y2="215.5"/>
<line x1="521.0" y1="192.1" x2="496.7" y2="206.2"/>
<line x1="495.1" y1="215.5" x2="465.4" y2="188.6"/>
<line x1="396.6" y1="117.8" x2="408.9" y2="79.5"/>
<line x1="408.9" y1="79.5" x2="448.9" y2="79.5"/>
<line x1="448.9" y1="79.5" x2="461.4" y2="117.5"/>
<line x1="461.4" y1="117.5" x2="437.4" y2="135.0"/>
<line x1="420.6" y1="135.1" x2="396.6" y2="117.8"/>
<line x1="529.0" y1="149.2" x2="543.3" y2="136.4"/>
<line x1="561.0" y1="132.6" x2="589.2" y2="141.6"/>
<line x1="560.7" y1="140.1" x2="581.2" y2="146.7"/>
<line x1="589.2" y1="141.6" x2="595.4" y2="170.6"/>
<line x1="589.8" y1="187.7" x2="567.9" y2="207.6"/>
<line x1="583.5" y1="183.7" x2="567.5" y2="198.2"/>
<line x1="567.9" y1="207.6" x2="529.8" y2="195.3"/>
<line x1="302.5" y1="109.0" x2="262.4" y2="109.4"/>
<line x1="296.4" y1="101.9" x2="268.4" y2="102.1"/>
<line x1="262.4" y1="109.4" x2="242.2" y2="74.9"/>
<line x1="242.2" y1="74.9" x2="262.0" y2="40.1"/>
<line x1="251.5" y1="73.2" x2="265.3" y2="48.9"/>
<line x1="262.0" y1="40.1" x2="302.2" y2="40.0"/>
<line x1="302.2" y1="40.0" x2="322.3" y2="74.5"/>
<line x1="299.0" y1="48.8" x2="313.0" y2="72.9"/>
<line x1="322.3" y1="74.5" x2="302.5" y2="109.0"/>
<text x="276.634228" y="163.444548" fill="rgb(12,12,255)"  stroke="rgb(12,12,255)" stroke-width="1" font-size="16" >NH</text>
<text x="223.603836" y="219.456524" fill="rgb(102,102,102)"  stroke="rgb(102,102,102)" stroke-width="1" font-size="16" >H</text>
<text x="235.603836" y="224.256524" fill="rgb(102,102,102)"  stroke="rgb(102,102,102)" stroke-width="1" font-size="13" >3</text>
<text x="242.103836" y="219.456524" fill="rgb(102,102,102)"  stroke="rgb(102,102,102)" stroke-width="1" font-size="16" >C</text>
<text x="174.860540" y="178.545856" fill="rgb(255,12,12)"  stroke="rgb(255,12,12)" stroke-width="1" font-size="16" >O</text>
<text x="207.929697" y="122.596872" fill="rgb(255,12,12)"  stroke="rgb(255,12,12)" stroke-width="1" font-size="16" >O</text>
<text x="344.403576" y="174.233349" fill="rgb(255,12,12)"  stroke="rgb(255,12,12)" stroke-width="1" font-size="16" >O</text>
<text x="423.026873" y="145.964625" fill="rgb(255,12,12)"  stroke="rgb(255,12,12)" stroke-width="1" font-size="16" >O</text>
<text x="528.378021" y="92.985941" fill="rgb(12,12,255)"  stroke="rgb(12,12,255)" stroke-width="1" font-size="16" >N</text>
<text x="515.227299" y="164.539634" fill="rgb(12,12,255)"  stroke="rgb(12,12,255)" stroke-width="1" font-size="16" >N</text>
<text x="547.504733" y="137.729410" fill="rgb(12,12,255)"  stroke="rgb(12,12,255)" stroke-width="1" font-size="16" >N</text>
<text x="591.539286" y="185.513703" fill="rgb(12,12,255)"  stroke="rgb(12,12,255)" stroke-width="1" font-size="16" >N</text>
<text x="570.437076" y="251.495057" fill="rgb(12,12,255)"  stroke="rgb(12,12,255)" stroke-width="1" font-size="16" >NH</text>
<text x="594.437076" y="256.295057" fill="rgb(12,12,255)"  stroke="rgb(12,12,255)" stroke-width="1" font-size="13" >2</text>
<text x="466.297306" y="55.384758" fill="rgb(255,12,12)"  stroke="rgb(255,12,12)" stroke-width="1" font-size="16" >OH</text>
<text x="369.579824" y="55.539815" fill="rgb(255,12,12)"  stroke="rgb(255,12,12)" stroke-width="1" font-size="16" >HO</text>
<text x="308.824443" y="186.696009" fill="rgb(255,127,0)"  stroke="rgb(255,127,0)" stroke-width="1" font-size="16" >P</text>
<text x="300.630681" y="225.823528" fill="rgb(255,12,12)"  stroke="rgb(255,12,12)" stroke-width="1" font-size="16" >O</text>
<text x="316.663013" y="151.854081" fill="rgb(255,12,12)"  stroke="rgb(255,12,12)" stroke-width="1" font-size="16" >O</text>
<text x="16.400000" y="176.583423" fill="rgb(102,102,102)"  stroke="rgb(102,102,102)" stroke-width="1" font-size="16" >H</text>
<text x="28.400000" y="181.383423" fill="rgb(102,102,102)"  stroke="rgb(102,102,102)" stroke-width="1" font-size="13" >3</text>
<text x="34.900000" y="176.583423" fill="rgb(102,102,102)"  stroke="rgb(102,102,102)" stroke-width="1" font-size="16" >C</text>
<text x="50.168382" y="237.031200" fill="rgb(102,102,102)"  stroke="rgb(102,102,102)" stroke-width="1" font-size="16" >H</text>
<text x="62.168382" y="241.831200" fill="rgb(102,102,102)"  stroke="rgb(102,102,102)" stroke-width="1" font-size="13" >3</text>
<text x="68.668382" y="237.031200" fill="rgb(102,102,102)"  stroke="rgb(102,102,102)" stroke-width="1" font-size="16" >C</text>
</svg>
</g>
<script type="text/ecmascript">
  <![CDATA[
    addEventListener('DOMMouseScroll', wheel, false);
    onmousewheel = wheel;
    var svgEl = document.getElementById("topsvg");
    var startx=0;
    var starty=0;
    function wheel(evt){
      evt = evt ? evt : window.event;
      var normal = evt.detail ? evt.detail * -1 : evt.wheelDelta / 40;
      var vb = new Array(4);
      var vbtext = svgEl.getAttributeNS(null,"viewBox");
      vb = vbtext.split(" ");
      var zoom = (normal<0)? 1.41 : 0.71;
      //var dwidth = parseFloat(Math.max(vb[2],vb[3])) * (1-zoom);
      vb[0] = parseFloat(vb[0]) + parseFloat(vb[2])*(1-zoom) * evt.clientX/innerWidth;
      vb[1] = parseFloat(vb[1]) + parseFloat(vb[3])*(1-zoom) * evt.clientY/innerHeight;
      vb[2] = parseFloat(vb[2]) * zoom;
      vb[3] = parseFloat(vb[3]) * zoom;
      svgEl.setAttributeNS(null, "viewBox", vb.join(" "));
    }
    onmousedown = function(evt) {
      startx = evt.clientX;
      starty = evt.clientY;
    }
    onmousemove=function(evt) {
      if(startx!=0 && starty!=0 
        && ((evt.clientX - startx)*(evt.clientX - startx)+(evt.clientY - starty)*(evt.clientY - starty)>100))
      {
        var vbtext = svgEl.getAttributeNS(null,"viewBox");
        vb = vbtext.split(" ");
        var maxwh = Math.max(parseFloat(vb[2]),parseFloat(vb[3]));
        vb[0] = parseFloat(vb[0]) - (evt.clientX - startx)*maxwh/innerWidth;
        vb[1] = parseFloat(vb[1]) - (evt.clientY - starty)*maxwh/innerHeight;
        svgEl.setAttributeNS(null, "viewBox", vb.join(" "));
        startx = evt.clientX;
        starty = evt.clientY;
      }
    } 
    onmouseup=function() {
      startx=0;
      starty=0;
   }
  ]]>
</script>
</svg>

